<?xml version="1.0" encoding="utf-8"?>
<!-- Generator: Adobe Illustrator 16.0.3, SVG Export Plug-In . SVG Version: 6.00 Build 0)  -->
<!DOCTYPE svg PUBLIC "-//W3C//DTD SVG 1.1//EN" "http://www.w3.org/Graphics/SVG/1.1/DTD/svg11.dtd">
<svg version="1.1" id="Layer_1" xmlns="http://www.w3.org/2000/svg" xmlns:xlink="http://www.w3.org/1999/xlink" x="0px" y="0px"
	 width="310px" height="85.167px" viewBox="0 0 310 85.167" enable-background="new 0 0 310 85.167" xml:space="preserve">
<g>
	<path d="M16.36,41.02H8.093l-0.83,2.076h0.83c0.819,0,1.403,0.156,1.751,0.473c0.349,0.314,0.523,0.729,0.523,1.236
		c0,0.498-0.174,0.904-0.523,1.221c-0.349,0.314-0.933,0.473-1.751,0.473H3.511c-0.819,0-1.403-0.158-1.751-0.473
		c-0.349-0.316-0.523-0.729-0.523-1.236c0-0.51,0.183-0.924,0.548-1.246c0.365-0.32,0.968-0.47,1.81-0.447L8.939,29.78H6.715
		c-0.819,0-1.403-0.157-1.751-0.474C4.615,28.992,4.44,28.579,4.44,28.07s0.174-0.922,0.523-1.236
		c0.349-0.316,0.932-0.474,1.751-0.474l7.354,0.017l6.773,16.718c0.797,0,1.322,0.088,1.577,0.266
		c0.509,0.365,0.764,0.846,0.764,1.443c0,0.498-0.172,0.904-0.515,1.221c-0.343,0.314-0.924,0.473-1.743,0.473h-4.582
		c-0.819,0-1.403-0.158-1.751-0.473c-0.349-0.316-0.523-0.729-0.523-1.236c0-0.498,0.174-0.906,0.523-1.221
		c0.349-0.316,0.932-0.473,1.751-0.473h0.83L16.36,41.02z M14.949,37.616l-2.739-6.74l-2.756,6.74H14.949z"/>
	<path d="M37.909,32.038c0.409-0.388,0.83-0.581,1.262-0.581c0.487,0,0.888,0.174,1.204,0.523c0.315,0.348,0.473,0.927,0.473,1.734
		v2.191c0,0.819-0.158,1.4-0.473,1.743s-0.728,0.515-1.237,0.515c-0.465,0-0.858-0.133-1.179-0.398
		c-0.232-0.199-0.415-0.605-0.548-1.221c-0.133-0.613-0.454-1.07-0.963-1.369c-0.896-0.531-2.042-0.797-3.437-0.797
		c-1.605,0-2.892,0.471-3.86,1.411c-0.969,0.94-1.453,2.131-1.453,3.569c0,1.328,0.465,2.377,1.395,3.146
		c0.93,0.769,2.474,1.154,4.632,1.154c1.417,0,2.573-0.145,3.47-0.432c0.531-0.177,1.035-0.479,1.511-0.906
		c0.476-0.426,0.907-0.639,1.295-0.639c0.465,0,0.866,0.172,1.204,0.515c0.337,0.343,0.506,0.747,0.506,1.211
		c0,0.754-0.515,1.467-1.544,2.143c-1.527,1.006-3.763,1.51-6.707,1.51c-2.646,0-4.704-0.547-6.176-1.643
		c-1.992-1.473-2.988-3.487-2.988-6.043c0-2.424,0.808-4.43,2.424-6.019c1.616-1.588,3.724-2.382,6.325-2.382
		c0.94,0,1.815,0.089,2.623,0.266C36.476,31.418,37.223,31.684,37.909,32.038z"/>
	<path d="M52.17,34.827v6.823c0,0.73,0.149,1.212,0.448,1.445c0.465,0.365,1.295,0.547,2.49,0.547c1.737,0,3.342-0.371,4.814-1.112
		c0.564-0.288,1.007-0.432,1.328-0.432c0.442,0,0.827,0.166,1.154,0.498c0.326,0.332,0.49,0.737,0.49,1.211
		c0,0.443-0.177,0.824-0.531,1.146c-0.542,0.52-1.613,0.998-3.212,1.436c-1.6,0.438-2.947,0.656-4.042,0.656
		c-2.114,0-3.7-0.457-4.756-1.371c-1.057-0.912-1.585-2.033-1.585-3.361v-7.487h-1.229c-0.819,0-1.403-0.157-1.751-0.474
		c-0.349-0.314-0.523-0.728-0.523-1.236c0-0.498,0.174-0.904,0.523-1.221c0.349-0.314,0.932-0.473,1.751-0.473h1.229v-3.071
		c0-0.819,0.158-1.403,0.473-1.751c0.315-0.35,0.728-0.523,1.237-0.523c0.498,0,0.905,0.174,1.22,0.523
		c0.315,0.348,0.473,0.932,0.473,1.751v3.071h6.292c0.819,0,1.403,0.158,1.751,0.473c0.349,0.316,0.523,0.729,0.523,1.237
		c0,0.498-0.174,0.905-0.523,1.22c-0.349,0.316-0.933,0.474-1.751,0.474H52.17z"/>
	<path d="M75.097,31.424v11.671h4.084c0.819,0,1.403,0.156,1.751,0.473c0.349,0.314,0.523,0.729,0.523,1.236
		c0,0.498-0.174,0.904-0.523,1.221c-0.349,0.314-0.933,0.473-1.751,0.473H67.609c-0.819,0-1.403-0.158-1.751-0.473
		c-0.349-0.316-0.523-0.729-0.523-1.236c0-0.498,0.174-0.906,0.523-1.221c0.349-0.316,0.932-0.473,1.751-0.473h4.084v-8.268h-2.739
		c-0.808,0-1.389-0.157-1.743-0.474c-0.354-0.314-0.531-0.728-0.531-1.236c0-0.498,0.174-0.904,0.523-1.221
		c0.349-0.314,0.932-0.473,1.751-0.473H75.097z M74.632,24.966v3.603h-4.051v-3.603H74.632z"/>
	<path d="M102.655,39.243c0,1.306-0.363,2.57-1.087,3.794c-0.725,1.222-1.804,2.197-3.237,2.921
		c-1.434,0.725-2.93,1.088-4.491,1.088c-1.55,0-3.033-0.357-4.449-1.072c-1.417-0.713-2.496-1.684-3.237-2.913
		c-0.742-1.229-1.112-2.513-1.112-3.852c0-1.361,0.376-2.698,1.129-4.009c0.752-1.313,1.834-2.344,3.246-3.097
		s2.886-1.129,4.424-1.129c1.549,0,3.041,0.385,4.474,1.153c1.433,0.77,2.515,1.805,3.246,3.105
		C102.29,36.534,102.655,37.871,102.655,39.243z M99.252,39.26c0-1.096-0.393-2.103-1.179-3.021
		c-1.074-1.239-2.485-1.859-4.233-1.859c-1.539,0-2.822,0.492-3.852,1.478s-1.544,2.125-1.544,3.42c0,1.063,0.52,2.056,1.561,2.979
		c1.04,0.925,2.318,1.386,3.835,1.386c1.527,0,2.811-0.461,3.852-1.386C98.731,41.332,99.252,40.333,99.252,39.26z"/>
	<path d="M110.773,31.424v1.146c0.62-0.531,1.303-0.93,2.05-1.195s1.558-0.398,2.432-0.398c2.014,0,3.608,0.625,4.781,1.876
		c0.93,0.996,1.395,2.302,1.395,3.918v6.326c0.719,0,1.25,0.156,1.594,0.473c0.343,0.314,0.515,0.729,0.515,1.236
		c0,0.498-0.174,0.904-0.523,1.221c-0.349,0.314-0.933,0.473-1.751,0.473h-3.071c-0.819,0-1.403-0.158-1.751-0.473
		c-0.349-0.316-0.523-0.729-0.523-1.236c0-0.498,0.171-0.906,0.515-1.221c0.343-0.316,0.874-0.473,1.594-0.473V36.67
		c0-0.741-0.199-1.284-0.598-1.627c-0.521-0.442-1.301-0.664-2.341-0.664c-0.786,0-1.475,0.152-2.067,0.457
		c-0.592,0.304-1.342,0.948-2.25,1.934v6.326c0.874,0,1.438,0.082,1.693,0.248c0.542,0.332,0.813,0.82,0.813,1.461
		c0,0.498-0.174,0.904-0.523,1.221c-0.349,0.314-0.933,0.473-1.751,0.473h-3.868c-0.819,0-1.403-0.158-1.751-0.473
		c-0.349-0.316-0.523-0.729-0.523-1.236c0-0.621,0.266-1.102,0.797-1.445c0.266-0.166,0.835-0.248,1.71-0.248v-8.268
		c-0.72,0-1.251-0.16-1.594-0.481c-0.343-0.321-0.515-0.73-0.515-1.229s0.174-0.904,0.523-1.221
		c0.349-0.314,0.932-0.473,1.751-0.473H110.773z"/>
	<path d="M153.605,29.78v13.315h7.338v-3.221c0-0.819,0.157-1.403,0.474-1.751c0.314-0.35,0.728-0.523,1.236-0.523
		c0.498,0,0.904,0.174,1.221,0.523c0.314,0.348,0.473,0.932,0.473,1.751v6.624h-16.12c-0.819,0-1.403-0.158-1.751-0.473
		c-0.349-0.316-0.523-0.729-0.523-1.236c0-0.498,0.174-0.906,0.523-1.221c0.349-0.316,0.932-0.473,1.751-0.473h1.976V29.78h-1.976
		c-0.819,0-1.403-0.157-1.751-0.474c-0.349-0.314-0.523-0.728-0.523-1.236s0.174-0.922,0.523-1.236
		c0.349-0.316,0.932-0.474,1.751-0.474l7.371,0.017c0.818,0,1.402,0.155,1.752,0.465c0.348,0.31,0.522,0.72,0.522,1.229
		s-0.175,0.922-0.522,1.236c-0.35,0.316-0.934,0.474-1.752,0.474H153.605z"/>
	<path d="M184.269,39.243c0,1.306-0.362,2.57-1.087,3.794c-0.726,1.222-1.805,2.197-3.238,2.921c-1.433,0.725-2.93,1.088-4.49,1.088
		c-1.55,0-3.032-0.357-4.449-1.072c-1.417-0.713-2.496-1.684-3.237-2.913c-0.741-1.229-1.112-2.513-1.112-3.852
		c0-1.361,0.376-2.698,1.129-4.009c0.753-1.313,1.834-2.344,3.246-3.097c1.41-0.753,2.886-1.129,4.424-1.129
		c1.55,0,3.041,0.385,4.475,1.153c1.433,0.77,2.515,1.805,3.245,3.105C183.903,36.534,184.269,37.871,184.269,39.243z
		 M180.865,39.26c0-1.096-0.393-2.103-1.179-3.021c-1.073-1.239-2.484-1.859-4.233-1.859c-1.538,0-2.822,0.492-3.852,1.478
		s-1.544,2.125-1.544,3.42c0,1.063,0.521,2.056,1.561,2.979c1.04,0.925,2.318,1.386,3.835,1.386c1.527,0,2.812-0.461,3.852-1.386
		C180.345,41.332,180.865,40.333,180.865,39.26z"/>
	<path d="M199.575,32.437v-1.013h3.984c0.819,0,1.402,0.158,1.752,0.473c0.348,0.316,0.522,0.729,0.522,1.237
		c0,0.498-0.175,0.905-0.522,1.22c-0.35,0.316-0.933,0.474-1.752,0.474h-0.581v12.385c0,1.195-0.252,2.238-0.755,3.129
		c-0.504,0.891-1.276,1.658-2.316,2.299c-1.04,0.643-2.214,0.963-3.52,0.963h-3.852c-0.819,0-1.402-0.158-1.752-0.473
		c-0.348-0.316-0.522-0.723-0.522-1.221c0-0.508,0.175-0.922,0.522-1.236c0.35-0.316,0.933-0.473,1.752-0.473h3.752
		c1.04,0,1.849-0.283,2.424-0.848s0.863-1.277,0.863-2.141v-1.66c-0.753,0.486-1.52,0.852-2.299,1.096
		c-0.781,0.242-1.58,0.365-2.399,0.365c-2.313,0-4.25-0.773-5.811-2.316c-1.561-1.545-2.341-3.451-2.341-5.719
		c0-2.28,0.78-4.192,2.341-5.735c1.561-1.545,3.497-2.316,5.811-2.316c0.863,0,1.685,0.125,2.466,0.373
		C198.122,31.549,198.867,31.928,199.575,32.437z M199.559,38.961c0-1.251-0.462-2.335-1.386-3.254
		c-0.925-0.919-2.034-1.378-3.329-1.378s-2.404,0.459-3.329,1.378c-0.924,0.919-1.386,2.003-1.386,3.254
		c0,1.262,0.462,2.35,1.386,3.262c0.925,0.914,2.034,1.371,3.329,1.371s2.404-0.457,3.329-1.371
		C199.097,41.311,199.559,40.223,199.559,38.961z"/>
</g>
</svg>
