<?xml version="1.0" encoding="utf-8"?>
<!-- Generator: Adobe Illustrator 16.0.3, SVG Export Plug-In . SVG Version: 6.00 Build 0)  -->
<!DOCTYPE svg PUBLIC "-//W3C//DTD SVG 1.1//EN" "http://www.w3.org/Graphics/SVG/1.1/DTD/svg11.dtd">
<svg version="1.1" id="Layer_1" xmlns="http://www.w3.org/2000/svg" xmlns:xlink="http://www.w3.org/1999/xlink" x="0px" y="0px"
	 width="310px" height="85.167px" viewBox="0 0 310 85.167" enable-background="new 0 0 310 85.167" xml:space="preserve">
<g enable-background="new    ">
	<path d="M3.254,43.094V29.78H2.723c-0.819,0-1.403-0.157-1.751-0.474c-0.349-0.314-0.523-0.728-0.523-1.236
		s0.174-0.922,0.523-1.236c0.349-0.316,0.932-0.474,1.751-0.474h8.533c2.036,0,3.674,0.567,4.914,1.702
		c1.239,1.134,1.859,2.481,1.859,4.042c0,0.741-0.144,1.438-0.432,2.092c-0.288,0.653-0.725,1.256-1.312,1.81
		c1.073,0.642,1.878,1.392,2.416,2.25c0.537,0.857,0.805,1.828,0.805,2.913c0,0.863-0.194,1.666-0.581,2.407
		c-0.288,0.564-0.642,1.013-1.063,1.345c-0.564,0.465-1.256,0.844-2.075,1.138c-0.819,0.293-1.843,0.439-3.071,0.439H2.723
		c-0.819,0-1.403-0.158-1.751-0.473c-0.349-0.316-0.523-0.729-0.523-1.237c0-0.498,0.177-0.905,0.531-1.22
		c0.354-0.316,0.935-0.474,1.743-0.474H3.254z M6.657,34.727h3.735c1.339,0,2.451-0.338,3.337-1.013
		c0.598-0.454,0.896-1.019,0.896-1.693c0-0.598-0.282-1.121-0.847-1.568c-0.564-0.449-1.461-0.673-2.689-0.673H6.657V34.727z
		 M6.657,43.094h5.877c1.383,0,2.357-0.205,2.922-0.614c0.432-0.31,0.647-0.753,0.647-1.328c0-0.687-0.426-1.361-1.278-2.025
		c-0.853-0.664-2.075-0.996-3.669-0.996H6.657V43.094z"/>
	<path d="M37.835,31.423v11.671c0.719,0,1.25,0.16,1.594,0.481c0.343,0.321,0.515,0.73,0.515,1.229s-0.174,0.904-0.523,1.221
		c-0.349,0.314-0.933,0.473-1.751,0.473h-3.237v-0.78c-0.974,0.442-1.904,0.774-2.789,0.996c-0.886,0.222-1.727,0.332-2.523,0.332
		c-1.118,0-2.086-0.235-2.905-0.706c-0.819-0.47-1.467-1.12-1.942-1.95c-0.343-0.598-0.515-1.345-0.515-2.241v-7.321h-0.581
		c-0.819,0-1.403-0.157-1.751-0.474c-0.349-0.314-0.523-0.728-0.523-1.236c0-0.498,0.174-0.904,0.523-1.221
		c0.349-0.314,0.932-0.473,1.751-0.473h3.984V41.55c0,0.72,0.174,1.248,0.523,1.586c0.349,0.337,0.882,0.506,1.602,0.506
		c0.686,0,1.425-0.136,2.216-0.406c0.791-0.271,1.768-0.762,2.93-1.47v-6.939h-1.229c-0.819,0-1.403-0.157-1.751-0.474
		c-0.349-0.314-0.523-0.728-0.523-1.236c0-0.498,0.174-0.904,0.523-1.221c0.349-0.314,0.932-0.473,1.751-0.473H37.835z"/>
	<path d="M52.693,31.423v11.671h4.084c0.819,0,1.403,0.157,1.751,0.474c0.349,0.314,0.523,0.728,0.523,1.236
		c0,0.498-0.174,0.904-0.523,1.221c-0.349,0.314-0.933,0.473-1.751,0.473H45.206c-0.819,0-1.403-0.158-1.751-0.473
		c-0.349-0.316-0.523-0.729-0.523-1.237c0-0.498,0.174-0.905,0.523-1.22c0.349-0.316,0.932-0.474,1.751-0.474h4.084v-8.268h-2.739
		c-0.808,0-1.389-0.157-1.743-0.474c-0.354-0.314-0.531-0.728-0.531-1.236c0-0.498,0.174-0.904,0.523-1.221
		c0.349-0.314,0.932-0.473,1.751-0.473H52.693z M52.229,24.965v3.603h-4.051v-3.603H52.229z"/>
	<path d="M73.113,24.965v18.129h4.084c0.819,0,1.403,0.157,1.751,0.474c0.349,0.314,0.523,0.728,0.523,1.236
		c0,0.498-0.174,0.904-0.523,1.221c-0.349,0.314-0.933,0.473-1.751,0.473H65.626c-0.819,0-1.403-0.158-1.751-0.473
		c-0.349-0.316-0.523-0.729-0.523-1.237c0-0.498,0.174-0.905,0.523-1.22c0.349-0.316,0.932-0.474,1.751-0.474h4.084V28.369h-2.739
		c-0.808,0-1.389-0.158-1.743-0.473c-0.354-0.316-0.531-0.729-0.531-1.237c0-0.498,0.174-0.905,0.523-1.22
		c0.349-0.316,0.932-0.474,1.751-0.474H73.113z"/>
	<path d="M99.626,24.965v18.129h0.581c0.808,0,1.389,0.157,1.743,0.474c0.354,0.314,0.531,0.728,0.531,1.236
		c0,0.498-0.174,0.904-0.523,1.221c-0.349,0.314-0.933,0.473-1.751,0.473h-3.984v-0.83c-0.775,0.454-1.585,0.797-2.432,1.029
		s-1.724,0.349-2.631,0.349c-2.557,0-4.615-0.739-6.176-2.216c-1.561-1.479-2.341-3.318-2.341-5.521
		c0-2.302,0.819-4.267,2.457-5.894c1.638-1.627,3.636-2.44,5.993-2.44c0.885,0,1.754,0.136,2.606,0.407
		c0.852,0.271,1.693,0.678,2.523,1.22v-4.233h-0.581c-0.819,0-1.403-0.158-1.751-0.473c-0.349-0.316-0.523-0.723-0.523-1.221
		c0-0.509,0.174-0.922,0.523-1.236c0.349-0.316,0.932-0.474,1.751-0.474H99.626z M96.223,39.409c0-1.405-0.493-2.596-1.478-3.569
		c-0.985-0.974-2.191-1.461-3.619-1.461c-1.417,0-2.618,0.487-3.603,1.461c-0.985,0.974-1.478,2.147-1.478,3.52
		c0,1.251,0.442,2.277,1.328,3.08c0.885,0.802,2.136,1.203,3.752,1.203c1.604,0,2.855-0.401,3.752-1.203
		C95.774,41.636,96.223,40.626,96.223,39.409z"/>
	<path d="M132.613,41.534l4.931-11.754h-0.78c-0.819,0-1.403-0.157-1.751-0.474c-0.349-0.314-0.523-0.728-0.523-1.236
		s0.174-0.922,0.523-1.236c0.349-0.316,0.932-0.474,1.751-0.474l4.565,0.017c0.819,0,1.403,0.155,1.751,0.465
		s0.523,0.72,0.523,1.229c0,0.608-0.266,1.09-0.797,1.444c-0.255,0.177-0.775,0.266-1.561,0.266l-6.989,16.718h-3.271l-6.973-16.718
		c-0.797,0-1.323-0.089-1.577-0.266c-0.531-0.343-0.797-0.824-0.797-1.444c0-0.509,0.174-0.922,0.523-1.236
		c0.349-0.316,0.932-0.474,1.751-0.474l4.599,0.017c0.808,0,1.386,0.155,1.735,0.465s0.523,0.72,0.523,1.229
		s-0.172,0.922-0.515,1.236c-0.343,0.316-0.924,0.474-1.743,0.474h-0.797L132.613,41.534z"/>
	<path d="M161.566,40.687h-13.962c0.354,0.886,0.982,1.6,1.884,2.142c0.902,0.542,2.122,0.813,3.661,0.813
		c1.262,0,2.938-0.271,5.03-0.813c0.863-0.222,1.461-0.332,1.793-0.332c0.453,0,0.836,0.16,1.146,0.481s0.465,0.725,0.465,1.212
		c0,0.442-0.166,0.819-0.498,1.129c-0.442,0.409-1.522,0.8-3.237,1.171c-1.716,0.37-3.365,0.556-4.947,0.556
		c-2.723,0-4.9-0.77-6.533-2.308c-1.633-1.538-2.449-3.431-2.449-5.678c0-2.391,0.882-4.336,2.648-5.836
		c1.765-1.499,3.799-2.249,6.101-2.249c1.383,0,2.653,0.243,3.811,0.73c1.156,0.487,2.017,1.013,2.581,1.577
		c0.797,0.819,1.455,1.832,1.976,3.038c0.354,0.841,0.531,1.815,0.531,2.922V40.687z M157.798,37.284
		c-0.521-0.974-1.201-1.702-2.042-2.183c-0.841-0.482-1.843-0.723-3.005-0.723c-1.151,0-2.147,0.24-2.988,0.723
		c-0.841,0.48-1.527,1.209-2.059,2.183H157.798z"/>
	<path d="M177.172,32.436v-1.013h3.984c0.818,0,1.402,0.158,1.752,0.473c0.348,0.316,0.522,0.729,0.522,1.237
		c0,0.498-0.175,0.905-0.522,1.22c-0.35,0.316-0.934,0.474-1.752,0.474h-0.581v12.385c0,1.195-0.252,2.238-0.755,3.13
		c-0.504,0.891-1.276,1.657-2.316,2.299c-1.041,0.642-2.214,0.963-3.52,0.963h-3.852c-0.819,0-1.402-0.158-1.752-0.473
		c-0.348-0.316-0.522-0.723-0.522-1.221c0-0.509,0.175-0.922,0.522-1.236c0.35-0.316,0.933-0.474,1.752-0.474h3.752
		c1.04,0,1.848-0.282,2.424-0.847c0.575-0.564,0.863-1.278,0.863-2.142v-1.66c-0.753,0.487-1.52,0.853-2.299,1.096
		c-0.781,0.243-1.58,0.365-2.399,0.365c-2.313,0-4.25-0.772-5.811-2.315c-1.561-1.545-2.341-3.451-2.341-5.72
		c0-2.28,0.78-4.192,2.341-5.735c1.561-1.545,3.497-2.316,5.811-2.316c0.863,0,1.685,0.125,2.466,0.373
		C175.719,31.548,176.463,31.927,177.172,32.436z M177.155,38.96c0-1.251-0.462-2.335-1.386-3.254
		c-0.925-0.919-2.034-1.378-3.329-1.378s-2.405,0.459-3.329,1.378s-1.386,2.003-1.386,3.254c0,1.262,0.462,2.35,1.386,3.262
		c0.924,0.914,2.034,1.37,3.329,1.37s2.404-0.456,3.329-1.37C176.693,41.31,177.155,40.222,177.155,38.96z"/>
	<path d="M200.962,38.396h-14.211v-3.104h14.211V38.396z"/>
	<path d="M216.468,36.238l5.678,6.856c0.675,0.011,1.181,0.175,1.519,0.489c0.338,0.316,0.507,0.723,0.507,1.221
		s-0.175,0.904-0.522,1.221c-0.35,0.314-0.934,0.473-1.752,0.473h-3.835c-0.808,0-1.386-0.158-1.735-0.473
		c-0.348-0.316-0.522-0.729-0.522-1.237c0-0.476,0.16-0.872,0.481-1.187c0.32-0.316,0.803-0.484,1.444-0.507l-3.42-4.217
		l-3.453,4.217c0.631,0.022,1.106,0.193,1.428,0.515s0.481,0.72,0.481,1.195c0,0.498-0.174,0.904-0.523,1.221
		c-0.348,0.314-0.932,0.473-1.751,0.473h-3.818c-0.819,0-1.403-0.158-1.751-0.473c-0.35-0.316-0.523-0.729-0.523-1.237
		c0-0.487,0.172-0.891,0.515-1.212s0.847-0.481,1.511-0.481l5.645-6.89l-5.379-6.425c-0.664-0.022-1.16-0.19-1.486-0.507
		c-0.326-0.314-0.489-0.716-0.489-1.203c0-0.509,0.175-0.922,0.522-1.236c0.35-0.316,0.933-0.474,1.752-0.474l3.138,0.017
		c0.819,0,1.403,0.155,1.751,0.465c0.35,0.31,0.523,0.72,0.523,1.229c0,0.376-0.111,0.72-0.332,1.029
		c-0.145,0.188-0.465,0.415-0.963,0.681l3.171,3.802l3.104-3.802c-0.498-0.266-0.819-0.492-0.963-0.681
		c-0.222-0.31-0.332-0.653-0.332-1.029c0-0.498,0.174-0.907,0.523-1.229c0.348-0.321,0.932-0.481,1.751-0.481l3.121,0.017
		c0.819,0,1.403,0.155,1.751,0.465c0.35,0.31,0.523,0.72,0.523,1.229c0,0.487-0.169,0.891-0.506,1.212
		c-0.338,0.321-0.828,0.487-1.47,0.498L216.468,36.238z"/>
</g>
</svg>
