<?xml version="1.0" encoding="utf-8"?>
<!-- Generator: Adobe Illustrator 16.0.3, SVG Export Plug-In . SVG Version: 6.00 Build 0)  -->
<!DOCTYPE svg PUBLIC "-//W3C//DTD SVG 1.1//EN" "http://www.w3.org/Graphics/SVG/1.1/DTD/svg11.dtd">
<svg version="1.1" id="Layer_1" xmlns="http://www.w3.org/2000/svg" xmlns:xlink="http://www.w3.org/1999/xlink" x="0px" y="0px"
	 width="310px" height="85.167px" viewBox="0 0 310 85.167" enable-background="new 0 0 310 85.167" xml:space="preserve">
<g enable-background="new    ">
	<path d="M16.539,27.242c0.21-0.288,0.44-0.504,0.689-0.647s0.517-0.216,0.805-0.216c0.498,0,0.905,0.172,1.22,0.515
		s0.473,0.924,0.473,1.743v2.889c0,0.819-0.158,1.402-0.473,1.752c-0.315,0.348-0.722,0.522-1.22,0.522
		c-0.454,0-0.819-0.127-1.096-0.382c-0.277-0.255-0.481-0.73-0.614-1.428c-0.078-0.465-0.232-0.824-0.465-1.079
		c-0.454-0.498-1.087-0.896-1.901-1.195s-1.63-0.448-2.449-0.448c-1.019,0-1.954,0.222-2.806,0.664
		c-0.853,0.442-1.605,1.162-2.258,2.158c-0.653,0.996-0.979,2.181-0.979,3.553v2.208c0,1.638,0.595,3.005,1.785,4.101
		c1.189,1.096,2.841,1.644,4.956,1.644c1.262,0,2.33-0.172,3.204-0.515c0.509-0.199,1.051-0.592,1.627-1.179
		c0.354-0.354,0.631-0.584,0.83-0.688c0.199-0.105,0.426-0.158,0.681-0.158c0.454,0,0.852,0.172,1.195,0.515
		c0.343,0.343,0.515,0.747,0.515,1.212s-0.232,0.963-0.697,1.494c-0.675,0.774-1.544,1.384-2.606,1.826
		c-1.428,0.598-3.005,0.896-4.731,0.896c-2.015,0-3.83-0.415-5.445-1.245c-1.306-0.664-2.418-1.713-3.337-3.146
		c-0.919-1.434-1.378-2.997-1.378-4.69v-2.308c0-1.771,0.412-3.423,1.237-4.955c0.824-1.533,1.967-2.715,3.428-3.545
		s3.01-1.245,4.648-1.245c0.985,0,1.906,0.113,2.764,0.341C14.998,26.431,15.797,26.777,16.539,27.242z"/>
	<path d="M40.445,39.245c0,1.306-0.363,2.57-1.087,3.794c-0.725,1.223-1.804,2.196-3.237,2.922c-1.434,0.725-2.93,1.087-4.491,1.087
		c-1.55,0-3.033-0.356-4.449-1.071c-1.417-0.713-2.496-1.685-3.237-2.913c-0.742-1.229-1.112-2.513-1.112-3.852
		c0-1.361,0.376-2.698,1.129-4.009c0.752-1.313,1.834-2.344,3.246-3.097s2.886-1.129,4.424-1.129c1.549,0,3.041,0.385,4.474,1.153
		c1.433,0.77,2.515,1.805,3.246,3.105C40.08,36.536,40.445,37.873,40.445,39.245z M37.042,39.261c0-1.096-0.393-2.103-1.179-3.021
		C34.79,35,33.378,34.38,31.63,34.38c-1.539,0-2.822,0.492-3.852,1.478s-1.544,2.125-1.544,3.42c0,1.063,0.52,2.056,1.561,2.979
		c1.04,0.925,2.318,1.387,3.835,1.387c1.527,0,2.811-0.462,3.852-1.387C36.521,41.333,37.042,40.334,37.042,39.261z"/>
	<path d="M48.563,31.425v1.146c0.62-0.531,1.303-0.93,2.05-1.195s1.558-0.398,2.432-0.398c2.014,0,3.608,0.625,4.781,1.876
		c0.93,0.996,1.395,2.302,1.395,3.918v6.325c0.719,0,1.25,0.157,1.594,0.474c0.343,0.314,0.515,0.728,0.515,1.236
		c0,0.498-0.174,0.904-0.523,1.221c-0.349,0.314-0.933,0.473-1.751,0.473h-3.071c-0.819,0-1.403-0.158-1.751-0.473
		c-0.349-0.316-0.523-0.729-0.523-1.237c0-0.498,0.171-0.905,0.515-1.22c0.343-0.316,0.874-0.474,1.594-0.474v-6.425
		c0-0.741-0.199-1.284-0.598-1.627C54.7,34.602,53.92,34.38,52.88,34.38c-0.786,0-1.475,0.152-2.067,0.457
		c-0.592,0.304-1.342,0.948-2.25,1.934v6.325c0.874,0,1.438,0.083,1.693,0.249c0.542,0.332,0.813,0.819,0.813,1.461
		c0,0.498-0.174,0.904-0.523,1.221c-0.349,0.314-0.933,0.473-1.751,0.473h-3.868c-0.819,0-1.403-0.158-1.751-0.473
		c-0.349-0.316-0.523-0.729-0.523-1.237c0-0.62,0.266-1.102,0.797-1.444c0.266-0.166,0.835-0.249,1.71-0.249v-8.268
		c-0.72,0-1.251-0.16-1.594-0.481c-0.343-0.321-0.515-0.73-0.515-1.229s0.174-0.904,0.523-1.221
		c0.349-0.314,0.932-0.473,1.751-0.473H48.563z"/>
	<path d="M71.573,34.829v6.823c0,0.73,0.149,1.212,0.448,1.444c0.465,0.365,1.295,0.548,2.49,0.548c1.737,0,3.342-0.371,4.814-1.112
		c0.564-0.288,1.007-0.432,1.328-0.432c0.442,0,0.827,0.166,1.154,0.498c0.326,0.332,0.49,0.736,0.49,1.212
		c0,0.442-0.177,0.824-0.531,1.146c-0.542,0.521-1.613,0.999-3.212,1.437c-1.6,0.437-2.947,0.655-4.042,0.655
		c-2.114,0-3.7-0.456-4.756-1.37c-1.057-0.912-1.585-2.033-1.585-3.361v-7.487h-1.229c-0.819,0-1.403-0.157-1.751-0.474
		c-0.349-0.314-0.523-0.728-0.523-1.236c0-0.498,0.174-0.904,0.523-1.221c0.349-0.314,0.932-0.473,1.751-0.473h1.229v-3.071
		c0-0.819,0.158-1.403,0.473-1.751c0.315-0.35,0.728-0.523,1.237-0.523c0.498,0,0.905,0.174,1.22,0.523
		c0.315,0.348,0.473,0.932,0.473,1.751v3.071h6.292c0.819,0,1.403,0.158,1.751,0.473c0.349,0.316,0.523,0.729,0.523,1.237
		c0,0.498-0.174,0.905-0.523,1.22c-0.349,0.316-0.933,0.474-1.751,0.474H71.573z"/>
	<path d="M95.878,46.5v-0.797c-0.853,0.454-1.793,0.794-2.822,1.021c-1.029,0.227-1.965,0.34-2.806,0.34
		c-1.826,0-3.31-0.484-4.449-1.453c-1.14-0.968-1.71-2.039-1.71-3.212c0-1.428,0.728-2.753,2.183-3.976
		c1.455-1.224,3.467-1.835,6.035-1.835c1.029,0,2.219,0.11,3.569,0.332v-0.813c0-0.509-0.219-0.924-0.656-1.245
		c-0.438-0.321-1.27-0.481-2.499-0.481c-1.007,0-2.313,0.199-3.918,0.598c-0.598,0.144-1.063,0.216-1.395,0.216
		c-0.454,0-0.838-0.163-1.154-0.489c-0.315-0.327-0.473-0.745-0.473-1.254c0-0.288,0.055-0.537,0.166-0.747
		c0.11-0.21,0.266-0.379,0.465-0.507c0.199-0.127,0.614-0.279,1.245-0.456c0.841-0.232,1.699-0.418,2.573-0.556
		c0.874-0.139,1.666-0.208,2.374-0.208c2.114,0,3.754,0.456,4.922,1.37c1.167,0.912,1.751,2.16,1.751,3.743v7.006h0.581
		c0.819,0,1.403,0.157,1.751,0.474c0.349,0.314,0.523,0.728,0.523,1.236c0,0.498-0.174,0.904-0.523,1.221
		c-0.349,0.314-0.933,0.473-1.751,0.473H95.878z M95.878,40.407c-1.361-0.266-2.618-0.398-3.769-0.398
		c-1.384,0-2.573,0.338-3.569,1.013c-0.62,0.432-0.93,0.869-0.93,1.312c0,0.321,0.149,0.581,0.448,0.78
		c0.553,0.365,1.312,0.548,2.274,0.548c0.819,0,1.746-0.16,2.781-0.481c1.035-0.321,1.956-0.758,2.764-1.312V40.407z"/>
	<path d="M118.522,32.04c0.409-0.388,0.83-0.581,1.262-0.581c0.487,0,0.888,0.174,1.204,0.523c0.315,0.348,0.473,0.927,0.473,1.734
		v2.191c0,0.819-0.158,1.4-0.473,1.743s-0.728,0.515-1.237,0.515c-0.465,0-0.858-0.133-1.179-0.398
		c-0.232-0.199-0.415-0.605-0.548-1.221c-0.133-0.613-0.454-1.07-0.963-1.369c-0.896-0.531-2.042-0.797-3.437-0.797
		c-1.605,0-2.892,0.471-3.86,1.411c-0.969,0.94-1.453,2.131-1.453,3.569c0,1.328,0.465,2.377,1.395,3.146
		c0.93,0.769,2.474,1.153,4.632,1.153c1.417,0,2.573-0.144,3.47-0.432c0.531-0.177,1.035-0.479,1.511-0.905
		c0.476-0.426,0.907-0.639,1.295-0.639c0.465,0,0.866,0.172,1.204,0.515c0.337,0.343,0.506,0.747,0.506,1.212
		c0,0.753-0.515,1.467-1.544,2.142c-1.527,1.007-3.763,1.511-6.707,1.511c-2.646,0-4.704-0.548-6.176-1.644
		c-1.992-1.472-2.988-3.486-2.988-6.043c0-2.424,0.808-4.43,2.424-6.019c1.616-1.588,3.724-2.382,6.325-2.382
		c0.94,0,1.815,0.089,2.623,0.266C117.089,31.419,117.836,31.685,118.522,32.04z"/>
	<path d="M132.783,34.829v6.823c0,0.73,0.149,1.212,0.448,1.444c0.465,0.365,1.295,0.548,2.49,0.548
		c1.737,0,3.342-0.371,4.814-1.112c0.564-0.288,1.007-0.432,1.328-0.432c0.442,0,0.827,0.166,1.154,0.498
		c0.326,0.332,0.49,0.736,0.49,1.212c0,0.442-0.177,0.824-0.531,1.146c-0.542,0.521-1.613,0.999-3.212,1.437
		c-1.6,0.437-2.947,0.655-4.042,0.655c-2.114,0-3.7-0.456-4.756-1.37c-1.057-0.912-1.585-2.033-1.585-3.361v-7.487h-1.229
		c-0.819,0-1.403-0.157-1.751-0.474c-0.349-0.314-0.523-0.728-0.523-1.236c0-0.498,0.174-0.904,0.523-1.221
		c0.349-0.314,0.932-0.473,1.751-0.473h1.229v-3.071c0-0.819,0.158-1.403,0.473-1.751c0.315-0.35,0.728-0.523,1.237-0.523
		c0.498,0,0.905,0.174,1.22,0.523c0.315,0.348,0.473,0.932,0.473,1.751v3.071h6.292c0.819,0,1.403,0.158,1.751,0.473
		c0.349,0.316,0.523,0.729,0.523,1.237c0,0.498-0.174,0.905-0.523,1.22c-0.349,0.316-0.933,0.474-1.751,0.474H132.783z"/>
</g>
</svg>
