<?xml version="1.0" encoding="utf-8"?>
<!-- Generator: Adobe Illustrator 16.0.3, SVG Export Plug-In . SVG Version: 6.00 Build 0)  -->
<!DOCTYPE svg PUBLIC "-//W3C//DTD SVG 1.1//EN" "http://www.w3.org/Graphics/SVG/1.1/DTD/svg11.dtd">
<svg version="1.1" id="Layer_1" xmlns="http://www.w3.org/2000/svg" xmlns:xlink="http://www.w3.org/1999/xlink" x="0px" y="0px"
	 width="310px" height="85.167px" viewBox="0 0 310 85.167" enable-background="new 0 0 310 85.167" xml:space="preserve">
<g enable-background="new    ">
	<path d="M8.869,38.116v4.98h3.486c0.819,0,1.403,0.157,1.751,0.474c0.349,0.314,0.523,0.728,0.523,1.236
		c0,0.498-0.174,0.904-0.523,1.221c-0.349,0.314-0.933,0.473-1.751,0.473H4.935c-0.819,0-1.403-0.158-1.751-0.473
		C2.834,45.71,2.66,45.298,2.66,44.79c0-0.498,0.177-0.905,0.531-1.22c0.354-0.316,0.935-0.474,1.743-0.474h0.531V29.782H4.935
		c-0.819,0-1.403-0.157-1.751-0.474c-0.349-0.314-0.523-0.728-0.523-1.236s0.174-0.922,0.523-1.236
		c0.349-0.316,0.932-0.474,1.751-0.474l16.021,0.017v5.196c0,0.808-0.158,1.386-0.473,1.735c-0.315,0.348-0.728,0.522-1.237,0.522
		c-0.498,0-0.905-0.172-1.22-0.515s-0.473-0.924-0.473-1.743v-1.793H8.869v4.931h2.988c0-0.886,0.083-1.455,0.249-1.71
		c0.343-0.542,0.83-0.813,1.461-0.813c0.498,0,0.905,0.174,1.22,0.523c0.315,0.348,0.473,0.932,0.473,1.751v3.918
		c0,0.819-0.158,1.403-0.473,1.751c-0.315,0.35-0.728,0.523-1.237,0.523c-0.62,0-1.102-0.271-1.444-0.813
		c-0.166-0.255-0.249-0.83-0.249-1.727H8.869z"/>
	<path d="M35.764,41.021h-8.268l-0.83,2.075h0.83c0.819,0,1.403,0.157,1.751,0.474c0.349,0.314,0.523,0.728,0.523,1.236
		c0,0.498-0.174,0.904-0.523,1.221c-0.349,0.314-0.933,0.473-1.751,0.473h-4.582c-0.819,0-1.403-0.158-1.751-0.473
		c-0.349-0.316-0.523-0.729-0.523-1.237s0.183-0.924,0.548-1.245s0.968-0.471,1.81-0.448l5.346-13.314h-2.225
		c-0.819,0-1.403-0.157-1.751-0.474c-0.349-0.314-0.523-0.728-0.523-1.236s0.174-0.922,0.523-1.236
		c0.349-0.316,0.932-0.474,1.751-0.474l7.354,0.017l6.773,16.718c0.797,0,1.322,0.089,1.577,0.266
		c0.509,0.365,0.764,0.847,0.764,1.444c0,0.498-0.172,0.904-0.515,1.221c-0.343,0.314-0.924,0.473-1.743,0.473h-4.582
		c-0.819,0-1.403-0.158-1.751-0.473c-0.349-0.316-0.523-0.729-0.523-1.237c0-0.498,0.174-0.905,0.523-1.22
		c0.349-0.316,0.932-0.474,1.751-0.474h0.83L35.764,41.021z M34.353,37.618l-2.739-6.74l-2.756,6.74H34.353z"/>
	<path d="M52.797,46.964l-0.1,0.149c1.173,0,2.274,0.238,3.304,0.714c0.42,0.199,0.769,0.299,1.046,0.299
		c0.398,0,0.885-0.188,1.461-0.564c0.575-0.376,1.029-0.564,1.361-0.564c0.476,0,0.877,0.163,1.204,0.49
		c0.326,0.326,0.49,0.732,0.49,1.22c0,0.587-0.305,1.096-0.913,1.527c-1.207,0.863-2.418,1.295-3.636,1.295
		c-0.62,0-1.245-0.122-1.876-0.365c-1.019-0.398-1.826-0.598-2.424-0.598c-0.963,0-2.43,0.249-4.399,0.747
		c-0.41,0.1-0.73,0.149-0.963,0.149c-0.432,0-0.811-0.169-1.137-0.507c-0.327-0.337-0.49-0.761-0.49-1.27
		c0-0.442,0.221-0.88,0.664-1.312l2.175-2.108c-1.793-0.774-3.257-2.036-4.391-3.785c-1.135-1.749-1.702-3.763-1.702-6.043
		c0-3.298,1.134-5.987,3.403-8.068c1.815-1.671,3.857-2.507,6.126-2.507c2.28,0,4.327,0.836,6.143,2.507
		c2.269,2.081,3.403,4.771,3.403,8.068c0,2.833-0.858,5.238-2.573,7.213C57.257,45.628,55.198,46.732,52.797,46.964z M58.143,36.439
		c0-2.069-0.625-3.782-1.876-5.139c-1.251-1.355-2.673-2.033-4.267-2.033c-1.583,0-3,0.681-4.25,2.042
		c-1.251,1.361-1.876,3.071-1.876,5.13s0.625,3.766,1.876,5.121c1.25,1.356,2.667,2.034,4.25,2.034c1.594,0,3.016-0.675,4.267-2.025
		C57.517,40.218,58.143,38.508,58.143,36.439z"/>
</g>
</svg>
