<?xml version="1.0" encoding="utf-8"?>
<!-- Generator: Adobe Illustrator 16.0.3, SVG Export Plug-In . SVG Version: 6.00 Build 0)  -->
<!DOCTYPE svg PUBLIC "-//W3C//DTD SVG 1.1//EN" "http://www.w3.org/Graphics/SVG/1.1/DTD/svg11.dtd">
<svg version="1.1" id="Layer_1" xmlns="http://www.w3.org/2000/svg" xmlns:xlink="http://www.w3.org/1999/xlink" x="0px" y="0px"
	 width="310px" height="85.167px" viewBox="0 0 310 85.167" enable-background="new 0 0 310 85.167" xml:space="preserve">
<g enable-background="new    ">
	<path d="M7.869,38.114v4.98h3.486c0.819,0,1.403,0.157,1.751,0.474c0.349,0.314,0.523,0.728,0.523,1.236
		c0,0.498-0.174,0.904-0.523,1.221c-0.349,0.314-0.933,0.473-1.751,0.473H3.935c-0.819,0-1.403-0.158-1.751-0.473
		c-0.349-0.316-0.523-0.729-0.523-1.237c0-0.498,0.177-0.905,0.531-1.22c0.354-0.316,0.935-0.474,1.743-0.474h0.531V29.78H3.935
		c-0.819,0-1.403-0.157-1.751-0.474C1.834,28.992,1.66,28.579,1.66,28.07s0.174-0.922,0.523-1.236
		c0.349-0.316,0.932-0.474,1.751-0.474l16.021,0.017v5.196c0,0.808-0.158,1.386-0.473,1.735c-0.315,0.348-0.728,0.522-1.237,0.522
		c-0.498,0-0.905-0.172-1.22-0.515s-0.473-0.924-0.473-1.743V29.78H7.869v4.931h2.988c0-0.886,0.083-1.455,0.249-1.71
		c0.343-0.542,0.83-0.813,1.461-0.813c0.498,0,0.905,0.174,1.22,0.523c0.315,0.348,0.473,0.932,0.473,1.751v3.918
		c0,0.819-0.158,1.403-0.473,1.751c-0.315,0.35-0.728,0.523-1.237,0.523c-0.62,0-1.102-0.271-1.444-0.813
		c-0.166-0.255-0.249-0.83-0.249-1.727H7.869z"/>
	<path d="M32.29,31.423v11.671h4.084c0.819,0,1.403,0.157,1.751,0.474c0.349,0.314,0.523,0.728,0.523,1.236
		c0,0.498-0.174,0.904-0.523,1.221c-0.349,0.314-0.933,0.473-1.751,0.473H24.803c-0.819,0-1.403-0.158-1.751-0.473
		c-0.349-0.316-0.523-0.729-0.523-1.237c0-0.498,0.174-0.905,0.523-1.22c0.349-0.316,0.932-0.474,1.751-0.474h4.084v-8.268h-2.739
		c-0.808,0-1.389-0.157-1.743-0.474c-0.354-0.314-0.531-0.728-0.531-1.236c0-0.498,0.174-0.904,0.523-1.221
		c0.349-0.314,0.932-0.473,1.751-0.473H32.29z M31.825,24.965v3.603h-4.051v-3.603H31.825z"/>
	<path d="M52.71,24.965v18.129h4.084c0.819,0,1.403,0.157,1.751,0.474c0.349,0.314,0.523,0.728,0.523,1.236
		c0,0.498-0.174,0.904-0.523,1.221c-0.349,0.314-0.933,0.473-1.751,0.473H45.223c-0.819,0-1.403-0.158-1.751-0.473
		c-0.349-0.316-0.523-0.729-0.523-1.237c0-0.498,0.174-0.905,0.523-1.22c0.349-0.316,0.932-0.474,1.751-0.474h4.084V28.369h-2.739
		c-0.808,0-1.389-0.158-1.743-0.473c-0.354-0.316-0.531-0.729-0.531-1.237c0-0.498,0.174-0.905,0.523-1.22
		c0.349-0.316,0.932-0.474,1.751-0.474H52.71z"/>
	<path d="M79.953,40.687H65.991c0.354,0.886,0.982,1.6,1.884,2.142c0.902,0.542,2.122,0.813,3.661,0.813
		c1.262,0,2.938-0.271,5.03-0.813c0.863-0.222,1.461-0.332,1.793-0.332c0.454,0,0.835,0.16,1.146,0.481
		c0.31,0.321,0.465,0.725,0.465,1.212c0,0.442-0.166,0.819-0.498,1.129c-0.443,0.409-1.522,0.8-3.237,1.171
		c-1.716,0.37-3.365,0.556-4.947,0.556c-2.723,0-4.9-0.77-6.533-2.308c-1.633-1.538-2.449-3.431-2.449-5.678
		c0-2.391,0.882-4.336,2.648-5.836c1.765-1.499,3.799-2.249,6.101-2.249c1.383,0,2.653,0.243,3.81,0.73
		c1.156,0.487,2.017,1.013,2.582,1.577c0.797,0.819,1.455,1.832,1.976,3.038c0.354,0.841,0.531,1.815,0.531,2.922V40.687z
		 M76.185,37.284c-0.521-0.974-1.201-1.702-2.042-2.183c-0.841-0.482-1.843-0.723-3.005-0.723c-1.151,0-2.147,0.24-2.988,0.723
		c-0.841,0.48-1.527,1.209-2.059,2.183H76.185z"/>
	<path d="M106.897,32.951v10.144h1.229c0.819,0,1.403,0.157,1.751,0.474c0.349,0.314,0.523,0.728,0.523,1.236
		c0,0.498-0.174,0.904-0.523,1.221c-0.349,0.314-0.933,0.473-1.751,0.473h-4.466c-0.819,0-1.403-0.158-1.751-0.473
		c-0.349-0.316-0.523-0.729-0.523-1.237c0-0.498,0.172-0.905,0.515-1.22c0.343-0.316,0.874-0.474,1.594-0.474V29.78
		c-0.598-0.056-1.049-0.238-1.353-0.548s-0.457-0.697-0.457-1.162c0-0.509,0.174-0.922,0.523-1.236
		c0.349-0.316,0.932-0.474,1.751-0.474l3.735,0.017l4.632,10.243l4.549-10.26l3.769,0.017c0.819,0,1.403,0.155,1.751,0.465
		s0.523,0.72,0.523,1.229c0,0.465-0.155,0.853-0.465,1.162c-0.31,0.31-0.758,0.492-1.345,0.548v13.314
		c0.719,0,1.25,0.16,1.594,0.481c0.343,0.321,0.515,0.73,0.515,1.229s-0.174,0.904-0.523,1.221
		c-0.349,0.314-0.933,0.473-1.751,0.473h-4.482c-0.808,0-1.386-0.158-1.735-0.473c-0.349-0.316-0.523-0.729-0.523-1.237
		c0-0.498,0.174-0.905,0.523-1.22c0.349-0.316,0.927-0.474,1.735-0.474h1.245V32.951l-3.901,8.766h-2.955L106.897,32.951z"/>
	<path d="M135.685,46.498v-0.797c-0.853,0.454-1.793,0.794-2.822,1.021c-1.029,0.227-1.965,0.34-2.806,0.34
		c-1.826,0-3.31-0.484-4.449-1.453c-1.14-0.968-1.71-2.039-1.71-3.212c0-1.428,0.728-2.753,2.183-3.976
		c1.455-1.224,3.467-1.835,6.035-1.835c1.029,0,2.219,0.11,3.569,0.332v-0.813c0-0.509-0.219-0.924-0.656-1.245
		c-0.438-0.321-1.27-0.481-2.499-0.481c-1.007,0-2.313,0.199-3.918,0.598c-0.598,0.144-1.063,0.216-1.395,0.216
		c-0.454,0-0.838-0.163-1.154-0.489c-0.315-0.327-0.473-0.745-0.473-1.254c0-0.288,0.055-0.537,0.166-0.747
		c0.11-0.21,0.266-0.379,0.465-0.507c0.199-0.127,0.614-0.279,1.245-0.456c0.841-0.232,1.699-0.418,2.573-0.556
		c0.874-0.139,1.666-0.208,2.374-0.208c2.114,0,3.754,0.456,4.922,1.37c1.167,0.912,1.751,2.16,1.751,3.743v7.006h0.581
		c0.819,0,1.403,0.157,1.751,0.474c0.349,0.314,0.523,0.728,0.523,1.236c0,0.498-0.174,0.904-0.523,1.221
		c-0.349,0.314-0.933,0.473-1.751,0.473H135.685z M135.685,40.405c-1.361-0.266-2.618-0.398-3.769-0.398
		c-1.384,0-2.573,0.338-3.569,1.013c-0.62,0.432-0.93,0.869-0.93,1.312c0,0.321,0.149,0.581,0.448,0.78
		c0.553,0.365,1.312,0.548,2.274,0.548c0.819,0,1.746-0.16,2.781-0.481c1.035-0.321,1.956-0.758,2.764-1.312V40.405z"/>
	<path d="M149.58,31.423v1.146c0.62-0.531,1.303-0.93,2.05-1.195s1.558-0.398,2.432-0.398c2.014,0,3.607,0.625,4.781,1.876
		c0.93,0.996,1.395,2.302,1.395,3.918v6.325c0.719,0,1.25,0.157,1.594,0.474c0.343,0.314,0.515,0.728,0.515,1.236
		c0,0.498-0.175,0.904-0.522,1.221c-0.35,0.314-0.934,0.473-1.752,0.473h-3.071c-0.819,0-1.403-0.158-1.751-0.473
		c-0.349-0.316-0.523-0.729-0.523-1.237c0-0.498,0.171-0.905,0.515-1.22c0.343-0.316,0.874-0.474,1.594-0.474v-6.425
		c0-0.741-0.199-1.284-0.598-1.627c-0.521-0.442-1.301-0.664-2.341-0.664c-0.786,0-1.475,0.152-2.067,0.457
		c-0.592,0.304-1.342,0.948-2.25,1.934v6.325c0.874,0,1.438,0.083,1.693,0.249c0.542,0.332,0.813,0.819,0.813,1.461
		c0,0.498-0.174,0.904-0.523,1.221c-0.349,0.314-0.933,0.473-1.751,0.473h-3.868c-0.819,0-1.403-0.158-1.751-0.473
		c-0.349-0.316-0.523-0.729-0.523-1.237c0-0.62,0.266-1.102,0.797-1.444c0.266-0.166,0.835-0.249,1.71-0.249v-8.268
		c-0.72,0-1.251-0.16-1.594-0.481c-0.343-0.321-0.515-0.73-0.515-1.229s0.174-0.904,0.523-1.221
		c0.349-0.314,0.932-0.473,1.751-0.473H149.58z"/>
	<path d="M176.491,46.498v-0.797c-0.853,0.454-1.793,0.794-2.822,1.021c-1.029,0.227-1.965,0.34-2.806,0.34
		c-1.826,0-3.31-0.484-4.449-1.453c-1.141-0.968-1.71-2.039-1.71-3.212c0-1.428,0.728-2.753,2.183-3.976
		c1.455-1.224,3.467-1.835,6.035-1.835c1.029,0,2.219,0.11,3.569,0.332v-0.813c0-0.509-0.219-0.924-0.655-1.245
		c-0.438-0.321-1.271-0.481-2.499-0.481c-1.007,0-2.313,0.199-3.918,0.598c-0.598,0.144-1.063,0.216-1.395,0.216
		c-0.454,0-0.839-0.163-1.153-0.489c-0.316-0.327-0.474-0.745-0.474-1.254c0-0.288,0.056-0.537,0.166-0.747s0.266-0.379,0.465-0.507
		c0.199-0.127,0.614-0.279,1.245-0.456c0.841-0.232,1.699-0.418,2.573-0.556c0.874-0.139,1.665-0.208,2.374-0.208
		c2.113,0,3.754,0.456,4.922,1.37c1.168,0.912,1.752,2.16,1.752,3.743v7.006h0.581c0.819,0,1.403,0.157,1.751,0.474
		c0.35,0.314,0.523,0.728,0.523,1.236c0,0.498-0.174,0.904-0.523,1.221c-0.348,0.314-0.932,0.473-1.751,0.473H176.491z
		 M176.491,40.405c-1.361-0.266-2.618-0.398-3.769-0.398c-1.384,0-2.573,0.338-3.569,1.013c-0.62,0.432-0.93,0.869-0.93,1.312
		c0,0.321,0.149,0.581,0.448,0.78c0.553,0.365,1.312,0.548,2.274,0.548c0.819,0,1.745-0.16,2.78-0.481s1.957-0.758,2.765-1.312
		V40.405z"/>
	<path d="M197.575,32.436v-1.013h3.984c0.819,0,1.403,0.158,1.751,0.473c0.35,0.316,0.523,0.729,0.523,1.237
		c0,0.498-0.174,0.905-0.523,1.22c-0.348,0.316-0.932,0.474-1.751,0.474h-0.581v12.385c0,1.195-0.252,2.238-0.756,3.13
		c-0.504,0.891-1.275,1.657-2.315,2.299s-2.214,0.963-3.52,0.963h-3.852c-0.819,0-1.403-0.158-1.751-0.473
		c-0.35-0.316-0.523-0.723-0.523-1.221c0-0.509,0.174-0.922,0.523-1.236c0.348-0.316,0.932-0.474,1.751-0.474h3.752
		c1.04,0,1.849-0.282,2.424-0.847s0.863-1.278,0.863-2.142v-1.66c-0.753,0.487-1.519,0.853-2.3,1.096
		c-0.779,0.243-1.58,0.365-2.398,0.365c-2.313,0-4.25-0.772-5.811-2.315c-1.561-1.545-2.341-3.451-2.341-5.72
		c0-2.28,0.78-4.192,2.341-5.735c1.561-1.545,3.497-2.316,5.811-2.316c0.863,0,1.686,0.125,2.465,0.373
		C196.123,31.548,196.867,31.927,197.575,32.436z M197.559,38.96c0-1.251-0.463-2.335-1.387-3.254s-2.033-1.378-3.328-1.378
		s-2.404,0.459-3.328,1.378c-0.925,0.919-1.387,2.003-1.387,3.254c0,1.262,0.462,2.35,1.387,3.262
		c0.924,0.914,2.033,1.37,3.328,1.37s2.404-0.456,3.328-1.37C197.096,41.31,197.559,40.222,197.559,38.96z"/>
	<path d="M222.776,40.687h-13.962c0.354,0.886,0.982,1.6,1.885,2.142c0.901,0.542,2.121,0.813,3.66,0.813
		c1.262,0,2.938-0.271,5.03-0.813c0.863-0.222,1.461-0.332,1.793-0.332c0.454,0,0.835,0.16,1.146,0.481
		c0.31,0.321,0.465,0.725,0.465,1.212c0,0.442-0.166,0.819-0.498,1.129c-0.443,0.409-1.521,0.8-3.237,1.171
		c-1.716,0.37-3.364,0.556-4.947,0.556c-2.723,0-4.9-0.77-6.532-2.308c-1.633-1.538-2.449-3.431-2.449-5.678
		c0-2.391,0.883-4.336,2.648-5.836c1.765-1.499,3.799-2.249,6.101-2.249c1.384,0,2.653,0.243,3.81,0.73s2.018,1.013,2.582,1.577
		c0.797,0.819,1.455,1.832,1.976,3.038c0.354,0.841,0.531,1.815,0.531,2.922V40.687z M219.008,37.284
		c-0.521-0.974-1.201-1.702-2.042-2.183c-0.841-0.482-1.843-0.723-3.005-0.723c-1.151,0-2.147,0.24-2.988,0.723
		c-0.842,0.48-1.527,1.209-2.059,2.183H219.008z"/>
	<path d="M233.933,31.423v2.125c1.428-1.029,2.554-1.716,3.378-2.059s1.597-0.515,2.316-0.515c1.106,0,2.18,0.409,3.221,1.229
		c0.708,0.554,1.063,1.118,1.063,1.693c0,0.487-0.169,0.899-0.506,1.237c-0.338,0.337-0.745,0.506-1.221,0.506
		c-0.421,0-0.863-0.21-1.328-0.631s-0.88-0.631-1.245-0.631c-0.476,0-1.187,0.299-2.134,0.896c-0.945,0.598-2.127,1.494-3.544,2.689
		v5.13h4.848c0.819,0,1.403,0.157,1.751,0.474c0.35,0.314,0.523,0.728,0.523,1.236c0,0.498-0.174,0.904-0.523,1.221
		c-0.348,0.314-0.932,0.473-1.751,0.473h-10.276c-0.819,0-1.402-0.158-1.752-0.473c-0.348-0.316-0.522-0.729-0.522-1.237
		c0-0.498,0.175-0.905,0.522-1.22c0.35-0.316,0.933-0.474,1.752-0.474h2.025v-8.268h-1.229c-0.819,0-1.402-0.157-1.752-0.474
		c-0.348-0.314-0.522-0.728-0.522-1.236c0-0.498,0.175-0.904,0.522-1.221c0.35-0.314,0.933-0.473,1.752-0.473H233.933z"/>
</g>
</svg>
