<?xml version="1.0" encoding="utf-8"?>
<!-- Generator: Adobe Illustrator 16.0.3, SVG Export Plug-In . SVG Version: 6.00 Build 0)  -->
<!DOCTYPE svg PUBLIC "-//W3C//DTD SVG 1.1//EN" "http://www.w3.org/Graphics/SVG/1.1/DTD/svg11.dtd">
<svg version="1.1" id="Layer_1" xmlns="http://www.w3.org/2000/svg" xmlns:xlink="http://www.w3.org/1999/xlink" x="0px" y="0px"
	 width="118px" height="174px" viewBox="352.247 -19.054 118 174" enable-background="new 352.247 -19.054 118 174"
	 xml:space="preserve">
<path d="M368.508,28.963c0-1.43,1.16-2.59,2.588-2.59h6.475v5.178c0,0.716,0.578,1.294,1.293,1.294h5.178v5.177h-6.795
	c-0.539,0-0.971,0.434-0.971,0.971c0,0.538,0.432,0.972,0.971,0.972h6.795v4.529c0,1.429-1.16,2.587-2.588,2.587h-10.357
	c-1.428,0-2.588-1.158-2.588-2.587V28.963L368.508,28.963z M384.038,39.963v-1.941h4.453l-1.576-1.577
	c-0.381-0.381-0.381-0.995,0-1.371c0.379-0.376,0.994-0.38,1.369,0l3.236,3.235c0.381,0.38,0.381,0.995,0,1.371l-3.236,3.234
	c-0.379,0.381-0.994,0.381-1.369,0c-0.377-0.38-0.381-0.994,0-1.37l1.576-1.577h-4.453V39.963z M384.038,31.55h-5.176v-5.178
	L384.038,31.55z"/>
<g enable-background="new    ">
	<path d="M368.981,64.955c0,0.82-0.105,1.537-0.316,2.148c-0.209,0.613-0.516,1.121-0.918,1.521
		c-0.404,0.404-0.898,0.705-1.484,0.904c-0.586,0.201-1.281,0.301-2.094,0.301h-2.008c-0.111,0-0.219-0.037-0.318-0.111
		c-0.1-0.076-0.148-0.209-0.148-0.398v-8.452c0-0.189,0.051-0.322,0.148-0.398c0.102-0.075,0.207-0.113,0.318-0.113h2.146
		c0.82,0,1.516,0.106,2.08,0.318c0.566,0.213,1.041,0.519,1.424,0.916c0.385,0.396,0.676,0.879,0.873,1.446
		S368.981,64.242,368.981,64.955z M367.655,65.008c0-0.514-0.064-0.99-0.191-1.434c-0.127-0.439-0.326-0.822-0.596-1.146
		c-0.271-0.322-0.615-0.574-1.029-0.755c-0.416-0.183-0.949-0.271-1.604-0.271h-1.281v7.375h1.297c0.605,0,1.115-0.074,1.531-0.227
		c0.414-0.152,0.762-0.387,1.039-0.697c0.277-0.313,0.486-0.703,0.627-1.176C367.584,66.209,367.655,65.653,367.655,65.008z"/>
	<path d="M376.913,66.281c0,0.537-0.07,1.031-0.213,1.482c-0.143,0.453-0.354,0.842-0.633,1.17
		c-0.281,0.326-0.635,0.582-1.057,0.764c-0.424,0.186-0.912,0.275-1.469,0.275c-0.543,0-1.016-0.08-1.418-0.242
		c-0.402-0.16-0.738-0.396-1.006-0.703c-0.271-0.307-0.469-0.68-0.604-1.119c-0.131-0.438-0.195-0.938-0.195-1.494
		c0-0.537,0.066-1.031,0.209-1.482c0.139-0.451,0.348-0.84,0.629-1.168c0.281-0.326,0.631-0.58,1.051-0.764
		c0.42-0.18,0.912-0.27,1.473-0.27c0.543,0,1.016,0.08,1.418,0.24c0.402,0.162,0.738,0.396,1.008,0.703
		c0.27,0.309,0.471,0.682,0.604,1.119C376.844,65.235,376.913,65.731,376.913,66.281z M375.661,66.362c0-0.354-0.033-0.693-0.1-1.01
		c-0.068-0.318-0.18-0.596-0.33-0.836c-0.152-0.238-0.359-0.43-0.621-0.566c-0.26-0.141-0.586-0.209-0.977-0.209
		c-0.357,0-0.67,0.064-0.928,0.189c-0.26,0.127-0.473,0.307-0.639,0.539c-0.168,0.23-0.293,0.506-0.373,0.822
		c-0.082,0.316-0.123,0.664-0.123,1.041c0,0.359,0.033,0.701,0.1,1.02c0.068,0.316,0.18,0.594,0.332,0.83
		c0.156,0.236,0.363,0.426,0.625,0.563c0.264,0.143,0.586,0.209,0.979,0.209c0.354,0,0.662-0.063,0.924-0.188
		c0.26-0.127,0.475-0.307,0.643-0.535s0.291-0.502,0.369-0.818C375.62,67.094,375.661,66.742,375.661,66.362z"/>
	<path d="M387.854,63.045c0,0.033-0.004,0.074-0.014,0.123c-0.01,0.051-0.025,0.111-0.053,0.184l-1.939,6.264
		c-0.016,0.053-0.039,0.1-0.068,0.131c-0.031,0.035-0.076,0.064-0.131,0.08c-0.059,0.021-0.137,0.033-0.232,0.041
		c-0.098,0.008-0.219,0.014-0.365,0.014c-0.15,0-0.277-0.008-0.381-0.018s-0.186-0.021-0.246-0.043
		c-0.061-0.02-0.104-0.047-0.135-0.082c-0.029-0.033-0.051-0.074-0.066-0.123l-1.385-4.783l-0.014-0.064l-0.016,0.064l-1.281,4.783
		c-0.016,0.053-0.037,0.1-0.068,0.131c-0.033,0.035-0.08,0.064-0.145,0.08c-0.063,0.021-0.146,0.033-0.244,0.041
		c-0.104,0.008-0.227,0.014-0.371,0.014c-0.15,0-0.273-0.008-0.369-0.018s-0.174-0.021-0.234-0.043
		c-0.061-0.02-0.104-0.047-0.135-0.082c-0.029-0.033-0.053-0.074-0.064-0.123l-1.928-6.264c-0.023-0.072-0.043-0.133-0.053-0.184
		c-0.01-0.049-0.014-0.09-0.014-0.123c0-0.045,0.01-0.08,0.027-0.105c0.021-0.027,0.055-0.049,0.102-0.066
		c0.045-0.018,0.105-0.025,0.186-0.031s0.174-0.01,0.285-0.01c0.139,0,0.248,0.004,0.33,0.014c0.084,0.008,0.146,0.02,0.189,0.037
		c0.045,0.016,0.074,0.041,0.096,0.07c0.02,0.031,0.037,0.07,0.053,0.113l1.588,5.436l0.018,0.064l0.014-0.064l1.459-5.436
		c0.01-0.043,0.025-0.082,0.047-0.113c0.021-0.029,0.055-0.057,0.1-0.07c0.043-0.02,0.104-0.029,0.182-0.037
		c0.072-0.01,0.174-0.014,0.295-0.014c0.117,0,0.215,0.004,0.291,0.014c0.072,0.008,0.135,0.02,0.178,0.037
		c0.045,0.016,0.076,0.039,0.096,0.066c0.021,0.029,0.035,0.064,0.045,0.105l1.574,5.447l0.016,0.064l0.008-0.064l1.566-5.436
		c0.012-0.043,0.025-0.082,0.047-0.113c0.021-0.029,0.059-0.057,0.104-0.07c0.045-0.02,0.109-0.029,0.189-0.037
		c0.08-0.01,0.186-0.014,0.313-0.014c0.117,0,0.211,0.004,0.281,0.01s0.127,0.018,0.168,0.035c0.041,0.02,0.07,0.041,0.088,0.064
		C387.846,62.967,387.854,63,387.854,63.045z"/>
	<path d="M395.032,69.651c0,0.039-0.01,0.072-0.029,0.1c-0.02,0.025-0.051,0.051-0.094,0.068c-0.045,0.021-0.105,0.035-0.186,0.045
		c-0.076,0.01-0.176,0.014-0.293,0.014c-0.123,0-0.223-0.004-0.301-0.014s-0.139-0.023-0.184-0.045
		c-0.043-0.02-0.074-0.043-0.096-0.068c-0.02-0.025-0.027-0.061-0.027-0.1v-3.859c0-0.377-0.029-0.68-0.088-0.906
		c-0.061-0.23-0.146-0.43-0.258-0.596s-0.26-0.293-0.438-0.381s-0.385-0.131-0.619-0.131c-0.303,0-0.604,0.107-0.908,0.322
		c-0.303,0.215-0.617,0.527-0.949,0.943v4.605c0,0.039-0.012,0.072-0.029,0.1c-0.021,0.025-0.053,0.051-0.096,0.07
		c-0.045,0.018-0.105,0.033-0.186,0.043s-0.178,0.016-0.299,0.016c-0.117,0-0.215-0.006-0.293-0.016s-0.143-0.023-0.189-0.043
		c-0.047-0.021-0.078-0.045-0.096-0.07s-0.025-0.061-0.025-0.1v-6.592c0-0.039,0.01-0.07,0.021-0.102
		c0.016-0.023,0.045-0.051,0.088-0.07c0.045-0.021,0.102-0.037,0.17-0.045s0.158-0.012,0.27-0.012c0.107,0,0.197,0.004,0.27,0.012
		c0.07,0.008,0.125,0.021,0.164,0.045c0.039,0.021,0.066,0.047,0.086,0.07c0.016,0.027,0.025,0.063,0.025,0.102v0.871
		c0.369-0.414,0.738-0.721,1.107-0.912c0.367-0.191,0.74-0.289,1.117-0.289c0.438,0,0.809,0.074,1.109,0.225
		c0.301,0.148,0.543,0.35,0.729,0.598c0.188,0.25,0.318,0.541,0.398,0.875c0.082,0.336,0.119,0.736,0.119,1.205v4.021H395.032z"/>
	<path d="M398.446,69.651c0,0.039-0.01,0.072-0.029,0.1c-0.02,0.025-0.051,0.051-0.096,0.068c-0.043,0.021-0.105,0.035-0.186,0.045
		c-0.078,0.01-0.178,0.014-0.299,0.014c-0.117,0-0.215-0.004-0.293-0.014s-0.141-0.023-0.188-0.045
		c-0.049-0.02-0.078-0.043-0.098-0.068c-0.018-0.025-0.023-0.061-0.023-0.1v-9.785c0-0.039,0.008-0.072,0.023-0.103
		c0.02-0.03,0.049-0.055,0.098-0.074c0.047-0.02,0.107-0.032,0.188-0.043c0.078-0.01,0.176-0.016,0.293-0.016
		c0.121,0,0.221,0.006,0.299,0.016c0.078,0.011,0.143,0.023,0.186,0.043c0.045,0.021,0.076,0.045,0.096,0.074
		c0.021,0.027,0.029,0.063,0.029,0.103V69.651z"/>
	<path d="M406.809,66.281c0,0.537-0.068,1.031-0.213,1.482c-0.141,0.453-0.352,0.842-0.633,1.17
		c-0.281,0.326-0.633,0.582-1.055,0.764c-0.422,0.186-0.912,0.275-1.469,0.275c-0.541,0-1.016-0.08-1.416-0.242
		c-0.404-0.16-0.74-0.396-1.01-0.703s-0.469-0.68-0.602-1.119c-0.131-0.438-0.197-0.938-0.197-1.494c0-0.537,0.07-1.031,0.209-1.482
		c0.141-0.451,0.352-0.84,0.631-1.168c0.279-0.326,0.633-0.58,1.053-0.764c0.42-0.18,0.908-0.27,1.471-0.27
		c0.543,0,1.016,0.08,1.418,0.24c0.402,0.162,0.738,0.396,1.008,0.703c0.27,0.309,0.469,0.682,0.604,1.119
		C406.743,65.233,406.809,65.731,406.809,66.281z M405.557,66.362c0-0.354-0.031-0.693-0.1-1.01
		c-0.068-0.318-0.176-0.596-0.33-0.836c-0.152-0.238-0.359-0.43-0.619-0.566c-0.262-0.141-0.588-0.209-0.977-0.209
		c-0.359,0-0.668,0.064-0.928,0.189c-0.26,0.127-0.473,0.307-0.641,0.539c-0.168,0.23-0.293,0.506-0.373,0.822
		c-0.082,0.316-0.123,0.664-0.123,1.041c0,0.359,0.033,0.701,0.102,1.02c0.066,0.316,0.178,0.594,0.334,0.83
		c0.152,0.236,0.361,0.426,0.623,0.563c0.262,0.143,0.588,0.209,0.977,0.209c0.355,0,0.662-0.063,0.924-0.188
		c0.264-0.127,0.477-0.307,0.645-0.535s0.291-0.502,0.369-0.818C405.52,67.094,405.557,66.742,405.557,66.362z"/>
	<path d="M413.555,69.658c0,0.061-0.02,0.104-0.059,0.131c-0.039,0.029-0.094,0.055-0.162,0.066
		c-0.068,0.016-0.168,0.021-0.299,0.021c-0.127,0-0.23-0.008-0.305-0.021c-0.076-0.014-0.133-0.037-0.164-0.066
		c-0.035-0.027-0.055-0.07-0.055-0.131v-0.66c-0.287,0.311-0.607,0.549-0.963,0.721c-0.354,0.17-0.729,0.256-1.123,0.256
		c-0.348,0-0.662-0.045-0.939-0.135c-0.281-0.094-0.521-0.223-0.721-0.395c-0.195-0.17-0.352-0.381-0.461-0.629
		c-0.107-0.25-0.164-0.533-0.164-0.85c0-0.371,0.074-0.693,0.229-0.969c0.152-0.273,0.369-0.5,0.652-0.682
		c0.281-0.182,0.629-0.316,1.037-0.406c0.41-0.09,0.871-0.137,1.387-0.137h0.908v-0.512c0-0.254-0.027-0.48-0.08-0.676
		c-0.057-0.193-0.143-0.355-0.262-0.486c-0.121-0.129-0.273-0.229-0.467-0.293c-0.188-0.064-0.424-0.1-0.703-0.1
		c-0.297,0-0.563,0.035-0.801,0.105s-0.445,0.148-0.623,0.234s-0.328,0.162-0.447,0.234c-0.119,0.068-0.209,0.105-0.268,0.105
		c-0.039,0-0.072-0.012-0.104-0.029c-0.029-0.02-0.055-0.049-0.074-0.088c-0.023-0.039-0.039-0.09-0.051-0.15
		c-0.01-0.063-0.014-0.129-0.014-0.201c0-0.121,0.008-0.219,0.025-0.289c0.016-0.07,0.059-0.139,0.125-0.201
		c0.063-0.063,0.178-0.139,0.34-0.225c0.16-0.084,0.346-0.162,0.557-0.232c0.209-0.07,0.439-0.129,0.688-0.178
		c0.25-0.045,0.502-0.068,0.756-0.068c0.473,0,0.875,0.055,1.207,0.162c0.332,0.105,0.602,0.264,0.807,0.473
		c0.205,0.207,0.354,0.465,0.447,0.771c0.092,0.309,0.139,0.668,0.139,1.076v4.449h0.004V69.658z M412.354,66.649h-1.031
		c-0.332,0-0.619,0.027-0.863,0.084c-0.244,0.055-0.447,0.139-0.607,0.248s-0.279,0.242-0.355,0.396
		c-0.076,0.152-0.113,0.33-0.113,0.531c0,0.342,0.107,0.611,0.324,0.814c0.219,0.203,0.521,0.305,0.912,0.305
		c0.318,0,0.611-0.08,0.883-0.24c0.271-0.162,0.557-0.408,0.855-0.74v-1.398H412.354z"/>
	<path d="M421.42,69.651c0,0.039-0.008,0.074-0.023,0.104c-0.02,0.029-0.049,0.053-0.09,0.068c-0.041,0.018-0.096,0.029-0.164,0.041
		c-0.066,0.01-0.15,0.014-0.248,0.014c-0.104,0-0.189-0.004-0.258-0.014c-0.068-0.012-0.125-0.023-0.168-0.041
		c-0.045-0.018-0.076-0.039-0.096-0.068c-0.021-0.029-0.029-0.063-0.029-0.104V68.78c-0.346,0.375-0.707,0.668-1.08,0.879
		c-0.373,0.209-0.781,0.314-1.227,0.314c-0.484,0-0.896-0.096-1.238-0.281c-0.342-0.189-0.619-0.443-0.832-0.762
		c-0.211-0.32-0.367-0.697-0.465-1.129c-0.098-0.434-0.145-0.889-0.145-1.365c0-0.566,0.061-1.078,0.182-1.535
		c0.123-0.457,0.303-0.846,0.543-1.168c0.238-0.322,0.535-0.57,0.891-0.744c0.354-0.172,0.764-0.26,1.229-0.26
		c0.385,0,0.736,0.084,1.059,0.254c0.318,0.168,0.637,0.416,0.947,0.742v-3.831c0-0.032,0.008-0.065,0.025-0.1
		c0.018-0.03,0.051-0.057,0.1-0.072c0.049-0.017,0.111-0.031,0.188-0.044c0.074-0.013,0.174-0.021,0.289-0.021
		c0.121,0,0.223,0.008,0.301,0.021s0.141,0.026,0.184,0.044c0.045,0.019,0.078,0.042,0.1,0.072c0.021,0.031,0.033,0.064,0.033,0.1
		v9.756H421.42z M420.206,65.016c-0.326-0.406-0.643-0.715-0.947-0.928c-0.307-0.213-0.625-0.318-0.957-0.318
		c-0.307,0-0.566,0.074-0.783,0.221c-0.215,0.146-0.391,0.34-0.521,0.578c-0.133,0.24-0.232,0.51-0.293,0.814
		c-0.064,0.303-0.092,0.609-0.092,0.922c0,0.332,0.023,0.656,0.074,0.975c0.055,0.318,0.143,0.602,0.27,0.846
		c0.127,0.246,0.295,0.445,0.506,0.596c0.209,0.146,0.473,0.223,0.791,0.223c0.16,0,0.316-0.02,0.465-0.064s0.301-0.115,0.457-0.221
		c0.156-0.102,0.32-0.234,0.492-0.396c0.17-0.164,0.352-0.365,0.541-0.605L420.206,65.016L420.206,65.016z"/>
	<path d="M430.473,69.168c0,0.143-0.01,0.254-0.027,0.336c-0.021,0.084-0.049,0.145-0.088,0.184s-0.1,0.076-0.178,0.109
		c-0.078,0.035-0.166,0.063-0.266,0.086c-0.104,0.02-0.207,0.039-0.32,0.055c-0.109,0.014-0.225,0.021-0.336,0.021
		c-0.342,0-0.635-0.047-0.879-0.137c-0.244-0.092-0.445-0.229-0.602-0.41c-0.156-0.184-0.271-0.414-0.342-0.695
		c-0.068-0.279-0.104-0.611-0.104-0.992v-3.854h-0.924c-0.072,0-0.131-0.039-0.176-0.115c-0.045-0.078-0.066-0.205-0.066-0.383
		c0-0.092,0.006-0.17,0.02-0.232c0.014-0.064,0.027-0.117,0.047-0.158c0.021-0.041,0.047-0.07,0.078-0.088s0.066-0.025,0.105-0.025
		h0.916v-1.566c0-0.033,0.008-0.065,0.025-0.096c0.016-0.028,0.049-0.055,0.096-0.076c0.045-0.021,0.105-0.037,0.186-0.049
		c0.078-0.01,0.176-0.016,0.293-0.016c0.123,0,0.225,0.006,0.303,0.016c0.076,0.012,0.139,0.025,0.184,0.049
		c0.043,0.021,0.074,0.048,0.094,0.076c0.021,0.029,0.029,0.063,0.029,0.096v1.566h1.693c0.037,0,0.07,0.008,0.102,0.025
		c0.029,0.018,0.055,0.047,0.078,0.088c0.02,0.041,0.037,0.094,0.047,0.158c0.01,0.063,0.014,0.141,0.014,0.232
		c0,0.178-0.02,0.305-0.063,0.383c-0.045,0.076-0.105,0.115-0.176,0.115h-1.693v3.678c0,0.453,0.068,0.797,0.203,1.029
		c0.133,0.23,0.373,0.348,0.721,0.348c0.111,0,0.213-0.012,0.301-0.033s0.166-0.045,0.234-0.068s0.127-0.049,0.176-0.068
		c0.049-0.021,0.092-0.033,0.131-0.033c0.025,0,0.051,0.006,0.07,0.02c0.021,0.012,0.039,0.035,0.051,0.068
		c0.014,0.035,0.023,0.08,0.033,0.141C430.471,69.008,430.473,69.08,430.473,69.168z"/>
	<path d="M437.747,69.651c0,0.039-0.01,0.072-0.029,0.1c-0.02,0.025-0.051,0.051-0.094,0.068c-0.045,0.021-0.104,0.035-0.184,0.045
		c-0.078,0.01-0.178,0.014-0.293,0.014c-0.123,0-0.225-0.004-0.303-0.014s-0.139-0.023-0.184-0.045
		c-0.043-0.02-0.074-0.043-0.094-0.068c-0.021-0.025-0.029-0.061-0.029-0.1v-3.859c0-0.377-0.029-0.68-0.088-0.906
		c-0.061-0.23-0.146-0.43-0.258-0.596s-0.26-0.293-0.438-0.381s-0.385-0.131-0.619-0.131c-0.303,0-0.604,0.107-0.906,0.322
		c-0.305,0.215-0.619,0.527-0.951,0.943v4.605c0,0.039-0.012,0.072-0.029,0.1c-0.02,0.025-0.051,0.051-0.096,0.07
		c-0.043,0.018-0.105,0.033-0.186,0.043s-0.178,0.016-0.299,0.016c-0.117,0-0.215-0.006-0.293-0.016s-0.141-0.023-0.188-0.043
		c-0.049-0.021-0.078-0.045-0.098-0.07c-0.018-0.025-0.023-0.061-0.023-0.1v-9.786c0-0.037,0.008-0.072,0.023-0.102
		c0.02-0.03,0.049-0.056,0.098-0.074c0.047-0.02,0.107-0.033,0.188-0.043s0.176-0.017,0.293-0.017c0.121,0,0.221,0.007,0.299,0.017
		s0.143,0.022,0.186,0.043c0.045,0.021,0.076,0.045,0.096,0.074c0.021,0.028,0.029,0.063,0.029,0.102v3.948
		c0.346-0.365,0.693-0.639,1.047-0.814c0.352-0.18,0.705-0.27,1.063-0.27c0.439,0,0.811,0.074,1.109,0.225
		c0.301,0.148,0.543,0.35,0.729,0.598c0.188,0.25,0.318,0.541,0.398,0.875c0.082,0.336,0.121,0.738,0.121,1.213L437.747,69.651
		L437.747,69.651z"/>
	<path d="M445.577,66.069c0,0.191-0.047,0.326-0.145,0.406c-0.096,0.082-0.203,0.121-0.326,0.121h-4.344
		c0,0.365,0.037,0.695,0.111,0.988s0.195,0.545,0.367,0.756c0.172,0.209,0.396,0.369,0.67,0.482
		c0.275,0.111,0.611,0.168,1.008,0.168c0.314,0,0.594-0.025,0.84-0.076c0.246-0.053,0.457-0.107,0.639-0.174
		c0.18-0.063,0.324-0.119,0.439-0.172c0.115-0.051,0.203-0.076,0.262-0.076c0.033,0,0.064,0.008,0.094,0.025
		c0.025,0.018,0.047,0.043,0.063,0.076c0.018,0.033,0.025,0.082,0.033,0.145c0.008,0.061,0.012,0.135,0.012,0.223
		c0,0.063-0.004,0.119-0.008,0.164c-0.006,0.049-0.012,0.09-0.02,0.125c-0.008,0.037-0.021,0.07-0.035,0.1
		c-0.02,0.029-0.039,0.059-0.066,0.084c-0.025,0.027-0.104,0.072-0.236,0.133s-0.305,0.121-0.514,0.18
		c-0.211,0.061-0.453,0.111-0.729,0.156c-0.275,0.047-0.57,0.07-0.883,0.07c-0.541,0-1.018-0.076-1.426-0.229
		c-0.406-0.15-0.75-0.375-1.027-0.674s-0.488-0.672-0.629-1.121c-0.145-0.447-0.215-0.971-0.215-1.564
		c0-0.566,0.072-1.076,0.221-1.527c0.146-0.453,0.355-0.836,0.635-1.15c0.273-0.313,0.607-0.557,1-0.725
		c0.391-0.17,0.826-0.254,1.311-0.254c0.52,0,0.957,0.084,1.322,0.25c0.363,0.166,0.662,0.389,0.896,0.67
		c0.232,0.281,0.404,0.609,0.518,0.988c0.109,0.379,0.164,0.781,0.164,1.213L445.577,66.069L445.577,66.069z M444.362,65.711
		c0.014-0.635-0.127-1.133-0.424-1.494c-0.301-0.361-0.738-0.543-1.324-0.543c-0.299,0-0.563,0.057-0.787,0.17
		c-0.227,0.111-0.416,0.262-0.568,0.445c-0.15,0.188-0.27,0.4-0.354,0.646c-0.084,0.248-0.131,0.506-0.143,0.771h3.6V65.711
		L444.362,65.711z"/>
</g>
<g enable-background="new    ">
	<path d="M367.061,81.36c0,0.17-0.021,0.293-0.068,0.369s-0.105,0.113-0.18,0.113h-0.943c0.17,0.176,0.289,0.369,0.355,0.582
		c0.068,0.213,0.105,0.434,0.105,0.662c0,0.383-0.063,0.719-0.186,1.012c-0.119,0.293-0.297,0.541-0.521,0.744
		c-0.229,0.201-0.496,0.357-0.809,0.465c-0.314,0.107-0.66,0.162-1.041,0.162c-0.27,0-0.523-0.037-0.768-0.107
		c-0.24-0.07-0.428-0.16-0.561-0.268c-0.088,0.088-0.16,0.188-0.215,0.301c-0.059,0.113-0.084,0.242-0.084,0.389
		c0,0.17,0.076,0.314,0.236,0.424c0.158,0.113,0.369,0.176,0.633,0.186l1.723,0.074c0.328,0.01,0.627,0.055,0.898,0.135
		c0.273,0.08,0.514,0.195,0.711,0.346c0.201,0.146,0.357,0.332,0.471,0.549c0.111,0.219,0.168,0.471,0.168,0.758
		c0,0.303-0.063,0.592-0.189,0.863c-0.127,0.273-0.322,0.516-0.582,0.723c-0.262,0.209-0.596,0.371-1,0.49
		c-0.406,0.119-0.885,0.182-1.436,0.182c-0.533,0-0.984-0.047-1.359-0.137c-0.373-0.092-0.68-0.215-0.918-0.371
		c-0.24-0.154-0.414-0.342-0.521-0.561c-0.107-0.217-0.16-0.453-0.16-0.707c0-0.16,0.02-0.316,0.059-0.469
		c0.039-0.154,0.1-0.295,0.18-0.434c0.08-0.137,0.182-0.268,0.303-0.393c0.117-0.125,0.256-0.248,0.412-0.369
		c-0.238-0.123-0.416-0.273-0.529-0.461c-0.115-0.186-0.174-0.387-0.174-0.602c0-0.299,0.063-0.564,0.184-0.799
		c0.123-0.234,0.273-0.443,0.455-0.631c-0.152-0.182-0.271-0.385-0.359-0.609c-0.088-0.229-0.133-0.502-0.133-0.824
		c0-0.377,0.064-0.713,0.191-1.012s0.303-0.551,0.525-0.754c0.225-0.205,0.494-0.363,0.811-0.473
		c0.314-0.109,0.658-0.166,1.027-0.166c0.201,0,0.389,0.012,0.563,0.033s0.336,0.053,0.486,0.092h1.99
		c0.084,0,0.146,0.041,0.189,0.121C367.04,81.071,367.061,81.194,367.061,81.36z M365.78,88.317c0-0.283-0.117-0.502-0.35-0.654
		c-0.23-0.152-0.547-0.234-0.939-0.246l-1.707-0.059c-0.156,0.123-0.285,0.238-0.385,0.348c-0.102,0.109-0.182,0.217-0.238,0.314
		c-0.061,0.102-0.098,0.199-0.121,0.297c-0.021,0.098-0.031,0.199-0.031,0.301c0,0.316,0.16,0.561,0.482,0.723
		s0.771,0.244,1.348,0.244c0.367,0,0.672-0.033,0.92-0.104c0.246-0.07,0.445-0.166,0.598-0.281c0.15-0.117,0.26-0.252,0.324-0.404
		C365.747,88.643,365.78,88.483,365.78,88.317z M365.17,83.096c0-0.449-0.123-0.799-0.369-1.053
		c-0.246-0.25-0.598-0.377-1.051-0.377c-0.234,0-0.438,0.039-0.611,0.117s-0.316,0.188-0.432,0.322
		c-0.115,0.137-0.201,0.293-0.258,0.473c-0.059,0.18-0.084,0.365-0.084,0.561c0,0.436,0.123,0.777,0.371,1.025
		c0.246,0.25,0.592,0.373,1.035,0.373c0.238,0,0.445-0.037,0.621-0.111c0.178-0.076,0.32-0.182,0.438-0.316
		c0.115-0.133,0.199-0.289,0.256-0.465S365.17,83.285,365.17,83.096z"/>
	<path d="M374.114,84.069c0,0.191-0.047,0.326-0.145,0.406c-0.096,0.082-0.205,0.121-0.328,0.121h-4.34
		c0,0.365,0.035,0.695,0.109,0.988s0.197,0.545,0.369,0.756c0.17,0.209,0.395,0.369,0.668,0.482c0.273,0.111,0.609,0.168,1.01,0.168
		c0.313,0,0.594-0.025,0.838-0.076c0.246-0.053,0.459-0.107,0.637-0.174c0.182-0.063,0.326-0.119,0.441-0.172
		c0.115-0.051,0.203-0.076,0.262-0.076c0.035,0,0.064,0.008,0.094,0.025c0.027,0.016,0.049,0.043,0.063,0.076
		c0.016,0.033,0.025,0.082,0.033,0.145c0.008,0.061,0.012,0.135,0.012,0.223c0,0.063-0.004,0.119-0.008,0.164
		c-0.006,0.049-0.012,0.09-0.02,0.125c-0.008,0.037-0.021,0.07-0.035,0.1c-0.02,0.029-0.039,0.059-0.066,0.084
		c-0.027,0.027-0.104,0.072-0.238,0.133c-0.131,0.061-0.303,0.121-0.512,0.18c-0.211,0.061-0.453,0.111-0.729,0.156
		c-0.277,0.047-0.57,0.07-0.885,0.07c-0.543,0-1.018-0.076-1.424-0.229c-0.408-0.15-0.752-0.375-1.027-0.674
		c-0.279-0.299-0.488-0.672-0.633-1.121c-0.141-0.447-0.213-0.971-0.213-1.564c0-0.566,0.074-1.076,0.223-1.527
		c0.146-0.453,0.355-0.836,0.633-1.15c0.273-0.313,0.607-0.557,1-0.725c0.391-0.17,0.828-0.254,1.311-0.254
		c0.52,0,0.959,0.084,1.322,0.25s0.664,0.389,0.896,0.67c0.234,0.281,0.406,0.609,0.518,0.988c0.109,0.379,0.164,0.781,0.164,1.213
		V84.069L374.114,84.069z M372.899,83.711c0.014-0.635-0.127-1.133-0.426-1.494c-0.297-0.361-0.736-0.543-1.32-0.543
		c-0.303,0-0.564,0.057-0.789,0.17c-0.229,0.111-0.416,0.262-0.568,0.445c-0.152,0.188-0.27,0.4-0.354,0.646
		c-0.082,0.248-0.131,0.506-0.141,0.771h3.598V83.711L372.899,83.711z"/>
	<path d="M381.629,87.651c0,0.039-0.01,0.072-0.029,0.1c-0.02,0.025-0.053,0.051-0.096,0.068c-0.045,0.021-0.104,0.035-0.184,0.045
		s-0.178,0.014-0.293,0.014c-0.121,0-0.225-0.004-0.303-0.014c-0.076-0.01-0.139-0.023-0.182-0.045
		c-0.045-0.02-0.076-0.043-0.096-0.068c-0.021-0.025-0.029-0.061-0.029-0.1v-3.859c0-0.377-0.029-0.68-0.088-0.906
		c-0.061-0.23-0.146-0.43-0.256-0.596c-0.113-0.166-0.258-0.293-0.438-0.381s-0.385-0.131-0.619-0.131
		c-0.303,0-0.604,0.107-0.906,0.322c-0.305,0.215-0.621,0.527-0.953,0.943v4.605c0,0.039-0.01,0.072-0.029,0.1
		c-0.02,0.025-0.051,0.051-0.096,0.07c-0.043,0.018-0.104,0.033-0.184,0.043c-0.078,0.01-0.18,0.016-0.301,0.016
		c-0.117,0-0.215-0.006-0.293-0.016s-0.141-0.023-0.188-0.043c-0.047-0.021-0.078-0.045-0.096-0.07s-0.025-0.061-0.025-0.1v-6.592
		c0-0.039,0.008-0.07,0.021-0.102c0.016-0.023,0.043-0.051,0.088-0.07c0.043-0.021,0.102-0.037,0.168-0.045
		c0.068-0.008,0.158-0.012,0.271-0.012c0.107,0,0.195,0.004,0.268,0.012c0.07,0.008,0.125,0.021,0.164,0.045
		c0.039,0.021,0.066,0.047,0.084,0.07c0.02,0.027,0.025,0.063,0.025,0.102v0.871c0.371-0.414,0.742-0.721,1.109-0.912
		s0.74-0.289,1.115-0.289c0.439,0,0.813,0.074,1.109,0.225c0.301,0.148,0.545,0.35,0.729,0.598c0.186,0.25,0.318,0.541,0.398,0.875
		c0.08,0.336,0.121,0.736,0.121,1.205v4.021H381.629z"/>
	<path d="M389.458,84.069c0,0.191-0.047,0.326-0.143,0.406c-0.098,0.082-0.205,0.121-0.328,0.121h-4.34
		c0,0.365,0.033,0.695,0.107,0.988s0.197,0.545,0.369,0.756c0.17,0.209,0.395,0.369,0.668,0.482c0.275,0.111,0.611,0.168,1.01,0.168
		c0.313,0,0.594-0.025,0.838-0.076c0.246-0.053,0.459-0.107,0.639-0.174c0.18-0.063,0.324-0.119,0.439-0.172
		c0.115-0.051,0.203-0.076,0.264-0.076c0.033,0,0.063,0.008,0.092,0.025c0.025,0.018,0.049,0.043,0.063,0.076
		c0.016,0.033,0.025,0.082,0.031,0.145c0.008,0.061,0.012,0.135,0.012,0.223c0,0.063-0.002,0.119-0.008,0.164
		c-0.004,0.049-0.01,0.09-0.018,0.125c-0.01,0.037-0.021,0.07-0.037,0.1c-0.018,0.031-0.039,0.059-0.066,0.084
		c-0.023,0.027-0.104,0.072-0.236,0.133s-0.303,0.121-0.514,0.18c-0.209,0.061-0.453,0.111-0.729,0.156
		c-0.275,0.047-0.57,0.07-0.883,0.07c-0.541,0-1.02-0.076-1.426-0.229c-0.406-0.15-0.752-0.375-1.027-0.674
		c-0.279-0.299-0.488-0.672-0.633-1.121c-0.141-0.447-0.211-0.971-0.211-1.564c0-0.566,0.072-1.076,0.221-1.527
		c0.146-0.453,0.355-0.836,0.633-1.15c0.277-0.313,0.607-0.557,1-0.725c0.391-0.17,0.828-0.254,1.313-0.254
		c0.52,0,0.957,0.084,1.32,0.25c0.365,0.166,0.664,0.389,0.898,0.67c0.232,0.281,0.404,0.609,0.516,0.988
		c0.109,0.379,0.166,0.781,0.166,1.213V84.069L389.458,84.069z M388.243,83.711c0.016-0.635-0.127-1.133-0.424-1.494
		s-0.738-0.543-1.322-0.543c-0.301,0-0.563,0.057-0.789,0.17c-0.225,0.111-0.414,0.262-0.566,0.445
		c-0.15,0.188-0.271,0.4-0.354,0.646c-0.084,0.248-0.131,0.506-0.141,0.771h3.596V83.711L388.243,83.711z"/>
	<path d="M395.149,81.49c0,0.107-0.002,0.199-0.008,0.271c-0.006,0.074-0.016,0.131-0.027,0.174
		c-0.018,0.041-0.033,0.072-0.057,0.094c-0.021,0.023-0.053,0.033-0.092,0.033s-0.088-0.01-0.143-0.033
		c-0.059-0.02-0.121-0.043-0.191-0.063c-0.07-0.023-0.148-0.043-0.238-0.064c-0.088-0.02-0.184-0.029-0.283-0.029
		c-0.123,0-0.242,0.023-0.359,0.072s-0.24,0.131-0.369,0.242c-0.131,0.113-0.266,0.262-0.406,0.447
		c-0.141,0.184-0.299,0.412-0.469,0.68v4.336c0,0.041-0.01,0.072-0.029,0.1s-0.053,0.053-0.096,0.07
		c-0.045,0.021-0.104,0.033-0.184,0.043s-0.178,0.018-0.301,0.018c-0.117,0-0.217-0.008-0.295-0.018
		c-0.076-0.01-0.141-0.021-0.186-0.043c-0.047-0.02-0.078-0.043-0.096-0.07c-0.02-0.025-0.025-0.059-0.025-0.1v-6.592
		c0-0.037,0.008-0.07,0.021-0.1c0.016-0.025,0.045-0.051,0.088-0.072c0.045-0.021,0.1-0.035,0.168-0.043
		c0.066-0.008,0.16-0.012,0.271-0.012c0.107,0,0.195,0.004,0.27,0.012c0.068,0.008,0.125,0.021,0.164,0.043s0.064,0.047,0.084,0.072
		c0.018,0.027,0.023,0.063,0.023,0.1v0.961c0.184-0.264,0.354-0.48,0.512-0.646c0.156-0.166,0.309-0.297,0.449-0.393
		c0.143-0.096,0.281-0.16,0.42-0.197c0.141-0.035,0.279-0.055,0.424-0.055c0.063,0,0.135,0.004,0.215,0.012
		c0.082,0.008,0.166,0.021,0.254,0.041s0.166,0.041,0.238,0.064c0.068,0.021,0.119,0.049,0.148,0.07
		c0.029,0.025,0.049,0.051,0.061,0.07c0.01,0.021,0.018,0.051,0.023,0.084c0.006,0.035,0.012,0.084,0.016,0.15
		C395.149,81.289,395.149,81.379,395.149,81.49z"/>
	<path d="M401.184,87.658c0,0.061-0.02,0.104-0.059,0.131c-0.039,0.029-0.092,0.055-0.16,0.066c-0.066,0.016-0.17,0.021-0.301,0.021
		c-0.127,0-0.23-0.008-0.305-0.021c-0.076-0.014-0.133-0.037-0.164-0.066c-0.035-0.027-0.053-0.07-0.053-0.131v-0.66
		c-0.287,0.311-0.607,0.549-0.965,0.721c-0.354,0.17-0.729,0.256-1.123,0.256c-0.348,0-0.658-0.045-0.939-0.135
		c-0.281-0.094-0.521-0.223-0.719-0.395c-0.197-0.17-0.354-0.381-0.463-0.629c-0.107-0.25-0.162-0.533-0.162-0.85
		c0-0.371,0.074-0.693,0.227-0.969c0.152-0.271,0.369-0.5,0.652-0.682c0.281-0.182,0.629-0.316,1.039-0.406
		c0.408-0.09,0.871-0.137,1.385-0.137h0.908v-0.512c0-0.254-0.027-0.48-0.08-0.676c-0.057-0.193-0.143-0.355-0.262-0.486
		c-0.119-0.129-0.273-0.229-0.465-0.293s-0.426-0.1-0.703-0.1c-0.299,0-0.564,0.035-0.803,0.105
		c-0.236,0.07-0.445,0.148-0.623,0.234s-0.326,0.162-0.447,0.234c-0.119,0.068-0.207,0.105-0.266,0.105
		c-0.039,0-0.074-0.012-0.105-0.029c-0.027-0.02-0.055-0.049-0.074-0.088c-0.021-0.039-0.037-0.09-0.049-0.15
		c-0.01-0.063-0.016-0.129-0.016-0.201c0-0.121,0.008-0.219,0.025-0.289s0.059-0.139,0.125-0.201c0.064-0.063,0.18-0.139,0.34-0.225
		c0.162-0.084,0.348-0.162,0.557-0.232c0.211-0.07,0.439-0.129,0.689-0.178c0.248-0.045,0.5-0.068,0.754-0.068
		c0.475,0,0.877,0.055,1.209,0.162c0.332,0.105,0.6,0.264,0.805,0.473c0.205,0.207,0.355,0.465,0.447,0.771
		c0.094,0.307,0.139,0.668,0.139,1.076v4.449h0.004V87.658z M399.983,84.649h-1.031c-0.332,0-0.621,0.027-0.865,0.084
		c-0.244,0.055-0.447,0.139-0.605,0.248c-0.162,0.109-0.279,0.242-0.355,0.396c-0.076,0.152-0.113,0.33-0.113,0.531
		c0,0.342,0.107,0.611,0.326,0.814c0.217,0.203,0.521,0.305,0.912,0.305c0.316,0,0.611-0.08,0.883-0.24
		c0.271-0.162,0.557-0.408,0.854-0.74v-1.398H399.983z"/>
	<path d="M406.692,87.168c0,0.143-0.012,0.254-0.029,0.336c-0.021,0.084-0.049,0.145-0.088,0.184s-0.1,0.076-0.176,0.109
		c-0.078,0.035-0.166,0.063-0.268,0.086c-0.102,0.02-0.207,0.039-0.318,0.055c-0.111,0.014-0.227,0.021-0.338,0.021
		c-0.342,0-0.635-0.047-0.879-0.137c-0.244-0.092-0.443-0.229-0.602-0.41c-0.156-0.184-0.271-0.414-0.34-0.695
		c-0.07-0.279-0.105-0.611-0.105-0.992v-3.854h-0.924c-0.072,0-0.131-0.039-0.176-0.115c-0.043-0.078-0.066-0.205-0.066-0.383
		c0-0.092,0.006-0.17,0.021-0.232c0.012-0.064,0.025-0.117,0.047-0.158c0.02-0.041,0.045-0.07,0.078-0.088
		c0.029-0.018,0.064-0.025,0.104-0.025h0.916v-1.566c0-0.033,0.008-0.064,0.025-0.096c0.016-0.029,0.049-0.055,0.096-0.076
		c0.045-0.021,0.107-0.037,0.188-0.049c0.078-0.01,0.176-0.016,0.293-0.016c0.123,0,0.223,0.006,0.301,0.016
		c0.078,0.012,0.139,0.025,0.184,0.049c0.043,0.023,0.074,0.049,0.096,0.076c0.02,0.029,0.027,0.063,0.027,0.096v1.566h1.693
		c0.039,0,0.072,0.008,0.102,0.025c0.031,0.018,0.057,0.047,0.078,0.088s0.037,0.094,0.047,0.158
		c0.012,0.063,0.016,0.141,0.016,0.232c0,0.178-0.021,0.305-0.064,0.383c-0.045,0.076-0.104,0.115-0.176,0.115h-1.693v3.678
		c0,0.453,0.068,0.797,0.203,1.029c0.133,0.23,0.373,0.348,0.723,0.348c0.109,0,0.211-0.012,0.301-0.033
		c0.088-0.021,0.166-0.045,0.232-0.068c0.068-0.023,0.127-0.049,0.176-0.068c0.051-0.021,0.094-0.033,0.133-0.033
		c0.023,0,0.049,0.006,0.068,0.02c0.021,0.012,0.039,0.035,0.053,0.068c0.012,0.035,0.021,0.08,0.031,0.141
		C406.69,87.008,406.692,87.08,406.692,87.168z"/>
	<path d="M413.752,84.069c0,0.191-0.047,0.326-0.143,0.406c-0.098,0.082-0.205,0.121-0.328,0.121h-4.342
		c0,0.365,0.035,0.695,0.109,0.988s0.195,0.545,0.367,0.756c0.172,0.209,0.396,0.369,0.67,0.482
		c0.275,0.111,0.611,0.168,1.008,0.168c0.314,0,0.596-0.025,0.84-0.076c0.246-0.053,0.457-0.107,0.639-0.174
		c0.18-0.063,0.326-0.119,0.439-0.172c0.115-0.051,0.203-0.076,0.264-0.076c0.031,0,0.063,0.008,0.092,0.025
		c0.025,0.018,0.047,0.043,0.063,0.076c0.018,0.033,0.025,0.082,0.033,0.145c0.008,0.061,0.012,0.135,0.012,0.223
		c0,0.063-0.004,0.119-0.008,0.164c-0.006,0.049-0.012,0.09-0.02,0.125c-0.006,0.037-0.021,0.07-0.035,0.1
		c-0.02,0.029-0.039,0.059-0.066,0.084c-0.025,0.027-0.104,0.072-0.236,0.133s-0.305,0.121-0.514,0.18
		c-0.211,0.061-0.453,0.111-0.729,0.156c-0.277,0.047-0.57,0.07-0.883,0.07c-0.543,0-1.02-0.076-1.426-0.229
		c-0.406-0.15-0.752-0.375-1.027-0.674c-0.279-0.299-0.488-0.672-0.631-1.121c-0.143-0.447-0.215-0.971-0.215-1.564
		c0-0.566,0.074-1.076,0.223-1.527c0.146-0.453,0.355-0.836,0.633-1.15c0.275-0.313,0.609-0.557,1-0.725
		c0.391-0.17,0.828-0.254,1.311-0.254c0.52,0,0.959,0.084,1.322,0.25s0.664,0.389,0.898,0.67c0.232,0.281,0.404,0.609,0.516,0.988
		c0.109,0.379,0.164,0.781,0.164,1.213V84.069L413.752,84.069z M412.538,83.711c0.014-0.635-0.127-1.133-0.424-1.494
		s-0.738-0.543-1.322-0.543c-0.301,0-0.563,0.057-0.789,0.17c-0.227,0.111-0.416,0.262-0.568,0.445
		c-0.15,0.188-0.27,0.4-0.354,0.646c-0.082,0.248-0.129,0.506-0.139,0.771h3.596V83.711L412.538,83.711z"/>
	<path d="M421.239,87.651c0,0.039-0.01,0.074-0.025,0.104c-0.018,0.029-0.047,0.053-0.088,0.068
		c-0.043,0.018-0.098,0.029-0.166,0.041c-0.068,0.01-0.15,0.014-0.248,0.014c-0.104,0-0.188-0.004-0.256-0.014
		c-0.07-0.012-0.125-0.023-0.17-0.041c-0.043-0.018-0.074-0.039-0.094-0.068c-0.021-0.029-0.029-0.063-0.029-0.104V86.78
		c-0.348,0.375-0.707,0.668-1.082,0.879c-0.373,0.209-0.781,0.314-1.229,0.314c-0.48,0-0.895-0.096-1.234-0.281
		c-0.342-0.189-0.619-0.443-0.832-0.762c-0.213-0.32-0.367-0.697-0.465-1.129c-0.1-0.434-0.146-0.889-0.146-1.365
		c0-0.566,0.063-1.078,0.186-1.535c0.121-0.457,0.303-0.846,0.541-1.168s0.533-0.57,0.891-0.744c0.354-0.172,0.762-0.26,1.227-0.26
		c0.387,0,0.738,0.084,1.061,0.254c0.316,0.168,0.635,0.416,0.947,0.742v-3.83c0-0.033,0.01-0.066,0.023-0.1
		c0.02-0.031,0.051-0.057,0.102-0.072c0.049-0.018,0.109-0.031,0.188-0.045c0.074-0.012,0.172-0.02,0.289-0.02
		c0.121,0,0.223,0.008,0.301,0.02c0.078,0.014,0.141,0.027,0.184,0.045c0.045,0.018,0.078,0.041,0.1,0.072s0.033,0.064,0.033,0.1
		v9.756H421.239z M420.022,83.016c-0.326-0.406-0.645-0.715-0.947-0.928c-0.309-0.213-0.625-0.318-0.957-0.318
		c-0.307,0-0.568,0.074-0.783,0.221s-0.389,0.34-0.521,0.578c-0.137,0.24-0.232,0.51-0.293,0.814
		c-0.063,0.303-0.094,0.609-0.094,0.922c0,0.332,0.025,0.656,0.076,0.975c0.053,0.318,0.143,0.602,0.27,0.846
		c0.127,0.246,0.297,0.445,0.506,0.596c0.211,0.148,0.475,0.223,0.791,0.223c0.16,0,0.314-0.02,0.465-0.064
		c0.146-0.045,0.303-0.115,0.459-0.221c0.156-0.102,0.318-0.234,0.49-0.396c0.17-0.164,0.352-0.365,0.541-0.605L420.022,83.016
		L420.022,83.016z"/>
	<path d="M430.833,87.614c-0.02,0.055-0.045,0.098-0.08,0.133c-0.033,0.033-0.082,0.063-0.143,0.08
		c-0.063,0.021-0.141,0.033-0.234,0.041c-0.096,0.006-0.213,0.01-0.354,0.01c-0.107,0-0.201,0-0.281-0.004
		c-0.08-0.002-0.15-0.008-0.209-0.018c-0.061-0.01-0.109-0.021-0.15-0.033s-0.076-0.025-0.104-0.047
		c-0.029-0.02-0.055-0.043-0.07-0.07c-0.018-0.025-0.033-0.059-0.047-0.098l-3.1-8.805c-0.039-0.107-0.061-0.193-0.063-0.262
		c-0.004-0.064,0.018-0.113,0.063-0.148c0.045-0.033,0.113-0.057,0.213-0.066c0.098-0.008,0.229-0.014,0.396-0.014
		c0.137,0,0.244,0.004,0.326,0.01c0.08,0.008,0.143,0.021,0.186,0.041c0.045,0.021,0.078,0.045,0.102,0.076
		c0.02,0.033,0.043,0.072,0.063,0.121l2.719,7.977h0.008l2.643-7.961c0.018-0.055,0.033-0.098,0.053-0.133
		c0.021-0.033,0.055-0.061,0.104-0.08c0.049-0.018,0.117-0.033,0.205-0.041c0.088-0.006,0.205-0.01,0.352-0.01
		c0.152,0,0.271,0.006,0.359,0.018c0.088,0.014,0.146,0.035,0.18,0.07c0.033,0.033,0.043,0.084,0.037,0.15
		c-0.008,0.064-0.031,0.15-0.068,0.26L430.833,87.614z"/>
	<path d="M440.252,84.069c0,0.191-0.049,0.326-0.145,0.406c-0.098,0.082-0.205,0.121-0.326,0.121h-4.342
		c0,0.365,0.035,0.695,0.107,0.988c0.074,0.293,0.197,0.545,0.369,0.756c0.172,0.209,0.396,0.369,0.67,0.482
		c0.273,0.111,0.609,0.168,1.008,0.168c0.314,0,0.596-0.025,0.84-0.076c0.244-0.053,0.457-0.107,0.637-0.174
		c0.18-0.063,0.328-0.119,0.441-0.172c0.115-0.051,0.201-0.076,0.262-0.076c0.033,0,0.064,0.008,0.092,0.025
		c0.025,0.018,0.049,0.043,0.063,0.076c0.016,0.033,0.025,0.082,0.033,0.145c0.006,0.061,0.01,0.135,0.01,0.223
		c0,0.063-0.002,0.119-0.006,0.164c-0.006,0.049-0.012,0.09-0.02,0.125c-0.008,0.037-0.021,0.07-0.035,0.1
		c-0.02,0.029-0.041,0.059-0.066,0.084c-0.025,0.027-0.105,0.072-0.236,0.133c-0.135,0.061-0.305,0.121-0.516,0.18
		c-0.209,0.061-0.453,0.111-0.729,0.156c-0.275,0.047-0.57,0.07-0.883,0.07c-0.541,0-1.018-0.076-1.426-0.229
		c-0.406-0.15-0.75-0.375-1.027-0.674s-0.488-0.672-0.629-1.121c-0.145-0.447-0.215-0.971-0.215-1.564
		c0-0.566,0.072-1.076,0.221-1.527c0.146-0.453,0.355-0.836,0.635-1.15c0.273-0.313,0.607-0.557,1-0.725
		c0.391-0.17,0.826-0.254,1.311-0.254c0.52,0,0.957,0.084,1.322,0.25c0.363,0.166,0.662,0.389,0.896,0.67
		c0.232,0.281,0.404,0.609,0.518,0.988c0.109,0.379,0.164,0.781,0.164,1.213L440.252,84.069L440.252,84.069z M439.036,83.711
		c0.016-0.635-0.125-1.133-0.424-1.494c-0.297-0.361-0.738-0.543-1.322-0.543c-0.299,0-0.563,0.057-0.789,0.17
		c-0.225,0.111-0.414,0.262-0.566,0.445c-0.15,0.188-0.27,0.4-0.354,0.646c-0.084,0.248-0.131,0.506-0.141,0.771h3.596V83.711z"/>
	<path d="M447.598,81.36c0,0.17-0.021,0.293-0.068,0.369s-0.105,0.113-0.182,0.113h-0.941c0.17,0.176,0.289,0.369,0.355,0.582
		c0.068,0.213,0.105,0.434,0.105,0.662c0,0.383-0.063,0.719-0.186,1.012c-0.121,0.293-0.297,0.541-0.521,0.744
		c-0.229,0.201-0.496,0.357-0.811,0.465c-0.313,0.107-0.658,0.162-1.041,0.162c-0.268,0-0.521-0.037-0.766-0.107
		c-0.24-0.07-0.428-0.16-0.561-0.268c-0.088,0.088-0.16,0.188-0.217,0.301s-0.084,0.242-0.084,0.389c0,0.17,0.078,0.314,0.238,0.424
		c0.158,0.113,0.369,0.176,0.633,0.186l1.723,0.074c0.326,0.01,0.627,0.055,0.898,0.135c0.273,0.08,0.512,0.195,0.711,0.346
		c0.201,0.146,0.357,0.332,0.471,0.549c0.111,0.219,0.168,0.471,0.168,0.758c0,0.303-0.063,0.592-0.189,0.863
		c-0.127,0.273-0.322,0.516-0.582,0.723c-0.262,0.209-0.596,0.371-1,0.49c-0.406,0.119-0.885,0.182-1.436,0.182
		c-0.533,0-0.984-0.047-1.359-0.137c-0.373-0.092-0.68-0.215-0.918-0.371c-0.24-0.154-0.414-0.342-0.521-0.561
		c-0.105-0.217-0.16-0.453-0.16-0.707c0-0.16,0.02-0.316,0.059-0.469c0.039-0.154,0.102-0.295,0.182-0.434
		c0.078-0.137,0.18-0.268,0.301-0.393c0.119-0.125,0.258-0.248,0.414-0.369c-0.24-0.123-0.418-0.273-0.531-0.461
		c-0.115-0.186-0.172-0.387-0.172-0.602c0-0.299,0.061-0.564,0.182-0.799c0.123-0.234,0.273-0.443,0.455-0.631
		c-0.15-0.182-0.27-0.385-0.357-0.609c-0.09-0.229-0.133-0.502-0.133-0.824c0-0.377,0.063-0.713,0.189-1.012
		s0.303-0.551,0.527-0.754c0.225-0.205,0.492-0.363,0.809-0.473s0.658-0.166,1.029-0.166c0.199,0,0.387,0.012,0.561,0.033
		s0.336,0.053,0.488,0.092h1.99c0.084,0,0.146,0.041,0.188,0.121C447.577,81.071,447.598,81.194,447.598,81.36z M446.317,88.317
		c0-0.283-0.117-0.502-0.35-0.654c-0.23-0.152-0.547-0.234-0.939-0.246l-1.707-0.059c-0.156,0.123-0.285,0.238-0.385,0.348
		c-0.102,0.109-0.182,0.217-0.238,0.314c-0.061,0.102-0.1,0.199-0.121,0.297s-0.031,0.199-0.031,0.301
		c0,0.316,0.16,0.561,0.482,0.723c0.32,0.162,0.771,0.244,1.348,0.244c0.367,0,0.672-0.033,0.92-0.104
		c0.246-0.07,0.445-0.166,0.598-0.281c0.15-0.117,0.26-0.252,0.324-0.404C446.284,88.643,446.317,88.483,446.317,88.317z
		 M445.708,83.096c0-0.449-0.123-0.799-0.369-1.053c-0.246-0.25-0.598-0.377-1.051-0.377c-0.234,0-0.439,0.039-0.611,0.117
		c-0.174,0.078-0.316,0.188-0.432,0.322c-0.115,0.137-0.201,0.293-0.258,0.473c-0.059,0.18-0.084,0.365-0.084,0.561
		c0,0.436,0.123,0.777,0.371,1.025c0.244,0.25,0.592,0.373,1.033,0.373c0.24,0,0.447-0.037,0.623-0.111
		c0.178-0.076,0.32-0.182,0.438-0.316c0.113-0.133,0.199-0.289,0.256-0.465S445.708,83.285,445.708,83.096z"/>
	<path d="M452.118,84.135c0,0.191-0.021,0.322-0.066,0.396c-0.043,0.07-0.105,0.107-0.188,0.107h-3.064
		c-0.088,0-0.152-0.037-0.195-0.111c-0.047-0.076-0.066-0.207-0.066-0.395c0-0.186,0.021-0.313,0.066-0.389
		c0.043-0.072,0.107-0.109,0.195-0.109h3.064c0.039,0,0.072,0.008,0.104,0.021c0.031,0.016,0.061,0.043,0.08,0.084
		c0.021,0.041,0.039,0.096,0.053,0.156C452.112,83.965,452.118,84.043,452.118,84.135z"/>
	<path d="M459.917,87.381c0.064,0.105,0.102,0.191,0.113,0.256s-0.002,0.113-0.047,0.148c-0.043,0.037-0.115,0.063-0.219,0.072
		c-0.1,0.014-0.23,0.02-0.396,0.02c-0.156,0-0.277-0.004-0.365-0.01c-0.088-0.01-0.158-0.021-0.209-0.041
		c-0.053-0.02-0.092-0.043-0.117-0.068c-0.025-0.027-0.051-0.063-0.068-0.107l-2.109-3.77l-2.131,3.77
		c-0.025,0.045-0.051,0.082-0.08,0.111c-0.029,0.027-0.07,0.053-0.121,0.068c-0.053,0.018-0.121,0.027-0.209,0.037
		c-0.088,0.006-0.205,0.01-0.352,0.01c-0.162,0-0.289-0.006-0.383-0.02c-0.094-0.012-0.156-0.035-0.193-0.072
		c-0.035-0.035-0.049-0.086-0.035-0.148c0.012-0.063,0.049-0.148,0.113-0.256l2.586-4.359l-2.471-4.211
		c-0.059-0.107-0.098-0.193-0.111-0.26c-0.02-0.066-0.006-0.117,0.033-0.154c0.037-0.035,0.105-0.061,0.203-0.068
		c0.1-0.01,0.23-0.016,0.402-0.016c0.146,0,0.266,0.004,0.359,0.012c0.092,0.008,0.166,0.021,0.219,0.037
		c0.055,0.016,0.094,0.041,0.117,0.072s0.051,0.066,0.08,0.105l2.037,3.545l2.02-3.545c0.025-0.039,0.049-0.074,0.074-0.105
		c0.021-0.031,0.059-0.057,0.104-0.072c0.047-0.018,0.111-0.029,0.193-0.037c0.084-0.008,0.195-0.012,0.338-0.012
		c0.15,0,0.275,0.006,0.369,0.02c0.096,0.014,0.164,0.035,0.205,0.068c0.041,0.035,0.059,0.084,0.049,0.15
		c-0.01,0.064-0.045,0.152-0.104,0.26l-2.461,4.182L459.917,87.381z"/>
</g>
<g enable-background="new    ">
	<path d="M367.684,102.281c0,0.537-0.07,1.031-0.213,1.482c-0.143,0.453-0.354,0.842-0.633,1.17
		c-0.281,0.326-0.633,0.582-1.055,0.764c-0.424,0.186-0.912,0.275-1.469,0.275c-0.543,0-1.018-0.08-1.418-0.242
		c-0.402-0.16-0.738-0.396-1.01-0.703c-0.268-0.307-0.469-0.68-0.6-1.119c-0.133-0.438-0.197-0.938-0.197-1.494
		c0-0.537,0.068-1.031,0.209-1.482s0.35-0.84,0.629-1.168c0.281-0.326,0.631-0.58,1.053-0.764c0.42-0.18,0.908-0.27,1.473-0.27
		c0.541,0,1.014,0.08,1.418,0.24c0.402,0.162,0.738,0.396,1.006,0.703c0.271,0.309,0.471,0.682,0.605,1.119
		C367.616,101.235,367.684,101.731,367.684,102.281z M366.43,102.362c0-0.354-0.031-0.693-0.1-1.01
		c-0.068-0.318-0.176-0.596-0.328-0.836c-0.152-0.238-0.359-0.43-0.621-0.566c-0.262-0.141-0.586-0.209-0.975-0.209
		c-0.361,0-0.67,0.064-0.93,0.189c-0.26,0.127-0.473,0.307-0.641,0.539c-0.166,0.23-0.291,0.506-0.373,0.822
		c-0.08,0.316-0.121,0.664-0.121,1.041c0,0.359,0.033,0.701,0.102,1.02c0.064,0.316,0.178,0.594,0.332,0.83s0.361,0.426,0.625,0.563
		c0.262,0.143,0.586,0.209,0.975,0.209c0.355,0,0.664-0.063,0.924-0.188c0.262-0.127,0.479-0.307,0.646-0.535
		c0.166-0.229,0.289-0.502,0.369-0.818C366.391,103.094,366.43,102.742,366.43,102.362z"/>
	<path d="M373.317,99.49c0,0.107-0.004,0.199-0.01,0.271c-0.006,0.074-0.016,0.131-0.027,0.174
		c-0.018,0.041-0.033,0.072-0.057,0.094c-0.021,0.023-0.053,0.033-0.092,0.033s-0.088-0.01-0.143-0.033
		c-0.059-0.02-0.121-0.043-0.191-0.063c-0.068-0.023-0.148-0.043-0.236-0.064c-0.09-0.02-0.184-0.029-0.285-0.029
		c-0.121,0-0.242,0.023-0.359,0.072s-0.24,0.131-0.369,0.242c-0.129,0.113-0.266,0.262-0.404,0.447
		c-0.145,0.186-0.301,0.412-0.471,0.68v4.336c0,0.041-0.01,0.072-0.027,0.1c-0.021,0.027-0.053,0.053-0.098,0.07
		c-0.043,0.02-0.104,0.033-0.184,0.043s-0.178,0.018-0.299,0.018c-0.117,0-0.217-0.008-0.293-0.018
		c-0.078-0.01-0.143-0.021-0.189-0.043c-0.047-0.02-0.078-0.043-0.096-0.07c-0.02-0.025-0.025-0.059-0.025-0.1v-6.592
		c0-0.037,0.008-0.07,0.021-0.1c0.016-0.025,0.045-0.051,0.088-0.072c0.045-0.021,0.102-0.035,0.17-0.043s0.158-0.012,0.27-0.012
		c0.107,0,0.197,0.004,0.27,0.012c0.07,0.008,0.127,0.021,0.166,0.043s0.064,0.047,0.084,0.072c0.016,0.027,0.023,0.063,0.023,0.1
		v0.961c0.182-0.264,0.352-0.48,0.51-0.646c0.158-0.168,0.311-0.297,0.449-0.393c0.145-0.096,0.281-0.16,0.424-0.197
		c0.139-0.035,0.277-0.055,0.42-0.055c0.063,0,0.137,0.004,0.217,0.012s0.164,0.021,0.252,0.041s0.168,0.041,0.238,0.064
		c0.068,0.021,0.121,0.049,0.148,0.07c0.029,0.025,0.049,0.051,0.061,0.07c0.01,0.021,0.018,0.051,0.023,0.084
		c0.008,0.035,0.014,0.084,0.018,0.15C373.315,99.289,373.317,99.379,373.317,99.49z"/>
	<path d="M381.512,105.168c0,0.143-0.01,0.254-0.027,0.336c-0.021,0.084-0.051,0.145-0.09,0.184
		c-0.037,0.039-0.098,0.076-0.176,0.109c-0.078,0.035-0.168,0.063-0.268,0.086c-0.104,0.02-0.207,0.039-0.318,0.055
		c-0.113,0.014-0.225,0.021-0.338,0.021c-0.342,0-0.635-0.047-0.879-0.137c-0.244-0.092-0.443-0.229-0.6-0.41
		c-0.156-0.184-0.271-0.414-0.344-0.695c-0.068-0.279-0.104-0.611-0.104-0.992v-3.854h-0.924c-0.072,0-0.131-0.039-0.176-0.115
		c-0.045-0.078-0.064-0.205-0.064-0.383c0-0.092,0.006-0.17,0.018-0.232c0.014-0.064,0.027-0.117,0.049-0.158
		c0.02-0.041,0.045-0.07,0.076-0.088s0.066-0.025,0.105-0.025h0.916v-1.566c0-0.033,0.008-0.064,0.023-0.096
		c0.018-0.029,0.051-0.055,0.098-0.076c0.045-0.021,0.105-0.037,0.186-0.049c0.08-0.01,0.178-0.016,0.293-0.016
		c0.123,0,0.225,0.006,0.301,0.016c0.078,0.012,0.141,0.025,0.186,0.049c0.043,0.023,0.076,0.049,0.096,0.076
		c0.021,0.029,0.029,0.063,0.029,0.096v1.566h1.689c0.039,0,0.072,0.008,0.104,0.025c0.029,0.018,0.055,0.047,0.078,0.088
		c0.02,0.041,0.037,0.094,0.047,0.158c0.01,0.063,0.016,0.141,0.016,0.232c0,0.178-0.021,0.305-0.064,0.383
		c-0.045,0.076-0.105,0.115-0.176,0.115h-1.691v3.678c0,0.453,0.066,0.797,0.201,1.029c0.133,0.23,0.375,0.348,0.721,0.348
		c0.113,0,0.213-0.012,0.301-0.033s0.166-0.045,0.234-0.068s0.127-0.049,0.176-0.068c0.049-0.021,0.094-0.033,0.131-0.033
		c0.025,0,0.051,0.006,0.07,0.02c0.021,0.012,0.039,0.035,0.051,0.068c0.014,0.035,0.023,0.08,0.033,0.141
		C381.508,105.008,381.512,105.08,381.512,105.168z"/>
	<path d="M387.891,105.658c0,0.061-0.02,0.104-0.059,0.131c-0.039,0.029-0.094,0.055-0.162,0.066
		c-0.068,0.016-0.168,0.021-0.299,0.021c-0.127,0-0.23-0.008-0.305-0.021c-0.076-0.014-0.133-0.037-0.164-0.066
		c-0.035-0.027-0.055-0.07-0.055-0.131v-0.66c-0.287,0.311-0.607,0.549-0.963,0.721c-0.354,0.17-0.729,0.256-1.123,0.256
		c-0.348,0-0.662-0.045-0.939-0.135c-0.281-0.094-0.521-0.223-0.719-0.395c-0.197-0.17-0.354-0.381-0.463-0.629
		c-0.107-0.25-0.162-0.533-0.162-0.85c0-0.371,0.072-0.693,0.227-0.969c0.152-0.273,0.369-0.5,0.652-0.682
		c0.281-0.182,0.629-0.316,1.039-0.406c0.408-0.09,0.869-0.137,1.385-0.137h0.908v-0.512c0-0.254-0.027-0.48-0.08-0.676
		c-0.057-0.193-0.143-0.355-0.262-0.486c-0.119-0.129-0.273-0.229-0.467-0.293c-0.188-0.064-0.424-0.1-0.703-0.1
		c-0.297,0-0.563,0.035-0.801,0.105s-0.445,0.148-0.623,0.234s-0.328,0.162-0.447,0.234c-0.117,0.068-0.209,0.105-0.268,0.105
		c-0.039,0-0.072-0.012-0.104-0.029c-0.029-0.02-0.055-0.049-0.074-0.088c-0.023-0.039-0.039-0.09-0.051-0.15
		c-0.01-0.063-0.014-0.129-0.014-0.201c0-0.121,0.008-0.219,0.025-0.289c0.016-0.07,0.059-0.139,0.125-0.201
		c0.063-0.063,0.178-0.139,0.34-0.225c0.16-0.084,0.346-0.162,0.557-0.232c0.209-0.07,0.439-0.129,0.688-0.178
		c0.25-0.045,0.502-0.068,0.756-0.068c0.473,0,0.875,0.055,1.207,0.162c0.332,0.105,0.602,0.264,0.807,0.473
		c0.205,0.207,0.354,0.465,0.447,0.771c0.092,0.309,0.139,0.666,0.139,1.076v4.449h0.004V105.658z M386.69,102.649h-1.033
		c-0.332,0-0.619,0.027-0.863,0.084c-0.244,0.055-0.447,0.139-0.607,0.248s-0.279,0.242-0.354,0.396
		c-0.076,0.152-0.115,0.33-0.115,0.531c0,0.342,0.109,0.611,0.326,0.814s0.521,0.305,0.912,0.305c0.318,0,0.611-0.08,0.883-0.24
		c0.271-0.162,0.557-0.408,0.854-0.74v-1.398H386.69z"/>
	<path d="M396.174,102.268c0,0.57-0.063,1.084-0.188,1.541c-0.123,0.457-0.309,0.846-0.549,1.168
		c-0.242,0.322-0.537,0.568-0.891,0.74c-0.352,0.17-0.756,0.256-1.209,0.256c-0.211,0-0.404-0.021-0.582-0.063
		c-0.18-0.043-0.354-0.107-0.521-0.203c-0.172-0.092-0.344-0.209-0.516-0.352c-0.17-0.141-0.352-0.314-0.541-0.512v0.805
		c0,0.039-0.01,0.074-0.027,0.104c-0.021,0.031-0.055,0.053-0.098,0.07c-0.045,0.018-0.1,0.029-0.166,0.039
		c-0.063,0.01-0.146,0.016-0.252,0.016c-0.098,0-0.18-0.006-0.248-0.016c-0.066-0.01-0.125-0.021-0.17-0.039
		c-0.043-0.02-0.07-0.041-0.088-0.07c-0.014-0.027-0.02-0.063-0.02-0.104v-9.785c0-0.037,0.008-0.072,0.023-0.102
		c0.02-0.029,0.049-0.057,0.098-0.074c0.047-0.021,0.107-0.033,0.188-0.043s0.176-0.018,0.293-0.018
		c0.121,0,0.223,0.008,0.299,0.018c0.078,0.01,0.143,0.021,0.186,0.043c0.045,0.02,0.074,0.045,0.096,0.074
		c0.021,0.027,0.029,0.063,0.029,0.102v3.947c0.193-0.199,0.385-0.367,0.564-0.504c0.186-0.139,0.363-0.248,0.539-0.334
		s0.354-0.146,0.527-0.189c0.174-0.039,0.361-0.059,0.557-0.059c0.479,0,0.889,0.096,1.229,0.287
		c0.34,0.188,0.615,0.443,0.828,0.764s0.365,0.695,0.465,1.125C396.125,101.334,396.174,101.789,396.174,102.268z M394.922,102.406
		c0-0.338-0.025-0.664-0.078-0.98c-0.051-0.316-0.141-0.6-0.268-0.844c-0.129-0.242-0.299-0.439-0.51-0.59
		c-0.211-0.146-0.477-0.223-0.789-0.223c-0.156,0-0.313,0.02-0.463,0.064c-0.152,0.043-0.309,0.117-0.467,0.221
		c-0.154,0.104-0.318,0.232-0.488,0.395c-0.17,0.16-0.352,0.363-0.541,0.607v2.629c0.334,0.406,0.65,0.715,0.957,0.928
		c0.305,0.213,0.623,0.318,0.949,0.318c0.307,0,0.564-0.074,0.781-0.221s0.395-0.34,0.527-0.582c0.135-0.24,0.23-0.514,0.295-0.813
		C394.891,103.018,394.922,102.715,394.922,102.406z"/>
	<path d="M403.616,102.069c0,0.191-0.047,0.326-0.145,0.406c-0.096,0.082-0.205,0.121-0.326,0.121h-4.342
		c0,0.365,0.035,0.695,0.109,0.988s0.197,0.545,0.369,0.756c0.17,0.209,0.395,0.369,0.668,0.482c0.273,0.111,0.611,0.168,1.01,0.168
		c0.313,0,0.594-0.025,0.838-0.076c0.246-0.053,0.459-0.107,0.637-0.174c0.182-0.063,0.326-0.119,0.441-0.172
		c0.115-0.051,0.203-0.076,0.262-0.076c0.035,0,0.064,0.008,0.094,0.025c0.027,0.016,0.049,0.043,0.063,0.076
		c0.016,0.033,0.025,0.082,0.033,0.145c0.008,0.061,0.012,0.135,0.012,0.223c0,0.063-0.004,0.119-0.008,0.164
		c-0.006,0.049-0.012,0.09-0.02,0.125c-0.008,0.037-0.021,0.07-0.035,0.1c-0.02,0.029-0.039,0.059-0.066,0.084
		c-0.027,0.027-0.104,0.072-0.238,0.133c-0.131,0.063-0.303,0.121-0.512,0.18c-0.211,0.061-0.453,0.111-0.729,0.156
		c-0.277,0.047-0.57,0.07-0.885,0.07c-0.543,0-1.018-0.076-1.424-0.229c-0.408-0.15-0.752-0.375-1.029-0.674
		s-0.486-0.672-0.631-1.121c-0.141-0.447-0.213-0.971-0.213-1.564c0-0.566,0.074-1.076,0.223-1.527
		c0.146-0.453,0.355-0.836,0.633-1.15c0.273-0.313,0.607-0.557,1-0.725c0.391-0.17,0.828-0.254,1.311-0.254
		c0.52,0,0.959,0.084,1.322,0.25s0.664,0.389,0.896,0.67c0.234,0.281,0.406,0.609,0.518,0.988c0.109,0.379,0.164,0.781,0.164,1.213
		V102.069L403.616,102.069z M402.401,101.711c0.014-0.635-0.127-1.133-0.426-1.494c-0.297-0.361-0.736-0.543-1.32-0.543
		c-0.303,0-0.564,0.057-0.789,0.17c-0.229,0.111-0.416,0.262-0.568,0.445c-0.15,0.188-0.27,0.4-0.354,0.646
		c-0.082,0.248-0.129,0.506-0.141,0.771h3.598V101.711z"/>
	<path d="M406.663,105.651c0,0.039-0.01,0.072-0.029,0.1c-0.02,0.025-0.051,0.051-0.094,0.068c-0.045,0.021-0.104,0.035-0.184,0.045
		c-0.078,0.01-0.18,0.014-0.303,0.014c-0.115,0-0.215-0.004-0.293-0.014s-0.141-0.023-0.188-0.045
		c-0.045-0.02-0.078-0.043-0.094-0.068c-0.02-0.025-0.025-0.061-0.025-0.1v-9.785c0-0.039,0.008-0.072,0.025-0.102
		c0.016-0.029,0.049-0.055,0.094-0.074c0.047-0.02,0.107-0.033,0.188-0.043s0.178-0.016,0.293-0.016
		c0.123,0,0.225,0.006,0.303,0.016s0.139,0.023,0.184,0.043c0.043,0.02,0.074,0.045,0.094,0.074
		c0.021,0.027,0.029,0.063,0.029,0.102V105.651z"/>
	<path d="M413.036,103.856c0,0.338-0.063,0.639-0.188,0.902c-0.125,0.262-0.301,0.484-0.529,0.666
		c-0.23,0.18-0.502,0.316-0.82,0.408c-0.316,0.094-0.666,0.141-1.047,0.141c-0.234,0-0.457-0.02-0.67-0.057
		c-0.213-0.035-0.402-0.082-0.572-0.139c-0.168-0.057-0.311-0.115-0.428-0.176c-0.117-0.064-0.203-0.115-0.256-0.166
		c-0.057-0.049-0.096-0.115-0.117-0.205c-0.025-0.088-0.037-0.207-0.037-0.357c0-0.092,0.004-0.17,0.014-0.232
		c0.012-0.064,0.023-0.115,0.037-0.154c0.018-0.039,0.035-0.068,0.063-0.084c0.025-0.018,0.059-0.025,0.092-0.025
		c0.055,0,0.133,0.031,0.238,0.1c0.104,0.064,0.232,0.139,0.389,0.217c0.152,0.078,0.336,0.15,0.545,0.217
		c0.211,0.064,0.451,0.1,0.725,0.1c0.205,0,0.393-0.021,0.559-0.066c0.166-0.043,0.311-0.107,0.434-0.193
		c0.121-0.086,0.215-0.191,0.281-0.324c0.064-0.133,0.1-0.287,0.1-0.471c0-0.186-0.049-0.342-0.145-0.469
		c-0.094-0.127-0.223-0.238-0.377-0.336c-0.156-0.098-0.332-0.186-0.527-0.262c-0.195-0.074-0.395-0.154-0.604-0.236
		c-0.207-0.084-0.41-0.178-0.607-0.283c-0.199-0.104-0.375-0.23-0.531-0.385c-0.154-0.152-0.283-0.332-0.377-0.541
		c-0.096-0.211-0.143-0.461-0.143-0.754c0-0.26,0.049-0.508,0.146-0.744c0.104-0.236,0.252-0.445,0.451-0.623
		c0.201-0.178,0.451-0.32,0.75-0.428c0.301-0.107,0.652-0.162,1.053-0.162c0.178,0,0.354,0.016,0.527,0.045s0.334,0.066,0.475,0.109
		c0.145,0.045,0.266,0.092,0.363,0.143c0.102,0.051,0.176,0.098,0.229,0.137c0.051,0.039,0.086,0.072,0.104,0.104
		c0.018,0.029,0.029,0.063,0.035,0.1c0.008,0.037,0.016,0.082,0.021,0.135c0.008,0.057,0.012,0.121,0.012,0.199
		c0,0.082-0.004,0.154-0.012,0.215c-0.008,0.063-0.02,0.111-0.035,0.15c-0.02,0.039-0.037,0.066-0.063,0.084
		c-0.023,0.018-0.051,0.025-0.08,0.025c-0.045,0-0.105-0.027-0.189-0.08c-0.082-0.057-0.189-0.111-0.322-0.172
		c-0.131-0.064-0.287-0.119-0.465-0.174c-0.18-0.055-0.385-0.08-0.611-0.08c-0.205,0-0.387,0.021-0.543,0.068
		s-0.283,0.111-0.383,0.197c-0.104,0.086-0.178,0.188-0.23,0.305c-0.051,0.117-0.076,0.244-0.076,0.381
		c0,0.189,0.051,0.352,0.146,0.48c0.098,0.129,0.225,0.242,0.381,0.34c0.156,0.1,0.334,0.188,0.535,0.266
		c0.199,0.078,0.404,0.158,0.611,0.242c0.207,0.082,0.41,0.176,0.613,0.275c0.203,0.104,0.383,0.229,0.539,0.375
		c0.156,0.145,0.281,0.322,0.377,0.525C412.987,103.328,413.036,103.573,413.036,103.856z"/>
</g>
<g enable-background="new    ">
	<path d="M369.549,8.299c0,0.875-0.109,1.64-0.336,2.293c-0.225,0.652-0.551,1.194-0.979,1.625c-0.432,0.43-0.957,0.751-1.582,0.965
		s-1.369,0.319-2.234,0.319h-2.141c-0.119,0-0.232-0.04-0.342-0.12c-0.105-0.081-0.158-0.224-0.158-0.427V3.938
		c0-0.203,0.053-0.345,0.158-0.426c0.107-0.081,0.223-0.121,0.342-0.121h2.289c0.875,0,1.613,0.113,2.219,0.34
		c0.604,0.227,1.109,0.552,1.52,0.977c0.408,0.426,0.721,0.938,0.932,1.543C369.448,6.856,369.549,7.537,369.549,8.299z
		 M368.135,8.352c0-0.547-0.066-1.056-0.203-1.527c-0.135-0.472-0.348-0.879-0.637-1.223s-0.654-0.612-1.098-0.805
		s-1.016-0.289-1.711-0.289h-1.367v7.866h1.383c0.646,0,1.189-0.081,1.633-0.241c0.443-0.161,0.813-0.409,1.109-0.742
		c0.295-0.333,0.52-0.751,0.668-1.254C368.059,9.635,368.135,9.04,368.135,8.352z"/>
	<path d="M378.01,9.713c0,0.572-0.076,1.101-0.227,1.581c-0.15,0.481-0.377,0.897-0.676,1.246c-0.301,0.35-0.676,0.621-1.125,0.816
		c-0.451,0.195-0.975,0.293-1.566,0.293c-0.578,0-1.082-0.086-1.512-0.258c-0.432-0.172-0.787-0.422-1.074-0.75
		s-0.5-0.728-0.641-1.195c-0.143-0.468-0.213-1-0.213-1.594c0-0.573,0.074-1.102,0.225-1.582c0.146-0.481,0.373-0.897,0.672-1.246
		s0.674-0.62,1.121-0.813c0.447-0.191,0.971-0.288,1.57-0.288c0.576,0,1.08,0.086,1.512,0.258c0.43,0.172,0.787,0.422,1.074,0.75
		c0.285,0.328,0.502,0.727,0.645,1.194C377.94,8.595,378.01,9.123,378.01,9.713z M376.674,9.799c0-0.381-0.035-0.739-0.104-1.078
		c-0.072-0.339-0.189-0.637-0.354-0.892c-0.162-0.255-0.383-0.457-0.662-0.604c-0.277-0.148-0.625-0.224-1.041-0.224
		c-0.383,0-0.713,0.067-0.986,0.203c-0.277,0.137-0.504,0.327-0.684,0.574s-0.313,0.54-0.396,0.879
		c-0.088,0.339-0.131,0.708-0.131,1.109c0,0.386,0.033,0.747,0.105,1.086c0.07,0.339,0.189,0.634,0.354,0.887
		c0.166,0.253,0.389,0.453,0.666,0.603c0.277,0.147,0.627,0.223,1.041,0.223c0.379,0,0.707-0.067,0.984-0.203
		s0.506-0.325,0.688-0.57c0.178-0.244,0.311-0.535,0.395-0.875S376.674,10.204,376.674,9.799z"/>
	<path d="M389.682,6.26c0,0.035-0.006,0.081-0.016,0.133s-0.029,0.117-0.055,0.195l-2.07,6.68c-0.016,0.058-0.041,0.104-0.074,0.141
		c-0.033,0.036-0.08,0.065-0.141,0.086c-0.063,0.021-0.145,0.035-0.246,0.043c-0.104,0.008-0.234,0.013-0.391,0.013
		c-0.162,0-0.297-0.006-0.406-0.017s-0.197-0.025-0.262-0.047c-0.064-0.021-0.113-0.05-0.146-0.086s-0.055-0.081-0.07-0.133
		l-1.477-5.103l-0.016-0.069l-0.018,0.069l-1.367,5.103c-0.016,0.058-0.041,0.104-0.072,0.141c-0.033,0.036-0.084,0.065-0.152,0.086
		c-0.068,0.021-0.154,0.035-0.262,0.043s-0.238,0.013-0.396,0.013c-0.162,0-0.293-0.006-0.395-0.017
		c-0.104-0.011-0.188-0.025-0.25-0.047c-0.064-0.021-0.113-0.05-0.146-0.086s-0.055-0.081-0.068-0.133l-2.057-6.68
		c-0.023-0.078-0.045-0.146-0.055-0.195c-0.01-0.052-0.018-0.098-0.018-0.133c0-0.047,0.012-0.085,0.031-0.113
		c0.021-0.028,0.059-0.052,0.105-0.07c0.049-0.019,0.115-0.029,0.197-0.035c0.084-0.005,0.188-0.008,0.307-0.008
		c0.145,0,0.264,0.004,0.352,0.012c0.088,0.009,0.156,0.021,0.203,0.039c0.047,0.019,0.08,0.044,0.104,0.078
		c0.02,0.034,0.037,0.074,0.055,0.121l1.695,5.797l0.016,0.07l0.016-0.07l1.557-5.797c0.01-0.047,0.025-0.087,0.051-0.121
		c0.021-0.034,0.059-0.06,0.104-0.078c0.045-0.018,0.111-0.03,0.191-0.039c0.08-0.008,0.186-0.012,0.314-0.012
		c0.125,0,0.229,0.004,0.311,0.012c0.08,0.009,0.145,0.021,0.189,0.039c0.047,0.019,0.08,0.043,0.104,0.074
		c0.021,0.031,0.037,0.067,0.047,0.109l1.68,5.813l0.018,0.07l0.008-0.07l1.672-5.797c0.01-0.047,0.027-0.087,0.051-0.121
		s0.063-0.06,0.109-0.078c0.049-0.019,0.117-0.03,0.203-0.038c0.086-0.009,0.197-0.013,0.332-0.013c0.125,0,0.225,0.003,0.301,0.008
		c0.076,0.006,0.135,0.02,0.18,0.039c0.045,0.021,0.076,0.044,0.096,0.07S389.682,6.213,389.682,6.26z"/>
	<path d="M397.338,13.306c0,0.042-0.01,0.077-0.031,0.104c-0.021,0.028-0.055,0.055-0.102,0.074
		c-0.047,0.021-0.111,0.036-0.195,0.047s-0.188,0.017-0.313,0.017c-0.131,0-0.236-0.006-0.32-0.017s-0.148-0.025-0.195-0.047
		c-0.047-0.021-0.08-0.046-0.102-0.074c-0.023-0.027-0.031-0.063-0.031-0.104V9.189c0-0.401-0.031-0.724-0.094-0.969
		c-0.064-0.245-0.154-0.456-0.273-0.633c-0.119-0.178-0.273-0.313-0.465-0.406c-0.188-0.094-0.41-0.142-0.66-0.142
		c-0.32,0-0.646,0.114-0.969,0.345c-0.322,0.229-0.662,0.564-1.016,1.008v4.914c0,0.042-0.01,0.077-0.031,0.104
		c-0.021,0.028-0.055,0.055-0.102,0.074c-0.049,0.021-0.111,0.036-0.195,0.047s-0.189,0.017-0.32,0.017
		c-0.125,0-0.229-0.006-0.313-0.017s-0.15-0.025-0.199-0.047c-0.049-0.021-0.084-0.046-0.102-0.074
		c-0.02-0.027-0.027-0.063-0.027-0.104V6.275c0-0.042,0.008-0.077,0.021-0.105c0.016-0.027,0.049-0.055,0.096-0.077
		c0.047-0.023,0.105-0.039,0.18-0.048c0.072-0.008,0.17-0.012,0.289-0.012c0.115,0,0.209,0.004,0.285,0.012
		c0.076,0.009,0.135,0.023,0.176,0.048c0.041,0.022,0.072,0.05,0.09,0.077c0.02,0.028,0.027,0.063,0.027,0.105v0.93
		c0.395-0.441,0.791-0.767,1.184-0.973c0.395-0.206,0.791-0.309,1.191-0.309c0.469,0,0.861,0.078,1.184,0.237
		c0.32,0.159,0.58,0.371,0.777,0.638c0.197,0.266,0.34,0.576,0.426,0.934s0.129,0.785,0.129,1.285V13.306L397.338,13.306z"/>
	<path d="M400.979,13.306c0,0.042-0.01,0.077-0.029,0.104c-0.021,0.028-0.057,0.055-0.104,0.074
		c-0.047,0.021-0.109,0.036-0.193,0.047s-0.189,0.017-0.32,0.017c-0.125,0-0.23-0.006-0.314-0.017
		c-0.082-0.011-0.146-0.025-0.197-0.047c-0.049-0.021-0.082-0.046-0.104-0.074c-0.018-0.027-0.025-0.063-0.025-0.104V2.868
		c0-0.042,0.01-0.078,0.025-0.108c0.021-0.031,0.053-0.059,0.104-0.078c0.051-0.021,0.117-0.036,0.197-0.047
		c0.084-0.012,0.189-0.017,0.314-0.017c0.131,0,0.236,0.005,0.32,0.017c0.084,0.011,0.146,0.025,0.193,0.047
		c0.047,0.021,0.08,0.047,0.104,0.078c0.02,0.03,0.029,0.066,0.029,0.108V13.306z"/>
	<path d="M409.901,9.713c0,0.572-0.074,1.101-0.229,1.581c-0.148,0.481-0.375,0.897-0.676,1.246
		c-0.299,0.35-0.674,0.621-1.125,0.816c-0.449,0.195-0.973,0.293-1.566,0.293c-0.578,0-1.082-0.086-1.512-0.258
		s-0.787-0.422-1.074-0.75c-0.285-0.328-0.5-0.728-0.641-1.195s-0.211-1-0.211-1.594c0-0.573,0.074-1.102,0.223-1.582
		c0.15-0.481,0.373-0.897,0.672-1.246c0.303-0.349,0.676-0.62,1.121-0.813c0.449-0.191,0.975-0.288,1.57-0.288
		c0.578,0,1.082,0.086,1.512,0.258c0.432,0.172,0.789,0.422,1.074,0.75c0.287,0.328,0.502,0.727,0.645,1.194
		C409.831,8.595,409.901,9.123,409.901,9.713z M408.565,9.799c0-0.381-0.035-0.739-0.105-1.078
		c-0.072-0.339-0.188-0.637-0.352-0.892c-0.162-0.255-0.385-0.457-0.662-0.604c-0.277-0.148-0.625-0.224-1.041-0.224
		c-0.383,0-0.713,0.067-0.988,0.203c-0.275,0.137-0.504,0.327-0.682,0.574c-0.182,0.247-0.313,0.54-0.398,0.879
		s-0.131,0.708-0.131,1.109c0,0.386,0.035,0.747,0.107,1.086c0.068,0.339,0.188,0.634,0.354,0.887s0.389,0.453,0.666,0.603
		c0.279,0.147,0.627,0.223,1.041,0.223c0.379,0,0.707-0.067,0.986-0.203c0.275-0.136,0.506-0.325,0.686-0.57
		c0.178-0.244,0.313-0.535,0.396-0.875C408.524,10.576,408.565,10.204,408.565,9.799z"/>
	<path d="M417.096,13.313c0,0.063-0.021,0.109-0.063,0.141s-0.102,0.056-0.172,0.07c-0.072,0.016-0.182,0.023-0.32,0.023
		c-0.135,0-0.244-0.009-0.324-0.023c-0.08-0.016-0.139-0.039-0.176-0.07c-0.037-0.03-0.055-0.078-0.055-0.141V12.61
		c-0.309,0.328-0.65,0.583-1.027,0.766c-0.377,0.184-0.777,0.273-1.199,0.273c-0.369,0-0.705-0.048-1.004-0.145
		c-0.299-0.098-0.555-0.235-0.766-0.419c-0.211-0.183-0.375-0.405-0.492-0.672c-0.117-0.266-0.176-0.566-0.176-0.905
		c0-0.396,0.08-0.739,0.242-1.031c0.16-0.292,0.393-0.534,0.693-0.728c0.305-0.191,0.672-0.337,1.109-0.434
		c0.436-0.097,0.93-0.145,1.477-0.145h0.971V8.624c0-0.271-0.029-0.511-0.088-0.719c-0.057-0.208-0.148-0.382-0.275-0.52
		c-0.127-0.139-0.293-0.242-0.496-0.313s-0.453-0.104-0.75-0.104c-0.318,0-0.605,0.038-0.855,0.112
		c-0.252,0.075-0.475,0.159-0.662,0.25c-0.189,0.092-0.352,0.176-0.479,0.25c-0.127,0.075-0.223,0.113-0.285,0.113
		c-0.041,0-0.078-0.011-0.107-0.031c-0.031-0.02-0.061-0.052-0.082-0.094c-0.023-0.042-0.041-0.095-0.053-0.16
		c-0.01-0.064-0.016-0.137-0.016-0.215c0-0.13,0.01-0.233,0.027-0.309s0.063-0.147,0.133-0.216c0.07-0.067,0.189-0.146,0.363-0.237
		c0.172-0.091,0.367-0.175,0.594-0.25c0.225-0.075,0.469-0.139,0.732-0.188c0.266-0.05,0.533-0.074,0.807-0.074
		c0.506,0,0.936,0.059,1.289,0.173c0.354,0.113,0.641,0.281,0.857,0.504c0.219,0.222,0.377,0.496,0.479,0.823
		c0.1,0.328,0.146,0.712,0.146,1.148L417.096,13.313L417.096,13.313z M415.815,10.102h-1.104c-0.354,0-0.66,0.03-0.922,0.09
		c-0.26,0.06-0.477,0.148-0.648,0.266c-0.17,0.118-0.297,0.259-0.379,0.423c-0.08,0.163-0.121,0.353-0.121,0.565
		c0,0.364,0.117,0.655,0.35,0.871c0.23,0.216,0.557,0.324,0.973,0.324c0.34,0,0.652-0.086,0.941-0.258
		c0.289-0.173,0.594-0.436,0.91-0.789V10.102L415.815,10.102z"/>
	<path d="M425.487,13.306c0,0.042-0.008,0.078-0.027,0.108c-0.018,0.031-0.049,0.057-0.094,0.074
		c-0.043,0.02-0.104,0.032-0.176,0.043s-0.16,0.017-0.268,0.017s-0.199-0.006-0.271-0.017s-0.135-0.023-0.182-0.043
		c-0.047-0.019-0.08-0.043-0.102-0.074c-0.021-0.03-0.031-0.066-0.031-0.108v-0.931c-0.369,0.401-0.754,0.715-1.152,0.938
		c-0.396,0.224-0.834,0.336-1.309,0.336c-0.516,0-0.955-0.101-1.32-0.301c-0.361-0.2-0.658-0.473-0.887-0.813
		c-0.227-0.341-0.391-0.742-0.496-1.203c-0.104-0.461-0.156-0.945-0.156-1.457c0-0.604,0.066-1.148,0.195-1.637
		c0.131-0.487,0.324-0.901,0.578-1.246c0.256-0.344,0.572-0.607,0.949-0.793c0.379-0.185,0.813-0.276,1.309-0.276
		c0.412,0,0.789,0.09,1.129,0.27c0.342,0.18,0.682,0.444,1.014,0.793V2.9c0-0.036,0.01-0.071,0.025-0.105
		c0.021-0.033,0.057-0.06,0.105-0.077c0.053-0.02,0.119-0.034,0.199-0.048c0.08-0.013,0.184-0.02,0.309-0.02
		c0.131,0,0.238,0.007,0.32,0.02c0.084,0.014,0.146,0.028,0.193,0.048c0.047,0.019,0.082,0.044,0.105,0.077
		c0.021,0.034,0.035,0.069,0.035,0.105v10.406H425.487z M424.19,8.36c-0.35-0.433-0.688-0.762-1.014-0.988
		c-0.324-0.227-0.664-0.34-1.02-0.34c-0.328,0-0.605,0.078-0.836,0.234s-0.414,0.361-0.561,0.617
		c-0.143,0.255-0.246,0.544-0.313,0.866c-0.064,0.323-0.1,0.651-0.1,0.984c0,0.354,0.027,0.7,0.082,1.039
		c0.057,0.339,0.15,0.64,0.285,0.902c0.137,0.263,0.316,0.474,0.539,0.633c0.225,0.159,0.506,0.238,0.844,0.238
		c0.172,0,0.338-0.023,0.496-0.07c0.16-0.047,0.322-0.125,0.488-0.234c0.168-0.108,0.342-0.251,0.521-0.426
		c0.186-0.175,0.375-0.39,0.578-0.645V8.359L424.19,8.36L424.19,8.36z"/>
</g>
</svg>
