<?xml version="1.0" encoding="utf-8"?>
<!-- Generator: Adobe Illustrator 16.0.3, SVG Export Plug-In . SVG Version: 6.00 Build 0)  -->
<!DOCTYPE svg PUBLIC "-//W3C//DTD SVG 1.1//EN" "http://www.w3.org/Graphics/SVG/1.1/DTD/svg11.dtd">
<svg version="1.1" id="Layer_1" xmlns="http://www.w3.org/2000/svg" xmlns:xlink="http://www.w3.org/1999/xlink" x="0px" y="0px"
	 width="110.706px" height="174px" viewBox="12.541 -19.054 110.706 174" enable-background="new 12.541 -19.054 110.706 174"
	 xml:space="preserve">
<path d="M25.769,28.052c0-1.448,1.176-2.624,2.625-2.624h6.563v5.25c0,0.726,0.586,1.313,1.313,1.313h5.248v11.812
	c0,1.447-1.177,2.624-2.624,2.624h-10.5c-1.448,0-2.625-1.177-2.625-2.624v-4.595h7.14l-1.6,1.602c-0.384,0.386-0.384,1.009,0,1.39
	c0.386,0.383,1.01,0.386,1.391,0l3.281-3.281c0.384-0.385,0.384-1.009,0-1.392L32.7,34.246c-0.386-0.387-1.009-0.387-1.391,0
	c-0.381,0.387-0.384,1.011,0,1.391l1.6,1.601h-7.14V28.052L25.769,28.052z M25.769,37.237v1.969h-4.266
	c-0.546,0-0.985-0.438-0.985-0.982s0.439-0.985,0.985-0.985L25.769,37.237L25.769,37.237z M41.517,30.677h-5.248v-5.25
	L41.517,30.677z"/>
<path d="M110.979,32.926l3.455,3l-3.455,3V32.926z M93.558,35.026h17.997v1.8H93.558V35.026z"/>
<g enable-background="new    ">
	<path d="M20.817,66.332c0,0.576-0.084,1.092-0.252,1.543c-0.169,0.451-0.409,0.834-0.722,1.146
		c-0.313,0.311-0.693,0.549-1.143,0.709c-0.45,0.162-0.959,0.242-1.531,0.242c-0.522,0-0.999-0.076-1.428-0.229
		c-0.429-0.15-0.798-0.375-1.106-0.67c-0.308-0.295-0.544-0.664-0.71-1.107c-0.166-0.445-0.249-0.957-0.249-1.539v-5.88
		c0-0.039,0.01-0.073,0.029-0.104c0.019-0.029,0.054-0.053,0.103-0.068c0.049-0.019,0.112-0.031,0.19-0.045
		c0.078-0.013,0.181-0.019,0.308-0.019c0.117,0,0.217,0.006,0.3,0.019c0.083,0.014,0.147,0.026,0.194,0.045
		c0.046,0.018,0.08,0.039,0.099,0.068s0.029,0.063,0.029,0.104v5.728c0,0.439,0.054,0.822,0.161,1.148
		c0.107,0.328,0.262,0.6,0.465,0.816c0.202,0.217,0.446,0.381,0.732,0.49c0.285,0.109,0.606,0.164,0.963,0.164
		c0.366,0,0.692-0.053,0.978-0.16s0.527-0.27,0.726-0.482c0.197-0.215,0.349-0.48,0.454-0.799c0.104-0.316,0.157-0.688,0.157-1.113
		v-5.792c0-0.039,0.01-0.073,0.029-0.104c0.019-0.029,0.054-0.053,0.103-0.068c0.049-0.019,0.113-0.031,0.194-0.045
		c0.08-0.013,0.182-0.019,0.304-0.019c0.117,0,0.216,0.006,0.297,0.019c0.08,0.014,0.144,0.026,0.19,0.045
		c0.046,0.018,0.08,0.039,0.103,0.068c0.021,0.029,0.033,0.063,0.033,0.104V66.332L20.817,66.332z"/>
	<path d="M29.24,66.252c0,0.576-0.062,1.096-0.187,1.553c-0.124,0.461-0.308,0.85-0.549,1.17c-0.242,0.318-0.541,0.564-0.897,0.738
		s-0.764,0.26-1.223,0.26c-0.195,0-0.376-0.02-0.542-0.059s-0.329-0.102-0.487-0.184c-0.159-0.084-0.316-0.189-0.473-0.314
		c-0.156-0.127-0.322-0.275-0.498-0.445v3.295c0,0.039-0.01,0.074-0.029,0.104s-0.051,0.055-0.095,0.072
		c-0.044,0.02-0.105,0.035-0.183,0.045c-0.078,0.01-0.178,0.014-0.3,0.014c-0.117,0-0.215-0.004-0.293-0.014
		s-0.141-0.025-0.187-0.045s-0.078-0.043-0.095-0.072c-0.018-0.027-0.026-0.063-0.026-0.104v-9.207c0-0.043,0.007-0.078,0.022-0.105
		c0.015-0.025,0.044-0.049,0.088-0.068s0.1-0.031,0.168-0.039c0.068-0.01,0.151-0.014,0.249-0.014c0.103,0,0.187,0.004,0.252,0.014
		c0.066,0.008,0.121,0.02,0.165,0.039c0.044,0.021,0.074,0.043,0.092,0.068c0.017,0.027,0.025,0.064,0.025,0.105v0.887
		c0.2-0.205,0.393-0.383,0.579-0.535c0.186-0.148,0.372-0.273,0.56-0.377c0.188-0.1,0.381-0.176,0.579-0.227
		c0.197-0.051,0.406-0.076,0.626-0.076c0.479,0,0.886,0.092,1.223,0.277c0.337,0.186,0.612,0.439,0.824,0.762
		c0.213,0.322,0.368,0.697,0.465,1.125C29.191,65.321,29.24,65.774,29.24,66.252z M27.988,66.391c0-0.336-0.026-0.662-0.077-0.979
		c-0.052-0.314-0.14-0.596-0.266-0.838c-0.125-0.244-0.293-0.439-0.505-0.586c-0.211-0.146-0.474-0.221-0.788-0.221
		c-0.157,0-0.313,0.021-0.464,0.066c-0.152,0.049-0.307,0.121-0.464,0.223c-0.157,0.102-0.322,0.23-0.494,0.395
		c-0.172,0.164-0.354,0.365-0.545,0.605v2.621c0.334,0.404,0.651,0.717,0.951,0.932c0.3,0.215,0.614,0.322,0.943,0.322
		c0.304,0,0.566-0.074,0.785-0.223c0.218-0.145,0.396-0.342,0.531-0.586c0.135-0.242,0.234-0.518,0.298-0.818
		C27.956,67.006,27.988,66.699,27.988,66.391z"/>
	<path d="M32.265,69.651c0,0.039-0.01,0.072-0.029,0.1c-0.02,0.025-0.051,0.051-0.095,0.068c-0.044,0.021-0.105,0.035-0.183,0.045
		s-0.178,0.014-0.3,0.014c-0.117,0-0.215-0.004-0.293-0.014c-0.078-0.01-0.141-0.023-0.187-0.045
		c-0.046-0.02-0.078-0.043-0.095-0.068c-0.018-0.025-0.026-0.061-0.026-0.1v-9.785c0-0.039,0.008-0.072,0.026-0.103
		c0.017-0.029,0.048-0.055,0.095-0.074c0.046-0.02,0.109-0.032,0.187-0.043c0.078-0.01,0.176-0.016,0.293-0.016
		c0.122,0,0.222,0.006,0.3,0.016c0.078,0.011,0.139,0.023,0.183,0.043c0.044,0.021,0.076,0.045,0.095,0.074
		c0.019,0.027,0.029,0.063,0.029,0.103V69.651z"/>
	<path d="M40.629,66.281c0,0.537-0.071,1.031-0.212,1.482c-0.142,0.453-0.353,0.842-0.633,1.17
		c-0.281,0.326-0.633,0.582-1.055,0.764c-0.423,0.186-0.912,0.275-1.469,0.275c-0.542,0-1.015-0.08-1.417-0.242
		c-0.403-0.16-0.739-0.396-1.007-0.703s-0.469-0.68-0.601-1.119c-0.132-0.438-0.198-0.938-0.198-1.494
		c0-0.537,0.069-1.031,0.209-1.482c0.139-0.451,0.349-0.84,0.63-1.168c0.28-0.326,0.631-0.58,1.051-0.764
		c0.42-0.18,0.911-0.27,1.472-0.27c0.542,0,1.014,0.08,1.417,0.24c0.402,0.162,0.738,0.396,1.007,0.703
		c0.269,0.309,0.47,0.682,0.604,1.119C40.562,65.235,40.629,65.731,40.629,66.281z M39.377,66.362c0-0.354-0.033-0.693-0.1-1.01
		c-0.067-0.318-0.176-0.596-0.329-0.836c-0.153-0.238-0.36-0.43-0.621-0.566c-0.261-0.141-0.586-0.209-0.976-0.209
		c-0.36,0-0.669,0.064-0.928,0.189c-0.259,0.127-0.472,0.307-0.639,0.539c-0.167,0.23-0.292,0.506-0.373,0.822
		c-0.082,0.316-0.122,0.664-0.122,1.041c0,0.359,0.033,0.701,0.1,1.02c0.067,0.316,0.178,0.594,0.333,0.83
		c0.155,0.236,0.363,0.426,0.625,0.563c0.261,0.143,0.586,0.209,0.976,0.209c0.355,0,0.663-0.063,0.924-0.188
		c0.261-0.127,0.476-0.307,0.643-0.535s0.291-0.502,0.37-0.818C39.337,67.094,39.377,66.742,39.377,66.362z"/>
	<path d="M47.375,69.658c0,0.061-0.02,0.104-0.059,0.131c-0.039,0.029-0.093,0.055-0.161,0.066c-0.068,0.016-0.168,0.021-0.3,0.021
		c-0.127,0-0.229-0.008-0.304-0.021c-0.076-0.014-0.131-0.037-0.165-0.066c-0.034-0.027-0.051-0.07-0.051-0.131v-0.66
		c-0.288,0.311-0.609,0.549-0.963,0.721c-0.354,0.17-0.729,0.256-1.124,0.256c-0.347,0-0.661-0.045-0.941-0.135
		c-0.281-0.094-0.52-0.223-0.718-0.395c-0.197-0.17-0.352-0.381-0.461-0.629c-0.11-0.25-0.165-0.533-0.165-0.85
		c0-0.371,0.076-0.693,0.227-0.969c0.151-0.273,0.369-0.5,0.652-0.682c0.283-0.182,0.63-0.316,1.04-0.406
		c0.41-0.09,0.872-0.137,1.384-0.137h0.908v-0.512c0-0.254-0.027-0.48-0.081-0.676c-0.054-0.193-0.141-0.355-0.26-0.486
		c-0.12-0.129-0.275-0.229-0.465-0.293s-0.425-0.1-0.703-0.1c-0.298,0-0.565,0.035-0.802,0.105c-0.237,0.07-0.444,0.148-0.622,0.234
		c-0.179,0.086-0.328,0.162-0.447,0.234c-0.12,0.068-0.208,0.105-0.267,0.105c-0.039,0-0.073-0.012-0.103-0.029
		c-0.03-0.02-0.055-0.049-0.077-0.088s-0.038-0.09-0.048-0.15c-0.01-0.063-0.015-0.129-0.015-0.201c0-0.121,0.008-0.219,0.025-0.289
		s0.059-0.139,0.125-0.201c0.065-0.063,0.179-0.139,0.34-0.225c0.161-0.084,0.347-0.162,0.557-0.232s0.439-0.129,0.688-0.178
		c0.249-0.045,0.5-0.068,0.754-0.068c0.474,0,0.876,0.055,1.208,0.162c0.332,0.105,0.601,0.264,0.806,0.473
		c0.205,0.207,0.354,0.465,0.447,0.771c0.093,0.307,0.139,0.668,0.139,1.076v4.449h0.002V69.658z M46.174,66.649h-1.033
		c-0.332,0-0.62,0.027-0.864,0.084c-0.244,0.055-0.447,0.139-0.608,0.248s-0.28,0.242-0.355,0.396
		c-0.076,0.152-0.114,0.33-0.114,0.531c0,0.342,0.108,0.611,0.326,0.814c0.217,0.203,0.521,0.305,0.912,0.305
		c0.317,0,0.611-0.08,0.883-0.24c0.271-0.162,0.555-0.408,0.853-0.74V66.649z"/>
	<path d="M55.241,69.651c0,0.039-0.009,0.074-0.025,0.104c-0.018,0.029-0.047,0.053-0.088,0.068
		c-0.042,0.018-0.097,0.029-0.165,0.041c-0.068,0.01-0.151,0.014-0.249,0.014c-0.103,0-0.188-0.004-0.256-0.014
		c-0.068-0.012-0.125-0.023-0.168-0.041c-0.044-0.018-0.076-0.039-0.095-0.068c-0.019-0.029-0.029-0.063-0.029-0.104V68.78
		c-0.347,0.375-0.707,0.668-1.081,0.879c-0.373,0.209-0.782,0.314-1.227,0.314c-0.483,0-0.896-0.096-1.238-0.281
		c-0.342-0.189-0.619-0.443-0.832-0.762c-0.212-0.32-0.367-0.697-0.465-1.129c-0.098-0.434-0.146-0.889-0.146-1.365
		c0-0.566,0.061-1.078,0.183-1.535c0.122-0.457,0.303-0.846,0.542-1.168c0.239-0.322,0.536-0.57,0.89-0.744
		c0.354-0.172,0.763-0.26,1.227-0.26c0.386,0,0.738,0.084,1.059,0.254c0.319,0.168,0.636,0.416,0.948,0.742v-3.831
		c0-0.032,0.008-0.065,0.025-0.1c0.017-0.03,0.05-0.057,0.099-0.072c0.049-0.018,0.111-0.031,0.187-0.044
		c0.075-0.013,0.172-0.021,0.289-0.021c0.122,0,0.222,0.008,0.3,0.021c0.078,0.013,0.139,0.026,0.183,0.044
		c0.044,0.019,0.077,0.042,0.099,0.072c0.022,0.031,0.033,0.064,0.033,0.1V69.651L55.241,69.651z M54.025,65.016
		c-0.327-0.406-0.644-0.715-0.948-0.928c-0.306-0.213-0.624-0.318-0.956-0.318c-0.308,0-0.569,0.074-0.784,0.221
		c-0.215,0.146-0.39,0.34-0.524,0.578c-0.134,0.24-0.232,0.51-0.293,0.814c-0.061,0.303-0.091,0.609-0.091,0.922
		c0,0.332,0.026,0.656,0.077,0.975c0.052,0.318,0.141,0.602,0.268,0.846c0.127,0.246,0.295,0.445,0.505,0.596
		c0.21,0.146,0.474,0.223,0.791,0.223c0.161,0,0.316-0.02,0.465-0.064c0.148-0.045,0.301-0.115,0.458-0.221
		c0.156-0.102,0.32-0.234,0.491-0.396c0.171-0.164,0.352-0.365,0.542-0.605L54.025,65.016L54.025,65.016z"/>
	<path d="M65.832,69.658c0,0.061-0.02,0.104-0.059,0.131c-0.039,0.029-0.093,0.055-0.161,0.066c-0.068,0.016-0.168,0.021-0.3,0.021
		c-0.127,0-0.229-0.008-0.304-0.021c-0.076-0.014-0.131-0.037-0.165-0.066c-0.034-0.027-0.051-0.07-0.051-0.131v-0.66
		c-0.288,0.311-0.609,0.549-0.963,0.721c-0.354,0.17-0.729,0.256-1.124,0.256c-0.347,0-0.661-0.045-0.941-0.135
		c-0.281-0.094-0.52-0.223-0.718-0.395c-0.197-0.17-0.352-0.381-0.461-0.629c-0.11-0.25-0.165-0.533-0.165-0.85
		c0-0.371,0.076-0.693,0.227-0.969c0.151-0.273,0.369-0.5,0.652-0.682c0.283-0.182,0.63-0.316,1.04-0.406
		c0.41-0.09,0.872-0.137,1.384-0.137h0.908v-0.512c0-0.254-0.027-0.48-0.081-0.676c-0.054-0.193-0.141-0.355-0.26-0.486
		c-0.12-0.129-0.275-0.229-0.465-0.293s-0.425-0.1-0.703-0.1c-0.298,0-0.565,0.035-0.802,0.105c-0.237,0.07-0.444,0.148-0.622,0.234
		c-0.179,0.086-0.328,0.162-0.447,0.234c-0.12,0.068-0.208,0.105-0.267,0.105c-0.039,0-0.073-0.012-0.103-0.029
		c-0.03-0.02-0.055-0.049-0.077-0.088s-0.038-0.09-0.048-0.15c-0.01-0.063-0.015-0.129-0.015-0.201c0-0.121,0.008-0.219,0.025-0.289
		s0.059-0.139,0.125-0.201c0.065-0.063,0.179-0.139,0.34-0.225c0.161-0.084,0.347-0.162,0.557-0.232s0.439-0.129,0.688-0.178
		c0.249-0.045,0.5-0.068,0.754-0.068c0.474,0,0.876,0.055,1.208,0.162c0.332,0.105,0.601,0.264,0.806,0.473
		c0.205,0.207,0.354,0.465,0.447,0.771c0.093,0.307,0.139,0.668,0.139,1.076v4.449h0.002V69.658z M64.631,66.649h-1.033
		c-0.332,0-0.62,0.027-0.864,0.084c-0.244,0.055-0.447,0.139-0.608,0.248s-0.28,0.242-0.355,0.396
		c-0.076,0.152-0.114,0.33-0.114,0.531c0,0.342,0.108,0.611,0.326,0.814c0.217,0.203,0.521,0.305,0.912,0.305
		c0.317,0,0.611-0.08,0.883-0.24c0.271-0.162,0.555-0.408,0.853-0.74V66.649z"/>
	<path d="M73.728,69.651c0,0.039-0.01,0.072-0.029,0.1c-0.02,0.025-0.051,0.051-0.095,0.068c-0.044,0.021-0.105,0.035-0.183,0.045
		s-0.176,0.014-0.293,0.014c-0.122,0-0.222-0.004-0.3-0.014s-0.139-0.023-0.183-0.045c-0.044-0.02-0.076-0.043-0.095-0.068
		c-0.02-0.025-0.029-0.061-0.029-0.1v-3.859c0-0.377-0.029-0.68-0.088-0.906c-0.059-0.229-0.144-0.43-0.256-0.596
		c-0.112-0.166-0.258-0.293-0.436-0.381c-0.179-0.088-0.385-0.131-0.619-0.131c-0.303,0-0.605,0.107-0.908,0.322
		c-0.303,0.215-0.62,0.527-0.952,0.943v4.605c0,0.039-0.01,0.072-0.029,0.1c-0.02,0.025-0.051,0.051-0.095,0.07
		c-0.044,0.018-0.105,0.033-0.183,0.043s-0.178,0.016-0.3,0.016c-0.117,0-0.215-0.006-0.293-0.016
		c-0.078-0.01-0.141-0.023-0.187-0.043c-0.046-0.021-0.078-0.045-0.095-0.07c-0.018-0.025-0.026-0.061-0.026-0.1v-6.592
		c0-0.039,0.007-0.07,0.022-0.102c0.015-0.023,0.044-0.051,0.088-0.07c0.044-0.021,0.1-0.037,0.168-0.045s0.159-0.012,0.271-0.012
		c0.107,0,0.196,0.004,0.268,0.012c0.07,0.008,0.125,0.021,0.165,0.045c0.039,0.02,0.067,0.047,0.084,0.07
		c0.017,0.027,0.025,0.063,0.025,0.102v0.871c0.371-0.414,0.741-0.721,1.109-0.912c0.369-0.191,0.741-0.289,1.117-0.289
		c0.439,0,0.81,0.074,1.109,0.225c0.301,0.148,0.543,0.35,0.729,0.598c0.186,0.25,0.319,0.541,0.399,0.875
		c0.081,0.336,0.121,0.736,0.121,1.205L73.728,69.651L73.728,69.651z"/>
	<path d="M81.579,69.651c0,0.039-0.009,0.074-0.025,0.104c-0.018,0.029-0.047,0.053-0.088,0.068
		c-0.042,0.018-0.097,0.029-0.165,0.041c-0.068,0.01-0.151,0.014-0.249,0.014c-0.103,0-0.188-0.004-0.256-0.014
		c-0.068-0.012-0.125-0.023-0.168-0.041c-0.044-0.018-0.076-0.039-0.095-0.068s-0.029-0.063-0.029-0.104V68.78
		c-0.347,0.375-0.707,0.668-1.081,0.879c-0.373,0.209-0.782,0.314-1.227,0.314c-0.483,0-0.896-0.096-1.238-0.281
		c-0.342-0.189-0.619-0.443-0.832-0.762c-0.212-0.32-0.367-0.697-0.465-1.129c-0.098-0.434-0.146-0.889-0.146-1.365
		c0-0.566,0.061-1.078,0.183-1.535c0.122-0.457,0.303-0.846,0.542-1.168c0.239-0.322,0.536-0.57,0.89-0.744
		c0.354-0.172,0.763-0.26,1.227-0.26c0.386,0,0.738,0.084,1.059,0.254c0.319,0.168,0.636,0.416,0.948,0.742v-3.831
		c0-0.032,0.008-0.065,0.025-0.1c0.017-0.03,0.05-0.057,0.099-0.072c0.049-0.018,0.111-0.031,0.187-0.044
		c0.075-0.013,0.172-0.021,0.289-0.021c0.122,0,0.222,0.008,0.3,0.021c0.078,0.013,0.139,0.026,0.183,0.044
		c0.044,0.019,0.077,0.042,0.099,0.072c0.022,0.031,0.033,0.064,0.033,0.1V69.651L81.579,69.651z M80.363,65.016
		c-0.327-0.406-0.644-0.715-0.948-0.928c-0.306-0.213-0.624-0.318-0.956-0.318c-0.308,0-0.569,0.074-0.784,0.221
		c-0.215,0.146-0.39,0.34-0.524,0.578c-0.134,0.24-0.232,0.51-0.293,0.814c-0.061,0.303-0.091,0.609-0.091,0.922
		c0,0.332,0.026,0.656,0.077,0.975c0.052,0.318,0.141,0.602,0.268,0.846c0.127,0.246,0.295,0.445,0.505,0.596
		c0.21,0.148,0.474,0.223,0.791,0.223c0.161,0,0.316-0.02,0.465-0.064c0.148-0.045,0.301-0.115,0.458-0.221
		c0.156-0.102,0.32-0.234,0.491-0.396c0.171-0.164,0.352-0.365,0.542-0.605v-2.639h-0.001V65.016z"/>
	<path d="M93.268,66.252c0,0.576-0.063,1.096-0.188,1.553c-0.123,0.461-0.308,0.85-0.549,1.17c-0.242,0.318-0.541,0.564-0.896,0.738
		c-0.356,0.174-0.764,0.26-1.223,0.26c-0.195,0-0.377-0.02-0.543-0.059s-0.328-0.102-0.486-0.184
		c-0.159-0.084-0.316-0.189-0.473-0.314c-0.156-0.127-0.322-0.275-0.498-0.445v3.295c0,0.039-0.011,0.074-0.029,0.104
		c-0.02,0.029-0.051,0.055-0.096,0.072c-0.043,0.02-0.104,0.035-0.183,0.045s-0.178,0.014-0.3,0.014
		c-0.117,0-0.215-0.004-0.293-0.014s-0.141-0.025-0.188-0.045c-0.046-0.02-0.078-0.043-0.095-0.072
		c-0.019-0.027-0.026-0.063-0.026-0.104v-9.207c0-0.043,0.008-0.078,0.022-0.105c0.015-0.025,0.044-0.049,0.088-0.068
		s0.101-0.031,0.168-0.039c0.067-0.01,0.151-0.014,0.249-0.014c0.104,0,0.188,0.004,0.252,0.014c0.066,0.008,0.121,0.02,0.165,0.039
		c0.044,0.021,0.074,0.043,0.093,0.068c0.016,0.027,0.024,0.064,0.024,0.105v0.887c0.2-0.205,0.394-0.383,0.579-0.535
		c0.186-0.148,0.371-0.273,0.56-0.377c0.188-0.1,0.382-0.176,0.579-0.227s0.406-0.076,0.626-0.076c0.479,0,0.888,0.092,1.224,0.277
		c0.338,0.186,0.611,0.439,0.823,0.762c0.214,0.322,0.367,0.697,0.466,1.125C93.219,65.321,93.268,65.774,93.268,66.252z
		 M92.016,66.391c0-0.336-0.025-0.662-0.077-0.979c-0.052-0.314-0.14-0.596-0.267-0.838c-0.125-0.244-0.293-0.439-0.504-0.586
		s-0.476-0.221-0.789-0.221c-0.156,0-0.313,0.021-0.463,0.066c-0.153,0.049-0.309,0.121-0.465,0.223
		c-0.158,0.102-0.322,0.23-0.494,0.395s-0.354,0.365-0.545,0.605v2.621c0.334,0.404,0.65,0.717,0.95,0.932s0.614,0.322,0.944,0.322
		c0.304,0,0.564-0.074,0.783-0.223c0.219-0.145,0.396-0.342,0.531-0.586c0.135-0.242,0.233-0.518,0.299-0.818
		C91.985,67.006,92.016,66.699,92.016,66.391z"/>
	<path d="M98.937,63.49c0,0.107-0.002,0.199-0.008,0.271c-0.005,0.074-0.015,0.131-0.029,0.174
		c-0.014,0.041-0.032,0.072-0.055,0.094c-0.021,0.023-0.054,0.033-0.093,0.033s-0.086-0.01-0.143-0.033
		c-0.057-0.02-0.119-0.043-0.189-0.063c-0.071-0.023-0.15-0.043-0.238-0.064c-0.088-0.02-0.184-0.029-0.286-0.029
		c-0.121,0-0.241,0.023-0.358,0.072s-0.24,0.131-0.369,0.242c-0.129,0.113-0.266,0.262-0.406,0.447
		c-0.141,0.184-0.299,0.412-0.469,0.68v4.336c0,0.041-0.01,0.072-0.029,0.1s-0.051,0.053-0.096,0.07
		c-0.043,0.021-0.104,0.033-0.184,0.043c-0.078,0.01-0.179,0.018-0.3,0.018c-0.117,0-0.215-0.008-0.293-0.018
		s-0.142-0.021-0.188-0.043c-0.047-0.02-0.078-0.043-0.095-0.07c-0.019-0.025-0.026-0.059-0.026-0.1v-6.592
		c0-0.037,0.008-0.07,0.022-0.1c0.015-0.025,0.044-0.051,0.088-0.072s0.101-0.035,0.169-0.043s0.158-0.012,0.271-0.012
		c0.107,0,0.195,0.004,0.268,0.012c0.07,0.008,0.126,0.021,0.165,0.043s0.065,0.047,0.084,0.072c0.017,0.027,0.024,0.063,0.024,0.1
		v0.961c0.182-0.264,0.351-0.48,0.51-0.646c0.158-0.168,0.311-0.297,0.449-0.393c0.144-0.096,0.283-0.16,0.423-0.197
		c0.139-0.035,0.278-0.055,0.421-0.055c0.063,0,0.136,0.004,0.216,0.012c0.081,0.008,0.165,0.021,0.253,0.041
		s0.167,0.041,0.238,0.064c0.068,0.021,0.119,0.049,0.148,0.07c0.028,0.025,0.049,0.051,0.059,0.07
		c0.01,0.021,0.02,0.051,0.025,0.084c0.008,0.035,0.014,0.084,0.016,0.15C98.936,63.289,98.937,63.379,98.937,63.49z"/>
	<path d="M105.743,66.069c0,0.191-0.05,0.326-0.146,0.406c-0.097,0.082-0.205,0.121-0.326,0.121h-4.342
		c0,0.365,0.036,0.695,0.108,0.988c0.074,0.293,0.197,0.545,0.369,0.756c0.172,0.209,0.396,0.369,0.67,0.482
		c0.273,0.111,0.609,0.168,1.008,0.168c0.313,0,0.595-0.025,0.84-0.076c0.244-0.053,0.457-0.107,0.636-0.174
		c0.181-0.063,0.328-0.119,0.442-0.172c0.115-0.051,0.201-0.076,0.261-0.076c0.034,0,0.065,0.008,0.092,0.025
		s0.05,0.043,0.063,0.076c0.015,0.033,0.023,0.082,0.031,0.145c0.008,0.061,0.012,0.135,0.012,0.223
		c0,0.063-0.002,0.119-0.008,0.164c-0.004,0.049-0.01,0.09-0.018,0.125c-0.008,0.037-0.021,0.07-0.037,0.1
		c-0.018,0.031-0.039,0.059-0.066,0.084c-0.024,0.027-0.104,0.072-0.235,0.133c-0.134,0.061-0.304,0.121-0.515,0.18
		c-0.209,0.061-0.453,0.111-0.729,0.156c-0.275,0.047-0.57,0.07-0.883,0.07c-0.543,0-1.02-0.076-1.426-0.229
		c-0.406-0.15-0.752-0.375-1.027-0.674c-0.279-0.299-0.488-0.672-0.631-1.121c-0.143-0.447-0.213-0.971-0.213-1.564
		c0-0.566,0.072-1.076,0.221-1.527c0.146-0.453,0.355-0.836,0.633-1.15c0.275-0.313,0.609-0.557,1-0.725
		c0.391-0.17,0.828-0.254,1.313-0.254c0.519,0,0.957,0.084,1.32,0.25s0.664,0.389,0.898,0.67c0.232,0.281,0.404,0.609,0.516,0.988
		c0.109,0.379,0.166,0.781,0.166,1.213L105.743,66.069L105.743,66.069z M104.525,65.711c0.017-0.635-0.127-1.133-0.424-1.494
		s-0.737-0.543-1.322-0.543c-0.301,0-0.563,0.057-0.788,0.17c-0.225,0.111-0.414,0.262-0.566,0.445
		c-0.152,0.188-0.271,0.4-0.354,0.646c-0.084,0.248-0.131,0.506-0.141,0.771h3.596V65.711L104.525,65.711z"/>
	<path d="M110.545,66.135c0,0.191-0.021,0.322-0.064,0.396c-0.045,0.07-0.105,0.107-0.189,0.107h-3.063
		c-0.088,0-0.152-0.037-0.197-0.111c-0.045-0.076-0.064-0.207-0.064-0.395c0-0.186,0.021-0.313,0.064-0.389
		c0.045-0.072,0.109-0.109,0.197-0.109h3.063c0.039,0,0.074,0.008,0.105,0.021c0.031,0.016,0.059,0.043,0.08,0.084
		s0.039,0.096,0.051,0.156C110.54,65.965,110.545,66.043,110.545,66.135z"/>
</g>
<g enable-background="new    ">
	<path d="M19.616,84.252c0,0.576-0.062,1.096-0.187,1.553c-0.124,0.461-0.308,0.85-0.549,1.17c-0.242,0.318-0.541,0.564-0.897,0.738
		s-0.764,0.26-1.223,0.26c-0.195,0-0.376-0.02-0.542-0.059s-0.329-0.102-0.487-0.184c-0.159-0.084-0.316-0.189-0.473-0.314
		c-0.156-0.127-0.322-0.275-0.498-0.445v3.295c0,0.039-0.01,0.074-0.029,0.104s-0.051,0.055-0.095,0.072
		c-0.044,0.021-0.105,0.035-0.183,0.045c-0.078,0.01-0.178,0.014-0.3,0.014c-0.117,0-0.215-0.004-0.293-0.014
		c-0.078-0.01-0.141-0.023-0.187-0.045c-0.046-0.02-0.078-0.043-0.095-0.072c-0.018-0.027-0.026-0.063-0.026-0.104v-9.207
		c0-0.043,0.007-0.078,0.022-0.105c0.015-0.025,0.044-0.049,0.088-0.068s0.1-0.031,0.168-0.039c0.068-0.01,0.151-0.014,0.249-0.014
		c0.103,0,0.187,0.004,0.252,0.014c0.066,0.008,0.121,0.02,0.165,0.039c0.044,0.021,0.074,0.043,0.092,0.068
		c0.017,0.027,0.025,0.064,0.025,0.105v0.887c0.2-0.205,0.393-0.383,0.579-0.535c0.186-0.148,0.372-0.273,0.56-0.377
		c0.188-0.1,0.381-0.176,0.579-0.227c0.197-0.051,0.406-0.076,0.626-0.076c0.479,0,0.886,0.092,1.223,0.277
		c0.337,0.186,0.612,0.439,0.824,0.762c0.213,0.322,0.368,0.697,0.465,1.125C19.567,83.321,19.616,83.774,19.616,84.252z
		 M18.364,84.391c0-0.336-0.026-0.662-0.077-0.979c-0.052-0.314-0.14-0.596-0.266-0.838c-0.125-0.244-0.293-0.439-0.505-0.586
		c-0.211-0.146-0.474-0.221-0.788-0.221c-0.157,0-0.313,0.021-0.464,0.066c-0.152,0.049-0.307,0.121-0.464,0.223
		c-0.157,0.102-0.322,0.23-0.494,0.395c-0.172,0.164-0.354,0.365-0.545,0.605v2.621c0.334,0.404,0.651,0.717,0.951,0.932
		c0.3,0.215,0.614,0.322,0.943,0.322c0.304,0,0.566-0.074,0.785-0.223c0.218-0.145,0.396-0.342,0.531-0.586
		c0.135-0.242,0.234-0.518,0.298-0.818C18.332,85.006,18.364,84.699,18.364,84.391z"/>
	<path d="M26.398,87.658c0,0.061-0.02,0.104-0.059,0.131c-0.039,0.029-0.093,0.055-0.161,0.066c-0.068,0.016-0.168,0.021-0.3,0.021
		c-0.127,0-0.229-0.008-0.304-0.021c-0.076-0.014-0.131-0.037-0.165-0.066c-0.034-0.027-0.051-0.07-0.051-0.131v-0.66
		c-0.288,0.311-0.609,0.549-0.963,0.721c-0.354,0.17-0.729,0.256-1.124,0.256c-0.347,0-0.661-0.045-0.941-0.135
		c-0.281-0.094-0.52-0.223-0.718-0.395c-0.197-0.17-0.352-0.381-0.461-0.629c-0.11-0.25-0.165-0.533-0.165-0.85
		c0-0.371,0.076-0.693,0.227-0.969c0.151-0.273,0.369-0.5,0.652-0.682c0.283-0.182,0.63-0.316,1.04-0.406
		c0.41-0.09,0.872-0.137,1.384-0.137h0.908v-0.512c0-0.254-0.027-0.48-0.081-0.676c-0.054-0.193-0.141-0.355-0.26-0.486
		c-0.12-0.129-0.275-0.229-0.465-0.293s-0.425-0.1-0.703-0.1c-0.298,0-0.565,0.035-0.802,0.105c-0.237,0.07-0.444,0.148-0.622,0.234
		c-0.179,0.086-0.328,0.162-0.447,0.234c-0.12,0.068-0.208,0.105-0.267,0.105c-0.039,0-0.073-0.012-0.103-0.029
		c-0.03-0.02-0.055-0.049-0.077-0.088s-0.038-0.09-0.048-0.15c-0.01-0.063-0.015-0.129-0.015-0.201c0-0.121,0.008-0.219,0.025-0.289
		s0.059-0.139,0.125-0.201c0.065-0.063,0.179-0.139,0.34-0.225c0.161-0.084,0.347-0.162,0.557-0.232s0.439-0.129,0.688-0.178
		c0.249-0.045,0.5-0.068,0.754-0.068c0.474,0,0.876,0.055,1.208,0.162c0.332,0.105,0.601,0.264,0.806,0.473
		c0.205,0.207,0.354,0.465,0.447,0.771c0.093,0.307,0.139,0.668,0.139,1.076v4.449h0.002V87.658z M25.197,84.649h-1.033
		c-0.332,0-0.62,0.027-0.864,0.084c-0.244,0.055-0.447,0.139-0.608,0.248c-0.161,0.109-0.28,0.242-0.355,0.396
		c-0.076,0.152-0.114,0.33-0.114,0.531c0,0.342,0.108,0.611,0.326,0.814c0.217,0.203,0.521,0.305,0.912,0.305
		c0.317,0,0.611-0.08,0.883-0.24c0.271-0.162,0.555-0.408,0.853-0.74V84.649z"/>
	<path d="M32.47,81.49c0,0.107-0.002,0.199-0.007,0.271c-0.005,0.074-0.015,0.131-0.029,0.174c-0.015,0.041-0.033,0.072-0.055,0.094
		c-0.022,0.023-0.053,0.033-0.092,0.033s-0.087-0.01-0.143-0.033c-0.057-0.02-0.12-0.043-0.19-0.063
		c-0.071-0.023-0.15-0.043-0.238-0.064c-0.088-0.02-0.183-0.029-0.286-0.029c-0.122,0-0.242,0.023-0.359,0.072
		c-0.117,0.049-0.241,0.131-0.37,0.242c-0.129,0.113-0.265,0.262-0.406,0.447c-0.141,0.184-0.298,0.412-0.469,0.68v4.336
		c0,0.041-0.01,0.072-0.029,0.1c-0.02,0.027-0.051,0.053-0.095,0.07c-0.044,0.02-0.105,0.033-0.183,0.043s-0.178,0.018-0.3,0.018
		c-0.117,0-0.215-0.008-0.293-0.018c-0.078-0.01-0.141-0.021-0.187-0.043c-0.046-0.02-0.078-0.043-0.095-0.07
		c-0.018-0.025-0.026-0.059-0.026-0.1v-6.592c0-0.037,0.007-0.07,0.022-0.1c0.015-0.025,0.044-0.051,0.088-0.072
		s0.1-0.035,0.168-0.043s0.159-0.012,0.271-0.012c0.107,0,0.196,0.004,0.268,0.012c0.07,0.008,0.125,0.021,0.165,0.043
		c0.039,0.021,0.067,0.047,0.084,0.072c0.017,0.027,0.025,0.063,0.025,0.1v0.961c0.181-0.264,0.35-0.48,0.509-0.646
		c0.159-0.166,0.309-0.297,0.451-0.393s0.282-0.16,0.421-0.197c0.139-0.035,0.279-0.055,0.421-0.055
		c0.063,0,0.136,0.004,0.216,0.012c0.081,0.008,0.165,0.021,0.253,0.041s0.167,0.041,0.238,0.064c0.07,0.021,0.121,0.049,0.15,0.07
		c0.029,0.025,0.049,0.051,0.059,0.07c0.01,0.021,0.018,0.051,0.026,0.084c0.007,0.035,0.012,0.084,0.015,0.15
		C32.469,81.289,32.47,81.379,32.47,81.49z"/>
	<path d="M39.274,84.069c0,0.191-0.048,0.326-0.144,0.406c-0.096,0.082-0.205,0.121-0.327,0.121h-4.341
		c0,0.365,0.037,0.695,0.11,0.988c0.073,0.293,0.196,0.545,0.368,0.756c0.171,0.209,0.395,0.369,0.669,0.482
		c0.275,0.111,0.611,0.168,1.008,0.168c0.314,0,0.594-0.025,0.839-0.076c0.245-0.053,0.458-0.107,0.636-0.174
		c0.179-0.063,0.327-0.119,0.442-0.172c0.115-0.051,0.202-0.076,0.261-0.076c0.034,0,0.065,0.008,0.092,0.025
		c0.027,0.018,0.048,0.043,0.063,0.076c0.015,0.033,0.025,0.082,0.033,0.145c0.007,0.061,0.011,0.135,0.011,0.223
		c0,0.063-0.002,0.119-0.007,0.164c-0.005,0.049-0.011,0.09-0.019,0.125c-0.007,0.037-0.02,0.07-0.036,0.1
		c-0.018,0.029-0.04,0.059-0.066,0.084c-0.027,0.027-0.106,0.072-0.238,0.133c-0.132,0.061-0.303,0.121-0.513,0.18
		c-0.21,0.061-0.453,0.111-0.729,0.156c-0.276,0.047-0.57,0.07-0.882,0.07c-0.542,0-1.017-0.076-1.424-0.229
		c-0.408-0.15-0.751-0.375-1.029-0.674c-0.278-0.299-0.488-0.672-0.63-1.121c-0.142-0.447-0.212-0.971-0.212-1.564
		c0-0.566,0.073-1.076,0.22-1.527c0.146-0.453,0.357-0.836,0.633-1.15c0.276-0.313,0.609-0.557,1-0.725
		c0.391-0.17,0.828-0.254,1.311-0.254c0.518,0,0.958,0.084,1.322,0.25c0.364,0.166,0.663,0.389,0.897,0.67
		c0.234,0.281,0.406,0.609,0.517,0.988c0.109,0.379,0.165,0.781,0.165,1.213V84.069z M38.059,83.711
		c0.015-0.635-0.126-1.133-0.424-1.494c-0.298-0.361-0.738-0.543-1.323-0.543c-0.3,0-0.563,0.057-0.789,0.17
		c-0.226,0.111-0.415,0.262-0.567,0.445c-0.152,0.188-0.27,0.4-0.354,0.646c-0.083,0.248-0.13,0.506-0.14,0.771h3.597V83.711z"/>
	<path d="M47.507,87.834l-0.879,2.424c-0.029,0.078-0.104,0.139-0.223,0.18c-0.12,0.043-0.302,0.063-0.546,0.063
		c-0.127,0-0.229-0.006-0.308-0.018c-0.078-0.012-0.138-0.033-0.18-0.063s-0.064-0.068-0.069-0.117
		c-0.005-0.051,0.007-0.107,0.037-0.176l0.908-2.293c-0.044-0.021-0.085-0.051-0.125-0.096c-0.039-0.043-0.066-0.092-0.081-0.141
		l-2.351-6.299c-0.039-0.104-0.059-0.186-0.059-0.242s0.02-0.104,0.059-0.141c0.039-0.033,0.103-0.057,0.19-0.066
		c0.088-0.014,0.205-0.021,0.352-0.021s0.261,0.004,0.344,0.014c0.083,0.008,0.149,0.02,0.198,0.039
		c0.049,0.021,0.084,0.049,0.106,0.086c0.021,0.033,0.045,0.086,0.069,0.146l1.882,5.289h0.022l1.816-5.316
		c0.029-0.094,0.064-0.152,0.106-0.18c0.041-0.025,0.104-0.047,0.187-0.059c0.083-0.014,0.203-0.02,0.359-0.02
		c0.137,0,0.249,0.006,0.337,0.02c0.088,0.012,0.152,0.035,0.194,0.068s0.063,0.08,0.063,0.139s-0.015,0.133-0.044,0.221
		L47.507,87.834z"/>
	<path d="M57.248,84.281c0,0.537-0.071,1.031-0.212,1.482c-0.142,0.453-0.353,0.842-0.633,1.17
		c-0.281,0.326-0.633,0.582-1.055,0.764c-0.423,0.186-0.912,0.275-1.469,0.275c-0.542,0-1.015-0.08-1.417-0.242
		c-0.403-0.16-0.739-0.396-1.007-0.703s-0.469-0.68-0.601-1.119c-0.132-0.438-0.198-0.938-0.198-1.494
		c0-0.537,0.069-1.031,0.209-1.482c0.139-0.451,0.349-0.84,0.63-1.168c0.28-0.326,0.631-0.58,1.051-0.764
		c0.42-0.18,0.911-0.27,1.472-0.27c0.542,0,1.014,0.08,1.417,0.24c0.402,0.162,0.738,0.396,1.007,0.703
		c0.269,0.309,0.47,0.682,0.604,1.119C57.181,83.235,57.248,83.731,57.248,84.281z M55.996,84.362c0-0.354-0.033-0.693-0.1-1.01
		c-0.067-0.318-0.176-0.596-0.329-0.836c-0.153-0.238-0.36-0.43-0.621-0.566c-0.261-0.141-0.586-0.209-0.976-0.209
		c-0.36,0-0.669,0.064-0.928,0.189c-0.259,0.127-0.472,0.307-0.639,0.539c-0.167,0.23-0.292,0.506-0.373,0.822
		c-0.082,0.316-0.122,0.664-0.122,1.041c0,0.359,0.033,0.701,0.1,1.02c0.067,0.316,0.178,0.594,0.333,0.83
		c0.155,0.236,0.363,0.426,0.625,0.563c0.261,0.143,0.586,0.209,0.976,0.209c0.355,0,0.663-0.063,0.924-0.188
		c0.261-0.127,0.476-0.307,0.643-0.535s0.291-0.502,0.37-0.818C55.956,85.094,55.996,84.742,55.996,84.362z"/>
	<path d="M64.675,87.651c0,0.039-0.009,0.072-0.025,0.1c-0.018,0.025-0.048,0.051-0.092,0.068c-0.044,0.021-0.102,0.035-0.172,0.045
		c-0.071,0.01-0.158,0.014-0.26,0.014c-0.112,0-0.204-0.004-0.275-0.014s-0.127-0.023-0.168-0.045
		c-0.042-0.02-0.07-0.043-0.084-0.068c-0.015-0.025-0.022-0.061-0.022-0.1V86.78c-0.376,0.414-0.747,0.717-1.113,0.908
		c-0.366,0.189-0.737,0.285-1.113,0.285c-0.439,0-0.81-0.072-1.109-0.221c-0.301-0.146-0.543-0.346-0.729-0.598
		c-0.186-0.25-0.319-0.543-0.399-0.879c-0.081-0.334-0.121-0.74-0.121-1.219v-4c0-0.039,0.008-0.07,0.025-0.102
		c0.017-0.023,0.05-0.051,0.099-0.07c0.049-0.021,0.112-0.037,0.19-0.045s0.176-0.012,0.293-0.012c0.117,0,0.215,0.004,0.293,0.012
		s0.14,0.021,0.187,0.045c0.046,0.02,0.079,0.047,0.099,0.07c0.02,0.027,0.029,0.063,0.029,0.102v3.838
		c0,0.387,0.028,0.695,0.084,0.928c0.056,0.23,0.142,0.43,0.257,0.594c0.114,0.162,0.26,0.289,0.436,0.381
		c0.176,0.09,0.381,0.137,0.615,0.137c0.303,0,0.604-0.107,0.904-0.322c0.301-0.215,0.619-0.531,0.956-0.945v-4.605
		c0-0.039,0.008-0.07,0.025-0.102c0.017-0.023,0.05-0.051,0.099-0.07c0.049-0.021,0.111-0.037,0.187-0.045
		c0.075-0.008,0.174-0.012,0.296-0.012c0.117,0,0.215,0.004,0.293,0.012c0.078,0.008,0.139,0.021,0.183,0.045
		c0.044,0.021,0.077,0.047,0.099,0.07c0.022,0.027,0.033,0.063,0.033,0.102V87.651L64.675,87.651z"/>
	<path d="M70.761,81.49c0,0.107-0.002,0.199-0.007,0.271c-0.005,0.074-0.015,0.131-0.029,0.174
		c-0.015,0.041-0.033,0.072-0.055,0.094c-0.022,0.023-0.053,0.033-0.092,0.033s-0.087-0.01-0.143-0.033
		c-0.057-0.02-0.12-0.043-0.19-0.063c-0.071-0.023-0.15-0.043-0.238-0.064c-0.088-0.02-0.183-0.029-0.286-0.029
		c-0.122,0-0.242,0.023-0.359,0.072c-0.117,0.049-0.241,0.131-0.37,0.242c-0.129,0.113-0.265,0.262-0.406,0.447
		c-0.141,0.184-0.298,0.412-0.469,0.68v4.336c0,0.041-0.01,0.072-0.029,0.1c-0.02,0.027-0.051,0.053-0.095,0.07
		c-0.044,0.02-0.105,0.033-0.183,0.043s-0.178,0.018-0.3,0.018c-0.117,0-0.215-0.008-0.293-0.018
		c-0.078-0.01-0.141-0.021-0.187-0.043c-0.046-0.02-0.078-0.043-0.095-0.07c-0.018-0.025-0.026-0.059-0.026-0.1v-6.592
		c0-0.037,0.007-0.07,0.022-0.1c0.015-0.025,0.044-0.051,0.088-0.072s0.1-0.035,0.168-0.043s0.159-0.012,0.271-0.012
		c0.107,0,0.196,0.004,0.268,0.012c0.07,0.008,0.125,0.021,0.165,0.043c0.039,0.021,0.067,0.047,0.084,0.072
		c0.017,0.027,0.025,0.063,0.025,0.1v0.961c0.181-0.264,0.35-0.48,0.509-0.646c0.159-0.166,0.309-0.297,0.451-0.393
		s0.282-0.16,0.421-0.197c0.139-0.035,0.279-0.055,0.421-0.055c0.063,0,0.136,0.004,0.216,0.012
		c0.081,0.008,0.165,0.021,0.253,0.041s0.167,0.041,0.238,0.064c0.07,0.021,0.121,0.049,0.15,0.07
		c0.029,0.025,0.049,0.051,0.059,0.07c0.01,0.021,0.018,0.051,0.026,0.084c0.007,0.035,0.012,0.084,0.015,0.15
		C70.76,81.289,70.761,81.379,70.761,81.49z"/>
	<path d="M81.176,87.651c0,0.039-0.009,0.074-0.025,0.104c-0.018,0.029-0.047,0.053-0.088,0.068
		c-0.042,0.018-0.097,0.029-0.165,0.041c-0.068,0.01-0.151,0.014-0.249,0.014c-0.103,0-0.188-0.004-0.256-0.014
		c-0.068-0.012-0.125-0.023-0.168-0.041c-0.044-0.018-0.076-0.039-0.095-0.068s-0.029-0.063-0.029-0.104V86.78
		c-0.347,0.375-0.707,0.668-1.081,0.879c-0.373,0.209-0.782,0.314-1.227,0.314c-0.483,0-0.896-0.096-1.238-0.281
		c-0.342-0.189-0.619-0.443-0.832-0.762c-0.212-0.32-0.367-0.697-0.465-1.129c-0.098-0.434-0.146-0.889-0.146-1.365
		c0-0.566,0.061-1.078,0.183-1.535s0.303-0.846,0.542-1.168c0.239-0.322,0.536-0.57,0.89-0.744c0.354-0.172,0.763-0.26,1.227-0.26
		c0.386,0,0.738,0.084,1.059,0.254c0.319,0.168,0.636,0.416,0.948,0.742v-3.83c0-0.033,0.008-0.066,0.025-0.1
		c0.017-0.031,0.05-0.057,0.099-0.072c0.049-0.018,0.111-0.031,0.187-0.045c0.075-0.012,0.172-0.02,0.289-0.02
		c0.122,0,0.222,0.008,0.3,0.02c0.078,0.014,0.139,0.027,0.183,0.045s0.077,0.041,0.099,0.072s0.033,0.064,0.033,0.1L81.176,87.651
		L81.176,87.651z M79.96,83.016c-0.327-0.406-0.644-0.715-0.948-0.928c-0.306-0.213-0.624-0.318-0.956-0.318
		c-0.308,0-0.569,0.074-0.784,0.221s-0.39,0.34-0.524,0.578c-0.134,0.24-0.232,0.51-0.293,0.814
		c-0.061,0.303-0.091,0.609-0.091,0.922c0,0.332,0.026,0.656,0.077,0.975c0.052,0.318,0.141,0.602,0.268,0.846
		c0.127,0.246,0.295,0.445,0.505,0.596c0.21,0.148,0.474,0.223,0.791,0.223c0.161,0,0.316-0.02,0.465-0.064
		c0.148-0.045,0.301-0.115,0.458-0.221c0.156-0.102,0.32-0.234,0.491-0.396c0.171-0.164,0.352-0.365,0.542-0.605L79.96,83.016
		L79.96,83.016z"/>
	<path d="M88.375,87.658c0,0.061-0.02,0.104-0.059,0.131c-0.039,0.029-0.093,0.055-0.16,0.066c-0.068,0.016-0.169,0.021-0.301,0.021
		c-0.127,0-0.229-0.008-0.304-0.021c-0.076-0.014-0.132-0.037-0.165-0.066c-0.034-0.027-0.051-0.07-0.051-0.131v-0.66
		c-0.289,0.311-0.609,0.549-0.963,0.721c-0.354,0.17-0.729,0.256-1.125,0.256c-0.347,0-0.66-0.045-0.94-0.135
		c-0.281-0.094-0.52-0.223-0.718-0.395c-0.197-0.17-0.352-0.381-0.461-0.629c-0.11-0.25-0.165-0.533-0.165-0.85
		c0-0.371,0.076-0.693,0.227-0.969c0.151-0.273,0.369-0.5,0.652-0.682c0.283-0.182,0.63-0.316,1.04-0.406s0.871-0.137,1.384-0.137
		h0.907v-0.512c0-0.254-0.026-0.48-0.08-0.676c-0.055-0.193-0.141-0.355-0.26-0.486c-0.121-0.129-0.275-0.229-0.465-0.293
		c-0.19-0.064-0.426-0.1-0.703-0.1c-0.299,0-0.565,0.035-0.803,0.105c-0.236,0.07-0.443,0.148-0.622,0.234
		c-0.179,0.086-0.328,0.162-0.447,0.234c-0.12,0.068-0.208,0.105-0.267,0.105c-0.039,0-0.073-0.012-0.103-0.029
		c-0.03-0.02-0.055-0.049-0.077-0.088s-0.038-0.09-0.048-0.15c-0.01-0.063-0.015-0.129-0.015-0.201c0-0.121,0.008-0.219,0.025-0.289
		s0.059-0.139,0.125-0.201c0.065-0.063,0.179-0.139,0.34-0.225c0.161-0.084,0.347-0.162,0.557-0.232
		c0.209-0.07,0.439-0.129,0.688-0.178c0.249-0.045,0.5-0.068,0.754-0.068c0.475,0,0.876,0.055,1.208,0.162
		c0.332,0.105,0.601,0.264,0.806,0.473c0.205,0.207,0.354,0.465,0.447,0.771c0.094,0.307,0.139,0.668,0.139,1.076v4.449h0.002
		V87.658z M87.174,84.649h-1.032c-0.332,0-0.62,0.027-0.864,0.084c-0.244,0.055-0.447,0.139-0.607,0.248
		c-0.162,0.109-0.28,0.242-0.355,0.396c-0.076,0.152-0.114,0.33-0.114,0.531c0,0.342,0.108,0.611,0.326,0.814
		s0.521,0.305,0.912,0.305c0.317,0,0.61-0.08,0.884-0.24c0.27-0.162,0.555-0.408,0.852-0.74V84.649z"/>
	<path d="M93.883,87.168c0,0.143-0.01,0.254-0.029,0.336c-0.02,0.084-0.049,0.145-0.088,0.184s-0.098,0.076-0.176,0.109
		c-0.078,0.035-0.168,0.063-0.268,0.086c-0.101,0.02-0.205,0.039-0.318,0.055c-0.111,0.014-0.226,0.021-0.336,0.021
		c-0.342,0-0.635-0.047-0.879-0.137c-0.244-0.092-0.445-0.229-0.603-0.41c-0.155-0.184-0.271-0.414-0.34-0.695
		c-0.071-0.279-0.106-0.611-0.106-0.992v-3.854h-0.923c-0.073,0-0.132-0.039-0.176-0.115c-0.044-0.078-0.065-0.205-0.065-0.383
		c0-0.092,0.006-0.17,0.018-0.232c0.012-0.064,0.027-0.117,0.048-0.158s0.045-0.07,0.077-0.088c0.031-0.018,0.066-0.025,0.105-0.025
		h0.916v-1.566c0-0.033,0.01-0.064,0.025-0.096c0.016-0.029,0.049-0.055,0.096-0.076s0.108-0.037,0.188-0.049
		c0.078-0.01,0.176-0.016,0.293-0.016c0.121,0,0.223,0.006,0.301,0.016c0.078,0.012,0.139,0.025,0.184,0.049
		c0.043,0.023,0.074,0.049,0.094,0.076c0.021,0.029,0.029,0.063,0.029,0.096v1.566h1.692c0.039,0,0.073,0.008,0.103,0.025
		s0.055,0.047,0.077,0.088c0.021,0.041,0.038,0.094,0.048,0.158c0.01,0.063,0.014,0.141,0.014,0.232
		c0,0.178-0.021,0.305-0.064,0.383c-0.044,0.076-0.104,0.115-0.176,0.115h-1.691v3.678c0,0.453,0.066,0.797,0.201,1.029
		c0.135,0.23,0.374,0.348,0.723,0.348c0.11,0,0.211-0.012,0.299-0.033c0.089-0.021,0.166-0.045,0.234-0.068s0.127-0.049,0.176-0.068
		c0.049-0.021,0.094-0.033,0.133-0.033c0.023,0,0.048,0.006,0.068,0.02c0.022,0.012,0.039,0.035,0.053,0.068
		c0.012,0.035,0.022,0.08,0.033,0.141C93.881,87.008,93.883,87.08,93.883,87.168z"/>
	<path d="M100.264,87.658c0,0.061-0.021,0.104-0.061,0.131c-0.039,0.029-0.093,0.055-0.16,0.066
		c-0.068,0.016-0.168,0.021-0.301,0.021c-0.127,0-0.229-0.008-0.304-0.021c-0.075-0.014-0.131-0.037-0.166-0.066
		c-0.032-0.027-0.051-0.07-0.051-0.131v-0.66c-0.289,0.311-0.608,0.549-0.964,0.721c-0.354,0.17-0.729,0.256-1.125,0.256
		c-0.346,0-0.66-0.045-0.941-0.135c-0.279-0.094-0.52-0.223-0.717-0.395c-0.197-0.17-0.352-0.381-0.461-0.629
		c-0.111-0.25-0.166-0.533-0.166-0.85c0-0.371,0.076-0.693,0.229-0.969c0.151-0.273,0.367-0.5,0.65-0.682S96.358,84,96.768,83.91
		s0.871-0.137,1.384-0.137h0.908v-0.512c0-0.254-0.024-0.48-0.08-0.676c-0.053-0.193-0.142-0.355-0.26-0.486
		c-0.119-0.129-0.274-0.229-0.466-0.293c-0.19-0.064-0.426-0.1-0.703-0.1c-0.299,0-0.565,0.035-0.803,0.105
		c-0.236,0.07-0.443,0.148-0.621,0.234c-0.18,0.086-0.328,0.162-0.447,0.234c-0.12,0.068-0.209,0.105-0.268,0.105
		c-0.039,0-0.074-0.012-0.104-0.029c-0.029-0.02-0.057-0.049-0.077-0.088s-0.037-0.09-0.047-0.15
		c-0.01-0.063-0.017-0.129-0.017-0.201c0-0.121,0.01-0.219,0.025-0.289c0.018-0.07,0.059-0.139,0.125-0.201s0.18-0.139,0.342-0.225
		c0.16-0.084,0.346-0.162,0.557-0.232c0.21-0.07,0.439-0.129,0.688-0.178c0.25-0.045,0.5-0.068,0.754-0.068
		c0.476,0,0.877,0.055,1.209,0.162c0.332,0.105,0.603,0.264,0.808,0.473c0.204,0.207,0.354,0.465,0.444,0.771
		c0.094,0.309,0.142,0.668,0.142,1.076v4.449h0.003V87.658z M99.062,84.649h-1.033c-0.332,0-0.62,0.027-0.864,0.084
		c-0.244,0.055-0.447,0.139-0.607,0.248c-0.161,0.109-0.279,0.242-0.355,0.396c-0.076,0.152-0.113,0.33-0.113,0.531
		c0,0.342,0.108,0.611,0.326,0.814c0.217,0.203,0.521,0.305,0.912,0.305c0.316,0,0.611-0.08,0.883-0.24
		c0.271-0.162,0.556-0.408,0.854-0.74v-1.398H99.062z"/>
</g>
<g enable-background="new    ">
	<path d="M16.057,95.74c-0.464,0.982-0.809,1.988-1.037,3.021c-0.227,1.031-0.34,2.07-0.34,3.115c0,1.051,0.116,2.092,0.348,3.121
		c0.231,1.029,0.57,2.041,1.014,3.031c0.024,0.061,0.038,0.107,0.041,0.15c0.002,0.041-0.014,0.074-0.048,0.104
		c-0.034,0.025-0.087,0.045-0.157,0.059c-0.071,0.012-0.167,0.02-0.29,0.02c-0.088,0-0.164-0.004-0.227-0.008
		c-0.063-0.006-0.119-0.016-0.165-0.029c-0.046-0.014-0.084-0.033-0.113-0.051c-0.029-0.021-0.051-0.043-0.066-0.066
		c-0.264-0.498-0.496-1.002-0.696-1.514c-0.2-0.51-0.369-1.027-0.505-1.555c-0.136-0.529-0.239-1.063-0.308-1.602
		c-0.068-0.541-0.103-1.086-0.103-1.639c0-0.551,0.038-1.096,0.114-1.633c0.075-0.537,0.183-1.07,0.322-1.604
		c0.139-0.527,0.309-1.051,0.509-1.563c0.2-0.512,0.425-1.021,0.674-1.523c0.005-0.02,0.019-0.037,0.04-0.051
		c0.022-0.016,0.053-0.029,0.092-0.045c0.039-0.014,0.093-0.025,0.161-0.031c0.068-0.008,0.156-0.012,0.264-0.012
		c0.112,0,0.203,0.008,0.271,0.021s0.122,0.033,0.161,0.059s0.061,0.057,0.066,0.096S16.076,95.698,16.057,95.74z"/>
	<path d="M22.839,104.647c0,0.084-0.002,0.156-0.007,0.217c-0.005,0.063-0.014,0.111-0.026,0.154
		c-0.012,0.041-0.027,0.078-0.044,0.107c-0.017,0.033-0.056,0.078-0.117,0.141c-0.061,0.061-0.165,0.137-0.311,0.227
		c-0.146,0.092-0.311,0.172-0.495,0.242c-0.183,0.07-0.382,0.129-0.597,0.172c-0.215,0.045-0.437,0.066-0.667,0.066
		c-0.474,0-0.894-0.078-1.26-0.234c-0.366-0.156-0.673-0.385-0.919-0.686c-0.247-0.301-0.435-0.668-0.563-1.105
		c-0.13-0.438-0.194-0.939-0.194-1.512c0-0.65,0.079-1.207,0.238-1.674c0.158-0.467,0.375-0.85,0.651-1.146
		c0.276-0.297,0.601-0.52,0.975-0.662c0.373-0.146,0.777-0.217,1.212-0.217c0.21,0,0.414,0.021,0.611,0.059
		c0.198,0.039,0.38,0.092,0.546,0.154s0.313,0.137,0.443,0.219c0.129,0.084,0.223,0.154,0.282,0.213s0.099,0.105,0.121,0.141
		c0.022,0.033,0.041,0.074,0.055,0.121c0.015,0.045,0.024,0.098,0.029,0.156c0.005,0.059,0.007,0.133,0.007,0.221
		c0,0.189-0.022,0.322-0.066,0.398c-0.044,0.074-0.098,0.113-0.161,0.113c-0.073,0-0.158-0.041-0.252-0.121
		c-0.096-0.08-0.216-0.17-0.363-0.27c-0.146-0.096-0.324-0.188-0.531-0.268c-0.208-0.08-0.453-0.119-0.736-0.119
		c-0.581,0-1.027,0.223-1.337,0.67c-0.31,0.445-0.465,1.094-0.465,1.941c0,0.428,0.04,0.799,0.121,1.117
		c0.08,0.32,0.199,0.588,0.355,0.803c0.156,0.217,0.348,0.375,0.575,0.48c0.228,0.104,0.487,0.156,0.78,0.156
		c0.278,0,0.522-0.043,0.732-0.133c0.21-0.088,0.392-0.186,0.546-0.289c0.153-0.104,0.283-0.199,0.388-0.285
		c0.105-0.084,0.187-0.127,0.246-0.127c0.034,0,0.063,0.01,0.088,0.027c0.025,0.02,0.045,0.055,0.062,0.1
		c0.017,0.047,0.029,0.105,0.037,0.176C22.835,104.467,22.839,104.551,22.839,104.647z"/>
	<path d="M28.581,103.856c0,0.338-0.063,0.639-0.187,0.902c-0.125,0.264-0.302,0.484-0.531,0.666
		c-0.229,0.18-0.503,0.316-0.82,0.408c-0.317,0.094-0.667,0.141-1.047,0.141c-0.234,0-0.458-0.02-0.67-0.057
		c-0.212-0.035-0.402-0.082-0.571-0.139c-0.168-0.057-0.311-0.115-0.428-0.176c-0.117-0.064-0.203-0.115-0.256-0.166
		c-0.053-0.049-0.093-0.115-0.117-0.205c-0.024-0.088-0.037-0.207-0.037-0.357c0-0.092,0.005-0.17,0.015-0.232
		c0.01-0.064,0.022-0.115,0.037-0.154c0.015-0.039,0.035-0.068,0.063-0.084c0.026-0.018,0.057-0.025,0.091-0.025
		c0.054,0,0.133,0.031,0.238,0.1c0.105,0.064,0.234,0.139,0.389,0.217c0.153,0.078,0.335,0.15,0.545,0.217
		c0.21,0.064,0.452,0.1,0.725,0.1c0.205,0,0.391-0.021,0.557-0.066c0.166-0.043,0.31-0.107,0.432-0.193
		c0.122-0.086,0.216-0.191,0.282-0.324s0.099-0.287,0.099-0.471c0-0.186-0.047-0.342-0.143-0.469
		c-0.095-0.127-0.221-0.238-0.377-0.336c-0.156-0.098-0.332-0.186-0.527-0.262c-0.195-0.074-0.397-0.154-0.604-0.236
		c-0.207-0.084-0.41-0.178-0.607-0.283c-0.198-0.104-0.375-0.23-0.531-0.385c-0.156-0.152-0.282-0.332-0.377-0.541
		c-0.096-0.211-0.143-0.461-0.143-0.754c0-0.26,0.05-0.508,0.15-0.744s0.25-0.445,0.451-0.623c0.2-0.178,0.451-0.32,0.75-0.428
		c0.301-0.107,0.651-0.162,1.051-0.162c0.176,0,0.352,0.016,0.527,0.045c0.175,0.029,0.334,0.066,0.476,0.109
		c0.142,0.045,0.262,0.092,0.362,0.143s0.176,0.098,0.228,0.137c0.051,0.039,0.085,0.072,0.103,0.104
		c0.017,0.029,0.029,0.063,0.036,0.1c0.008,0.037,0.015,0.082,0.022,0.135c0.007,0.057,0.011,0.121,0.011,0.199
		c0,0.082-0.004,0.154-0.011,0.215c-0.008,0.063-0.02,0.111-0.037,0.15c-0.017,0.039-0.038,0.066-0.062,0.084
		s-0.051,0.025-0.081,0.025c-0.044,0-0.107-0.027-0.19-0.08c-0.083-0.057-0.19-0.111-0.322-0.172
		c-0.132-0.064-0.287-0.119-0.465-0.174c-0.179-0.055-0.382-0.08-0.612-0.08c-0.205,0-0.386,0.021-0.542,0.068
		c-0.156,0.047-0.285,0.111-0.384,0.197c-0.101,0.086-0.176,0.188-0.228,0.305c-0.051,0.117-0.077,0.244-0.077,0.381
		c0,0.189,0.049,0.352,0.146,0.48c0.098,0.129,0.225,0.242,0.381,0.34c0.156,0.1,0.334,0.188,0.535,0.266
		c0.201,0.078,0.404,0.158,0.611,0.242c0.207,0.082,0.413,0.176,0.615,0.275c0.203,0.104,0.382,0.229,0.539,0.375
		c0.157,0.145,0.282,0.322,0.377,0.525C28.533,103.328,28.581,103.573,28.581,103.856z"/>
	<path d="M35.488,99.045c0,0.02-0.001,0.039-0.003,0.063c-0.003,0.021-0.006,0.045-0.011,0.068
		c-0.005,0.025-0.011,0.053-0.018,0.082c-0.008,0.027-0.016,0.061-0.026,0.094l-2.249,6.264c-0.02,0.053-0.045,0.1-0.077,0.131
		c-0.032,0.035-0.079,0.064-0.143,0.08c-0.063,0.021-0.144,0.033-0.242,0.041c-0.098,0.008-0.22,0.014-0.366,0.014
		s-0.269-0.008-0.366-0.018c-0.097-0.01-0.177-0.021-0.238-0.043c-0.062-0.02-0.109-0.047-0.143-0.082
		c-0.034-0.033-0.061-0.074-0.081-0.123l-2.241-6.264c-0.02-0.059-0.036-0.109-0.048-0.152c-0.012-0.045-0.02-0.078-0.021-0.1
		c-0.003-0.021-0.004-0.041-0.004-0.055c0-0.039,0.01-0.074,0.029-0.104c0.019-0.031,0.052-0.053,0.099-0.07
		c0.046-0.016,0.107-0.025,0.184-0.029c0.075-0.008,0.169-0.01,0.282-0.01c0.142,0,0.255,0.004,0.34,0.012s0.151,0.021,0.198,0.041
		c0.046,0.02,0.08,0.045,0.103,0.072c0.021,0.029,0.042,0.064,0.062,0.109l1.86,5.434l0.029,0.09l0.022-0.09l1.838-5.434
		c0.01-0.045,0.027-0.08,0.051-0.109c0.024-0.027,0.06-0.055,0.106-0.072c0.046-0.02,0.109-0.033,0.19-0.041
		c0.08-0.008,0.187-0.012,0.318-0.012c0.112,0,0.205,0.002,0.278,0.01c0.073,0.004,0.13,0.016,0.172,0.033
		c0.042,0.021,0.071,0.043,0.088,0.07C35.479,98.973,35.488,99.006,35.488,99.045z"/>
	<path d="M37.29,104.787c0,0.15-0.007,0.289-0.022,0.416s-0.039,0.248-0.073,0.357c-0.034,0.113-0.08,0.225-0.136,0.334
		s-0.125,0.227-0.208,0.35l-1.003,1.508c-0.024,0.035-0.053,0.063-0.084,0.09c-0.032,0.023-0.071,0.045-0.117,0.064
		c-0.047,0.02-0.101,0.031-0.161,0.041c-0.062,0.006-0.138,0.01-0.231,0.01c-0.083,0-0.153-0.004-0.208-0.01
		c-0.057-0.01-0.097-0.021-0.121-0.037c-0.024-0.018-0.038-0.041-0.04-0.068c-0.003-0.029,0.006-0.064,0.025-0.104l0.974-2.016
		v-0.938c0-0.133,0.013-0.236,0.041-0.314c0.026-0.078,0.069-0.137,0.128-0.176c0.059-0.039,0.132-0.064,0.22-0.08
		s0.195-0.021,0.322-0.021c0.122,0,0.227,0.008,0.315,0.021c0.088,0.016,0.16,0.041,0.216,0.08s0.097,0.098,0.124,0.176
		S37.29,104.655,37.29,104.787z"/>
	<path d="M46.254,105.168c0,0.143-0.01,0.254-0.029,0.336c-0.02,0.084-0.049,0.145-0.088,0.184
		c-0.039,0.039-0.098,0.076-0.176,0.109c-0.078,0.035-0.167,0.063-0.267,0.086c-0.101,0.02-0.207,0.039-0.319,0.055
		c-0.112,0.014-0.225,0.021-0.337,0.021c-0.342,0-0.635-0.047-0.879-0.137c-0.244-0.092-0.444-0.229-0.601-0.41
		c-0.156-0.184-0.27-0.414-0.34-0.695c-0.071-0.279-0.106-0.611-0.106-0.992v-3.854h-0.923c-0.073,0-0.132-0.039-0.176-0.115
		c-0.044-0.078-0.066-0.205-0.066-0.383c0-0.092,0.006-0.17,0.018-0.232c0.012-0.064,0.028-0.117,0.048-0.158
		s0.045-0.07,0.077-0.088c0.031-0.018,0.067-0.025,0.106-0.025h0.916v-1.566c0-0.033,0.008-0.064,0.025-0.096
		c0.017-0.029,0.049-0.055,0.096-0.076c0.046-0.021,0.108-0.037,0.187-0.049c0.079-0.01,0.176-0.016,0.293-0.016
		c0.122,0,0.222,0.006,0.3,0.016c0.078,0.012,0.139,0.025,0.183,0.049c0.044,0.021,0.076,0.049,0.095,0.076
		c0.019,0.029,0.029,0.063,0.029,0.096v1.566h1.692c0.039,0,0.073,0.008,0.103,0.025c0.029,0.018,0.055,0.047,0.077,0.088
		c0.021,0.041,0.038,0.094,0.047,0.158c0.009,0.063,0.015,0.141,0.015,0.232c0,0.178-0.022,0.305-0.066,0.383
		c-0.044,0.076-0.103,0.115-0.176,0.115H44.32v3.678c0,0.453,0.067,0.797,0.202,1.029c0.134,0.23,0.375,0.348,0.721,0.348
		c0.112,0,0.212-0.012,0.3-0.033s0.166-0.045,0.234-0.068c0.068-0.023,0.127-0.049,0.176-0.068c0.049-0.021,0.093-0.033,0.132-0.033
		c0.024,0,0.048,0.006,0.069,0.02c0.022,0.012,0.039,0.035,0.052,0.068c0.012,0.035,0.023,0.08,0.033,0.141
		C46.249,105.008,46.254,105.08,46.254,105.168z"/>
	<path d="M52.846,105.512c0.039,0.068,0.059,0.127,0.059,0.172c0,0.047-0.023,0.084-0.07,0.113s-0.117,0.051-0.212,0.063
		c-0.096,0.014-0.219,0.021-0.37,0.021c-0.146,0-0.263-0.006-0.348-0.014c-0.086-0.008-0.154-0.02-0.205-0.037
		c-0.052-0.016-0.091-0.039-0.117-0.063c-0.027-0.027-0.05-0.061-0.07-0.092l-1.582-2.615l-1.575,2.615
		c-0.02,0.031-0.043,0.063-0.069,0.092c-0.027,0.023-0.066,0.049-0.117,0.063c-0.052,0.02-0.119,0.029-0.202,0.037
		s-0.193,0.014-0.33,0.014c-0.142,0-0.258-0.008-0.348-0.021c-0.091-0.012-0.157-0.033-0.198-0.063s-0.061-0.066-0.059-0.113
		c0.002-0.045,0.026-0.104,0.07-0.172l2.051-3.215l-1.941-3.1c-0.039-0.066-0.06-0.125-0.063-0.172
		c-0.002-0.047,0.02-0.086,0.066-0.117c0.046-0.031,0.117-0.053,0.212-0.063c0.096-0.012,0.221-0.018,0.377-0.018
		c0.142,0,0.255,0.004,0.34,0.014c0.085,0.008,0.153,0.02,0.202,0.031c0.049,0.016,0.085,0.033,0.11,0.061
		c0.025,0.025,0.046,0.055,0.066,0.088l1.501,2.453l1.523-2.453c0.02-0.029,0.042-0.057,0.066-0.082
		c0.024-0.021,0.057-0.045,0.099-0.063c0.041-0.018,0.1-0.027,0.176-0.035c0.075-0.01,0.179-0.014,0.311-0.014
		c0.142,0,0.257,0.006,0.348,0.018c0.09,0.01,0.157,0.025,0.201,0.055c0.044,0.027,0.063,0.064,0.059,0.113
		c-0.004,0.049-0.029,0.107-0.073,0.184l-1.926,3.063L52.846,105.512z"/>
	<path d="M57.819,105.168c0,0.143-0.01,0.254-0.029,0.336c-0.02,0.084-0.049,0.145-0.088,0.184s-0.098,0.076-0.176,0.109
		c-0.078,0.035-0.167,0.063-0.267,0.086c-0.101,0.02-0.207,0.039-0.319,0.055c-0.112,0.014-0.225,0.021-0.337,0.021
		c-0.342,0-0.635-0.047-0.879-0.137c-0.244-0.092-0.444-0.229-0.601-0.41c-0.156-0.184-0.27-0.414-0.34-0.695
		c-0.071-0.279-0.106-0.611-0.106-0.992v-3.854h-0.923c-0.073,0-0.132-0.039-0.176-0.115c-0.044-0.078-0.066-0.205-0.066-0.383
		c0-0.092,0.006-0.17,0.018-0.232c0.012-0.064,0.028-0.117,0.048-0.158s0.045-0.07,0.077-0.088c0.031-0.018,0.067-0.025,0.106-0.025
		h0.916v-1.566c0-0.033,0.008-0.064,0.025-0.096c0.017-0.029,0.049-0.055,0.096-0.076c0.046-0.021,0.108-0.037,0.187-0.049
		c0.079-0.01,0.176-0.016,0.293-0.016c0.122,0,0.222,0.006,0.3,0.016c0.078,0.012,0.139,0.025,0.183,0.049
		c0.044,0.021,0.076,0.049,0.095,0.076c0.019,0.029,0.029,0.063,0.029,0.096v1.566h1.692c0.039,0,0.073,0.008,0.103,0.025
		c0.029,0.018,0.055,0.047,0.077,0.088c0.021,0.041,0.038,0.094,0.047,0.158c0.009,0.063,0.015,0.141,0.015,0.232
		c0,0.178-0.022,0.305-0.066,0.383c-0.044,0.076-0.103,0.115-0.176,0.115h-1.692v3.678c0,0.453,0.067,0.797,0.202,1.029
		c0.134,0.23,0.375,0.348,0.721,0.348c0.112,0,0.212-0.012,0.3-0.033s0.166-0.045,0.234-0.068c0.068-0.023,0.127-0.049,0.176-0.068
		c0.049-0.021,0.093-0.033,0.132-0.033c0.024,0,0.048,0.006,0.069,0.02c0.022,0.012,0.039,0.035,0.052,0.068
		c0.012,0.035,0.023,0.08,0.033,0.141C57.814,105.008,57.819,105.08,57.819,105.168z"/>
	<path d="M61.013,104.787c0,0.15-0.007,0.289-0.022,0.416c-0.015,0.127-0.039,0.248-0.073,0.357
		c-0.034,0.113-0.08,0.225-0.136,0.334c-0.056,0.109-0.125,0.227-0.208,0.35l-1.003,1.508c-0.024,0.035-0.053,0.063-0.084,0.09
		c-0.032,0.023-0.071,0.045-0.117,0.064c-0.047,0.02-0.101,0.031-0.161,0.041c-0.062,0.006-0.138,0.01-0.231,0.01
		c-0.083,0-0.153-0.004-0.208-0.01c-0.057-0.01-0.097-0.021-0.121-0.037c-0.024-0.018-0.038-0.041-0.04-0.068
		c-0.003-0.029,0.006-0.064,0.025-0.104l0.974-2.016v-0.938c0-0.133,0.013-0.236,0.041-0.314c0.026-0.078,0.069-0.137,0.128-0.176
		s0.132-0.064,0.22-0.08s0.195-0.021,0.322-0.021c0.122,0,0.227,0.008,0.315,0.021c0.088,0.016,0.16,0.041,0.216,0.08
		s0.097,0.098,0.124,0.176S61.013,104.655,61.013,104.787z"/>
	<path d="M69.978,105.168c0,0.143-0.01,0.254-0.029,0.336c-0.02,0.084-0.049,0.145-0.088,0.184s-0.098,0.076-0.176,0.109
		c-0.078,0.035-0.167,0.063-0.267,0.086c-0.101,0.02-0.207,0.039-0.319,0.055c-0.112,0.014-0.225,0.021-0.337,0.021
		c-0.342,0-0.635-0.047-0.879-0.137c-0.244-0.092-0.444-0.229-0.601-0.41c-0.156-0.184-0.27-0.414-0.34-0.695
		c-0.071-0.279-0.106-0.611-0.106-0.992v-3.854h-0.923c-0.073,0-0.132-0.039-0.176-0.115c-0.044-0.078-0.066-0.205-0.066-0.383
		c0-0.092,0.006-0.17,0.018-0.232c0.012-0.064,0.028-0.117,0.048-0.158s0.045-0.07,0.077-0.088c0.031-0.018,0.067-0.025,0.106-0.025
		h0.916v-1.566c0-0.033,0.008-0.064,0.025-0.096c0.017-0.029,0.049-0.055,0.096-0.076c0.046-0.021,0.108-0.037,0.187-0.049
		c0.079-0.01,0.176-0.016,0.293-0.016c0.122,0,0.222,0.006,0.3,0.016c0.078,0.012,0.139,0.025,0.183,0.049s0.076,0.049,0.095,0.076
		c0.019,0.029,0.029,0.063,0.029,0.096v1.566h1.692c0.039,0,0.073,0.008,0.103,0.025c0.029,0.018,0.055,0.047,0.077,0.088
		c0.021,0.041,0.038,0.094,0.047,0.158c0.009,0.063,0.015,0.141,0.015,0.232c0,0.178-0.022,0.305-0.066,0.383
		c-0.044,0.076-0.103,0.115-0.176,0.115h-1.692v3.678c0,0.453,0.067,0.797,0.202,1.029c0.134,0.23,0.375,0.348,0.721,0.348
		c0.112,0,0.212-0.012,0.3-0.033s0.166-0.045,0.234-0.068s0.127-0.049,0.176-0.068c0.049-0.021,0.093-0.033,0.132-0.033
		c0.024,0,0.048,0.006,0.069,0.02c0.022,0.012,0.039,0.035,0.052,0.068c0.012,0.035,0.023,0.08,0.033,0.141
		C69.973,105.008,69.978,105.08,69.978,105.168z"/>
	<path d="M75.712,103.856c0,0.338-0.063,0.639-0.187,0.902c-0.125,0.264-0.302,0.484-0.531,0.666
		c-0.229,0.18-0.503,0.316-0.82,0.408c-0.317,0.094-0.667,0.141-1.047,0.141c-0.234,0-0.458-0.02-0.67-0.057
		c-0.212-0.035-0.402-0.082-0.571-0.139c-0.168-0.057-0.311-0.115-0.428-0.176c-0.117-0.064-0.203-0.115-0.256-0.166
		c-0.053-0.049-0.093-0.115-0.117-0.205c-0.024-0.088-0.037-0.207-0.037-0.357c0-0.092,0.005-0.17,0.015-0.232
		c0.01-0.064,0.022-0.115,0.037-0.154s0.035-0.068,0.063-0.084c0.026-0.018,0.057-0.025,0.091-0.025c0.054,0,0.133,0.031,0.238,0.1
		c0.105,0.064,0.234,0.139,0.389,0.217c0.153,0.078,0.335,0.15,0.545,0.217c0.21,0.064,0.452,0.1,0.725,0.1
		c0.205,0,0.391-0.021,0.557-0.066c0.166-0.043,0.31-0.107,0.432-0.193s0.216-0.191,0.282-0.324
		c0.066-0.133,0.099-0.287,0.099-0.471c0-0.186-0.047-0.342-0.143-0.469c-0.095-0.127-0.221-0.238-0.377-0.336
		c-0.156-0.098-0.332-0.186-0.527-0.262c-0.195-0.074-0.397-0.154-0.604-0.236c-0.207-0.084-0.41-0.178-0.607-0.283
		c-0.198-0.104-0.375-0.23-0.531-0.385c-0.156-0.152-0.282-0.332-0.377-0.541c-0.096-0.211-0.143-0.461-0.143-0.754
		c0-0.26,0.05-0.508,0.15-0.744c0.1-0.236,0.25-0.445,0.451-0.623c0.2-0.178,0.451-0.32,0.75-0.428
		c0.301-0.107,0.651-0.162,1.051-0.162c0.176,0,0.352,0.016,0.527,0.045c0.175,0.029,0.334,0.066,0.476,0.109
		c0.142,0.045,0.262,0.092,0.362,0.143s0.176,0.098,0.228,0.137c0.051,0.039,0.085,0.072,0.103,0.104
		c0.017,0.029,0.029,0.063,0.036,0.1c0.008,0.037,0.015,0.082,0.022,0.135c0.007,0.057,0.011,0.121,0.011,0.199
		c0,0.082-0.004,0.154-0.011,0.215c-0.008,0.063-0.02,0.111-0.037,0.15s-0.038,0.066-0.062,0.084s-0.051,0.025-0.081,0.025
		c-0.044,0-0.107-0.027-0.19-0.08c-0.083-0.057-0.19-0.111-0.322-0.172c-0.132-0.064-0.287-0.119-0.465-0.174
		c-0.179-0.055-0.382-0.08-0.612-0.08c-0.205,0-0.386,0.021-0.542,0.068c-0.156,0.047-0.285,0.111-0.384,0.197
		c-0.101,0.086-0.176,0.188-0.228,0.305c-0.051,0.117-0.077,0.244-0.077,0.381c0,0.189,0.049,0.352,0.146,0.48
		c0.098,0.129,0.225,0.242,0.381,0.34c0.156,0.1,0.334,0.188,0.535,0.266c0.201,0.078,0.404,0.158,0.611,0.242
		c0.207,0.082,0.413,0.176,0.615,0.275c0.203,0.104,0.382,0.229,0.539,0.375c0.157,0.145,0.282,0.322,0.377,0.525
		C75.665,103.328,75.712,103.573,75.712,103.856z"/>
	<path d="M82.619,99.045c0,0.02-0.001,0.039-0.003,0.063c-0.003,0.021-0.006,0.045-0.011,0.068
		c-0.005,0.025-0.011,0.053-0.018,0.082c-0.008,0.027-0.016,0.061-0.026,0.094l-2.249,6.264c-0.02,0.053-0.045,0.1-0.077,0.131
		c-0.032,0.035-0.079,0.064-0.143,0.08c-0.063,0.021-0.144,0.033-0.242,0.041s-0.22,0.014-0.366,0.014s-0.269-0.008-0.366-0.018
		c-0.097-0.01-0.177-0.021-0.238-0.043c-0.062-0.02-0.109-0.047-0.143-0.082c-0.034-0.033-0.061-0.074-0.081-0.123l-2.241-6.264
		c-0.02-0.059-0.036-0.109-0.048-0.152c-0.012-0.045-0.02-0.078-0.021-0.1c-0.003-0.021-0.004-0.041-0.004-0.055
		c0-0.039,0.01-0.074,0.029-0.104c0.019-0.031,0.052-0.053,0.099-0.07c0.046-0.016,0.107-0.025,0.184-0.029
		c0.075-0.008,0.169-0.01,0.282-0.01c0.142,0,0.255,0.004,0.34,0.012s0.151,0.021,0.198,0.041c0.046,0.02,0.08,0.045,0.103,0.072
		c0.021,0.029,0.042,0.064,0.062,0.109l1.86,5.434l0.029,0.09l0.022-0.09l1.838-5.434c0.01-0.045,0.027-0.08,0.051-0.109
		c0.024-0.027,0.06-0.055,0.106-0.072c0.046-0.02,0.109-0.033,0.19-0.041c0.08-0.008,0.187-0.012,0.318-0.012
		c0.112,0,0.205,0.002,0.278,0.01c0.073,0.004,0.13,0.016,0.172,0.033c0.042,0.021,0.071,0.043,0.088,0.07
		C82.61,98.973,82.619,99.006,82.619,99.045z"/>
	<path d="M84.42,104.787c0,0.15-0.006,0.289-0.021,0.416c-0.015,0.127-0.039,0.248-0.073,0.357c-0.034,0.113-0.08,0.225-0.136,0.334
		s-0.125,0.227-0.208,0.35l-1.003,1.508c-0.024,0.035-0.053,0.063-0.084,0.09c-0.032,0.023-0.071,0.045-0.117,0.064
		c-0.047,0.02-0.101,0.031-0.161,0.041c-0.062,0.006-0.138,0.01-0.231,0.01c-0.083,0-0.153-0.004-0.208-0.01
		c-0.057-0.01-0.097-0.021-0.121-0.037c-0.024-0.018-0.038-0.041-0.04-0.068c-0.003-0.029,0.006-0.064,0.025-0.104l0.974-2.016
		v-0.938c0-0.133,0.013-0.236,0.041-0.314c0.026-0.078,0.069-0.137,0.128-0.176s0.132-0.064,0.22-0.08
		c0.088-0.016,0.195-0.021,0.322-0.021c0.122,0,0.227,0.008,0.315,0.021c0.088,0.016,0.16,0.041,0.216,0.08
		c0.056,0.039,0.097,0.098,0.124,0.176C84.409,104.549,84.42,104.655,84.42,104.787z"/>
	<path d="M94.954,105.512c0.039,0.068,0.06,0.127,0.06,0.172c0,0.047-0.022,0.084-0.07,0.113c-0.047,0.029-0.116,0.051-0.212,0.063
		c-0.096,0.014-0.219,0.021-0.37,0.021c-0.146,0-0.263-0.006-0.348-0.014c-0.087-0.008-0.154-0.02-0.205-0.037
		c-0.052-0.016-0.091-0.039-0.117-0.063c-0.026-0.027-0.051-0.061-0.069-0.092l-1.582-2.615l-1.574,2.615
		c-0.021,0.031-0.043,0.063-0.069,0.092c-0.026,0.023-0.065,0.049-0.117,0.063c-0.052,0.02-0.118,0.029-0.202,0.037
		c-0.082,0.008-0.191,0.014-0.328,0.014c-0.143,0-0.258-0.008-0.349-0.021c-0.091-0.012-0.157-0.033-0.198-0.063
		s-0.061-0.066-0.059-0.113c0.002-0.045,0.025-0.104,0.07-0.172l2.051-3.215l-1.941-3.1c-0.039-0.066-0.06-0.125-0.063-0.172
		c-0.002-0.047,0.02-0.086,0.066-0.117c0.045-0.031,0.116-0.053,0.211-0.063c0.096-0.012,0.221-0.018,0.379-0.018
		c0.141,0,0.254,0.004,0.34,0.014c0.086,0.008,0.152,0.02,0.201,0.031c0.049,0.014,0.086,0.033,0.109,0.061
		c0.023,0.025,0.046,0.055,0.064,0.088l1.502,2.453l1.523-2.453c0.02-0.029,0.041-0.057,0.066-0.082
		c0.023-0.021,0.057-0.045,0.099-0.063c0.041-0.018,0.101-0.027,0.177-0.035c0.074-0.01,0.178-0.014,0.312-0.014
		c0.142,0,0.257,0.006,0.349,0.018c0.09,0.01,0.156,0.025,0.2,0.055c0.044,0.027,0.063,0.064,0.06,0.113s-0.029,0.107-0.073,0.184
		l-1.927,3.063L94.954,105.512z"/>
	<path d="M97.663,105.651c0,0.039-0.01,0.072-0.029,0.1c-0.02,0.025-0.051,0.051-0.094,0.068c-0.045,0.021-0.104,0.035-0.184,0.045
		s-0.18,0.014-0.301,0.014c-0.117,0-0.215-0.004-0.293-0.014s-0.141-0.023-0.188-0.045c-0.047-0.02-0.078-0.043-0.095-0.068
		c-0.019-0.025-0.026-0.061-0.026-0.1v-9.785c0-0.039,0.01-0.072,0.026-0.102s0.048-0.055,0.095-0.074s0.108-0.033,0.188-0.043
		c0.078-0.01,0.176-0.016,0.293-0.016c0.121,0,0.223,0.006,0.301,0.016s0.139,0.023,0.184,0.043c0.043,0.02,0.074,0.045,0.094,0.074
		c0.021,0.027,0.029,0.063,0.029,0.102V105.651z"/>
	<path d="M104.036,103.856c0,0.338-0.063,0.639-0.188,0.902c-0.125,0.262-0.301,0.484-0.531,0.666
		c-0.229,0.18-0.502,0.316-0.818,0.408c-0.315,0.094-0.666,0.141-1.047,0.141c-0.234,0-0.457-0.02-0.672-0.057
		c-0.213-0.035-0.4-0.082-0.57-0.139c-0.168-0.057-0.313-0.115-0.43-0.176c-0.115-0.064-0.201-0.115-0.256-0.166
		c-0.055-0.049-0.094-0.115-0.115-0.205c-0.025-0.088-0.037-0.207-0.037-0.357c0-0.092,0.004-0.17,0.015-0.232
		c0.01-0.064,0.022-0.115,0.036-0.154c0.017-0.039,0.035-0.068,0.063-0.084c0.026-0.018,0.059-0.025,0.092-0.025
		c0.055,0,0.133,0.031,0.238,0.1c0.104,0.064,0.232,0.139,0.389,0.217c0.152,0.078,0.336,0.15,0.545,0.217
		c0.211,0.064,0.451,0.1,0.726,0.1c0.205,0,0.392-0.021,0.558-0.066c0.166-0.043,0.311-0.107,0.434-0.193
		c0.121-0.086,0.217-0.191,0.281-0.324c0.065-0.133,0.1-0.287,0.1-0.471c0-0.186-0.049-0.342-0.145-0.469
		c-0.095-0.127-0.222-0.238-0.377-0.336c-0.156-0.098-0.332-0.186-0.527-0.262c-0.193-0.074-0.396-0.154-0.604-0.236
		c-0.207-0.084-0.408-0.178-0.605-0.283c-0.198-0.104-0.375-0.23-0.53-0.385c-0.156-0.152-0.283-0.332-0.377-0.541
		c-0.097-0.211-0.146-0.461-0.146-0.754c0-0.26,0.051-0.508,0.148-0.744c0.102-0.236,0.252-0.445,0.451-0.623s0.451-0.32,0.75-0.428
		c0.301-0.107,0.65-0.162,1.053-0.162c0.176,0,0.352,0.016,0.525,0.045c0.176,0.029,0.336,0.066,0.477,0.109
		c0.145,0.045,0.264,0.092,0.363,0.143s0.176,0.098,0.227,0.137c0.053,0.039,0.088,0.072,0.104,0.104
		c0.018,0.029,0.029,0.063,0.035,0.1c0.009,0.037,0.018,0.082,0.022,0.135c0.007,0.057,0.011,0.121,0.011,0.199
		c0,0.082-0.004,0.154-0.011,0.215c-0.008,0.063-0.021,0.111-0.037,0.15c-0.018,0.039-0.036,0.066-0.063,0.084
		c-0.022,0.018-0.051,0.025-0.079,0.025c-0.046,0-0.107-0.027-0.191-0.08c-0.081-0.057-0.188-0.111-0.321-0.172
		c-0.131-0.064-0.287-0.119-0.465-0.174c-0.179-0.055-0.382-0.08-0.611-0.08c-0.204,0-0.385,0.021-0.541,0.068
		s-0.283,0.111-0.385,0.197c-0.103,0.086-0.177,0.188-0.229,0.305c-0.051,0.117-0.076,0.244-0.076,0.381
		c0,0.189,0.051,0.352,0.146,0.48c0.098,0.129,0.225,0.242,0.381,0.34c0.156,0.1,0.334,0.188,0.535,0.266
		c0.199,0.078,0.402,0.158,0.611,0.242c0.207,0.082,0.411,0.176,0.614,0.275c0.201,0.104,0.381,0.229,0.537,0.375
		c0.155,0.145,0.282,0.322,0.379,0.525C103.986,103.328,104.036,103.573,104.036,103.856z"/>
	<path d="M110.598,105.512c0.039,0.068,0.061,0.127,0.061,0.172c0,0.047-0.023,0.084-0.07,0.113s-0.116,0.051-0.213,0.063
		c-0.096,0.014-0.219,0.021-0.369,0.021c-0.146,0-0.264-0.006-0.348-0.014c-0.088-0.008-0.154-0.02-0.205-0.037
		c-0.053-0.016-0.092-0.039-0.117-0.063c-0.026-0.027-0.051-0.061-0.069-0.092l-1.582-2.615l-1.574,2.615
		c-0.021,0.031-0.043,0.063-0.069,0.092c-0.025,0.023-0.064,0.049-0.117,0.063c-0.051,0.02-0.117,0.029-0.201,0.037
		c-0.082,0.008-0.191,0.014-0.328,0.014c-0.143,0-0.26-0.008-0.35-0.021c-0.09-0.012-0.156-0.033-0.197-0.063
		s-0.061-0.066-0.059-0.113c0.002-0.045,0.024-0.104,0.069-0.172l2.052-3.215l-1.941-3.1c-0.039-0.066-0.061-0.125-0.063-0.172
		c-0.002-0.047,0.021-0.086,0.066-0.117c0.045-0.031,0.116-0.053,0.211-0.063c0.096-0.012,0.223-0.018,0.379-0.018
		c0.142,0,0.254,0.004,0.34,0.014c0.086,0.008,0.151,0.02,0.201,0.031c0.049,0.016,0.086,0.033,0.108,0.061
		c0.023,0.025,0.047,0.055,0.064,0.088l1.502,2.453l1.523-2.453c0.02-0.029,0.041-0.057,0.066-0.082
		c0.022-0.021,0.057-0.045,0.098-0.063s0.102-0.027,0.178-0.035c0.074-0.01,0.178-0.014,0.313-0.014
		c0.142,0,0.256,0.006,0.348,0.018c0.091,0.01,0.156,0.025,0.201,0.055c0.043,0.027,0.063,0.064,0.06,0.113
		s-0.028,0.107-0.074,0.184l-1.926,3.063L110.598,105.512z"/>
	<path d="M113.695,104.787c0,0.15-0.008,0.289-0.021,0.416c-0.016,0.127-0.038,0.248-0.073,0.357
		c-0.033,0.113-0.08,0.225-0.136,0.334c-0.057,0.109-0.127,0.227-0.209,0.35l-1.004,1.508c-0.022,0.035-0.053,0.063-0.084,0.09
		c-0.03,0.023-0.069,0.045-0.116,0.064c-0.048,0.02-0.101,0.031-0.16,0.041c-0.063,0.006-0.14,0.01-0.231,0.01
		c-0.082,0-0.152-0.004-0.207-0.01c-0.058-0.01-0.099-0.021-0.121-0.037c-0.025-0.018-0.039-0.041-0.041-0.068
		c-0.002-0.029,0.006-0.064,0.024-0.104l0.976-2.016v-0.938c0-0.133,0.014-0.236,0.041-0.314c0.024-0.078,0.067-0.137,0.127-0.176
		c0.059-0.039,0.133-0.064,0.221-0.08s0.195-0.021,0.322-0.021c0.121,0,0.227,0.008,0.313,0.021c0.088,0.016,0.16,0.041,0.218,0.08
		c0.055,0.039,0.096,0.098,0.123,0.176C113.682,104.551,113.695,104.655,113.695,104.787z"/>
</g>
<g enable-background="new    ">
	<path d="M19.631,114.899c0,0.092-0.005,0.174-0.015,0.242c-0.01,0.066-0.026,0.123-0.047,0.164
		c-0.022,0.041-0.049,0.07-0.081,0.092c-0.032,0.02-0.067,0.029-0.106,0.029h-2.666v8.217c0,0.039-0.01,0.074-0.029,0.104
		s-0.054,0.055-0.103,0.068c-0.049,0.018-0.114,0.033-0.194,0.045c-0.081,0.012-0.182,0.018-0.304,0.018
		c-0.117,0-0.217-0.006-0.3-0.018s-0.149-0.027-0.198-0.045c-0.049-0.016-0.083-0.039-0.103-0.068
		c-0.02-0.027-0.029-0.063-0.029-0.104v-8.217H12.79c-0.039,0-0.075-0.012-0.106-0.029c-0.032-0.021-0.058-0.051-0.077-0.092
		c-0.02-0.041-0.036-0.098-0.048-0.164c-0.012-0.068-0.018-0.15-0.018-0.242c0-0.094,0.006-0.176,0.018-0.246
		c0.012-0.07,0.028-0.127,0.048-0.172c0.02-0.043,0.045-0.076,0.077-0.096c0.031-0.02,0.067-0.029,0.106-0.029h6.592
		c0.039,0,0.074,0.01,0.106,0.029c0.032,0.02,0.059,0.053,0.081,0.096c0.021,0.045,0.038,0.102,0.047,0.172
		C19.626,114.725,19.631,114.807,19.631,114.899z"/>
	<path d="M25.578,123.651c0,0.039-0.009,0.072-0.025,0.1c-0.018,0.025-0.048,0.051-0.092,0.068
		c-0.044,0.021-0.102,0.035-0.172,0.045c-0.071,0.01-0.158,0.014-0.26,0.014c-0.112,0-0.204-0.004-0.275-0.014
		c-0.071-0.01-0.127-0.023-0.168-0.045c-0.042-0.02-0.07-0.043-0.084-0.068c-0.015-0.025-0.022-0.061-0.022-0.1v-0.871
		c-0.376,0.414-0.747,0.717-1.113,0.908c-0.366,0.189-0.737,0.285-1.113,0.285c-0.439,0-0.81-0.072-1.109-0.221
		c-0.301-0.146-0.543-0.346-0.729-0.598c-0.186-0.25-0.319-0.543-0.399-0.879c-0.081-0.334-0.121-0.74-0.121-1.219v-4
		c0-0.039,0.008-0.07,0.025-0.102c0.017-0.023,0.05-0.051,0.099-0.07c0.049-0.021,0.112-0.037,0.19-0.045s0.176-0.012,0.293-0.012
		c0.117,0,0.215,0.004,0.293,0.012s0.14,0.021,0.187,0.045c0.046,0.02,0.079,0.047,0.099,0.07c0.02,0.027,0.029,0.063,0.029,0.102
		v3.838c0,0.387,0.028,0.695,0.084,0.928c0.056,0.23,0.142,0.43,0.257,0.594c0.114,0.162,0.26,0.289,0.436,0.381
		c0.176,0.09,0.381,0.137,0.615,0.137c0.303,0,0.604-0.107,0.904-0.322c0.301-0.215,0.619-0.531,0.956-0.945v-4.605
		c0-0.039,0.008-0.07,0.025-0.102c0.017-0.023,0.05-0.051,0.099-0.07c0.049-0.021,0.111-0.037,0.187-0.045
		c0.075-0.008,0.174-0.012,0.296-0.012c0.117,0,0.215,0.004,0.293,0.012c0.078,0.008,0.139,0.021,0.183,0.045
		c0.044,0.02,0.077,0.047,0.099,0.07c0.022,0.027,0.033,0.063,0.033,0.102V123.651L25.578,123.651z"/>
	<path d="M31.665,117.49c0,0.107-0.002,0.199-0.007,0.271c-0.005,0.074-0.015,0.131-0.029,0.174
		c-0.015,0.041-0.033,0.072-0.055,0.094c-0.022,0.023-0.053,0.033-0.092,0.033s-0.087-0.01-0.143-0.033
		c-0.057-0.02-0.12-0.043-0.19-0.063c-0.071-0.023-0.15-0.043-0.238-0.064c-0.088-0.02-0.183-0.029-0.286-0.029
		c-0.122,0-0.242,0.023-0.359,0.072c-0.117,0.049-0.241,0.131-0.37,0.242c-0.129,0.113-0.265,0.262-0.406,0.447
		c-0.141,0.184-0.298,0.412-0.469,0.68v4.336c0,0.041-0.01,0.072-0.029,0.1c-0.02,0.027-0.051,0.053-0.095,0.07
		c-0.044,0.02-0.105,0.033-0.183,0.043c-0.078,0.01-0.178,0.018-0.3,0.018c-0.117,0-0.215-0.008-0.293-0.018
		s-0.141-0.021-0.187-0.043c-0.046-0.02-0.078-0.043-0.095-0.07c-0.018-0.025-0.026-0.059-0.026-0.1v-6.592
		c0-0.037,0.007-0.07,0.022-0.1c0.015-0.025,0.044-0.051,0.088-0.072s0.1-0.035,0.168-0.043c0.068-0.008,0.159-0.012,0.271-0.012
		c0.107,0,0.196,0.004,0.268,0.012c0.07,0.008,0.125,0.021,0.165,0.043c0.039,0.021,0.067,0.047,0.084,0.072
		c0.017,0.027,0.025,0.063,0.025,0.1v0.961c0.181-0.264,0.35-0.48,0.509-0.646c0.159-0.166,0.309-0.297,0.451-0.393
		c0.142-0.096,0.282-0.16,0.421-0.197c0.139-0.035,0.279-0.055,0.421-0.055c0.063,0,0.136,0.004,0.216,0.012
		c0.081,0.008,0.165,0.021,0.253,0.041c0.088,0.02,0.167,0.041,0.238,0.064c0.07,0.021,0.121,0.049,0.15,0.07
		c0.029,0.025,0.049,0.051,0.059,0.07c0.01,0.021,0.018,0.051,0.026,0.084c0.007,0.035,0.012,0.084,0.015,0.15
		C31.663,117.289,31.665,117.379,31.665,117.49z"/>
	<path d="M39.106,120.268c0,0.57-0.062,1.084-0.187,1.541c-0.124,0.457-0.308,0.846-0.549,1.168c-0.242,0.322-0.539,0.568-0.89,0.74
		c-0.351,0.17-0.754,0.256-1.208,0.256c-0.21,0-0.404-0.021-0.582-0.063c-0.179-0.043-0.353-0.107-0.524-0.203
		c-0.171-0.092-0.342-0.209-0.513-0.352c-0.171-0.141-0.352-0.314-0.542-0.512v0.805c0,0.039-0.01,0.074-0.029,0.104
		c-0.019,0.031-0.051,0.053-0.095,0.07c-0.044,0.018-0.099,0.029-0.165,0.039c-0.065,0.01-0.15,0.016-0.252,0.016
		c-0.098,0-0.181-0.006-0.249-0.016c-0.068-0.01-0.125-0.021-0.168-0.039c-0.044-0.02-0.073-0.041-0.088-0.07
		c-0.015-0.027-0.022-0.063-0.022-0.104v-9.785c0-0.037,0.008-0.072,0.026-0.102c0.017-0.029,0.048-0.057,0.095-0.074
		c0.046-0.021,0.109-0.033,0.187-0.043s0.176-0.018,0.293-0.018c0.122,0,0.222,0.008,0.3,0.018c0.078,0.01,0.139,0.021,0.183,0.043
		c0.044,0.02,0.076,0.045,0.095,0.074c0.019,0.027,0.029,0.063,0.029,0.102v3.947c0.195-0.199,0.385-0.367,0.567-0.504
		c0.184-0.139,0.363-0.248,0.539-0.334c0.176-0.086,0.352-0.146,0.527-0.189c0.175-0.039,0.361-0.059,0.557-0.059
		c0.479,0,0.887,0.096,1.227,0.287c0.339,0.188,0.615,0.443,0.827,0.764c0.213,0.32,0.368,0.695,0.465,1.125
		C39.057,119.334,39.106,119.789,39.106,120.268z M37.854,120.406c0-0.338-0.026-0.664-0.077-0.98
		c-0.052-0.316-0.142-0.6-0.269-0.844c-0.128-0.242-0.297-0.439-0.509-0.59c-0.211-0.146-0.474-0.223-0.789-0.223
		c-0.157,0-0.312,0.02-0.464,0.064c-0.152,0.043-0.307,0.117-0.464,0.221c-0.157,0.104-0.321,0.232-0.49,0.395
		c-0.169,0.16-0.35,0.363-0.542,0.607v2.629c0.334,0.406,0.653,0.715,0.958,0.928s0.622,0.318,0.951,0.318
		c0.305,0,0.565-0.074,0.781-0.221c0.216-0.146,0.392-0.34,0.527-0.582c0.135-0.24,0.233-0.514,0.294-0.813
		C37.823,121.018,37.854,120.715,37.854,120.406z"/>
	<path d="M47.053,120.281c0,0.537-0.071,1.031-0.212,1.482c-0.142,0.453-0.353,0.842-0.633,1.17
		c-0.281,0.326-0.633,0.582-1.055,0.764c-0.423,0.186-0.912,0.275-1.469,0.275c-0.542,0-1.015-0.08-1.417-0.242
		c-0.403-0.16-0.739-0.396-1.007-0.703c-0.268-0.307-0.469-0.68-0.601-1.119c-0.132-0.438-0.198-0.938-0.198-1.494
		c0-0.537,0.069-1.031,0.209-1.482c0.139-0.451,0.349-0.84,0.63-1.168c0.28-0.326,0.631-0.58,1.051-0.764
		c0.42-0.18,0.911-0.27,1.472-0.27c0.542,0,1.014,0.08,1.417,0.24c0.402,0.162,0.738,0.396,1.007,0.703
		c0.269,0.309,0.47,0.682,0.604,1.119C46.985,119.235,47.053,119.731,47.053,120.281z M45.8,120.362c0-0.354-0.033-0.693-0.1-1.01
		c-0.067-0.318-0.176-0.596-0.329-0.836c-0.153-0.238-0.36-0.43-0.621-0.566c-0.261-0.141-0.586-0.209-0.976-0.209
		c-0.36,0-0.669,0.064-0.928,0.189c-0.259,0.127-0.472,0.307-0.639,0.539c-0.167,0.23-0.292,0.506-0.373,0.822
		c-0.082,0.316-0.122,0.664-0.122,1.041c0,0.359,0.033,0.701,0.1,1.02c0.067,0.316,0.178,0.594,0.333,0.83s0.363,0.426,0.625,0.563
		c0.261,0.143,0.586,0.209,0.976,0.209c0.355,0,0.663-0.063,0.924-0.188c0.261-0.127,0.476-0.307,0.643-0.535
		s0.291-0.502,0.37-0.818C45.761,121.094,45.8,120.742,45.8,120.362z"/>
	<path d="M54.172,117.045c0,0.02-0.001,0.039-0.003,0.063c-0.003,0.021-0.006,0.045-0.011,0.068
		c-0.005,0.025-0.011,0.053-0.018,0.082c-0.008,0.027-0.016,0.061-0.026,0.094l-2.249,6.264c-0.02,0.053-0.045,0.1-0.077,0.131
		c-0.032,0.035-0.079,0.064-0.143,0.08c-0.063,0.021-0.144,0.033-0.242,0.041c-0.098,0.008-0.22,0.014-0.366,0.014
		s-0.269-0.008-0.366-0.018c-0.097-0.01-0.177-0.021-0.238-0.043c-0.062-0.02-0.109-0.047-0.143-0.082
		c-0.034-0.033-0.061-0.074-0.081-0.123l-2.241-6.264c-0.02-0.059-0.036-0.109-0.048-0.152c-0.012-0.045-0.02-0.078-0.021-0.1
		c-0.003-0.021-0.004-0.041-0.004-0.055c0-0.039,0.01-0.074,0.029-0.104c0.019-0.031,0.052-0.053,0.099-0.07
		c0.046-0.016,0.107-0.025,0.184-0.029c0.075-0.008,0.169-0.01,0.282-0.01c0.142,0,0.255,0.004,0.34,0.012s0.151,0.021,0.198,0.041
		c0.046,0.02,0.08,0.045,0.103,0.072c0.021,0.029,0.042,0.064,0.062,0.109l1.86,5.434l0.029,0.09l0.022-0.09l1.838-5.434
		c0.01-0.045,0.027-0.08,0.051-0.109c0.024-0.027,0.06-0.055,0.106-0.072c0.046-0.021,0.109-0.033,0.19-0.041
		c0.08-0.008,0.187-0.012,0.318-0.012c0.112,0,0.205,0.002,0.278,0.01c0.073,0.004,0.13,0.016,0.172,0.033
		c0.042,0.021,0.071,0.043,0.088,0.07C54.163,116.973,54.172,117.006,54.172,117.045z"/>
	<path d="M61.02,120.069c0,0.191-0.048,0.326-0.144,0.406c-0.096,0.082-0.205,0.121-0.327,0.121h-4.341
		c0,0.365,0.037,0.695,0.11,0.988c0.073,0.293,0.196,0.545,0.368,0.756c0.171,0.209,0.395,0.369,0.669,0.482
		c0.275,0.111,0.611,0.168,1.008,0.168c0.314,0,0.594-0.025,0.839-0.076c0.245-0.053,0.458-0.107,0.636-0.174
		c0.179-0.063,0.327-0.119,0.442-0.172c0.115-0.051,0.202-0.076,0.261-0.076c0.034,0,0.065,0.008,0.092,0.025
		c0.027,0.018,0.048,0.043,0.063,0.076c0.015,0.033,0.025,0.082,0.033,0.145c0.007,0.061,0.011,0.135,0.011,0.223
		c0,0.063-0.002,0.119-0.007,0.164c-0.005,0.049-0.011,0.09-0.019,0.125c-0.007,0.037-0.02,0.07-0.036,0.1
		c-0.018,0.029-0.04,0.059-0.066,0.084c-0.027,0.027-0.106,0.072-0.238,0.133c-0.132,0.063-0.303,0.121-0.513,0.18
		c-0.21,0.061-0.453,0.111-0.729,0.156c-0.276,0.047-0.57,0.07-0.882,0.07c-0.542,0-1.017-0.076-1.424-0.229
		c-0.408-0.15-0.751-0.375-1.029-0.674c-0.278-0.299-0.488-0.672-0.63-1.121c-0.142-0.447-0.212-0.971-0.212-1.564
		c0-0.566,0.073-1.076,0.22-1.527c0.146-0.453,0.357-0.836,0.633-1.15c0.276-0.313,0.609-0.557,1-0.725
		c0.391-0.17,0.828-0.254,1.311-0.254c0.518,0,0.958,0.084,1.322,0.25c0.364,0.166,0.663,0.389,0.897,0.67
		c0.234,0.281,0.406,0.609,0.517,0.988c0.109,0.379,0.165,0.781,0.165,1.213V120.069z M59.804,119.711
		c0.015-0.635-0.126-1.133-0.424-1.494c-0.298-0.361-0.738-0.543-1.323-0.543c-0.3,0-0.563,0.057-0.789,0.17
		c-0.226,0.111-0.415,0.262-0.567,0.445c-0.152,0.188-0.27,0.4-0.354,0.646c-0.083,0.248-0.13,0.506-0.14,0.771h3.597V119.711z"/>
	<path d="M68.366,117.36c0,0.17-0.023,0.293-0.07,0.369c-0.046,0.076-0.106,0.113-0.179,0.113h-0.945
		c0.171,0.176,0.291,0.369,0.359,0.582c0.068,0.213,0.103,0.434,0.103,0.662c0,0.383-0.061,0.719-0.183,1.012
		c-0.122,0.293-0.297,0.541-0.523,0.744c-0.228,0.201-0.497,0.357-0.81,0.465s-0.659,0.162-1.04,0.162
		c-0.269,0-0.523-0.037-0.766-0.107c-0.241-0.07-0.428-0.16-0.56-0.268c-0.088,0.088-0.16,0.188-0.216,0.301
		c-0.056,0.113-0.084,0.242-0.084,0.389c0,0.17,0.079,0.314,0.238,0.424c0.158,0.113,0.37,0.176,0.633,0.186l1.721,0.074
		c0.327,0.01,0.627,0.055,0.901,0.135c0.273,0.08,0.51,0.195,0.71,0.346c0.2,0.146,0.356,0.332,0.469,0.549
		c0.112,0.217,0.168,0.471,0.168,0.758c0,0.303-0.063,0.592-0.19,0.863c-0.127,0.273-0.321,0.516-0.583,0.723
		c-0.261,0.209-0.594,0.371-1,0.49c-0.405,0.119-0.884,0.182-1.436,0.182c-0.532,0-0.985-0.047-1.359-0.137
		c-0.373-0.092-0.68-0.215-0.919-0.371c-0.239-0.154-0.413-0.342-0.52-0.561c-0.107-0.217-0.161-0.453-0.161-0.707
		c0-0.16,0.02-0.316,0.059-0.469c0.039-0.154,0.099-0.295,0.179-0.434c0.081-0.137,0.181-0.268,0.301-0.393
		c0.119-0.125,0.257-0.248,0.414-0.369c-0.239-0.123-0.417-0.273-0.531-0.461c-0.115-0.186-0.172-0.387-0.172-0.602
		c0-0.299,0.061-0.564,0.183-0.799s0.273-0.443,0.454-0.631c-0.151-0.182-0.271-0.385-0.359-0.609
		c-0.088-0.229-0.132-0.502-0.132-0.824c0-0.377,0.063-0.713,0.19-1.012s0.303-0.551,0.527-0.756
		c0.224-0.203,0.495-0.361,0.809-0.471c0.315-0.109,0.658-0.166,1.029-0.166c0.2,0,0.387,0.012,0.561,0.033
		c0.173,0.02,0.335,0.053,0.487,0.092h1.992c0.083,0,0.145,0.041,0.187,0.121C68.345,117.071,68.366,117.194,68.366,117.36z
		 M67.084,124.317c0-0.283-0.116-0.502-0.348-0.654s-0.546-0.234-0.941-0.246l-1.707-0.059c-0.156,0.123-0.285,0.238-0.384,0.348
		c-0.101,0.109-0.18,0.215-0.238,0.314c-0.059,0.102-0.099,0.199-0.121,0.297c-0.021,0.098-0.033,0.199-0.033,0.301
		c0,0.316,0.161,0.561,0.483,0.723c0.322,0.162,0.771,0.244,1.348,0.244c0.366,0,0.672-0.033,0.919-0.104
		c0.246-0.07,0.445-0.166,0.597-0.281c0.152-0.117,0.26-0.252,0.326-0.404S67.084,124.483,67.084,124.317z M66.477,119.096
		c0-0.449-0.124-0.799-0.37-1.053c-0.247-0.25-0.597-0.377-1.051-0.377c-0.234,0-0.438,0.039-0.612,0.117
		c-0.174,0.078-0.317,0.188-0.432,0.322c-0.115,0.137-0.201,0.293-0.257,0.473c-0.056,0.18-0.084,0.365-0.084,0.561
		c0,0.436,0.123,0.777,0.37,1.025c0.246,0.25,0.592,0.373,1.036,0.373c0.239,0,0.447-0.037,0.623-0.111
		c0.176-0.076,0.321-0.182,0.436-0.316c0.114-0.133,0.2-0.289,0.256-0.465S66.477,119.285,66.477,119.096z"/>
	<path d="M71.684,122.787c0,0.15-0.007,0.289-0.022,0.416s-0.039,0.248-0.073,0.357c-0.034,0.113-0.08,0.225-0.136,0.334
		c-0.056,0.109-0.125,0.227-0.208,0.35l-1.003,1.508c-0.024,0.035-0.053,0.063-0.084,0.09c-0.032,0.023-0.071,0.045-0.117,0.064
		c-0.047,0.02-0.101,0.031-0.161,0.041c-0.062,0.006-0.138,0.01-0.231,0.01c-0.083,0-0.153-0.004-0.208-0.01
		c-0.057-0.01-0.097-0.021-0.121-0.037c-0.024-0.018-0.038-0.041-0.04-0.068c-0.003-0.029,0.006-0.064,0.025-0.104l0.974-2.016
		v-0.938c0-0.133,0.013-0.236,0.041-0.314c0.026-0.078,0.069-0.137,0.128-0.176c0.059-0.039,0.132-0.064,0.22-0.08
		s0.195-0.021,0.322-0.021c0.122,0,0.227,0.008,0.315,0.021c0.088,0.016,0.16,0.041,0.216,0.08s0.097,0.098,0.124,0.176
		S71.684,122.655,71.684,122.787z"/>
	<path d="M81.191,123.614c-0.02,0.055-0.046,0.1-0.081,0.133c-0.035,0.033-0.082,0.063-0.143,0.08
		c-0.062,0.021-0.14,0.033-0.234,0.041c-0.096,0.006-0.214,0.01-0.355,0.01c-0.107,0-0.201,0-0.282-0.004
		c-0.08-0.002-0.15-0.008-0.208-0.018c-0.058-0.01-0.109-0.021-0.15-0.033c-0.042-0.012-0.077-0.025-0.106-0.047
		c-0.029-0.02-0.053-0.043-0.069-0.07c-0.018-0.025-0.033-0.059-0.048-0.098l-3.098-8.805c-0.039-0.107-0.06-0.193-0.062-0.262
		c-0.003-0.064,0.018-0.113,0.062-0.148c0.044-0.033,0.115-0.057,0.212-0.066c0.097-0.008,0.229-0.014,0.396-0.014
		c0.137,0,0.245,0.004,0.326,0.01c0.08,0.008,0.143,0.021,0.187,0.041c0.044,0.021,0.077,0.045,0.099,0.076
		c0.022,0.033,0.043,0.072,0.063,0.121l2.717,7.977h0.007l2.644-7.961c0.015-0.055,0.032-0.098,0.051-0.133
		c0.019-0.033,0.054-0.061,0.103-0.08c0.049-0.02,0.117-0.033,0.205-0.041c0.088-0.006,0.205-0.01,0.352-0.01
		c0.151,0,0.271,0.006,0.359,0.018c0.088,0.014,0.147,0.035,0.179,0.07c0.032,0.033,0.044,0.084,0.037,0.15
		c-0.008,0.064-0.031,0.15-0.07,0.26L81.191,123.614z"/>
	<path d="M90.61,120.069c0,0.191-0.048,0.326-0.145,0.406c-0.096,0.082-0.203,0.121-0.326,0.121h-4.342
		c0,0.365,0.037,0.695,0.111,0.988c0.072,0.293,0.195,0.545,0.367,0.756c0.172,0.209,0.395,0.369,0.669,0.482
		c0.275,0.111,0.611,0.168,1.009,0.168c0.313,0,0.594-0.025,0.838-0.076c0.246-0.053,0.459-0.107,0.637-0.174
		c0.179-0.063,0.326-0.119,0.441-0.172c0.115-0.051,0.203-0.076,0.262-0.076c0.033,0,0.064,0.008,0.093,0.025
		c0.026,0.018,0.047,0.043,0.063,0.076c0.015,0.033,0.024,0.082,0.032,0.145c0.007,0.061,0.011,0.135,0.011,0.223
		c0,0.063-0.002,0.119-0.006,0.164c-0.007,0.049-0.013,0.09-0.021,0.125c-0.007,0.037-0.021,0.07-0.035,0.1
		c-0.019,0.029-0.04,0.059-0.065,0.084c-0.027,0.027-0.106,0.072-0.238,0.133c-0.133,0.063-0.303,0.121-0.514,0.18
		c-0.209,0.061-0.453,0.111-0.729,0.156c-0.276,0.047-0.57,0.07-0.883,0.07c-0.541,0-1.016-0.076-1.424-0.229
		c-0.408-0.15-0.75-0.375-1.028-0.674s-0.488-0.672-0.63-1.121c-0.143-0.447-0.213-0.971-0.213-1.564
		c0-0.566,0.074-1.076,0.221-1.527c0.146-0.453,0.357-0.836,0.633-1.15c0.275-0.313,0.609-0.557,1-0.725
		c0.391-0.17,0.828-0.254,1.311-0.254c0.519,0,0.959,0.084,1.322,0.25c0.364,0.166,0.663,0.389,0.897,0.67
		c0.233,0.281,0.405,0.609,0.518,0.988c0.109,0.379,0.164,0.781,0.164,1.213L90.61,120.069L90.61,120.069z M89.394,119.711
		c0.015-0.635-0.126-1.133-0.424-1.494s-0.738-0.543-1.323-0.543c-0.3,0-0.563,0.057-0.789,0.17
		c-0.227,0.111-0.415,0.262-0.566,0.445c-0.152,0.188-0.271,0.4-0.354,0.646c-0.083,0.248-0.13,0.506-0.14,0.771h3.597V119.711z"/>
	<path d="M97.956,117.36c0,0.17-0.022,0.293-0.068,0.369c-0.047,0.076-0.105,0.113-0.18,0.113h-0.944
		c0.171,0.176,0.291,0.369,0.358,0.582c0.068,0.213,0.103,0.434,0.103,0.662c0,0.383-0.062,0.719-0.183,1.012
		c-0.123,0.293-0.297,0.541-0.523,0.744c-0.229,0.201-0.497,0.357-0.811,0.465c-0.313,0.107-0.658,0.162-1.039,0.162
		c-0.27,0-0.523-0.037-0.767-0.107c-0.241-0.07-0.429-0.16-0.56-0.268c-0.088,0.088-0.16,0.188-0.217,0.301
		c-0.058,0.113-0.084,0.242-0.084,0.389c0,0.17,0.078,0.314,0.237,0.424c0.158,0.113,0.369,0.176,0.634,0.186l1.721,0.074
		c0.328,0.01,0.629,0.055,0.902,0.135c0.272,0.08,0.51,0.195,0.709,0.346c0.2,0.146,0.356,0.332,0.469,0.549
		c0.113,0.217,0.17,0.471,0.17,0.758c0,0.303-0.064,0.592-0.191,0.863c-0.127,0.273-0.32,0.516-0.582,0.723
		c-0.262,0.209-0.594,0.371-1,0.49c-0.404,0.119-0.883,0.182-1.436,0.182c-0.531,0-0.984-0.047-1.358-0.137
		c-0.373-0.092-0.68-0.215-0.919-0.371c-0.238-0.154-0.412-0.342-0.52-0.561c-0.107-0.217-0.162-0.453-0.162-0.707
		c0-0.16,0.02-0.316,0.059-0.469c0.039-0.154,0.1-0.295,0.18-0.434c0.082-0.137,0.182-0.268,0.301-0.393s0.259-0.248,0.414-0.369
		c-0.239-0.123-0.416-0.273-0.53-0.461c-0.115-0.186-0.173-0.387-0.173-0.602c0-0.299,0.062-0.564,0.184-0.799
		s0.273-0.443,0.454-0.631c-0.151-0.182-0.271-0.385-0.358-0.609c-0.088-0.229-0.132-0.502-0.132-0.824
		c0-0.377,0.063-0.713,0.188-1.012c0.127-0.299,0.304-0.551,0.527-0.756c0.225-0.203,0.496-0.361,0.811-0.471
		s0.658-0.166,1.029-0.166c0.199,0,0.387,0.012,0.561,0.033c0.173,0.02,0.335,0.053,0.486,0.092h1.992
		c0.082,0,0.146,0.041,0.188,0.121C97.935,117.071,97.956,117.194,97.956,117.36z M96.674,124.317c0-0.283-0.116-0.502-0.348-0.654
		c-0.232-0.152-0.547-0.234-0.941-0.246l-1.707-0.059c-0.156,0.123-0.284,0.238-0.385,0.348s-0.18,0.215-0.237,0.314
		c-0.06,0.102-0.099,0.199-0.121,0.297c-0.021,0.098-0.032,0.199-0.032,0.301c0,0.316,0.16,0.561,0.482,0.723
		s0.771,0.244,1.348,0.244c0.367,0,0.674-0.033,0.92-0.104s0.445-0.166,0.598-0.281c0.151-0.117,0.26-0.252,0.326-0.404
		C96.641,124.641,96.674,124.483,96.674,124.317z M96.067,119.096c0-0.449-0.124-0.799-0.369-1.053
		c-0.248-0.25-0.598-0.377-1.053-0.377c-0.234,0-0.438,0.039-0.611,0.117c-0.173,0.078-0.316,0.188-0.432,0.322
		c-0.115,0.137-0.201,0.293-0.257,0.473s-0.084,0.365-0.084,0.561c0,0.436,0.122,0.777,0.37,1.025
		c0.246,0.25,0.592,0.373,1.035,0.373c0.24,0,0.446-0.037,0.623-0.111c0.176-0.076,0.32-0.182,0.437-0.316
		c0.114-0.133,0.2-0.289,0.256-0.465S96.067,119.285,96.067,119.096z"/>
	<path d="M102.475,120.135c0,0.191-0.021,0.322-0.064,0.396c-0.043,0.07-0.106,0.107-0.188,0.107h-3.063
		c-0.089,0-0.152-0.037-0.197-0.113c-0.043-0.074-0.064-0.205-0.064-0.393c0-0.186,0.021-0.313,0.064-0.389
		c0.045-0.074,0.108-0.109,0.197-0.109h3.063c0.038,0,0.073,0.008,0.104,0.021c0.029,0.016,0.059,0.043,0.08,0.084
		s0.037,0.094,0.051,0.156C102.469,119.965,102.475,120.043,102.475,120.135z"/>
	<path d="M110.275,123.381c0.063,0.105,0.103,0.191,0.113,0.256c0.012,0.063-0.005,0.113-0.048,0.148
		c-0.045,0.037-0.116,0.063-0.217,0.072c-0.102,0.014-0.231,0.02-0.397,0.02c-0.156,0-0.278-0.004-0.367-0.01
		c-0.088-0.01-0.157-0.021-0.209-0.041c-0.051-0.02-0.09-0.043-0.116-0.068c-0.027-0.027-0.05-0.063-0.068-0.107l-2.109-3.77
		l-2.131,3.77c-0.023,0.045-0.053,0.082-0.08,0.111c-0.029,0.027-0.07,0.053-0.121,0.068c-0.051,0.018-0.121,0.027-0.209,0.037
		c-0.088,0.006-0.205,0.01-0.354,0.01c-0.159,0-0.287-0.006-0.381-0.02c-0.092-0.012-0.156-0.035-0.191-0.072
		c-0.037-0.035-0.051-0.086-0.037-0.148c0.012-0.063,0.051-0.148,0.111-0.256l2.586-4.359l-2.469-4.211
		c-0.06-0.107-0.097-0.193-0.113-0.26c-0.018-0.066-0.006-0.117,0.033-0.154c0.039-0.035,0.106-0.061,0.205-0.068
		c0.1-0.01,0.231-0.016,0.401-0.016c0.146,0,0.269,0.004,0.358,0.012c0.095,0.008,0.166,0.021,0.222,0.037
		c0.054,0.016,0.092,0.041,0.117,0.072c0.022,0.031,0.051,0.066,0.079,0.105l2.035,3.545l2.021-3.545
		c0.023-0.039,0.049-0.074,0.074-0.105c0.021-0.031,0.059-0.057,0.104-0.072c0.047-0.018,0.11-0.029,0.194-0.037
		c0.082-0.008,0.194-0.012,0.336-0.012c0.151,0,0.274,0.006,0.369,0.02c0.097,0.014,0.164,0.035,0.205,0.068
		c0.043,0.035,0.06,0.084,0.049,0.15c-0.01,0.064-0.045,0.152-0.104,0.26l-2.461,4.182L110.275,123.381z"/>
	<path d="M114.333,119.901c0,0.553-0.033,1.098-0.103,1.637c-0.067,0.539-0.172,1.074-0.31,1.604
		c-0.137,0.527-0.303,1.045-0.5,1.557c-0.198,0.51-0.43,1.014-0.692,1.512c-0.015,0.023-0.037,0.047-0.065,0.066
		c-0.029,0.02-0.064,0.035-0.113,0.051c-0.047,0.016-0.102,0.023-0.162,0.029c-0.064,0.004-0.141,0.008-0.229,0.008
		c-0.127,0-0.228-0.008-0.298-0.02c-0.071-0.014-0.122-0.031-0.153-0.061c-0.031-0.025-0.047-0.061-0.043-0.102
		c0.002-0.043,0.016-0.092,0.039-0.15c0.448-0.984,0.789-1.996,1.02-3.029c0.229-1.031,0.344-2.072,0.344-3.121
		c0-1.047-0.113-2.084-0.344-3.117c-0.229-1.033-0.574-2.039-1.033-3.021c-0.02-0.045-0.025-0.086-0.021-0.125
		c0.006-0.039,0.027-0.068,0.066-0.096c0.039-0.025,0.094-0.043,0.16-0.059c0.068-0.016,0.16-0.021,0.271-0.021
		c0.104,0,0.188,0.004,0.256,0.012c0.068,0.006,0.123,0.02,0.166,0.031c0.041,0.016,0.072,0.029,0.092,0.045
		c0.021,0.014,0.033,0.031,0.043,0.051c0.504,1.002,0.896,2.031,1.186,3.088C114.189,117.725,114.333,118.803,114.333,119.901z"/>
</g>
<path d="M20.541,10.009c0,0.575-0.084,1.091-0.252,1.543c-0.169,0.45-0.409,0.834-0.722,1.146c-0.313,0.313-0.693,0.55-1.143,0.71
	c-0.45,0.161-0.959,0.241-1.531,0.241c-0.522,0-0.999-0.075-1.428-0.229c-0.429-0.15-0.798-0.375-1.106-0.67
	s-0.544-0.664-0.71-1.107c-0.166-0.444-0.249-0.957-0.249-1.539v-5.88c0-0.039,0.01-0.073,0.029-0.104
	c0.019-0.028,0.054-0.053,0.103-0.067c0.049-0.02,0.112-0.032,0.19-0.045c0.078-0.014,0.181-0.02,0.308-0.02
	c0.117,0,0.217,0.006,0.3,0.02c0.083,0.013,0.147,0.025,0.194,0.045c0.046,0.017,0.08,0.039,0.099,0.067
	c0.019,0.029,0.029,0.063,0.029,0.104v5.728c0,0.439,0.054,0.823,0.161,1.149c0.107,0.328,0.262,0.6,0.465,0.815
	c0.202,0.218,0.446,0.382,0.732,0.49c0.285,0.11,0.606,0.165,0.963,0.165c0.366,0,0.692-0.054,0.978-0.161
	c0.286-0.106,0.527-0.269,0.726-0.481c0.197-0.215,0.349-0.48,0.454-0.799c0.104-0.316,0.157-0.688,0.157-1.113V4.223
	c0-0.039,0.01-0.073,0.029-0.104c0.019-0.028,0.054-0.053,0.103-0.067c0.049-0.02,0.113-0.032,0.194-0.045
	c0.08-0.014,0.182-0.02,0.304-0.02c0.117,0,0.216,0.006,0.297,0.02c0.08,0.013,0.144,0.025,0.19,0.045
	c0.046,0.017,0.08,0.039,0.103,0.067c0.021,0.029,0.033,0.063,0.033,0.104V10.009L20.541,10.009z"/>
<path d="M28.964,9.928c0,0.576-0.062,1.095-0.187,1.553c-0.124,0.46-0.308,0.85-0.549,1.169c-0.242,0.319-0.541,0.565-0.897,0.739
	s-0.764,0.26-1.223,0.26c-0.195,0-0.376-0.02-0.542-0.059s-0.329-0.102-0.487-0.185c-0.159-0.083-0.316-0.188-0.473-0.313
	c-0.156-0.127-0.322-0.275-0.498-0.446v3.296c0,0.039-0.01,0.073-0.029,0.104c-0.019,0.028-0.051,0.054-0.095,0.071
	c-0.044,0.021-0.105,0.034-0.183,0.045c-0.078,0.011-0.178,0.015-0.3,0.015c-0.117,0-0.215-0.004-0.293-0.015
	s-0.141-0.024-0.187-0.045c-0.046-0.02-0.078-0.044-0.095-0.071c-0.018-0.029-0.026-0.063-0.026-0.104V6.735
	c0-0.043,0.007-0.079,0.022-0.104c0.015-0.026,0.044-0.05,0.088-0.069c0.044-0.02,0.1-0.032,0.168-0.04
	c0.068-0.008,0.151-0.012,0.249-0.012c0.103,0,0.187,0.004,0.252,0.012c0.066,0.008,0.121,0.021,0.165,0.04
	c0.044,0.021,0.074,0.043,0.092,0.069c0.017,0.025,0.025,0.063,0.025,0.104v0.887c0.2-0.205,0.393-0.383,0.579-0.534
	c0.186-0.149,0.372-0.275,0.56-0.378c0.188-0.1,0.381-0.176,0.579-0.227c0.197-0.052,0.406-0.077,0.626-0.077
	c0.479,0,0.886,0.093,1.223,0.278c0.337,0.185,0.612,0.438,0.824,0.762c0.213,0.322,0.368,0.697,0.465,1.124
	C28.915,8.996,28.964,9.449,28.964,9.928z M27.711,10.066c0-0.337-0.026-0.663-0.077-0.979c-0.052-0.314-0.14-0.596-0.266-0.839
	c-0.125-0.243-0.293-0.438-0.505-0.586c-0.211-0.146-0.474-0.221-0.788-0.221c-0.157,0-0.313,0.023-0.464,0.068
	c-0.152,0.048-0.307,0.121-0.464,0.221c-0.157,0.102-0.322,0.232-0.494,0.396c-0.172,0.164-0.354,0.365-0.545,0.604v2.622
	c0.334,0.405,0.651,0.716,0.951,0.931c0.3,0.215,0.614,0.322,0.943,0.322c0.304,0,0.566-0.074,0.785-0.221
	c0.218-0.146,0.396-0.343,0.531-0.586c0.135-0.243,0.234-0.519,0.298-0.82C27.68,10.681,27.711,10.375,27.711,10.066z"/>
<path d="M31.989,13.325c0,0.04-0.01,0.072-0.029,0.102c-0.02,0.024-0.051,0.05-0.095,0.067c-0.044,0.021-0.105,0.034-0.183,0.045
	c-0.078,0.011-0.178,0.015-0.3,0.015c-0.117,0-0.215-0.004-0.293-0.015c-0.078-0.011-0.141-0.023-0.187-0.045
	c-0.046-0.02-0.078-0.043-0.095-0.067c-0.018-0.027-0.026-0.062-0.026-0.102V3.541c0-0.039,0.008-0.071,0.026-0.103
	c0.017-0.029,0.048-0.054,0.095-0.074c0.046-0.019,0.109-0.032,0.187-0.043c0.078-0.01,0.176-0.016,0.293-0.016
	c0.122,0,0.222,0.006,0.3,0.016c0.078,0.011,0.139,0.024,0.183,0.043c0.044,0.021,0.076,0.045,0.095,0.074
	c0.019,0.028,0.029,0.063,0.029,0.103V13.325z"/>
<path d="M40.353,9.957c0,0.537-0.071,1.031-0.212,1.482c-0.142,0.452-0.353,0.842-0.633,1.169c-0.281,0.327-0.633,0.582-1.055,0.765
	c-0.423,0.186-0.912,0.274-1.469,0.274c-0.542,0-1.015-0.08-1.417-0.241c-0.403-0.16-0.739-0.396-1.007-0.703
	c-0.268-0.307-0.469-0.681-0.601-1.119s-0.198-0.938-0.198-1.493c0-0.537,0.069-1.032,0.209-1.483
	c0.139-0.452,0.349-0.841,0.63-1.169c0.28-0.326,0.631-0.58,1.051-0.762c0.42-0.181,0.911-0.271,1.472-0.271
	c0.542,0,1.014,0.081,1.417,0.241c0.402,0.162,0.738,0.396,1.007,0.703c0.269,0.309,0.47,0.682,0.604,1.12
	C40.286,8.909,40.353,9.405,40.353,9.957z M39.101,10.037c0-0.354-0.033-0.692-0.1-1.011c-0.067-0.317-0.176-0.596-0.329-0.835
	c-0.153-0.238-0.36-0.43-0.621-0.566c-0.261-0.141-0.586-0.209-0.976-0.209c-0.36,0-0.669,0.063-0.928,0.189
	c-0.259,0.127-0.472,0.307-0.639,0.538c-0.167,0.23-0.292,0.507-0.373,0.823c-0.082,0.316-0.122,0.664-0.122,1.041
	c0,0.359,0.033,0.7,0.1,1.019c0.067,0.318,0.178,0.595,0.333,0.831c0.155,0.236,0.363,0.425,0.625,0.563
	c0.261,0.142,0.586,0.21,0.976,0.21c0.355,0,0.663-0.063,0.924-0.189c0.261-0.127,0.476-0.305,0.643-0.534
	c0.167-0.229,0.291-0.503,0.37-0.818C39.061,10.768,39.101,10.418,39.101,10.037z"/>
<path d="M47.099,13.334c0,0.06-0.02,0.104-0.059,0.132s-0.093,0.053-0.161,0.064c-0.068,0.018-0.168,0.022-0.3,0.022
	c-0.127,0-0.229-0.009-0.304-0.022c-0.076-0.014-0.131-0.036-0.165-0.064c-0.034-0.028-0.051-0.072-0.051-0.132v-0.659
	c-0.288,0.309-0.609,0.548-0.963,0.719s-0.729,0.256-1.124,0.256c-0.347,0-0.661-0.045-0.941-0.135
	c-0.281-0.092-0.52-0.222-0.718-0.394c-0.197-0.171-0.352-0.382-0.461-0.63c-0.11-0.25-0.165-0.532-0.165-0.85
	c0-0.371,0.076-0.693,0.227-0.968c0.151-0.273,0.369-0.5,0.652-0.683c0.283-0.181,0.63-0.315,1.04-0.406
	c0.41-0.09,0.872-0.136,1.384-0.136h0.908V8.937c0-0.254-0.027-0.479-0.081-0.674c-0.054-0.195-0.141-0.357-0.26-0.487
	c-0.12-0.129-0.275-0.228-0.465-0.293c-0.19-0.065-0.425-0.099-0.703-0.099c-0.298,0-0.565,0.034-0.802,0.104
	c-0.237,0.07-0.444,0.148-0.622,0.234c-0.179,0.085-0.328,0.162-0.447,0.233c-0.12,0.069-0.208,0.105-0.267,0.105
	c-0.039,0-0.073-0.01-0.103-0.029c-0.03-0.019-0.055-0.049-0.077-0.088c-0.022-0.039-0.038-0.09-0.048-0.15
	c-0.01-0.062-0.015-0.129-0.015-0.199c0-0.122,0.008-0.221,0.025-0.29c0.017-0.07,0.059-0.14,0.125-0.201
	c0.065-0.063,0.179-0.139,0.34-0.225c0.161-0.085,0.347-0.162,0.557-0.233c0.21-0.069,0.439-0.129,0.688-0.176
	c0.249-0.046,0.5-0.069,0.754-0.069c0.474,0,0.876,0.055,1.208,0.161c0.332,0.105,0.601,0.265,0.806,0.474
	c0.205,0.207,0.354,0.465,0.447,0.771c0.093,0.307,0.139,0.667,0.139,1.076v4.448h0.002V13.334z M45.897,10.323h-1.033
	c-0.332,0-0.62,0.027-0.864,0.084s-0.447,0.141-0.608,0.249c-0.161,0.109-0.28,0.241-0.355,0.396
	c-0.076,0.151-0.114,0.33-0.114,0.53c0,0.343,0.108,0.612,0.326,0.815c0.217,0.202,0.521,0.304,0.912,0.304
	c0.317,0,0.611-0.08,0.883-0.24c0.271-0.161,0.555-0.407,0.853-0.739V10.323z"/>
<path d="M54.965,13.325c0,0.04-0.009,0.074-0.025,0.104c-0.018,0.028-0.047,0.052-0.088,0.067c-0.042,0.019-0.097,0.03-0.165,0.041
	s-0.151,0.015-0.249,0.015c-0.103,0-0.188-0.004-0.256-0.015s-0.125-0.022-0.168-0.041c-0.044-0.018-0.076-0.039-0.095-0.067
	C53.9,13.4,53.89,13.366,53.89,13.325v-0.87c-0.347,0.375-0.707,0.668-1.081,0.879c-0.373,0.209-0.782,0.313-1.227,0.313
	c-0.483,0-0.896-0.095-1.238-0.281c-0.342-0.188-0.619-0.441-0.832-0.762c-0.212-0.32-0.367-0.696-0.465-1.128
	c-0.098-0.435-0.146-0.889-0.146-1.366c0-0.564,0.061-1.078,0.183-1.534c0.122-0.457,0.303-0.847,0.542-1.169
	c0.239-0.321,0.536-0.568,0.89-0.743c0.354-0.173,0.763-0.26,1.227-0.26c0.386,0,0.738,0.084,1.059,0.253
	c0.319,0.168,0.636,0.416,0.948,0.743V3.569c0-0.032,0.008-0.064,0.025-0.099c0.017-0.031,0.05-0.058,0.099-0.073
	c0.049-0.017,0.111-0.031,0.187-0.044c0.075-0.012,0.172-0.021,0.289-0.021c0.122,0,0.222,0.009,0.3,0.021
	c0.078,0.013,0.139,0.027,0.183,0.044c0.044,0.019,0.077,0.042,0.099,0.073c0.022,0.03,0.033,0.063,0.033,0.099V13.325
	L54.965,13.325z M53.749,8.69c-0.327-0.405-0.644-0.714-0.948-0.927c-0.306-0.213-0.624-0.318-0.956-0.318
	c-0.308,0-0.569,0.073-0.784,0.221c-0.215,0.146-0.39,0.341-0.524,0.578c-0.134,0.239-0.232,0.511-0.293,0.813
	s-0.091,0.609-0.091,0.923c0,0.332,0.026,0.656,0.077,0.975c0.052,0.317,0.141,0.601,0.268,0.847s0.295,0.444,0.505,0.594
	c0.21,0.147,0.474,0.224,0.791,0.224c0.161,0,0.316-0.021,0.465-0.064c0.148-0.045,0.301-0.116,0.458-0.222
	c0.156-0.102,0.32-0.233,0.491-0.396c0.171-0.164,0.352-0.365,0.542-0.604L53.749,8.69L53.749,8.69z"/>
</svg>
