<?xml version="1.0" encoding="utf-8"?>
<!-- Generator: Adobe Illustrator 16.0.3, SVG Export Plug-In . SVG Version: 6.00 Build 0)  -->
<!DOCTYPE svg PUBLIC "-//W3C//DTD SVG 1.1//EN" "http://www.w3.org/Graphics/SVG/1.1/DTD/svg11.dtd">
<svg version="1.1" id="Layer_1" xmlns="http://www.w3.org/2000/svg" xmlns:xlink="http://www.w3.org/1999/xlink" x="0px" y="0px"
	 width="121.5px" height="174px" viewBox="230.747 -19.054 121.5 174" enable-background="new 230.747 -19.054 121.5 174"
	 xml:space="preserve">
<path d="M254.486,27.491c-3.329,0-5.997,1.518-7.938,3.323c-1.93,1.79-3.221,3.933-3.828,5.405c-0.139,0.325-0.139,0.688,0,1.014
	c0.607,1.473,1.898,3.616,3.828,5.405c1.941,1.806,4.609,3.322,7.938,3.322c3.332,0,6-1.517,7.941-3.322
	c1.93-1.793,3.219-3.934,3.834-5.405c0.137-0.325,0.137-0.688,0-1.014c-0.615-1.473-1.904-3.615-3.834-5.405
	C260.486,29.009,257.818,27.491,254.486,27.491z M248.551,36.726c0-3.279,2.658-5.938,5.938-5.938c3.276,0,5.938,2.658,5.938,5.938
	s-2.656,5.937-5.938,5.937C251.209,42.662,248.551,40.006,248.551,36.726z M254.486,34.089c0,1.455-1.184,2.638-2.639,2.638
	c-0.293,0-0.572-0.049-0.839-0.136c-0.227-0.074-0.487,0.065-0.479,0.305c0.013,0.285,0.054,0.569,0.132,0.854
	c0.563,2.111,2.737,3.364,4.852,2.801c2.109-0.565,3.361-2.738,2.799-4.85c-0.457-1.711-1.973-2.86-3.652-2.931
	c-0.238-0.008-0.379,0.251-0.305,0.481C254.436,33.514,254.486,33.795,254.486,34.089L254.486,34.089z"/>
<g enable-background="new    ">
	<path d="M242.618,69.643c0,0.039-0.011,0.074-0.029,0.104s-0.053,0.055-0.103,0.068c-0.049,0.018-0.112,0.033-0.194,0.045
		c-0.08,0.012-0.183,0.018-0.303,0.018c-0.117,0-0.218-0.006-0.302-0.018c-0.082-0.012-0.147-0.027-0.196-0.045
		c-0.05-0.016-0.084-0.039-0.104-0.068c-0.02-0.027-0.029-0.063-0.029-0.104v-9.095c0-0.039,0.014-0.073,0.033-0.104
		c0.021-0.029,0.061-0.053,0.109-0.068c0.053-0.019,0.117-0.031,0.199-0.045c0.079-0.013,0.176-0.019,0.288-0.019
		c0.121,0,0.224,0.006,0.304,0.019c0.082,0.014,0.146,0.026,0.194,0.045c0.05,0.018,0.082,0.039,0.103,0.068
		c0.02,0.029,0.029,0.063,0.029,0.104V69.643L242.618,69.643z"/>
	<path d="M250.674,69.651c0,0.039-0.01,0.072-0.029,0.1c-0.02,0.025-0.051,0.051-0.096,0.068c-0.043,0.021-0.104,0.035-0.182,0.045
		c-0.08,0.01-0.177,0.014-0.293,0.014c-0.123,0-0.224-0.004-0.302-0.014s-0.14-0.023-0.185-0.045
		c-0.043-0.02-0.075-0.043-0.096-0.068c-0.02-0.025-0.029-0.061-0.029-0.1v-3.859c0-0.377-0.028-0.68-0.088-0.906
		c-0.059-0.229-0.145-0.43-0.256-0.596s-0.26-0.293-0.438-0.381s-0.385-0.131-0.619-0.131c-0.303,0-0.604,0.107-0.906,0.322
		c-0.305,0.215-0.619,0.527-0.951,0.943v4.605c0,0.039-0.011,0.072-0.029,0.1c-0.02,0.025-0.053,0.051-0.096,0.07
		c-0.045,0.018-0.104,0.033-0.186,0.043c-0.078,0.01-0.178,0.016-0.299,0.016c-0.117,0-0.217-0.006-0.293-0.016
		c-0.078-0.01-0.143-0.023-0.188-0.043c-0.048-0.021-0.078-0.045-0.097-0.07s-0.024-0.061-0.024-0.1v-6.592
		c0-0.039,0.008-0.07,0.021-0.102c0.017-0.023,0.045-0.051,0.088-0.07c0.045-0.021,0.101-0.037,0.168-0.045s0.16-0.012,0.271-0.012
		c0.107,0,0.197,0.004,0.269,0.012c0.069,0.008,0.127,0.021,0.166,0.045c0.039,0.021,0.065,0.047,0.084,0.07
		c0.017,0.027,0.024,0.063,0.024,0.102v0.871c0.371-0.414,0.74-0.721,1.109-0.912c0.367-0.191,0.74-0.289,1.117-0.289
		c0.438,0,0.809,0.074,1.107,0.225c0.303,0.148,0.545,0.35,0.729,0.598c0.185,0.25,0.317,0.541,0.397,0.875
		c0.082,0.336,0.121,0.736,0.121,1.205v4.021H250.674z"/>
	<path d="M257.018,67.856c0,0.338-0.063,0.639-0.188,0.902c-0.125,0.262-0.302,0.484-0.531,0.666
		c-0.229,0.18-0.502,0.316-0.82,0.408c-0.314,0.094-0.666,0.141-1.047,0.141c-0.232,0-0.457-0.02-0.67-0.057
		c-0.213-0.035-0.402-0.082-0.572-0.139c-0.168-0.057-0.311-0.115-0.428-0.176c-0.117-0.064-0.203-0.115-0.256-0.166
		c-0.055-0.049-0.094-0.115-0.117-0.205c-0.025-0.088-0.037-0.207-0.037-0.357c0-0.092,0.006-0.17,0.016-0.232
		c0.01-0.064,0.021-0.115,0.035-0.154c0.018-0.039,0.035-0.068,0.063-0.084c0.027-0.018,0.059-0.025,0.094-0.025
		c0.053,0,0.133,0.031,0.236,0.1c0.104,0.064,0.234,0.139,0.391,0.217c0.15,0.078,0.334,0.15,0.545,0.217
		c0.209,0.064,0.451,0.1,0.725,0.1c0.205,0,0.392-0.021,0.558-0.066c0.166-0.043,0.312-0.107,0.434-0.193
		c0.121-0.086,0.216-0.191,0.281-0.324s0.101-0.287,0.101-0.471c0-0.186-0.049-0.342-0.146-0.469
		c-0.095-0.127-0.222-0.238-0.377-0.336c-0.156-0.098-0.332-0.186-0.527-0.262c-0.194-0.074-0.396-0.154-0.604-0.236
		c-0.207-0.084-0.409-0.178-0.606-0.283c-0.198-0.104-0.375-0.23-0.53-0.385c-0.156-0.152-0.283-0.332-0.377-0.541
		c-0.097-0.211-0.144-0.461-0.144-0.754c0-0.26,0.049-0.508,0.147-0.744c0.103-0.236,0.252-0.445,0.451-0.623s0.451-0.32,0.75-0.428
		c0.301-0.107,0.65-0.162,1.053-0.162c0.176,0,0.353,0.016,0.525,0.045c0.176,0.029,0.336,0.066,0.477,0.109
		c0.144,0.045,0.265,0.092,0.363,0.143c0.1,0.051,0.176,0.098,0.227,0.137c0.052,0.039,0.087,0.072,0.104,0.104
		c0.017,0.029,0.028,0.063,0.034,0.1c0.01,0.037,0.018,0.082,0.023,0.135c0.006,0.057,0.01,0.121,0.01,0.199
		c0,0.082-0.004,0.154-0.01,0.215c-0.008,0.063-0.021,0.111-0.037,0.15c-0.018,0.039-0.037,0.066-0.063,0.084
		c-0.024,0.018-0.051,0.025-0.079,0.025c-0.046,0-0.107-0.027-0.191-0.08c-0.082-0.057-0.188-0.111-0.322-0.172
		c-0.131-0.064-0.287-0.119-0.465-0.174s-0.383-0.082-0.61-0.082c-0.204,0-0.386,0.023-0.542,0.07s-0.283,0.111-0.385,0.197
		s-0.176,0.188-0.229,0.305c-0.051,0.117-0.076,0.244-0.076,0.381c0,0.189,0.049,0.352,0.146,0.48
		c0.099,0.129,0.226,0.242,0.382,0.34c0.155,0.1,0.334,0.188,0.534,0.266c0.199,0.078,0.402,0.158,0.611,0.242
		c0.207,0.082,0.411,0.176,0.614,0.275c0.201,0.104,0.381,0.229,0.537,0.375c0.156,0.145,0.283,0.322,0.379,0.525
		C256.969,67.328,257.018,67.573,257.018,67.856z"/>
	<path d="M264.811,66.252c0,0.576-0.063,1.096-0.188,1.553c-0.125,0.461-0.31,0.85-0.549,1.17c-0.242,0.318-0.541,0.564-0.898,0.738
		c-0.355,0.174-0.764,0.26-1.223,0.26c-0.195,0-0.375-0.02-0.541-0.059s-0.33-0.102-0.488-0.184
		c-0.158-0.084-0.314-0.189-0.473-0.314c-0.156-0.127-0.322-0.275-0.498-0.445v3.295c0,0.039-0.011,0.074-0.029,0.104
		c-0.018,0.029-0.051,0.055-0.094,0.072c-0.045,0.02-0.105,0.035-0.185,0.045c-0.08,0.01-0.178,0.014-0.301,0.014
		c-0.117,0-0.216-0.004-0.293-0.014c-0.078-0.01-0.142-0.025-0.188-0.045s-0.078-0.043-0.096-0.072
		c-0.018-0.027-0.023-0.063-0.023-0.104v-9.207c0-0.043,0.006-0.078,0.021-0.105c0.017-0.025,0.045-0.049,0.088-0.068
		c0.045-0.02,0.101-0.031,0.168-0.039c0.067-0.01,0.151-0.014,0.25-0.014c0.103,0,0.188,0.004,0.252,0.014
		c0.065,0.008,0.121,0.02,0.166,0.039c0.043,0.021,0.074,0.043,0.093,0.068c0.016,0.027,0.024,0.064,0.024,0.105v0.887
		c0.198-0.205,0.394-0.383,0.578-0.535c0.187-0.148,0.37-0.273,0.562-0.377c0.188-0.1,0.381-0.176,0.577-0.227
		c0.197-0.051,0.406-0.076,0.627-0.076c0.479,0,0.886,0.092,1.224,0.277c0.336,0.186,0.611,0.439,0.824,0.762
		s0.366,0.697,0.465,1.125C264.762,65.321,264.811,65.774,264.811,66.252z M263.559,66.391c0-0.336-0.025-0.662-0.078-0.979
		c-0.051-0.314-0.141-0.596-0.266-0.838c-0.125-0.244-0.293-0.439-0.506-0.586c-0.211-0.146-0.474-0.221-0.787-0.221
		c-0.156,0-0.313,0.021-0.465,0.066c-0.152,0.049-0.308,0.121-0.465,0.223c-0.156,0.102-0.32,0.23-0.492,0.395
		s-0.354,0.365-0.547,0.605v2.621c0.334,0.404,0.651,0.717,0.951,0.932c0.301,0.215,0.614,0.322,0.942,0.322
		c0.305,0,0.565-0.074,0.784-0.223c0.22-0.146,0.396-0.342,0.531-0.586c0.135-0.242,0.232-0.518,0.297-0.818
		C263.525,67.006,263.559,66.699,263.559,66.391z"/>
	<path d="M272.252,66.069c0,0.191-0.049,0.326-0.146,0.406c-0.096,0.082-0.205,0.121-0.325,0.121h-4.343
		c0,0.365,0.037,0.695,0.108,0.988c0.074,0.293,0.197,0.545,0.369,0.756c0.172,0.209,0.396,0.369,0.67,0.482
		c0.273,0.111,0.609,0.168,1.009,0.168c0.313,0,0.594-0.025,0.84-0.076c0.244-0.053,0.457-0.107,0.636-0.174
		c0.18-0.063,0.327-0.119,0.442-0.172c0.114-0.051,0.2-0.076,0.26-0.076c0.035,0,0.065,0.008,0.093,0.025
		c0.026,0.018,0.049,0.043,0.063,0.076c0.014,0.033,0.024,0.082,0.03,0.145c0.008,0.061,0.013,0.135,0.013,0.223
		c0,0.063-0.003,0.119-0.009,0.164c-0.004,0.049-0.01,0.09-0.02,0.125c-0.006,0.037-0.02,0.07-0.035,0.1
		c-0.018,0.029-0.039,0.059-0.065,0.084c-0.025,0.027-0.104,0.072-0.236,0.133c-0.133,0.061-0.304,0.121-0.515,0.18
		c-0.209,0.061-0.452,0.111-0.729,0.156c-0.275,0.047-0.57,0.07-0.884,0.07c-0.541,0-1.017-0.076-1.424-0.229
		c-0.408-0.15-0.75-0.375-1.029-0.674c-0.276-0.299-0.487-0.672-0.629-1.121c-0.144-0.447-0.213-0.971-0.213-1.564
		c0-0.566,0.071-1.076,0.219-1.527c0.146-0.453,0.357-0.836,0.636-1.15c0.274-0.313,0.608-0.557,1-0.725
		c0.391-0.17,0.826-0.254,1.313-0.254c0.518,0,0.957,0.084,1.32,0.25s0.662,0.389,0.896,0.67c0.234,0.281,0.406,0.609,0.519,0.988
		c0.108,0.379,0.164,0.781,0.164,1.213L272.252,66.069L272.252,66.069z M271.036,65.711c0.016-0.635-0.125-1.133-0.425-1.494
		c-0.297-0.361-0.737-0.543-1.321-0.543c-0.299,0-0.563,0.057-0.789,0.17c-0.226,0.111-0.414,0.262-0.564,0.445
		c-0.152,0.188-0.271,0.4-0.354,0.646c-0.084,0.248-0.131,0.506-0.143,0.771h3.598v0.004H271.036z"/>
	<path d="M278.829,68.647c0,0.084-0.002,0.156-0.006,0.217c-0.007,0.063-0.015,0.111-0.027,0.154
		c-0.012,0.041-0.025,0.078-0.043,0.107c-0.019,0.033-0.058,0.078-0.115,0.141c-0.063,0.061-0.166,0.137-0.313,0.227
		c-0.146,0.092-0.313,0.172-0.496,0.242c-0.182,0.07-0.381,0.129-0.597,0.172c-0.215,0.045-0.438,0.066-0.666,0.066
		c-0.476,0-0.896-0.078-1.26-0.234c-0.367-0.156-0.675-0.385-0.92-0.686c-0.246-0.301-0.437-0.668-0.563-1.105
		c-0.13-0.438-0.193-0.939-0.193-1.512c0-0.65,0.078-1.207,0.238-1.674c0.157-0.467,0.375-0.85,0.649-1.146
		c0.276-0.299,0.603-0.52,0.976-0.662c0.373-0.146,0.776-0.217,1.213-0.217c0.209,0,0.414,0.021,0.61,0.059
		c0.197,0.039,0.38,0.092,0.546,0.154c0.165,0.063,0.313,0.137,0.442,0.219c0.129,0.084,0.226,0.154,0.282,0.213
		s0.099,0.105,0.119,0.141c0.023,0.033,0.041,0.074,0.058,0.121c0.015,0.045,0.022,0.098,0.028,0.156
		c0.004,0.059,0.006,0.133,0.006,0.221c0,0.189-0.02,0.322-0.063,0.398c-0.045,0.074-0.098,0.113-0.161,0.113
		c-0.072,0-0.158-0.041-0.252-0.121c-0.097-0.08-0.218-0.17-0.363-0.27c-0.146-0.098-0.323-0.188-0.53-0.268
		c-0.207-0.082-0.452-0.121-0.735-0.121c-0.58,0-1.025,0.225-1.336,0.672c-0.313,0.445-0.465,1.094-0.465,1.941
		c0,0.426,0.039,0.799,0.12,1.117c0.08,0.32,0.198,0.588,0.354,0.803c0.155,0.215,0.348,0.375,0.573,0.48
		c0.228,0.104,0.486,0.156,0.779,0.156c0.278,0,0.522-0.045,0.731-0.133c0.211-0.088,0.394-0.186,0.547-0.289
		c0.152-0.104,0.281-0.199,0.388-0.285c0.104-0.086,0.188-0.129,0.245-0.129c0.035,0,0.063,0.012,0.089,0.029
		c0.024,0.02,0.045,0.053,0.063,0.1c0.016,0.047,0.027,0.105,0.035,0.176C278.825,68.467,278.829,68.551,278.829,68.647z"/>
	<path d="M283.862,69.168c0,0.143-0.012,0.254-0.029,0.336c-0.02,0.084-0.049,0.145-0.088,0.184s-0.098,0.076-0.176,0.109
		c-0.078,0.035-0.168,0.063-0.27,0.086c-0.102,0.02-0.207,0.039-0.316,0.055c-0.113,0.014-0.227,0.021-0.34,0.021
		c-0.342,0-0.635-0.047-0.879-0.137c-0.242-0.092-0.441-0.229-0.6-0.41c-0.156-0.184-0.271-0.414-0.342-0.695
		c-0.07-0.279-0.105-0.611-0.105-0.992v-3.854h-0.924c-0.071,0-0.131-0.039-0.176-0.115c-0.043-0.078-0.063-0.205-0.063-0.383
		c0-0.092,0.006-0.17,0.019-0.232c0.012-0.064,0.026-0.117,0.047-0.158c0.021-0.041,0.045-0.07,0.078-0.088
		c0.03-0.018,0.065-0.025,0.104-0.025h0.916v-1.566c0-0.033,0.009-0.065,0.025-0.096c0.018-0.028,0.049-0.055,0.096-0.076
		c0.045-0.021,0.107-0.037,0.187-0.049c0.08-0.01,0.177-0.016,0.294-0.016c0.123,0,0.223,0.006,0.301,0.016
		c0.078,0.012,0.139,0.025,0.184,0.049c0.043,0.021,0.076,0.048,0.098,0.076c0.02,0.029,0.027,0.063,0.027,0.096v1.566h1.691
		c0.039,0,0.072,0.008,0.102,0.025c0.031,0.018,0.057,0.047,0.078,0.088s0.037,0.094,0.047,0.158
		c0.012,0.063,0.018,0.141,0.018,0.232c0,0.178-0.023,0.305-0.066,0.383c-0.045,0.076-0.104,0.115-0.176,0.115h-1.691v3.678
		c0,0.453,0.066,0.797,0.201,1.029c0.133,0.23,0.375,0.348,0.721,0.348c0.113,0,0.215-0.012,0.303-0.033s0.166-0.045,0.232-0.068
		c0.068-0.023,0.127-0.049,0.178-0.068c0.049-0.021,0.092-0.033,0.131-0.033c0.023,0,0.049,0.006,0.068,0.02
		c0.021,0.012,0.039,0.035,0.053,0.068c0.012,0.035,0.021,0.08,0.031,0.141C283.858,69.008,283.862,69.08,283.862,69.168z"/>
	<path d="M287.053,68.787c0,0.15-0.006,0.289-0.02,0.416c-0.016,0.127-0.039,0.248-0.072,0.357c-0.035,0.113-0.08,0.225-0.137,0.334
		c-0.059,0.109-0.125,0.227-0.209,0.35l-1.002,1.508c-0.025,0.035-0.055,0.063-0.084,0.09c-0.033,0.023-0.072,0.045-0.117,0.064
		c-0.047,0.02-0.104,0.031-0.162,0.041c-0.061,0.006-0.139,0.01-0.23,0.01c-0.082,0-0.15-0.004-0.209-0.01
		c-0.057-0.01-0.096-0.021-0.119-0.037c-0.023-0.018-0.037-0.041-0.039-0.068c-0.004-0.029,0.006-0.064,0.023-0.104l0.975-2.016
		v-0.938c0-0.133,0.014-0.236,0.041-0.314c0.025-0.078,0.068-0.137,0.129-0.176c0.059-0.039,0.131-0.064,0.219-0.08
		s0.195-0.021,0.322-0.021c0.123,0,0.227,0.008,0.313,0.021c0.088,0.016,0.16,0.041,0.217,0.08c0.059,0.039,0.1,0.098,0.125,0.176
		C287.042,68.551,287.053,68.655,287.053,68.787z"/>
	<path d="M298.215,66.069c0,0.191-0.047,0.326-0.143,0.406c-0.098,0.082-0.205,0.121-0.328,0.121h-4.34
		c0,0.365,0.035,0.695,0.107,0.988c0.074,0.293,0.197,0.545,0.369,0.756c0.17,0.209,0.396,0.369,0.668,0.482
		c0.275,0.111,0.611,0.168,1.01,0.168c0.313,0,0.596-0.025,0.84-0.076c0.244-0.053,0.459-0.107,0.637-0.174
		c0.18-0.063,0.326-0.119,0.439-0.172c0.115-0.051,0.203-0.076,0.264-0.076c0.035,0,0.063,0.008,0.092,0.025
		c0.027,0.016,0.049,0.043,0.063,0.076c0.016,0.033,0.025,0.082,0.031,0.145c0.008,0.061,0.012,0.135,0.012,0.223
		c0,0.063-0.002,0.119-0.008,0.164c-0.004,0.049-0.01,0.09-0.018,0.125c-0.008,0.037-0.021,0.07-0.037,0.1
		c-0.016,0.031-0.039,0.059-0.066,0.084c-0.023,0.027-0.104,0.072-0.234,0.133c-0.133,0.061-0.305,0.121-0.516,0.18
		c-0.209,0.061-0.451,0.111-0.729,0.156c-0.275,0.047-0.57,0.07-0.883,0.07c-0.541,0-1.02-0.076-1.424-0.229
		c-0.408-0.15-0.754-0.375-1.029-0.674c-0.279-0.299-0.488-0.672-0.631-1.121c-0.143-0.447-0.211-0.971-0.211-1.564
		c0-0.566,0.07-1.076,0.219-1.527c0.146-0.453,0.355-0.836,0.633-1.15c0.277-0.313,0.609-0.557,1-0.725
		c0.391-0.17,0.828-0.254,1.313-0.254c0.52,0,0.959,0.084,1.32,0.25c0.365,0.166,0.664,0.389,0.898,0.67
		c0.232,0.281,0.406,0.609,0.516,0.988s0.166,0.781,0.166,1.213V66.069L298.215,66.069z M297,65.711
		c0.014-0.635-0.127-1.133-0.424-1.494s-0.738-0.543-1.322-0.543c-0.301,0-0.563,0.057-0.789,0.17
		c-0.227,0.111-0.416,0.262-0.566,0.445c-0.152,0.188-0.271,0.4-0.354,0.646c-0.084,0.248-0.131,0.506-0.141,0.771H297V65.711
		L297,65.711z"/>
	<path d="M305.702,69.651c0,0.039-0.008,0.074-0.025,0.104s-0.047,0.053-0.088,0.068c-0.041,0.018-0.096,0.029-0.164,0.041
		c-0.066,0.01-0.15,0.014-0.25,0.014c-0.102,0-0.188-0.004-0.256-0.014c-0.068-0.012-0.125-0.023-0.168-0.041
		c-0.045-0.018-0.076-0.039-0.096-0.068c-0.021-0.029-0.029-0.063-0.029-0.104V68.78c-0.348,0.375-0.707,0.668-1.08,0.879
		c-0.373,0.209-0.783,0.314-1.227,0.314c-0.484,0-0.896-0.096-1.238-0.281c-0.342-0.189-0.619-0.443-0.832-0.762
		c-0.211-0.32-0.367-0.697-0.465-1.129c-0.1-0.434-0.146-0.889-0.146-1.365c0-0.566,0.063-1.078,0.186-1.535
		c0.121-0.457,0.303-0.846,0.541-1.168c0.24-0.322,0.537-0.57,0.891-0.744c0.355-0.172,0.764-0.26,1.229-0.26
		c0.387,0,0.736,0.084,1.059,0.254c0.32,0.168,0.637,0.416,0.949,0.742v-3.831c0-0.032,0.008-0.065,0.023-0.1
		c0.018-0.03,0.051-0.057,0.1-0.072c0.049-0.018,0.109-0.031,0.188-0.044c0.076-0.013,0.172-0.021,0.289-0.021
		c0.123,0,0.225,0.008,0.301,0.021c0.078,0.013,0.141,0.026,0.186,0.044c0.043,0.019,0.076,0.042,0.098,0.072
		c0.023,0.031,0.033,0.064,0.033,0.1v9.756H305.702z M304.487,65.016c-0.328-0.406-0.646-0.715-0.949-0.928
		c-0.305-0.213-0.623-0.318-0.955-0.318c-0.309,0-0.57,0.074-0.785,0.221s-0.389,0.34-0.521,0.578
		c-0.135,0.24-0.232,0.51-0.293,0.814c-0.063,0.303-0.094,0.609-0.094,0.922c0,0.332,0.027,0.656,0.078,0.975
		c0.053,0.318,0.143,0.602,0.27,0.846c0.127,0.246,0.295,0.445,0.504,0.596c0.211,0.146,0.475,0.223,0.791,0.223
		c0.162,0,0.314-0.02,0.467-0.064c0.146-0.045,0.301-0.115,0.457-0.221c0.156-0.102,0.32-0.234,0.49-0.396
		c0.172-0.164,0.352-0.365,0.543-0.605L304.487,65.016L304.487,65.016z"/>
	<path d="M309.284,60.832c0,0.283-0.055,0.478-0.162,0.578c-0.107,0.104-0.305,0.153-0.592,0.153c-0.283,0-0.48-0.05-0.582-0.149
		c-0.105-0.101-0.158-0.289-0.158-0.565c0-0.283,0.053-0.478,0.16-0.579c0.105-0.104,0.307-0.153,0.594-0.153
		c0.283,0,0.479,0.051,0.582,0.149C309.231,60.366,309.284,60.555,309.284,60.832z M309.143,69.651c0,0.039-0.01,0.072-0.027,0.1
		c-0.021,0.025-0.051,0.051-0.096,0.068c-0.045,0.021-0.104,0.035-0.184,0.045s-0.178,0.014-0.301,0.014
		c-0.117,0-0.215-0.004-0.293-0.014s-0.143-0.023-0.189-0.045c-0.045-0.02-0.078-0.043-0.094-0.068
		c-0.018-0.025-0.025-0.061-0.025-0.1v-6.592c0-0.033,0.01-0.066,0.025-0.096s0.049-0.055,0.094-0.072
		c0.047-0.02,0.109-0.035,0.189-0.045s0.176-0.016,0.293-0.016c0.123,0,0.223,0.006,0.301,0.016s0.139,0.023,0.184,0.045
		c0.045,0.02,0.074,0.043,0.096,0.072c0.02,0.029,0.027,0.063,0.027,0.096V69.651z"/>
	<path d="M314.805,69.168c0,0.143-0.01,0.254-0.027,0.336c-0.021,0.084-0.051,0.145-0.088,0.184c-0.039,0.039-0.1,0.076-0.178,0.109
		c-0.078,0.035-0.168,0.063-0.268,0.086c-0.102,0.02-0.205,0.039-0.318,0.055c-0.109,0.014-0.225,0.021-0.336,0.021
		c-0.342,0-0.635-0.047-0.879-0.137c-0.244-0.092-0.445-0.229-0.602-0.41c-0.156-0.184-0.271-0.414-0.342-0.695
		c-0.07-0.279-0.105-0.611-0.105-0.992v-3.854h-0.922c-0.074,0-0.133-0.039-0.176-0.115c-0.045-0.078-0.066-0.205-0.066-0.383
		c0-0.092,0.006-0.17,0.018-0.232c0.016-0.064,0.029-0.117,0.051-0.158c0.02-0.041,0.045-0.07,0.074-0.088
		c0.031-0.018,0.068-0.025,0.107-0.025h0.914v-1.566c0-0.033,0.01-0.065,0.025-0.096c0.016-0.029,0.049-0.055,0.096-0.076
		s0.107-0.037,0.188-0.049c0.078-0.01,0.178-0.016,0.293-0.016c0.121,0,0.225,0.006,0.303,0.016
		c0.076,0.012,0.139,0.025,0.182,0.049c0.045,0.022,0.076,0.048,0.096,0.076c0.021,0.029,0.029,0.063,0.029,0.096v1.566h1.691
		c0.039,0,0.072,0.008,0.104,0.025c0.029,0.018,0.055,0.047,0.076,0.088s0.039,0.094,0.049,0.158
		c0.01,0.063,0.014,0.141,0.014,0.232c0,0.178-0.021,0.305-0.064,0.383c-0.043,0.076-0.104,0.115-0.176,0.115h-1.691v3.678
		c0,0.453,0.066,0.797,0.201,1.029c0.135,0.23,0.375,0.348,0.723,0.348c0.111,0,0.211-0.012,0.299-0.033
		c0.09-0.021,0.166-0.045,0.234-0.068s0.127-0.049,0.176-0.068c0.049-0.021,0.094-0.033,0.133-0.033c0.023,0,0.049,0.006,0.068,0.02
		c0.023,0.012,0.039,0.035,0.053,0.068c0.014,0.035,0.023,0.08,0.033,0.141C314.803,69.008,314.805,69.08,314.805,69.168z"/>
	<path d="M324.758,69.658c0,0.061-0.02,0.104-0.059,0.131c-0.039,0.029-0.092,0.055-0.16,0.066
		c-0.068,0.016-0.168,0.021-0.301,0.021c-0.127,0-0.23-0.008-0.305-0.021s-0.131-0.037-0.166-0.066
		c-0.031-0.027-0.051-0.07-0.051-0.131v-0.66c-0.289,0.311-0.607,0.549-0.963,0.721c-0.354,0.17-0.729,0.256-1.125,0.256
		c-0.346,0-0.66-0.045-0.939-0.135c-0.281-0.094-0.521-0.223-0.719-0.395c-0.195-0.17-0.352-0.381-0.461-0.629
		c-0.109-0.25-0.166-0.533-0.166-0.85c0-0.371,0.076-0.693,0.229-0.969c0.15-0.273,0.369-0.5,0.65-0.682
		c0.283-0.182,0.633-0.316,1.041-0.406c0.41-0.09,0.871-0.137,1.385-0.137h0.906v-0.512c0-0.254-0.023-0.48-0.08-0.676
		c-0.053-0.193-0.141-0.355-0.26-0.486c-0.119-0.129-0.273-0.229-0.465-0.293c-0.189-0.064-0.426-0.1-0.703-0.1
		c-0.299,0-0.564,0.035-0.803,0.105c-0.236,0.07-0.443,0.148-0.621,0.234c-0.18,0.086-0.328,0.162-0.447,0.234
		c-0.121,0.068-0.209,0.105-0.268,0.105c-0.039,0-0.074-0.012-0.105-0.029c-0.027-0.02-0.055-0.049-0.076-0.088
		s-0.035-0.09-0.047-0.15c-0.01-0.063-0.016-0.129-0.016-0.201c0-0.121,0.008-0.219,0.025-0.289s0.059-0.139,0.125-0.201
		c0.064-0.063,0.18-0.139,0.34-0.225c0.162-0.084,0.348-0.162,0.557-0.232c0.211-0.07,0.439-0.129,0.689-0.178
		c0.248-0.045,0.5-0.068,0.754-0.068c0.475,0,0.877,0.055,1.209,0.162c0.332,0.105,0.6,0.264,0.805,0.473
		c0.205,0.207,0.355,0.465,0.447,0.771c0.094,0.309,0.139,0.668,0.139,1.076v4.449h0.004V69.658z M323.557,66.649h-1.029
		c-0.332,0-0.621,0.027-0.865,0.084c-0.244,0.055-0.447,0.139-0.607,0.248s-0.277,0.242-0.354,0.396
		c-0.076,0.152-0.113,0.33-0.113,0.531c0,0.342,0.107,0.611,0.326,0.814c0.217,0.203,0.52,0.305,0.912,0.305
		c0.314,0,0.609-0.08,0.883-0.24c0.27-0.162,0.555-0.408,0.852-0.74v-1.398H323.557z"/>
	<path d="M332.655,69.651c0,0.039-0.01,0.072-0.029,0.1c-0.02,0.025-0.051,0.051-0.096,0.068c-0.043,0.021-0.104,0.035-0.184,0.045
		s-0.176,0.014-0.293,0.014c-0.123,0-0.223-0.004-0.301-0.014s-0.139-0.023-0.184-0.045c-0.043-0.02-0.076-0.043-0.098-0.068
		c-0.02-0.025-0.027-0.061-0.027-0.1v-3.859c0-0.377-0.029-0.68-0.088-0.906c-0.061-0.23-0.145-0.43-0.258-0.596
		c-0.109-0.166-0.258-0.293-0.436-0.381s-0.385-0.131-0.619-0.131c-0.303,0-0.604,0.107-0.908,0.322
		c-0.303,0.215-0.619,0.527-0.951,0.943v4.605c0,0.039-0.01,0.072-0.027,0.1c-0.021,0.025-0.053,0.051-0.096,0.07
		c-0.047,0.02-0.105,0.033-0.186,0.043s-0.178,0.016-0.301,0.016c-0.117,0-0.215-0.006-0.293-0.016s-0.143-0.023-0.188-0.043
		c-0.047-0.021-0.076-0.045-0.096-0.07c-0.018-0.025-0.025-0.061-0.025-0.1v-6.592c0-0.039,0.01-0.07,0.021-0.102
		c0.016-0.023,0.045-0.051,0.088-0.07c0.045-0.021,0.102-0.037,0.168-0.045c0.068-0.008,0.16-0.012,0.271-0.012
		c0.105,0,0.195,0.004,0.268,0.012c0.07,0.008,0.125,0.021,0.164,0.045c0.039,0.021,0.068,0.047,0.086,0.07
		c0.016,0.027,0.025,0.063,0.025,0.102v0.871c0.371-0.414,0.738-0.721,1.107-0.912c0.367-0.191,0.74-0.289,1.117-0.289
		c0.439,0,0.811,0.074,1.109,0.225c0.301,0.148,0.543,0.35,0.729,0.598c0.186,0.25,0.318,0.541,0.398,0.875
		c0.08,0.336,0.121,0.736,0.121,1.205v4.021H332.655z"/>
	<path d="M340.506,69.651c0,0.039-0.01,0.074-0.023,0.104c-0.02,0.029-0.049,0.053-0.09,0.068c-0.043,0.018-0.098,0.029-0.164,0.041
		c-0.068,0.01-0.15,0.014-0.25,0.014c-0.104,0-0.188-0.004-0.256-0.014c-0.066-0.012-0.125-0.023-0.17-0.041
		c-0.043-0.018-0.074-0.039-0.094-0.068s-0.029-0.063-0.029-0.104V68.78c-0.348,0.375-0.707,0.668-1.082,0.879
		c-0.373,0.209-0.779,0.314-1.227,0.314c-0.482,0-0.896-0.096-1.236-0.281c-0.342-0.189-0.619-0.443-0.832-0.762
		c-0.213-0.32-0.367-0.697-0.465-1.129c-0.098-0.434-0.146-0.889-0.146-1.365c0-0.566,0.061-1.078,0.184-1.535
		c0.121-0.457,0.303-0.846,0.541-1.168c0.24-0.322,0.537-0.57,0.891-0.744c0.355-0.172,0.766-0.26,1.229-0.26
		c0.387,0,0.738,0.084,1.059,0.254c0.32,0.168,0.637,0.416,0.949,0.742v-3.831c0-0.032,0.008-0.065,0.025-0.1
		c0.016-0.03,0.049-0.057,0.098-0.072c0.049-0.017,0.111-0.031,0.189-0.044c0.074-0.013,0.172-0.021,0.287-0.021
		c0.123,0,0.225,0.008,0.303,0.021s0.139,0.026,0.184,0.044c0.043,0.019,0.076,0.042,0.098,0.072c0.023,0.031,0.033,0.064,0.033,0.1
		v9.756H340.506z M339.292,65.016c-0.328-0.406-0.645-0.715-0.949-0.928s-0.623-0.318-0.955-0.318c-0.309,0-0.568,0.074-0.783,0.221
		c-0.217,0.146-0.391,0.34-0.523,0.578c-0.133,0.24-0.232,0.51-0.293,0.814c-0.063,0.303-0.092,0.609-0.092,0.922
		c0,0.332,0.025,0.656,0.078,0.975c0.051,0.318,0.141,0.602,0.268,0.846c0.127,0.246,0.295,0.445,0.504,0.596
		c0.211,0.146,0.477,0.223,0.791,0.223c0.162,0,0.316-0.02,0.467-0.064c0.148-0.045,0.303-0.115,0.457-0.221
		c0.156-0.102,0.32-0.234,0.49-0.396c0.172-0.164,0.352-0.365,0.543-0.605L339.292,65.016L339.292,65.016z"/>
</g>
<g enable-background="new    ">
	<path d="M246.624,81.045c0,0.02,0,0.039-0.002,0.063c-0.004,0.021-0.008,0.045-0.013,0.068c-0.006,0.025-0.012,0.053-0.019,0.082
		c-0.008,0.027-0.018,0.061-0.026,0.094l-2.248,6.264c-0.021,0.053-0.045,0.1-0.075,0.131c-0.033,0.035-0.08,0.064-0.144,0.08
		c-0.063,0.021-0.146,0.033-0.242,0.041c-0.099,0.008-0.222,0.014-0.366,0.014s-0.269-0.008-0.365-0.018
		c-0.098-0.01-0.179-0.021-0.238-0.043c-0.061-0.02-0.107-0.047-0.143-0.082c-0.035-0.033-0.062-0.074-0.08-0.123l-2.242-6.264
		c-0.021-0.059-0.035-0.109-0.047-0.152c-0.015-0.045-0.021-0.078-0.021-0.1c-0.004-0.021-0.004-0.041-0.004-0.055
		c0-0.039,0.01-0.074,0.029-0.104c0.019-0.031,0.053-0.053,0.098-0.07c0.047-0.016,0.107-0.025,0.186-0.029
		c0.076-0.008,0.17-0.01,0.281-0.01c0.143,0,0.256,0.004,0.342,0.012c0.084,0.008,0.148,0.021,0.195,0.041s0.08,0.045,0.104,0.072
		c0.021,0.029,0.043,0.064,0.063,0.109l1.859,5.434l0.029,0.09l0.021-0.09l1.84-5.434c0.01-0.045,0.025-0.08,0.051-0.109
		c0.023-0.027,0.061-0.055,0.105-0.072c0.047-0.021,0.109-0.033,0.191-0.041c0.08-0.008,0.186-0.012,0.317-0.012
		c0.11,0,0.205,0.002,0.276,0.01c0.074,0.004,0.132,0.016,0.172,0.033c0.041,0.021,0.07,0.043,0.089,0.07
		S246.624,81.006,246.624,81.045z"/>
	<path d="M252.741,87.658c0,0.061-0.021,0.104-0.06,0.131c-0.039,0.029-0.095,0.055-0.162,0.066
		c-0.067,0.016-0.168,0.021-0.299,0.021c-0.128,0-0.229-0.008-0.306-0.021s-0.131-0.037-0.164-0.066
		c-0.035-0.027-0.053-0.07-0.053-0.131v-0.66c-0.287,0.311-0.609,0.549-0.963,0.721c-0.354,0.17-0.729,0.256-1.124,0.256
		c-0.347,0-0.661-0.045-0.94-0.135c-0.28-0.094-0.521-0.223-0.719-0.395c-0.197-0.17-0.352-0.381-0.461-0.629
		c-0.109-0.25-0.164-0.533-0.164-0.85c0-0.371,0.074-0.693,0.228-0.969c0.149-0.271,0.368-0.5,0.651-0.682
		c0.282-0.182,0.629-0.316,1.039-0.406s0.871-0.137,1.385-0.137h0.908v-0.512c0-0.254-0.026-0.48-0.08-0.676
		c-0.055-0.193-0.143-0.355-0.26-0.486c-0.121-0.129-0.275-0.229-0.467-0.293c-0.189-0.064-0.424-0.1-0.703-0.1
		c-0.297,0-0.564,0.035-0.803,0.105c-0.236,0.07-0.443,0.148-0.621,0.234c-0.18,0.086-0.328,0.162-0.447,0.234
		c-0.119,0.068-0.209,0.105-0.268,0.105c-0.039,0-0.072-0.012-0.104-0.029c-0.029-0.02-0.056-0.049-0.076-0.088
		c-0.021-0.039-0.039-0.09-0.049-0.15c-0.011-0.063-0.015-0.129-0.015-0.201c0-0.121,0.009-0.219,0.024-0.289
		c0.017-0.07,0.06-0.139,0.125-0.201c0.064-0.063,0.179-0.139,0.34-0.225c0.16-0.084,0.347-0.162,0.559-0.232
		c0.209-0.07,0.438-0.129,0.688-0.178c0.25-0.045,0.502-0.068,0.756-0.068c0.475,0,0.877,0.055,1.209,0.162
		c0.332,0.105,0.602,0.264,0.807,0.473c0.205,0.207,0.354,0.465,0.445,0.771c0.091,0.307,0.141,0.668,0.141,1.076L252.741,87.658
		L252.741,87.658z M251.54,84.649h-1.033c-0.332,0-0.619,0.027-0.863,0.084c-0.244,0.055-0.445,0.139-0.607,0.248
		c-0.16,0.109-0.279,0.242-0.354,0.396c-0.076,0.152-0.115,0.33-0.115,0.531c0,0.342,0.109,0.611,0.326,0.814
		s0.521,0.305,0.912,0.305c0.316,0,0.611-0.08,0.883-0.24c0.271-0.162,0.557-0.408,0.854-0.74v-1.398H251.54z"/>
	<path d="M256.168,87.651c0,0.039-0.01,0.072-0.029,0.1c-0.02,0.025-0.053,0.051-0.096,0.068c-0.045,0.021-0.105,0.035-0.185,0.045
		s-0.178,0.014-0.301,0.014c-0.117,0-0.215-0.004-0.293-0.014s-0.142-0.023-0.187-0.045c-0.047-0.02-0.078-0.043-0.098-0.068
		c-0.018-0.025-0.023-0.061-0.023-0.1v-9.785c0-0.039,0.008-0.072,0.023-0.102c0.018-0.031,0.051-0.055,0.098-0.074
		c0.045-0.02,0.107-0.033,0.187-0.043c0.08-0.01,0.176-0.016,0.293-0.016c0.123,0,0.224,0.006,0.301,0.016
		c0.078,0.01,0.14,0.023,0.185,0.043c0.043,0.02,0.076,0.045,0.096,0.074c0.021,0.027,0.029,0.063,0.029,0.102V87.651z"/>
	<path d="M259.749,78.832c0,0.283-0.054,0.477-0.16,0.578c-0.107,0.104-0.305,0.152-0.594,0.152c-0.283,0-0.478-0.049-0.582-0.148
		c-0.105-0.102-0.158-0.289-0.158-0.566c0-0.283,0.055-0.477,0.162-0.578c0.106-0.104,0.305-0.154,0.594-0.154
		c0.283,0,0.477,0.051,0.582,0.15S259.749,78.555,259.749,78.832z M259.609,87.651c0,0.039-0.01,0.072-0.028,0.1
		c-0.021,0.025-0.051,0.051-0.095,0.068c-0.045,0.021-0.104,0.035-0.185,0.045c-0.077,0.01-0.178,0.014-0.301,0.014
		c-0.117,0-0.215-0.004-0.293-0.014s-0.141-0.023-0.188-0.045c-0.047-0.02-0.078-0.043-0.094-0.068
		c-0.02-0.025-0.027-0.061-0.027-0.1v-6.592c0-0.033,0.01-0.066,0.027-0.096c0.016-0.029,0.047-0.055,0.094-0.072
		c0.047-0.021,0.107-0.035,0.188-0.045s0.176-0.016,0.293-0.016c0.123,0,0.224,0.006,0.301,0.016c0.078,0.01,0.14,0.023,0.185,0.045
		c0.044,0.02,0.074,0.043,0.095,0.072c0.021,0.029,0.028,0.063,0.028,0.096V87.651z"/>
	<path d="M267.491,87.651c0,0.039-0.009,0.074-0.025,0.104c-0.016,0.029-0.047,0.053-0.088,0.068
		c-0.041,0.018-0.096,0.029-0.164,0.041c-0.066,0.01-0.15,0.014-0.25,0.014c-0.103,0-0.188-0.004-0.256-0.014
		c-0.066-0.012-0.125-0.023-0.168-0.041c-0.045-0.018-0.076-0.039-0.097-0.068s-0.028-0.063-0.028-0.104V86.78
		c-0.347,0.375-0.707,0.668-1.08,0.879c-0.373,0.209-0.781,0.314-1.228,0.314c-0.483,0-0.896-0.096-1.237-0.281
		c-0.343-0.189-0.619-0.443-0.832-0.762c-0.211-0.32-0.367-0.697-0.465-1.129c-0.099-0.434-0.146-0.889-0.146-1.365
		c0-0.566,0.062-1.078,0.184-1.535c0.121-0.457,0.304-0.846,0.541-1.168c0.24-0.322,0.537-0.57,0.892-0.744
		c0.354-0.172,0.764-0.26,1.227-0.26c0.389,0,0.738,0.084,1.061,0.254c0.318,0.168,0.637,0.416,0.947,0.742v-3.83
		c0-0.033,0.01-0.066,0.025-0.1c0.018-0.031,0.051-0.057,0.1-0.072c0.049-0.018,0.109-0.031,0.188-0.045
		c0.076-0.012,0.173-0.02,0.289-0.02c0.123,0,0.224,0.008,0.302,0.02c0.077,0.014,0.139,0.027,0.185,0.045
		c0.043,0.018,0.075,0.041,0.098,0.072s0.033,0.064,0.033,0.1v9.756H267.491z M266.275,83.016c-0.327-0.406-0.646-0.715-0.948-0.928
		c-0.306-0.213-0.623-0.318-0.955-0.318c-0.31,0-0.568,0.074-0.783,0.221s-0.391,0.34-0.523,0.578
		c-0.135,0.24-0.23,0.51-0.293,0.814c-0.063,0.303-0.092,0.609-0.092,0.922c0,0.332,0.025,0.656,0.076,0.975
		c0.053,0.318,0.143,0.602,0.27,0.846c0.127,0.246,0.295,0.445,0.506,0.596c0.209,0.148,0.473,0.223,0.789,0.223
		c0.162,0,0.316-0.02,0.467-0.064c0.148-0.045,0.301-0.115,0.457-0.221c0.156-0.102,0.32-0.234,0.49-0.396
		c0.172-0.164,0.352-0.365,0.543-0.605v-2.639h-0.003V83.016z"/>
	<path d="M274.691,87.658c0,0.061-0.021,0.104-0.06,0.131c-0.039,0.029-0.094,0.055-0.161,0.066
		c-0.068,0.016-0.169,0.021-0.302,0.021c-0.127,0-0.229-0.008-0.303-0.021c-0.076-0.014-0.131-0.037-0.166-0.066
		c-0.033-0.027-0.051-0.07-0.051-0.131v-0.66c-0.289,0.311-0.609,0.549-0.963,0.721c-0.354,0.17-0.729,0.256-1.125,0.256
		c-0.348,0-0.66-0.045-0.941-0.135c-0.279-0.094-0.52-0.223-0.717-0.395c-0.197-0.17-0.354-0.381-0.461-0.629
		c-0.111-0.25-0.166-0.533-0.166-0.85c0-0.371,0.076-0.693,0.229-0.969c0.152-0.273,0.367-0.5,0.65-0.682s0.631-0.316,1.041-0.406
		s0.871-0.137,1.385-0.137h0.906v-0.512c0-0.254-0.025-0.48-0.08-0.676c-0.053-0.193-0.141-0.355-0.26-0.486
		c-0.119-0.129-0.273-0.229-0.465-0.293s-0.426-0.1-0.703-0.1c-0.299,0-0.564,0.035-0.805,0.105
		c-0.234,0.07-0.441,0.148-0.619,0.234c-0.182,0.086-0.328,0.162-0.447,0.234c-0.121,0.068-0.209,0.105-0.27,0.105
		c-0.039,0-0.072-0.012-0.103-0.029c-0.03-0.02-0.057-0.049-0.077-0.088c-0.02-0.039-0.037-0.09-0.048-0.15
		c-0.01-0.063-0.016-0.129-0.016-0.201c0-0.121,0.01-0.219,0.024-0.289c0.019-0.07,0.06-0.139,0.125-0.201
		c0.066-0.063,0.18-0.139,0.342-0.225c0.16-0.084,0.347-0.162,0.558-0.232c0.209-0.07,0.438-0.129,0.688-0.178
		c0.248-0.045,0.5-0.068,0.754-0.068c0.475,0,0.877,0.055,1.209,0.162c0.332,0.105,0.602,0.264,0.807,0.473
		c0.205,0.207,0.354,0.465,0.445,0.771c0.094,0.309,0.141,0.668,0.141,1.076v4.449h0.003V87.658z M273.491,84.649h-1.033
		c-0.332,0-0.621,0.027-0.865,0.084c-0.242,0.055-0.445,0.139-0.605,0.248s-0.279,0.242-0.355,0.396
		c-0.075,0.152-0.112,0.33-0.112,0.531c0,0.342,0.108,0.611,0.326,0.814c0.217,0.203,0.521,0.305,0.911,0.305
		c0.316,0,0.611-0.08,0.884-0.24c0.271-0.162,0.555-0.408,0.854-0.74v-1.398H273.491z"/>
	<path d="M280.2,87.168c0,0.143-0.011,0.254-0.029,0.336c-0.021,0.084-0.049,0.145-0.088,0.184s-0.099,0.076-0.176,0.109
		c-0.078,0.035-0.168,0.063-0.269,0.086c-0.103,0.02-0.207,0.039-0.318,0.055c-0.112,0.014-0.225,0.021-0.338,0.021
		c-0.342,0-0.635-0.047-0.879-0.137c-0.244-0.092-0.442-0.229-0.601-0.41c-0.155-0.184-0.271-0.414-0.342-0.695
		c-0.07-0.279-0.104-0.611-0.104-0.992v-3.854h-0.925c-0.071,0-0.131-0.039-0.176-0.115c-0.043-0.078-0.063-0.205-0.063-0.383
		c0-0.092,0.006-0.17,0.019-0.232c0.012-0.064,0.026-0.117,0.047-0.158c0.021-0.041,0.045-0.07,0.078-0.088
		c0.03-0.018,0.065-0.025,0.104-0.025h0.916v-1.566c0-0.033,0.008-0.064,0.024-0.096c0.018-0.029,0.049-0.055,0.096-0.076
		c0.046-0.021,0.107-0.037,0.187-0.049c0.08-0.01,0.177-0.016,0.294-0.016c0.122,0,0.223,0.006,0.301,0.016
		c0.078,0.012,0.141,0.025,0.186,0.049c0.043,0.021,0.074,0.049,0.094,0.076c0.021,0.029,0.029,0.063,0.029,0.096v1.566h1.691
		c0.039,0,0.071,0.008,0.104,0.025c0.027,0.018,0.055,0.047,0.076,0.088s0.037,0.094,0.049,0.158
		c0.01,0.063,0.016,0.141,0.016,0.232c0,0.178-0.023,0.305-0.066,0.383c-0.045,0.076-0.104,0.115-0.176,0.115h-1.69v3.678
		c0,0.453,0.065,0.797,0.2,1.029c0.134,0.23,0.375,0.348,0.722,0.348c0.112,0,0.213-0.012,0.302-0.033
		c0.088-0.021,0.166-0.045,0.233-0.068s0.127-0.049,0.176-0.068c0.05-0.021,0.093-0.033,0.132-0.033c0.024,0,0.049,0.006,0.069,0.02
		c0.021,0.012,0.039,0.035,0.051,0.068c0.013,0.035,0.022,0.08,0.033,0.141C280.195,87.008,280.2,87.08,280.2,87.168z"/>
	<path d="M287.258,84.069c0,0.191-0.047,0.326-0.143,0.406c-0.098,0.082-0.205,0.121-0.328,0.121h-4.34
		c0,0.365,0.035,0.695,0.107,0.988c0.074,0.293,0.197,0.545,0.369,0.756c0.17,0.209,0.396,0.369,0.668,0.482
		c0.275,0.111,0.611,0.168,1.01,0.168c0.313,0,0.596-0.025,0.84-0.076c0.244-0.053,0.459-0.107,0.637-0.174
		c0.18-0.063,0.326-0.119,0.439-0.172c0.115-0.051,0.203-0.076,0.264-0.076c0.035,0,0.063,0.008,0.092,0.025
		c0.027,0.016,0.049,0.043,0.063,0.076c0.016,0.033,0.025,0.082,0.031,0.145c0.008,0.061,0.014,0.135,0.014,0.223
		c0,0.063-0.004,0.119-0.01,0.164c-0.004,0.049-0.01,0.09-0.018,0.125c-0.008,0.037-0.021,0.07-0.037,0.1
		c-0.016,0.031-0.039,0.059-0.066,0.084c-0.023,0.027-0.104,0.072-0.234,0.133c-0.133,0.061-0.305,0.121-0.516,0.18
		c-0.209,0.061-0.451,0.111-0.729,0.156c-0.275,0.047-0.57,0.07-0.883,0.07c-0.541,0-1.02-0.076-1.424-0.229
		c-0.408-0.15-0.754-0.375-1.029-0.674c-0.279-0.299-0.488-0.672-0.631-1.121c-0.143-0.447-0.212-0.971-0.212-1.564
		c0-0.566,0.071-1.076,0.22-1.527c0.146-0.453,0.355-0.836,0.633-1.15c0.277-0.313,0.609-0.557,1-0.725
		c0.391-0.17,0.828-0.254,1.314-0.254c0.518,0,0.957,0.084,1.318,0.25c0.365,0.166,0.664,0.389,0.898,0.67
		c0.232,0.281,0.406,0.609,0.516,0.988s0.166,0.781,0.166,1.213V84.069L287.258,84.069z M286.043,83.711
		c0.014-0.635-0.127-1.133-0.424-1.494s-0.738-0.543-1.322-0.543c-0.301,0-0.563,0.057-0.789,0.17
		c-0.227,0.111-0.416,0.262-0.566,0.445c-0.152,0.188-0.271,0.4-0.354,0.646c-0.084,0.248-0.131,0.506-0.141,0.771h3.596V83.711
		L286.043,83.711z"/>
	<path d="M297.227,86.647c0,0.084-0.002,0.156-0.008,0.217c-0.004,0.063-0.014,0.111-0.023,0.154
		c-0.014,0.041-0.027,0.078-0.043,0.107c-0.02,0.033-0.059,0.078-0.117,0.141c-0.064,0.061-0.166,0.137-0.314,0.227
		c-0.145,0.092-0.311,0.172-0.494,0.242c-0.182,0.07-0.381,0.129-0.596,0.172c-0.215,0.045-0.438,0.066-0.668,0.066
		c-0.473,0-0.893-0.078-1.26-0.234c-0.365-0.156-0.672-0.385-0.918-0.686c-0.248-0.301-0.438-0.668-0.564-1.105
		c-0.129-0.438-0.191-0.939-0.191-1.512c0-0.65,0.078-1.207,0.236-1.674s0.375-0.85,0.65-1.146c0.275-0.299,0.602-0.52,0.975-0.662
		c0.373-0.146,0.777-0.217,1.215-0.217c0.209,0,0.412,0.021,0.609,0.059c0.197,0.039,0.379,0.092,0.545,0.154
		s0.314,0.137,0.443,0.219c0.129,0.084,0.223,0.154,0.281,0.213s0.1,0.105,0.121,0.141c0.021,0.033,0.041,0.074,0.055,0.121
		c0.016,0.045,0.023,0.098,0.029,0.156s0.008,0.133,0.008,0.221c0,0.189-0.021,0.322-0.066,0.398
		c-0.043,0.074-0.098,0.113-0.16,0.113c-0.072,0-0.156-0.041-0.252-0.121s-0.217-0.17-0.361-0.27
		c-0.146-0.098-0.324-0.188-0.531-0.268c-0.207-0.082-0.453-0.121-0.736-0.121c-0.58,0-1.025,0.225-1.336,0.672
		c-0.311,0.445-0.465,1.094-0.465,1.941c0,0.426,0.039,0.799,0.121,1.117c0.08,0.32,0.197,0.588,0.354,0.803s0.35,0.375,0.574,0.48
		c0.229,0.104,0.486,0.156,0.779,0.156c0.279,0,0.521-0.045,0.73-0.133c0.211-0.088,0.395-0.186,0.549-0.289
		c0.15-0.104,0.281-0.199,0.387-0.285c0.104-0.086,0.188-0.129,0.246-0.129c0.033,0,0.063,0.012,0.088,0.029
		c0.023,0.02,0.045,0.053,0.063,0.1c0.02,0.047,0.029,0.105,0.037,0.176C297.223,86.467,297.227,86.551,297.227,86.647z"/>
	<path d="M304.479,87.651c0,0.039-0.01,0.072-0.023,0.1c-0.02,0.025-0.049,0.051-0.092,0.068c-0.045,0.021-0.104,0.035-0.172,0.045
		c-0.072,0.01-0.158,0.014-0.264,0.014c-0.109,0-0.203-0.004-0.271-0.014c-0.072-0.01-0.127-0.023-0.168-0.045
		c-0.043-0.02-0.07-0.043-0.086-0.068s-0.021-0.061-0.021-0.1V86.78c-0.375,0.414-0.746,0.717-1.113,0.908
		c-0.363,0.189-0.734,0.285-1.111,0.285c-0.439,0-0.811-0.072-1.109-0.221c-0.301-0.146-0.543-0.346-0.729-0.598
		c-0.188-0.25-0.318-0.543-0.398-0.879c-0.082-0.334-0.121-0.74-0.121-1.219v-4c0-0.039,0.008-0.07,0.025-0.102
		c0.016-0.023,0.049-0.051,0.098-0.07c0.049-0.021,0.113-0.037,0.191-0.045s0.176-0.012,0.293-0.012s0.215,0.004,0.293,0.012
		s0.141,0.021,0.188,0.045c0.045,0.02,0.078,0.047,0.1,0.07c0.02,0.027,0.027,0.063,0.027,0.102v3.838
		c0,0.387,0.027,0.695,0.084,0.928c0.059,0.23,0.145,0.43,0.258,0.594c0.113,0.162,0.262,0.289,0.438,0.381
		c0.176,0.09,0.381,0.137,0.615,0.137c0.303,0,0.604-0.107,0.902-0.322c0.301-0.215,0.619-0.531,0.955-0.945v-4.605
		c0-0.039,0.01-0.07,0.025-0.102c0.018-0.023,0.051-0.051,0.1-0.07c0.049-0.021,0.111-0.037,0.188-0.045
		c0.074-0.008,0.174-0.012,0.297-0.012c0.117,0,0.215,0.004,0.293,0.012s0.139,0.021,0.182,0.045c0.047,0.02,0.078,0.047,0.102,0.07
		c0.021,0.027,0.033,0.063,0.033,0.102v6.59H304.479L304.479,87.651z"/>
	<path d="M310.565,81.49c0,0.107-0.002,0.199-0.01,0.271c-0.004,0.074-0.014,0.131-0.027,0.174
		c-0.016,0.041-0.033,0.072-0.057,0.094c-0.02,0.023-0.053,0.033-0.092,0.033s-0.086-0.01-0.143-0.033
		c-0.059-0.02-0.119-0.043-0.189-0.063c-0.072-0.023-0.148-0.043-0.238-0.064c-0.088-0.02-0.184-0.029-0.283-0.029
		c-0.123,0-0.242,0.023-0.359,0.072s-0.24,0.131-0.371,0.242c-0.129,0.113-0.264,0.262-0.406,0.447
		c-0.141,0.186-0.297,0.412-0.469,0.68v4.336c0,0.041-0.01,0.072-0.029,0.1s-0.051,0.053-0.094,0.07
		c-0.045,0.02-0.104,0.033-0.184,0.043c-0.078,0.01-0.18,0.018-0.303,0.018c-0.115,0-0.215-0.008-0.293-0.018
		c-0.076-0.01-0.141-0.021-0.188-0.043c-0.045-0.02-0.078-0.043-0.094-0.07c-0.02-0.025-0.025-0.059-0.025-0.1v-6.592
		c0-0.037,0.006-0.07,0.021-0.1c0.014-0.025,0.043-0.051,0.088-0.072c0.043-0.021,0.1-0.035,0.168-0.043
		c0.066-0.008,0.158-0.012,0.271-0.012c0.107,0,0.195,0.004,0.27,0.012c0.068,0.008,0.125,0.021,0.164,0.043
		s0.064,0.047,0.084,0.072c0.018,0.027,0.023,0.063,0.023,0.1v0.961c0.184-0.264,0.352-0.48,0.51-0.646s0.311-0.297,0.449-0.393
		c0.145-0.096,0.283-0.16,0.422-0.197c0.141-0.035,0.279-0.055,0.424-0.055c0.063,0,0.135,0.004,0.215,0.012
		c0.082,0.008,0.166,0.021,0.254,0.041s0.166,0.041,0.236,0.064c0.07,0.021,0.119,0.049,0.148,0.07
		c0.029,0.025,0.049,0.051,0.059,0.07c0.012,0.021,0.021,0.051,0.027,0.084c0.006,0.035,0.012,0.084,0.014,0.15
		C310.563,81.289,310.565,81.379,310.565,81.49z"/>
	<path d="M315.793,81.49c0,0.107-0.002,0.199-0.006,0.271c-0.006,0.074-0.016,0.131-0.029,0.174
		c-0.016,0.041-0.033,0.072-0.055,0.094c-0.023,0.023-0.053,0.033-0.092,0.033s-0.088-0.01-0.145-0.033
		c-0.057-0.02-0.121-0.043-0.189-0.063c-0.07-0.023-0.15-0.043-0.238-0.064c-0.088-0.02-0.184-0.029-0.285-0.029
		c-0.123,0-0.242,0.023-0.359,0.072c-0.115,0.049-0.238,0.131-0.367,0.242c-0.131,0.113-0.268,0.262-0.406,0.447
		c-0.145,0.186-0.299,0.412-0.469,0.68v4.336c0,0.041-0.012,0.072-0.029,0.1c-0.021,0.027-0.053,0.053-0.096,0.07
		c-0.045,0.02-0.105,0.033-0.186,0.043s-0.178,0.018-0.301,0.018c-0.117,0-0.215-0.008-0.293-0.018s-0.141-0.021-0.188-0.043
		c-0.047-0.02-0.076-0.043-0.096-0.07c-0.018-0.025-0.023-0.059-0.023-0.1v-6.592c0-0.037,0.008-0.07,0.02-0.1
		c0.016-0.025,0.045-0.051,0.088-0.072c0.045-0.021,0.104-0.035,0.17-0.043c0.068-0.008,0.158-0.012,0.271-0.012
		c0.105,0,0.197,0.004,0.268,0.012s0.125,0.021,0.164,0.043s0.068,0.047,0.086,0.072c0.018,0.027,0.025,0.063,0.025,0.1v0.961
		c0.18-0.264,0.35-0.48,0.508-0.646s0.309-0.297,0.451-0.393c0.141-0.096,0.281-0.16,0.422-0.197
		c0.139-0.035,0.279-0.055,0.42-0.055c0.064,0,0.137,0.004,0.217,0.012s0.164,0.021,0.252,0.041s0.168,0.041,0.238,0.064
		c0.07,0.021,0.121,0.049,0.15,0.07c0.027,0.025,0.049,0.051,0.059,0.07c0.01,0.021,0.018,0.051,0.025,0.084
		c0.006,0.035,0.012,0.084,0.016,0.15C315.793,81.289,315.793,81.379,315.793,81.49z"/>
	<path d="M322.598,84.069c0,0.191-0.047,0.326-0.143,0.406c-0.096,0.082-0.205,0.121-0.328,0.121h-4.342
		c0,0.365,0.037,0.695,0.111,0.988c0.072,0.293,0.193,0.545,0.365,0.756c0.172,0.209,0.396,0.369,0.67,0.482
		c0.275,0.111,0.611,0.168,1.01,0.168c0.313,0,0.594-0.025,0.84-0.076c0.246-0.053,0.457-0.107,0.637-0.174
		c0.18-0.063,0.326-0.119,0.441-0.172c0.113-0.051,0.203-0.076,0.262-0.076c0.033,0,0.063,0.008,0.092,0.025
		c0.027,0.018,0.047,0.043,0.063,0.076s0.023,0.082,0.031,0.145c0.01,0.061,0.014,0.135,0.014,0.223
		c0,0.063-0.002,0.119-0.008,0.164c-0.006,0.049-0.012,0.09-0.02,0.125c-0.008,0.037-0.02,0.07-0.037,0.1s-0.039,0.059-0.064,0.084
		c-0.027,0.027-0.105,0.072-0.238,0.133c-0.131,0.061-0.303,0.121-0.512,0.18c-0.211,0.061-0.453,0.111-0.729,0.156
		c-0.277,0.047-0.57,0.07-0.883,0.07c-0.543,0-1.02-0.076-1.424-0.229c-0.408-0.15-0.752-0.375-1.029-0.674
		c-0.279-0.299-0.488-0.672-0.631-1.121c-0.141-0.447-0.213-0.971-0.213-1.564c0-0.566,0.074-1.076,0.221-1.527
		c0.146-0.453,0.357-0.836,0.633-1.15c0.277-0.313,0.609-0.557,1-0.725c0.393-0.17,0.828-0.254,1.313-0.254
		c0.518,0,0.959,0.084,1.322,0.25c0.361,0.166,0.662,0.389,0.896,0.67s0.406,0.609,0.516,0.988s0.164,0.781,0.164,1.213V84.069
		L322.598,84.069z M321.383,83.711c0.016-0.635-0.127-1.133-0.424-1.494c-0.299-0.361-0.738-0.543-1.324-0.543
		c-0.299,0-0.563,0.057-0.787,0.17c-0.227,0.111-0.416,0.262-0.566,0.445c-0.152,0.188-0.271,0.4-0.355,0.646
		c-0.082,0.248-0.129,0.506-0.139,0.771h3.596V83.711L321.383,83.711z"/>
	<path d="M330.114,87.651c0,0.039-0.01,0.072-0.029,0.1c-0.02,0.025-0.051,0.051-0.096,0.068c-0.043,0.021-0.105,0.035-0.186,0.045
		c-0.078,0.01-0.176,0.014-0.293,0.014c-0.121,0-0.221-0.004-0.299-0.014s-0.141-0.023-0.184-0.045
		c-0.045-0.02-0.076-0.043-0.098-0.068c-0.02-0.025-0.027-0.061-0.027-0.1v-3.859c0-0.377-0.029-0.68-0.088-0.906
		c-0.061-0.23-0.146-0.43-0.258-0.596s-0.258-0.293-0.436-0.381c-0.18-0.088-0.385-0.131-0.619-0.131
		c-0.303,0-0.604,0.107-0.908,0.322c-0.303,0.215-0.621,0.527-0.953,0.943v4.605c0,0.039-0.01,0.072-0.027,0.1
		c-0.021,0.025-0.051,0.051-0.096,0.07c-0.045,0.018-0.104,0.033-0.184,0.043c-0.078,0.01-0.178,0.016-0.301,0.016
		c-0.117,0-0.215-0.006-0.293-0.016s-0.143-0.023-0.188-0.043c-0.047-0.021-0.078-0.045-0.094-0.07
		c-0.018-0.025-0.027-0.061-0.027-0.1v-6.592c0-0.039,0.01-0.07,0.023-0.102c0.014-0.023,0.043-0.051,0.088-0.07
		c0.043-0.021,0.102-0.037,0.168-0.045c0.068-0.008,0.158-0.012,0.271-0.012c0.105,0,0.193,0.004,0.268,0.012
		c0.07,0.008,0.125,0.021,0.164,0.045c0.039,0.021,0.066,0.047,0.084,0.07c0.018,0.027,0.025,0.063,0.025,0.102v0.871
		c0.371-0.414,0.738-0.721,1.107-0.912s0.742-0.289,1.117-0.289c0.439,0,0.813,0.074,1.109,0.225
		c0.301,0.148,0.543,0.35,0.729,0.598c0.186,0.25,0.318,0.541,0.398,0.875c0.08,0.336,0.121,0.736,0.121,1.205v4.021H330.114z"/>
	<path d="M335.606,87.168c0,0.143-0.012,0.254-0.029,0.336c-0.021,0.084-0.049,0.145-0.088,0.184s-0.1,0.076-0.176,0.109
		c-0.078,0.035-0.166,0.063-0.268,0.086c-0.102,0.02-0.207,0.039-0.32,0.055c-0.109,0.014-0.225,0.021-0.336,0.021
		c-0.342,0-0.635-0.047-0.879-0.137c-0.244-0.092-0.443-0.229-0.602-0.41c-0.156-0.184-0.271-0.414-0.34-0.695
		c-0.07-0.279-0.105-0.611-0.105-0.992v-3.854h-0.924c-0.072,0-0.131-0.039-0.176-0.115c-0.043-0.078-0.066-0.205-0.066-0.383
		c0-0.092,0.006-0.17,0.021-0.232c0.012-0.064,0.025-0.117,0.047-0.158c0.02-0.041,0.045-0.07,0.078-0.088
		c0.029-0.018,0.064-0.025,0.104-0.025h0.916v-1.566c0-0.033,0.008-0.064,0.025-0.096c0.016-0.029,0.049-0.055,0.096-0.076
		c0.045-0.021,0.107-0.037,0.188-0.049c0.078-0.01,0.176-0.016,0.293-0.016c0.123,0,0.223,0.006,0.301,0.016
		c0.078,0.012,0.139,0.025,0.184,0.049c0.043,0.023,0.074,0.049,0.096,0.076c0.02,0.029,0.027,0.063,0.027,0.096v1.566h1.693
		c0.039,0,0.072,0.008,0.102,0.025c0.031,0.018,0.057,0.047,0.078,0.088s0.037,0.094,0.047,0.158
		c0.012,0.063,0.016,0.141,0.016,0.232c0,0.178-0.021,0.305-0.064,0.383c-0.045,0.076-0.104,0.115-0.176,0.115h-1.693v3.678
		c0,0.453,0.068,0.797,0.203,1.029c0.133,0.23,0.373,0.348,0.721,0.348c0.111,0,0.215-0.012,0.303-0.033s0.166-0.045,0.232-0.068
		c0.068-0.023,0.127-0.049,0.176-0.068c0.051-0.021,0.094-0.033,0.133-0.033c0.023,0,0.049,0.006,0.068,0.02
		c0.021,0.012,0.039,0.035,0.053,0.068c0.012,0.035,0.021,0.08,0.031,0.141C335.604,87.008,335.606,87.08,335.606,87.168z"/>
</g>
<g enable-background="new    ">
	<path d="M245.189,105.614c-0.021,0.055-0.047,0.1-0.082,0.133c-0.032,0.033-0.082,0.063-0.144,0.08
		c-0.061,0.021-0.139,0.033-0.233,0.041c-0.097,0.006-0.213,0.01-0.354,0.01c-0.105,0-0.201,0-0.279-0.004
		c-0.08-0.002-0.15-0.008-0.21-0.018s-0.108-0.021-0.149-0.033s-0.076-0.025-0.105-0.047c-0.028-0.02-0.053-0.043-0.069-0.07
		c-0.017-0.025-0.033-0.059-0.047-0.098l-3.099-8.805c-0.039-0.107-0.061-0.193-0.063-0.262c-0.004-0.064,0.018-0.113,0.063-0.148
		c0.043-0.033,0.113-0.057,0.211-0.066c0.099-0.008,0.23-0.014,0.396-0.014c0.137,0,0.244,0.004,0.326,0.01
		c0.079,0.008,0.143,0.021,0.186,0.041c0.045,0.021,0.078,0.045,0.101,0.076c0.021,0.033,0.043,0.072,0.063,0.121l2.717,7.977h0.008
		l2.645-7.961c0.016-0.055,0.033-0.098,0.053-0.133c0.021-0.033,0.053-0.061,0.103-0.08c0.049-0.018,0.116-0.033,0.205-0.041
		c0.088-0.006,0.204-0.01,0.352-0.01c0.152,0,0.271,0.006,0.359,0.018c0.088,0.014,0.147,0.035,0.18,0.07
		c0.031,0.033,0.043,0.084,0.037,0.15c-0.008,0.064-0.03,0.15-0.069,0.26L245.189,105.614z"/>
	<path d="M254.607,102.069c0,0.191-0.047,0.326-0.144,0.406c-0.096,0.082-0.205,0.121-0.327,0.121h-4.343
		c0,0.365,0.037,0.695,0.111,0.988c0.072,0.293,0.195,0.545,0.367,0.756c0.172,0.209,0.396,0.369,0.67,0.482
		c0.273,0.111,0.611,0.168,1.008,0.168c0.314,0,0.594-0.025,0.84-0.076c0.246-0.053,0.457-0.107,0.637-0.174
		c0.181-0.063,0.326-0.119,0.441-0.172c0.115-0.051,0.201-0.076,0.262-0.076c0.033,0,0.064,0.008,0.093,0.025
		c0.028,0.016,0.047,0.043,0.063,0.076c0.014,0.033,0.023,0.082,0.031,0.145c0.008,0.061,0.012,0.135,0.012,0.223
		c0,0.063-0.002,0.119-0.008,0.164c-0.006,0.049-0.012,0.09-0.02,0.125c-0.006,0.037-0.02,0.07-0.035,0.1
		c-0.018,0.029-0.039,0.059-0.064,0.084c-0.027,0.027-0.106,0.072-0.238,0.133c-0.133,0.063-0.303,0.121-0.514,0.18
		c-0.209,0.061-0.453,0.111-0.729,0.156c-0.275,0.047-0.57,0.07-0.883,0.07c-0.543,0-1.019-0.076-1.426-0.229
		c-0.408-0.15-0.75-0.375-1.029-0.674c-0.275-0.299-0.486-0.672-0.629-1.121c-0.144-0.447-0.213-0.971-0.213-1.564
		c0-0.566,0.074-1.076,0.221-1.527c0.146-0.453,0.357-0.836,0.635-1.15c0.273-0.313,0.607-0.557,1-0.725
		c0.391-0.17,0.826-0.254,1.311-0.254c0.519,0,0.959,0.084,1.322,0.25s0.662,0.389,0.896,0.67s0.406,0.609,0.519,0.988
		c0.109,0.379,0.164,0.781,0.164,1.213v0.219H254.607L254.607,102.069z M253.393,101.711c0.016-0.635-0.127-1.133-0.426-1.494
		c-0.297-0.361-0.736-0.543-1.322-0.543c-0.299,0-0.563,0.057-0.787,0.17c-0.227,0.111-0.416,0.262-0.566,0.445
		c-0.151,0.188-0.271,0.4-0.354,0.646c-0.084,0.248-0.131,0.506-0.142,0.771h3.599L253.393,101.711L253.393,101.711z"/>
	<path d="M261.954,99.36c0,0.17-0.021,0.293-0.068,0.369s-0.105,0.113-0.18,0.113h-0.943c0.17,0.176,0.29,0.369,0.357,0.582
		s0.104,0.434,0.104,0.662c0,0.383-0.063,0.719-0.184,1.012c-0.123,0.293-0.297,0.541-0.523,0.744
		c-0.229,0.201-0.496,0.357-0.811,0.465c-0.313,0.107-0.658,0.162-1.039,0.162c-0.271,0-0.523-0.037-0.767-0.107
		c-0.241-0.07-0.43-0.16-0.562-0.268c-0.088,0.088-0.159,0.188-0.217,0.301c-0.057,0.113-0.084,0.242-0.084,0.389
		c0,0.17,0.08,0.314,0.238,0.424c0.158,0.113,0.369,0.176,0.633,0.186l1.723,0.074c0.326,0.01,0.627,0.055,0.9,0.135
		s0.51,0.195,0.711,0.346c0.199,0.146,0.355,0.332,0.469,0.549s0.168,0.471,0.168,0.758c0,0.303-0.063,0.592-0.19,0.863
		c-0.127,0.273-0.319,0.516-0.582,0.723c-0.263,0.209-0.594,0.371-1,0.49c-0.403,0.119-0.883,0.182-1.437,0.182
		c-0.53,0-0.983-0.047-1.356-0.137c-0.373-0.092-0.681-0.215-0.92-0.371c-0.238-0.154-0.412-0.342-0.521-0.561
		c-0.106-0.217-0.162-0.453-0.162-0.707c0-0.16,0.021-0.316,0.06-0.469c0.039-0.154,0.101-0.295,0.181-0.434
		c0.082-0.137,0.182-0.268,0.301-0.393s0.258-0.248,0.414-0.369c-0.24-0.123-0.416-0.273-0.531-0.461
		c-0.113-0.186-0.172-0.387-0.172-0.602c0-0.299,0.063-0.564,0.184-0.799c0.123-0.234,0.273-0.443,0.455-0.631
		c-0.15-0.182-0.271-0.385-0.359-0.609c-0.088-0.229-0.131-0.502-0.131-0.824c0-0.377,0.063-0.713,0.188-1.012
		c0.127-0.299,0.305-0.551,0.527-0.756c0.225-0.203,0.495-0.361,0.811-0.471c0.314-0.109,0.658-0.166,1.029-0.166
		c0.198,0,0.387,0.012,0.561,0.033c0.174,0.02,0.336,0.053,0.486,0.092h1.992c0.082,0,0.146,0.041,0.188,0.121
		C261.934,99.071,261.954,99.194,261.954,99.36z M260.672,106.317c0-0.283-0.115-0.502-0.348-0.654s-0.548-0.234-0.941-0.246
		l-1.707-0.059c-0.156,0.123-0.283,0.238-0.385,0.348c-0.101,0.109-0.181,0.215-0.236,0.314c-0.061,0.102-0.1,0.199-0.121,0.297
		s-0.033,0.199-0.033,0.301c0,0.316,0.16,0.561,0.482,0.723s0.771,0.244,1.348,0.244c0.367,0,0.674-0.033,0.92-0.104
		s0.445-0.166,0.598-0.281c0.152-0.117,0.26-0.252,0.326-0.404C260.639,106.641,260.672,106.483,260.672,106.317z M260.064,101.096
		c0-0.449-0.123-0.799-0.369-1.053c-0.247-0.25-0.598-0.377-1.053-0.377c-0.233,0-0.438,0.039-0.61,0.117s-0.316,0.188-0.433,0.322
		c-0.115,0.137-0.201,0.293-0.257,0.473c-0.057,0.18-0.084,0.365-0.084,0.561c0,0.436,0.123,0.777,0.369,1.025
		c0.246,0.25,0.593,0.373,1.037,0.373c0.238,0,0.445-0.037,0.621-0.111c0.176-0.076,0.32-0.182,0.438-0.316
		c0.112-0.133,0.198-0.289,0.256-0.465C260.036,101.469,260.064,101.285,260.064,101.096z"/>
	<path d="M266.473,102.135c0,0.191-0.021,0.322-0.064,0.396c-0.043,0.07-0.107,0.107-0.189,0.107h-3.063
		c-0.09,0-0.154-0.037-0.197-0.113c-0.045-0.074-0.065-0.205-0.065-0.393c0-0.186,0.021-0.313,0.065-0.389
		c0.043-0.074,0.107-0.109,0.197-0.109h3.063c0.039,0,0.074,0.008,0.105,0.021c0.029,0.016,0.059,0.043,0.08,0.084
		s0.037,0.094,0.051,0.156C266.467,101.965,266.473,102.043,266.473,102.135z"/>
	<path d="M274.273,105.381c0.063,0.105,0.103,0.191,0.113,0.256c0.012,0.063-0.005,0.113-0.048,0.148
		c-0.045,0.037-0.116,0.063-0.217,0.072c-0.102,0.014-0.231,0.02-0.397,0.02c-0.156,0-0.279-0.004-0.367-0.01
		c-0.088-0.01-0.157-0.021-0.209-0.041c-0.051-0.02-0.09-0.043-0.116-0.068c-0.027-0.027-0.05-0.063-0.068-0.107l-2.109-3.77
		l-2.131,3.77c-0.023,0.045-0.053,0.082-0.08,0.111c-0.029,0.027-0.07,0.053-0.121,0.068c-0.051,0.018-0.121,0.027-0.209,0.037
		c-0.088,0.006-0.205,0.01-0.354,0.01c-0.16,0-0.287-0.006-0.381-0.02c-0.093-0.012-0.156-0.035-0.191-0.072
		c-0.037-0.035-0.051-0.086-0.037-0.148c0.012-0.063,0.051-0.148,0.111-0.256l2.586-4.359l-2.469-4.211
		c-0.06-0.107-0.097-0.193-0.113-0.26c-0.018-0.066-0.006-0.117,0.033-0.154c0.039-0.035,0.106-0.061,0.205-0.068
		c0.098-0.01,0.231-0.016,0.401-0.016c0.146,0,0.269,0.004,0.358,0.012c0.095,0.008,0.166,0.021,0.222,0.037
		c0.054,0.016,0.092,0.041,0.116,0.072c0.023,0.031,0.052,0.066,0.08,0.105l2.035,3.545l2.021-3.545
		c0.023-0.039,0.049-0.074,0.074-0.105c0.021-0.031,0.059-0.057,0.104-0.072c0.047-0.018,0.11-0.029,0.194-0.037
		c0.082-0.008,0.194-0.012,0.336-0.012c0.151,0,0.274,0.006,0.369,0.02c0.097,0.014,0.163,0.035,0.204,0.068
		c0.043,0.035,0.061,0.084,0.05,0.15c-0.011,0.064-0.045,0.152-0.104,0.26l-2.461,4.182L274.273,105.381z"/>
	<path d="M284.922,105.651c0,0.039-0.008,0.074-0.023,0.104c-0.02,0.029-0.049,0.053-0.09,0.068
		c-0.041,0.018-0.096,0.029-0.164,0.041c-0.066,0.01-0.15,0.014-0.25,0.014c-0.102,0-0.188-0.004-0.256-0.014
		c-0.066-0.012-0.125-0.023-0.168-0.041c-0.045-0.018-0.076-0.039-0.096-0.068s-0.029-0.063-0.029-0.104v-0.871
		c-0.348,0.375-0.707,0.668-1.08,0.879c-0.373,0.209-0.781,0.314-1.227,0.314c-0.484,0-0.896-0.096-1.238-0.281
		c-0.342-0.189-0.619-0.443-0.832-0.762c-0.211-0.32-0.367-0.697-0.465-1.129c-0.098-0.434-0.146-0.889-0.146-1.365
		c0-0.566,0.063-1.078,0.186-1.535c0.121-0.457,0.304-0.846,0.541-1.168c0.24-0.322,0.537-0.57,0.892-0.744
		c0.354-0.172,0.765-0.26,1.228-0.26c0.387,0,0.738,0.084,1.059,0.254c0.32,0.168,0.639,0.416,0.949,0.742v-3.83
		c0-0.033,0.008-0.066,0.025-0.1c0.016-0.031,0.049-0.057,0.098-0.072c0.049-0.018,0.111-0.031,0.188-0.045
		c0.076-0.012,0.174-0.02,0.289-0.02c0.123,0,0.225,0.008,0.303,0.02c0.078,0.014,0.139,0.027,0.184,0.045
		c0.043,0.018,0.076,0.041,0.098,0.072c0.023,0.031,0.033,0.064,0.033,0.1v9.756H284.922z M283.708,101.016
		c-0.328-0.406-0.645-0.715-0.949-0.928c-0.303-0.213-0.623-0.318-0.955-0.318c-0.309,0-0.566,0.074-0.783,0.221
		c-0.215,0.146-0.391,0.34-0.523,0.578c-0.135,0.24-0.229,0.51-0.293,0.814c-0.061,0.303-0.092,0.609-0.092,0.922
		c0,0.332,0.027,0.656,0.078,0.975s0.141,0.602,0.268,0.846c0.127,0.246,0.295,0.445,0.506,0.596
		c0.209,0.148,0.475,0.223,0.791,0.223c0.16,0,0.314-0.02,0.465-0.064c0.148-0.045,0.303-0.115,0.457-0.221
		c0.156-0.102,0.32-0.234,0.49-0.396c0.172-0.164,0.352-0.365,0.543-0.605L283.708,101.016L283.708,101.016z"/>
	<path d="M293.288,102.281c0,0.537-0.07,1.031-0.213,1.482c-0.143,0.453-0.354,0.842-0.633,1.17
		c-0.281,0.326-0.635,0.582-1.057,0.764c-0.424,0.186-0.912,0.275-1.469,0.275c-0.543,0-1.016-0.08-1.418-0.242
		c-0.402-0.16-0.738-0.396-1.006-0.703c-0.271-0.307-0.469-0.68-0.604-1.119c-0.131-0.438-0.195-0.938-0.195-1.494
		c0-0.537,0.066-1.031,0.209-1.482c0.139-0.451,0.348-0.84,0.629-1.168c0.281-0.326,0.631-0.58,1.051-0.764
		c0.42-0.18,0.912-0.27,1.473-0.27c0.543,0,1.016,0.08,1.418,0.24c0.402,0.162,0.738,0.396,1.008,0.703
		c0.27,0.309,0.471,0.682,0.604,1.119C293.219,101.235,293.288,101.731,293.288,102.281z M292.036,102.362
		c0-0.354-0.033-0.693-0.102-1.01c-0.066-0.318-0.178-0.596-0.328-0.836c-0.152-0.238-0.359-0.43-0.621-0.566
		c-0.262-0.141-0.586-0.209-0.977-0.209c-0.357,0-0.67,0.064-0.928,0.189c-0.26,0.127-0.473,0.307-0.639,0.539
		c-0.168,0.23-0.293,0.506-0.373,0.822c-0.082,0.316-0.123,0.664-0.123,1.041c0,0.359,0.031,0.701,0.1,1.02
		c0.068,0.316,0.178,0.594,0.332,0.83c0.156,0.236,0.363,0.426,0.625,0.563c0.262,0.143,0.586,0.209,0.977,0.209
		c0.355,0,0.662-0.063,0.926-0.188c0.26-0.127,0.475-0.307,0.643-0.535s0.291-0.502,0.369-0.818
		C291.995,103.094,292.036,102.742,292.036,102.362z"/>
	<path d="M299.805,104.647c0,0.084-0.002,0.156-0.008,0.217c-0.004,0.063-0.014,0.111-0.023,0.154
		c-0.014,0.041-0.027,0.078-0.043,0.107c-0.02,0.033-0.059,0.078-0.117,0.141c-0.064,0.061-0.166,0.137-0.314,0.227
		c-0.145,0.092-0.311,0.172-0.494,0.242c-0.182,0.07-0.381,0.129-0.596,0.172c-0.215,0.045-0.438,0.066-0.668,0.066
		c-0.473,0-0.893-0.078-1.26-0.234c-0.365-0.156-0.672-0.385-0.918-0.686c-0.248-0.301-0.438-0.668-0.564-1.105
		c-0.129-0.438-0.191-0.939-0.191-1.512c0-0.65,0.076-1.207,0.236-1.674c0.158-0.467,0.375-0.85,0.65-1.146s0.602-0.52,0.975-0.662
		c0.373-0.146,0.777-0.217,1.213-0.217c0.209,0,0.414,0.021,0.611,0.059c0.197,0.039,0.379,0.092,0.545,0.154
		s0.314,0.137,0.443,0.219c0.129,0.084,0.223,0.154,0.281,0.213s0.1,0.105,0.119,0.141c0.023,0.033,0.041,0.074,0.057,0.121
		c0.016,0.045,0.023,0.098,0.029,0.156s0.008,0.133,0.008,0.221c0,0.189-0.021,0.322-0.066,0.398
		c-0.043,0.074-0.098,0.113-0.16,0.113c-0.072,0-0.158-0.041-0.252-0.121c-0.096-0.08-0.217-0.17-0.363-0.27
		c-0.146-0.096-0.322-0.188-0.529-0.268s-0.453-0.119-0.736-0.119c-0.58,0-1.027,0.223-1.336,0.67
		c-0.313,0.445-0.465,1.094-0.465,1.941c0,0.428,0.039,0.799,0.121,1.117c0.08,0.32,0.197,0.588,0.354,0.803
		c0.156,0.217,0.35,0.375,0.574,0.48c0.229,0.104,0.486,0.156,0.779,0.156c0.277,0,0.521-0.043,0.73-0.133
		c0.211-0.088,0.395-0.186,0.547-0.289s0.283-0.199,0.389-0.285c0.104-0.084,0.188-0.127,0.246-0.127
		c0.033,0,0.063,0.01,0.088,0.027c0.023,0.02,0.045,0.055,0.063,0.1c0.02,0.047,0.029,0.105,0.037,0.176
		C299.801,104.467,299.805,104.551,299.805,104.647z"/>
	<path d="M307.057,105.651c0,0.039-0.01,0.072-0.023,0.1c-0.02,0.025-0.049,0.051-0.092,0.068c-0.047,0.021-0.104,0.035-0.174,0.045
		s-0.156,0.014-0.262,0.014c-0.111,0-0.203-0.004-0.271-0.014c-0.072-0.01-0.127-0.023-0.168-0.045
		c-0.043-0.02-0.07-0.043-0.086-0.068s-0.021-0.061-0.021-0.1v-0.871c-0.375,0.414-0.746,0.717-1.113,0.908
		c-0.363,0.189-0.734,0.285-1.111,0.285c-0.439,0-0.811-0.072-1.109-0.221c-0.301-0.146-0.543-0.346-0.729-0.598
		c-0.188-0.25-0.318-0.543-0.398-0.879c-0.082-0.334-0.121-0.74-0.121-1.219v-4c0-0.039,0.008-0.07,0.025-0.102
		c0.018-0.023,0.051-0.051,0.1-0.07c0.049-0.021,0.111-0.037,0.189-0.045c0.076-0.008,0.176-0.012,0.293-0.012
		c0.115,0,0.215,0.004,0.293,0.012s0.141,0.021,0.188,0.045c0.045,0.02,0.078,0.047,0.1,0.07c0.02,0.027,0.027,0.063,0.027,0.102
		v3.838c0,0.387,0.029,0.695,0.084,0.928c0.059,0.23,0.145,0.43,0.258,0.594c0.113,0.162,0.262,0.289,0.438,0.381
		c0.176,0.09,0.381,0.137,0.615,0.137c0.303,0,0.604-0.107,0.902-0.322c0.301-0.215,0.619-0.531,0.955-0.945v-4.605
		c0-0.039,0.01-0.07,0.025-0.102c0.018-0.023,0.051-0.051,0.1-0.07c0.049-0.021,0.111-0.037,0.189-0.045
		c0.072-0.008,0.174-0.012,0.295-0.012c0.117,0,0.215,0.004,0.293,0.012s0.141,0.021,0.184,0.045c0.045,0.02,0.078,0.047,0.102,0.07
		c0.02,0.027,0.031,0.063,0.031,0.102v6.59H307.057L307.057,105.651z"/>
	<path d="M319.069,105.651c0,0.039-0.012,0.072-0.029,0.1c-0.02,0.025-0.051,0.051-0.096,0.068
		c-0.043,0.021-0.105,0.035-0.186,0.045c-0.078,0.01-0.176,0.014-0.293,0.014c-0.121,0-0.221-0.004-0.299-0.014
		s-0.141-0.023-0.188-0.045c-0.049-0.02-0.08-0.043-0.102-0.068c-0.02-0.025-0.029-0.061-0.029-0.1v-4.006
		c0-0.279-0.021-0.533-0.07-0.762c-0.049-0.23-0.127-0.428-0.234-0.596c-0.105-0.164-0.244-0.293-0.41-0.381
		s-0.359-0.131-0.586-0.131c-0.277,0-0.559,0.107-0.84,0.322c-0.279,0.215-0.588,0.527-0.926,0.941v4.607
		c0,0.039-0.01,0.072-0.029,0.1c-0.02,0.025-0.053,0.051-0.1,0.068c-0.045,0.021-0.107,0.035-0.188,0.045
		c-0.078,0.01-0.176,0.014-0.293,0.014c-0.111,0-0.209-0.004-0.289-0.014c-0.082-0.01-0.145-0.023-0.189-0.045
		c-0.045-0.02-0.078-0.043-0.098-0.068c-0.016-0.025-0.023-0.061-0.023-0.1v-4.006c0-0.279-0.025-0.533-0.08-0.762
		c-0.053-0.23-0.135-0.428-0.242-0.596c-0.105-0.164-0.242-0.293-0.406-0.381s-0.355-0.131-0.582-0.131
		c-0.275,0-0.559,0.107-0.842,0.322s-0.592,0.527-0.924,0.941v4.607c0,0.039-0.01,0.072-0.029,0.1
		c-0.02,0.025-0.051,0.051-0.094,0.068c-0.045,0.02-0.105,0.035-0.184,0.045s-0.18,0.014-0.303,0.014
		c-0.115,0-0.215-0.004-0.293-0.014s-0.141-0.023-0.188-0.045c-0.045-0.02-0.078-0.043-0.094-0.068
		c-0.02-0.025-0.025-0.061-0.025-0.1v-6.592c0-0.039,0.006-0.072,0.02-0.1c0.016-0.025,0.045-0.051,0.09-0.072
		c0.043-0.021,0.1-0.037,0.168-0.045c0.066-0.008,0.156-0.012,0.271-0.012c0.107,0,0.195,0.004,0.27,0.012
		c0.068,0.008,0.125,0.021,0.162,0.045c0.039,0.021,0.066,0.047,0.086,0.072c0.018,0.025,0.023,0.061,0.023,0.1v0.871
		c0.371-0.414,0.73-0.719,1.08-0.912c0.35-0.191,0.703-0.289,1.059-0.289c0.273,0,0.521,0.033,0.736,0.096
		c0.217,0.064,0.408,0.152,0.574,0.268c0.166,0.117,0.309,0.254,0.426,0.41c0.117,0.158,0.215,0.336,0.293,0.531
		c0.219-0.24,0.428-0.441,0.627-0.605c0.197-0.166,0.387-0.303,0.57-0.404c0.182-0.104,0.359-0.176,0.535-0.225
		c0.172-0.047,0.348-0.068,0.521-0.068c0.424,0,0.781,0.074,1.068,0.225c0.289,0.148,0.521,0.35,0.701,0.598
		c0.178,0.25,0.305,0.541,0.381,0.875c0.074,0.336,0.113,0.688,0.113,1.059v4.17h0.006V105.651z"/>
	<path d="M326.899,102.069c0,0.191-0.051,0.326-0.146,0.406c-0.096,0.082-0.205,0.121-0.326,0.121h-4.342
		c0,0.365,0.037,0.695,0.109,0.988s0.195,0.545,0.369,0.756c0.172,0.209,0.395,0.369,0.67,0.482
		c0.271,0.111,0.607,0.168,1.008,0.168c0.313,0,0.594-0.025,0.84-0.076c0.244-0.053,0.457-0.107,0.635-0.174
		c0.182-0.063,0.328-0.119,0.443-0.172c0.115-0.051,0.201-0.076,0.26-0.076c0.035,0,0.066,0.008,0.092,0.025
		c0.027,0.018,0.049,0.043,0.064,0.076c0.014,0.033,0.023,0.082,0.031,0.145c0.008,0.061,0.012,0.135,0.012,0.223
		c0,0.063-0.002,0.119-0.008,0.164c-0.004,0.049-0.012,0.09-0.02,0.125c-0.008,0.037-0.02,0.07-0.037,0.1
		c-0.016,0.031-0.039,0.059-0.064,0.084c-0.025,0.027-0.105,0.072-0.236,0.133c-0.133,0.063-0.303,0.121-0.514,0.18
		c-0.209,0.061-0.453,0.111-0.729,0.156c-0.275,0.047-0.568,0.07-0.883,0.07c-0.543,0-1.018-0.076-1.424-0.229
		c-0.408-0.15-0.752-0.375-1.029-0.674c-0.279-0.299-0.488-0.672-0.631-1.121c-0.141-0.447-0.213-0.971-0.213-1.564
		c0-0.566,0.074-1.076,0.221-1.527c0.146-0.453,0.357-0.836,0.633-1.15c0.275-0.313,0.609-0.557,1-0.725
		c0.393-0.17,0.828-0.254,1.313-0.254c0.518,0,0.959,0.084,1.322,0.25c0.361,0.166,0.664,0.389,0.896,0.67
		c0.234,0.281,0.406,0.609,0.518,0.988c0.107,0.379,0.162,0.781,0.162,1.213v0.219H326.899L326.899,102.069z M325.682,101.711
		c0.016-0.635-0.127-1.133-0.424-1.494s-0.738-0.543-1.322-0.543c-0.301,0-0.563,0.057-0.787,0.17
		c-0.229,0.111-0.416,0.262-0.568,0.445c-0.152,0.188-0.271,0.4-0.354,0.646c-0.084,0.248-0.131,0.506-0.141,0.771h3.596V101.711
		L325.682,101.711z"/>
	<path d="M334.413,105.651c0,0.039-0.01,0.072-0.029,0.1c-0.02,0.025-0.051,0.051-0.096,0.068c-0.043,0.021-0.104,0.035-0.182,0.045
		c-0.08,0.01-0.178,0.014-0.293,0.014c-0.123,0-0.225-0.004-0.303-0.014s-0.139-0.023-0.184-0.045
		c-0.043-0.02-0.076-0.043-0.096-0.068c-0.021-0.025-0.029-0.061-0.029-0.1v-3.859c0-0.377-0.029-0.68-0.088-0.906
		c-0.061-0.23-0.145-0.43-0.256-0.596s-0.26-0.293-0.438-0.381s-0.385-0.131-0.619-0.131c-0.303,0-0.604,0.107-0.906,0.322
		c-0.305,0.215-0.619,0.527-0.951,0.943v4.605c0,0.039-0.012,0.072-0.029,0.1c-0.021,0.025-0.053,0.051-0.096,0.07
		c-0.045,0.02-0.105,0.033-0.186,0.043s-0.178,0.016-0.301,0.016c-0.117,0-0.215-0.006-0.293-0.016s-0.141-0.023-0.188-0.043
		c-0.047-0.021-0.076-0.045-0.096-0.07c-0.018-0.025-0.023-0.061-0.023-0.1v-6.592c0-0.039,0.008-0.07,0.021-0.102
		c0.016-0.023,0.043-0.051,0.088-0.07c0.043-0.021,0.102-0.037,0.168-0.045c0.068-0.008,0.158-0.012,0.271-0.012
		c0.105,0,0.195,0.004,0.268,0.012c0.07,0.008,0.125,0.021,0.164,0.045c0.039,0.021,0.066,0.047,0.084,0.07
		c0.02,0.027,0.025,0.063,0.025,0.102v0.871c0.371-0.414,0.742-0.721,1.107-0.912c0.369-0.191,0.742-0.289,1.117-0.289
		c0.439,0,0.813,0.074,1.109,0.225c0.301,0.148,0.545,0.35,0.729,0.598c0.188,0.25,0.318,0.541,0.398,0.875
		c0.082,0.336,0.121,0.736,0.121,1.205v4.021H334.413z"/>
	<path d="M339.907,105.168c0,0.143-0.01,0.254-0.029,0.336c-0.02,0.084-0.049,0.145-0.088,0.184s-0.098,0.076-0.176,0.109
		c-0.078,0.035-0.168,0.063-0.27,0.086c-0.102,0.02-0.207,0.039-0.316,0.055c-0.113,0.014-0.227,0.021-0.338,0.021
		c-0.344,0-0.637-0.047-0.881-0.137c-0.242-0.092-0.441-0.229-0.6-0.41c-0.156-0.184-0.271-0.414-0.342-0.695
		c-0.07-0.279-0.105-0.611-0.105-0.992v-3.854h-0.924c-0.072,0-0.131-0.039-0.176-0.115c-0.043-0.078-0.064-0.205-0.064-0.383
		c0-0.092,0.006-0.17,0.02-0.232c0.012-0.064,0.025-0.117,0.047-0.158c0.02-0.041,0.045-0.07,0.078-0.088
		c0.031-0.018,0.064-0.025,0.104-0.025h0.916v-1.566c0-0.033,0.008-0.064,0.025-0.096c0.018-0.027,0.049-0.055,0.096-0.076
		c0.045-0.021,0.107-0.037,0.188-0.049c0.08-0.01,0.176-0.016,0.293-0.016c0.123,0,0.223,0.006,0.301,0.016
		c0.078,0.012,0.139,0.025,0.184,0.049c0.043,0.021,0.076,0.049,0.098,0.076c0.02,0.029,0.027,0.063,0.027,0.096v1.566h1.691
		c0.039,0,0.072,0.008,0.102,0.025c0.031,0.018,0.057,0.047,0.078,0.088s0.037,0.094,0.047,0.158
		c0.012,0.063,0.018,0.141,0.018,0.232c0,0.178-0.023,0.305-0.066,0.383c-0.045,0.076-0.104,0.115-0.176,0.115h-1.691v3.678
		c0,0.453,0.066,0.797,0.201,1.029c0.133,0.23,0.375,0.348,0.723,0.348c0.111,0,0.213-0.012,0.301-0.033s0.166-0.045,0.232-0.068
		c0.068-0.023,0.127-0.049,0.178-0.068c0.049-0.021,0.092-0.033,0.131-0.033c0.023,0,0.049,0.006,0.068,0.02
		c0.021,0.012,0.039,0.035,0.053,0.068c0.012,0.035,0.021,0.08,0.031,0.141C339.903,105.008,339.907,105.08,339.907,105.168z"/>
</g>
<path d="M318.778,32.926l3.455,3l-3.455,3V32.926z M301.358,35.026h17.994v1.8h-17.994V35.026z"/>
<g enable-background="new    ">
	<path d="M248.184,13.299c0,0.042-0.008,0.077-0.021,0.108c-0.016,0.031-0.051,0.059-0.104,0.078
		c-0.053,0.021-0.125,0.036-0.219,0.047s-0.219,0.017-0.375,0.017c-0.135,0-0.246-0.006-0.332-0.017s-0.154-0.026-0.207-0.051
		c-0.053-0.023-0.092-0.056-0.121-0.098c-0.027-0.042-0.053-0.095-0.074-0.156l-0.93-2.383c-0.109-0.271-0.223-0.521-0.34-0.746
		c-0.117-0.227-0.256-0.422-0.418-0.586s-0.353-0.292-0.57-0.383c-0.219-0.092-0.48-0.138-0.789-0.138h-0.896v4.306
		c0,0.042-0.014,0.077-0.035,0.108c-0.022,0.031-0.061,0.057-0.108,0.074c-0.05,0.019-0.117,0.034-0.203,0.047
		s-0.192,0.021-0.323,0.021c-0.132,0-0.238-0.008-0.324-0.021s-0.154-0.028-0.207-0.047c-0.053-0.02-0.088-0.043-0.109-0.074
		s-0.031-0.066-0.031-0.108V3.938c0-0.203,0.055-0.345,0.16-0.426c0.107-0.081,0.223-0.121,0.34-0.121h2.148
		c0.256,0,0.469,0.007,0.637,0.02c0.17,0.014,0.322,0.027,0.457,0.043c0.393,0.067,0.736,0.176,1.035,0.32
		c0.301,0.146,0.551,0.331,0.754,0.555c0.203,0.225,0.355,0.48,0.457,0.771c0.104,0.29,0.152,0.607,0.152,0.957
		c0,0.339-0.045,0.642-0.137,0.91c-0.093,0.269-0.224,0.505-0.396,0.711c-0.172,0.206-0.377,0.384-0.616,0.535
		c-0.239,0.15-0.509,0.277-0.806,0.383c0.166,0.072,0.318,0.165,0.453,0.276c0.136,0.112,0.263,0.246,0.379,0.402
		c0.117,0.156,0.229,0.336,0.332,0.539s0.209,0.433,0.313,0.688l0.906,2.228c0.072,0.188,0.119,0.319,0.141,0.395
		C248.174,13.197,248.184,13.257,248.184,13.299z M246.161,6.196c0-0.396-0.088-0.729-0.267-1.004
		c-0.177-0.273-0.474-0.47-0.892-0.59c-0.129-0.036-0.276-0.063-0.44-0.078s-0.379-0.023-0.646-0.023h-1.133v3.406h1.313
		c0.354,0,0.659-0.043,0.918-0.129c0.258-0.086,0.474-0.206,0.646-0.359c0.172-0.152,0.299-0.335,0.379-0.543
		C246.122,6.668,246.161,6.441,246.161,6.196z"/>
	<path d="M255.7,9.485c0,0.203-0.052,0.348-0.152,0.434c-0.101,0.087-0.219,0.13-0.35,0.13h-4.632c0,0.391,0.039,0.741,0.119,1.055
		c0.078,0.313,0.209,0.581,0.394,0.805c0.184,0.225,0.42,0.396,0.713,0.517c0.293,0.119,0.651,0.18,1.076,0.18
		c0.336,0,0.633-0.027,0.896-0.082c0.262-0.055,0.486-0.116,0.68-0.184c0.191-0.068,0.348-0.13,0.471-0.185s0.217-0.082,0.279-0.082
		c0.035,0,0.066,0.009,0.098,0.027c0.029,0.018,0.051,0.046,0.066,0.082s0.025,0.087,0.035,0.151
		c0.008,0.065,0.012,0.146,0.012,0.238c0,0.067-0.002,0.126-0.008,0.176c-0.006,0.051-0.014,0.095-0.021,0.134
		c-0.008,0.038-0.021,0.073-0.039,0.104c-0.019,0.031-0.041,0.063-0.068,0.09c-0.029,0.028-0.113,0.075-0.254,0.142
		c-0.143,0.065-0.322,0.129-0.549,0.19c-0.223,0.063-0.48,0.118-0.775,0.168s-0.607,0.074-0.941,0.074
		c-0.578,0-1.084-0.081-1.52-0.242s-0.803-0.4-1.1-0.719s-0.521-0.716-0.672-1.195c-0.148-0.479-0.228-1.036-0.228-1.672
		c0-0.604,0.078-1.146,0.233-1.629c0.156-0.482,0.384-0.891,0.677-1.227c0.295-0.337,0.649-0.595,1.065-0.773
		c0.418-0.18,0.883-0.27,1.398-0.27c0.553,0,1.021,0.089,1.41,0.266s0.707,0.415,0.957,0.715s0.434,0.651,0.551,1.055
		c0.117,0.404,0.176,0.835,0.176,1.293L255.7,9.485L255.7,9.485z M254.402,9.102c0.017-0.677-0.135-1.208-0.45-1.594
		c-0.316-0.387-0.787-0.578-1.41-0.578c-0.318,0-0.603,0.06-0.842,0.18c-0.242,0.12-0.443,0.278-0.604,0.479
		c-0.162,0.198-0.289,0.429-0.379,0.69c-0.09,0.263-0.139,0.538-0.148,0.824L254.402,9.102L254.402,9.102z"/>
	<path d="M263.348,6.26c0,0.021,0,0.043-0.004,0.065c-0.002,0.023-0.006,0.048-0.012,0.074s-0.013,0.055-0.021,0.086
		s-0.019,0.065-0.026,0.104l-2.398,6.68c-0.021,0.058-0.049,0.104-0.082,0.141c-0.033,0.036-0.084,0.065-0.152,0.086
		c-0.066,0.021-0.152,0.035-0.258,0.043c-0.104,0.009-0.232,0.013-0.391,0.013c-0.156,0-0.287-0.006-0.391-0.017
		c-0.105-0.011-0.189-0.025-0.255-0.047c-0.063-0.021-0.114-0.05-0.151-0.086s-0.064-0.081-0.086-0.133l-2.392-6.68
		c-0.021-0.063-0.037-0.117-0.051-0.164c-0.015-0.048-0.021-0.082-0.022-0.105c-0.003-0.022-0.005-0.043-0.005-0.059
		c0-0.042,0.011-0.078,0.031-0.109s0.058-0.056,0.104-0.074c0.049-0.019,0.113-0.029,0.193-0.035
		c0.082-0.005,0.184-0.008,0.303-0.008c0.15,0,0.271,0.004,0.361,0.013c0.094,0.008,0.162,0.021,0.211,0.043
		c0.051,0.021,0.086,0.047,0.109,0.077c0.023,0.031,0.047,0.07,0.066,0.117l1.983,5.797l0.03,0.095l0.022-0.095l1.962-5.797
		c0.01-0.047,0.027-0.086,0.055-0.117c0.025-0.03,0.063-0.058,0.113-0.077c0.049-0.021,0.115-0.035,0.202-0.043
		c0.087-0.009,0.198-0.013,0.341-0.013c0.119,0,0.219,0.003,0.297,0.008c0.078,0.006,0.14,0.02,0.185,0.039
		c0.045,0.021,0.075,0.046,0.094,0.074C263.338,6.182,263.348,6.218,263.348,6.26z"/>
	<path d="M266.247,3.899c0,0.302-0.058,0.508-0.172,0.617c-0.113,0.108-0.324,0.164-0.634,0.164c-0.301,0-0.508-0.055-0.621-0.16
		c-0.11-0.106-0.168-0.31-0.168-0.605c0-0.302,0.06-0.508,0.173-0.616c0.114-0.109,0.325-0.164,0.633-0.164
		c0.305,0,0.51,0.054,0.621,0.159C266.191,3.4,266.247,3.602,266.247,3.899z M266.098,13.306c0,0.042-0.01,0.077-0.031,0.104
		c-0.021,0.028-0.055,0.055-0.102,0.074c-0.047,0.021-0.111,0.036-0.195,0.047c-0.082,0.011-0.188,0.017-0.318,0.017
		c-0.125,0-0.229-0.006-0.313-0.017c-0.082-0.011-0.147-0.025-0.199-0.047c-0.049-0.021-0.082-0.046-0.103-0.074
		c-0.018-0.027-0.026-0.063-0.026-0.104V6.275c0-0.036,0.01-0.07,0.026-0.102c0.021-0.031,0.054-0.059,0.103-0.078
		c0.052-0.021,0.117-0.036,0.199-0.047c0.084-0.012,0.188-0.017,0.313-0.017c0.131,0,0.236,0.005,0.318,0.017
		c0.084,0.011,0.148,0.025,0.195,0.047c0.047,0.021,0.08,0.047,0.102,0.078c0.021,0.03,0.031,0.064,0.031,0.102V13.306z"/>
	<path d="M274.48,9.485c0,0.203-0.051,0.348-0.151,0.434c-0.101,0.087-0.22,0.13-0.351,0.13h-4.631c0,0.391,0.038,0.741,0.118,1.055
		c0.078,0.313,0.209,0.581,0.394,0.805c0.183,0.225,0.42,0.396,0.714,0.517c0.293,0.119,0.651,0.18,1.075,0.18
		c0.336,0,0.634-0.027,0.896-0.082c0.264-0.055,0.488-0.116,0.682-0.184c0.191-0.068,0.348-0.13,0.471-0.185
		s0.217-0.082,0.279-0.082c0.035,0,0.066,0.009,0.098,0.027c0.029,0.018,0.051,0.046,0.066,0.082
		c0.014,0.036,0.025,0.087,0.033,0.151c0.01,0.065,0.014,0.146,0.014,0.238c0,0.067-0.002,0.126-0.01,0.176
		c-0.004,0.051-0.012,0.095-0.02,0.134c-0.009,0.038-0.021,0.073-0.039,0.104c-0.019,0.031-0.041,0.063-0.07,0.09
		c-0.027,0.028-0.111,0.075-0.254,0.142c-0.142,0.065-0.32,0.129-0.547,0.19c-0.224,0.063-0.48,0.118-0.776,0.168
		c-0.294,0.05-0.606,0.074-0.94,0.074c-0.578,0-1.084-0.081-1.521-0.242c-0.434-0.161-0.801-0.4-1.098-0.719
		c-0.298-0.318-0.521-0.716-0.673-1.195c-0.149-0.479-0.227-1.036-0.227-1.672c0-0.604,0.077-1.146,0.233-1.629
		s0.383-0.891,0.676-1.227c0.295-0.337,0.65-0.595,1.066-0.773c0.416-0.18,0.883-0.27,1.398-0.27c0.553,0,1.021,0.089,1.408,0.266
		c0.391,0.177,0.707,0.415,0.957,0.715s0.436,0.651,0.553,1.055c0.115,0.404,0.176,0.835,0.176,1.293L274.48,9.485L274.48,9.485z
		 M273.184,9.102c0.018-0.677-0.135-1.208-0.451-1.594c-0.316-0.387-0.785-0.578-1.41-0.578c-0.318,0-0.602,0.06-0.842,0.18
		s-0.441,0.278-0.604,0.479c-0.162,0.198-0.289,0.429-0.377,0.69c-0.09,0.263-0.141,0.538-0.149,0.824L273.184,9.102L273.184,9.102z
		"/>
	<path d="M286.2,6.26c0,0.035-0.004,0.081-0.018,0.133c-0.01,0.052-0.025,0.117-0.055,0.195l-2.07,6.68
		c-0.016,0.058-0.039,0.104-0.072,0.141c-0.033,0.036-0.08,0.065-0.143,0.086c-0.059,0.021-0.141,0.035-0.246,0.043
		c-0.104,0.008-0.232,0.013-0.391,0.013c-0.16,0-0.297-0.006-0.406-0.017c-0.107-0.011-0.193-0.025-0.262-0.047
		c-0.064-0.021-0.113-0.05-0.145-0.086s-0.057-0.081-0.07-0.133l-1.477-5.103l-0.018-0.069l-0.017,0.069l-1.366,5.103
		c-0.017,0.058-0.039,0.104-0.074,0.141c-0.033,0.036-0.084,0.065-0.15,0.086c-0.066,0.021-0.154,0.035-0.264,0.043
		c-0.105,0.008-0.236,0.013-0.396,0.013c-0.16,0-0.293-0.006-0.396-0.017c-0.102-0.011-0.186-0.025-0.25-0.047
		c-0.063-0.021-0.112-0.05-0.145-0.086c-0.031-0.036-0.055-0.081-0.07-0.133l-2.055-6.68c-0.025-0.078-0.045-0.146-0.055-0.195
		c-0.012-0.052-0.018-0.098-0.018-0.133c0-0.047,0.012-0.085,0.031-0.113c0.021-0.028,0.057-0.052,0.104-0.07
		c0.052-0.019,0.117-0.029,0.199-0.035c0.084-0.005,0.187-0.008,0.305-0.008c0.146,0,0.265,0.004,0.354,0.012
		c0.09,0.009,0.155,0.021,0.202,0.039c0.048,0.019,0.082,0.044,0.103,0.078c0.021,0.034,0.039,0.074,0.057,0.121l1.693,5.797
		l0.018,0.07l0.016-0.07l1.555-5.797c0.013-0.047,0.027-0.087,0.052-0.121s0.06-0.06,0.104-0.078
		c0.045-0.018,0.111-0.03,0.191-0.039c0.08-0.008,0.188-0.012,0.314-0.012c0.125,0,0.229,0.004,0.311,0.012
		c0.08,0.009,0.145,0.021,0.189,0.039c0.045,0.019,0.082,0.043,0.104,0.074s0.035,0.067,0.047,0.109l1.68,5.813l0.016,0.07
		l0.01-0.07l1.672-5.797c0.012-0.047,0.025-0.087,0.051-0.121c0.023-0.034,0.061-0.06,0.109-0.078
		c0.051-0.019,0.115-0.03,0.201-0.038c0.086-0.009,0.197-0.013,0.332-0.013c0.125,0,0.229,0.003,0.303,0.008
		c0.074,0.006,0.137,0.02,0.18,0.039c0.045,0.021,0.076,0.044,0.094,0.07C286.192,6.177,286.2,6.213,286.2,6.26z"/>
</g>
</svg>
