<?xml version="1.0" encoding="utf-8"?>
<!-- Generator: Adobe Illustrator 16.0.3, SVG Export Plug-In . SVG Version: 6.00 Build 0)  -->
<!DOCTYPE svg PUBLIC "-//W3C//DTD SVG 1.1//EN" "http://www.w3.org/Graphics/SVG/1.1/DTD/svg11.dtd">
<svg version="1.1" id="Layer_1" xmlns="http://www.w3.org/2000/svg" xmlns:xlink="http://www.w3.org/1999/xlink" x="0px" y="0px"
	 width="435.667px" height="121.333px" viewBox="152.534 35.833 435.667 121.333"
	 enable-background="new 152.534 35.833 435.667 121.333" xml:space="preserve">
<text transform="matrix(1 0 0 1 254.2666 110.3601)"><tspan x="0" y="0" font-family="'Calibri'" font-size="15">Map data to  </tspan><tspan x="0" y="18" font-family="'Calibri'" font-size="15">Veg-X elements</tspan></text>
<path d="M189.994,66.244c0-1.448,1.176-2.624,2.625-2.624h6.563v5.25c0,0.726,0.586,1.313,1.313,1.313h5.248v11.811
	c0,1.448-1.177,2.624-2.624,2.624h-10.5c-1.448,0-2.625-1.176-2.625-2.624v-4.594h7.14l-1.6,1.601c-0.384,0.386-0.384,1.009,0,1.39
	c0.386,0.383,1.01,0.386,1.391,0l3.281-3.281c0.384-0.385,0.384-1.009,0-1.392l-3.281-3.279c-0.386-0.387-1.009-0.387-1.391,0
	c-0.381,0.386-0.384,1.01,0,1.39l1.6,1.601h-7.14V66.244z M189.994,75.43v1.969h-4.266c-0.546,0-0.985-0.438-0.985-0.983
	s0.439-0.985,0.985-0.985H189.994z M205.742,68.869h-5.248v-5.25L205.742,68.869z"/>
<text transform="matrix(1 0 0 1 163.1997 110.3601)"><tspan x="0" y="0" font-family="'Calibri'" font-size="15">Upload data, </tspan><tspan x="0" y="18" font-family="'Calibri'" font-size="15">reorganize </tspan></text>
<path d="M307.889,64.323c0.373-0.333,0.941-0.317,1.295,0.035l0.313,0.314c0.352,0.353,0.368,0.921,0.034,1.293l-3.363,3.759
	c-0.102,0.114-0.16,0.263-0.16,0.419v0.839c0,0.345-0.282,0.627-0.627,0.627h-0.619c-0.181,0-0.35,0.075-0.467,0.208l-10.646,11.901
	c-0.251,0.278-0.604,0.435-0.977,0.435c-0.344,0-0.678-0.137-0.921-0.384l-1.67-1.666c-0.243-0.247-0.38-0.577-0.38-0.922
	c0-0.372,0.156-0.725,0.436-0.972l4.374-3.912c0.134-0.118,0.208-0.29,0.208-0.466v-1.086c0-0.345,0.282-0.627,0.627-0.627h1.356
	c0.153,0,0.302-0.059,0.419-0.161L307.889,64.323z M306.635,75.373c0.142,0,0.263,0.094,0.303,0.228l0.579,2.026l2.027,0.581
	c0.133,0.039,0.227,0.161,0.227,0.302c0,0.141-0.094,0.263-0.227,0.302l-2.027,0.58l-0.579,2.027
	c-0.04,0.133-0.161,0.227-0.303,0.227c-0.141,0-0.263-0.094-0.302-0.227l-0.58-2.027l-2.026-0.58
	c-0.133-0.039-0.228-0.161-0.228-0.302c0-0.141,0.095-0.263,0.228-0.302l2.026-0.581l0.58-2.026
	C306.372,75.468,306.494,75.373,306.635,75.373z M293.139,66.82l0.58,2.027l2.027,0.58c0.133,0.04,0.227,0.161,0.227,0.302
	s-0.094,0.263-0.227,0.302l-2.027,0.581l-0.58,2.026c-0.039,0.133-0.16,0.228-0.301,0.228c-0.143,0-0.264-0.094-0.303-0.228
	l-0.58-2.026l-2.027-0.581c-0.133-0.039-0.227-0.161-0.227-0.302s0.094-0.263,0.227-0.302l2.027-0.58l0.58-2.027
	c0.039-0.133,0.16-0.228,0.303-0.228C292.979,66.593,293.1,66.687,293.139,66.82z M297.854,64.084c0.146,0,0.271,0.098,0.307,0.239
	l0.268,1.07l1.069,0.267c0.142,0.035,0.239,0.161,0.239,0.306s-0.098,0.271-0.239,0.306l-1.069,0.267l-0.268,1.07
	c-0.035,0.142-0.16,0.24-0.307,0.24c-0.145,0-0.27-0.098-0.305-0.24l-0.268-1.07l-1.069-0.267c-0.141-0.035-0.239-0.161-0.239-0.306
	s0.099-0.271,0.239-0.306l1.069-0.267l0.268-1.07C297.584,64.182,297.709,64.084,297.854,64.084L297.854,64.084z"/>
<path d="M399.622,65.684c-3.042,0-5.479,1.386-7.252,3.035c-1.762,1.634-2.94,3.592-3.498,4.937c-0.124,0.297-0.124,0.628,0,0.926
	c0.558,1.345,1.736,3.302,3.498,4.937c1.773,1.649,4.21,3.035,7.252,3.035c3.043,0,5.479-1.386,7.253-3.035
	c1.763-1.638,2.94-3.592,3.502-4.937c0.124-0.297,0.124-0.628,0-0.926c-0.562-1.345-1.739-3.302-3.502-4.937
	C405.102,67.07,402.665,65.684,399.622,65.684z M394.2,74.118c0-2.995,2.428-5.422,5.422-5.422c2.995,0,5.423,2.428,5.423,5.422
	s-2.428,5.422-5.423,5.422C396.628,79.54,394.2,77.113,394.2,74.118z M399.622,71.709c0,1.329-1.08,2.41-2.409,2.41
	c-0.269,0-0.523-0.045-0.765-0.125c-0.207-0.067-0.448,0.061-0.44,0.279c0.011,0.26,0.049,0.52,0.12,0.779
	c0.517,1.928,2.501,3.073,4.429,2.557c1.928-0.516,3.072-2.5,2.557-4.428c-0.418-1.563-1.8-2.613-3.337-2.677
	c-0.218-0.007-0.346,0.229-0.277,0.44C399.577,71.185,399.622,71.441,399.622,71.709L399.622,71.709z"/>
<text transform="matrix(1 0 0 1 362.2666 110.3601)"><tspan x="0" y="0" font-family="'Calibri'" font-size="15">Review Veg-X </tspan><tspan x="0" y="18" font-family="'Calibri'" font-size="15">(edit as needed)</tspan></text>
<path d="M503.327,66.354c0-1.429,1.16-2.589,2.588-2.589h6.472v5.177c0,0.716,0.578,1.294,1.294,1.294h5.177v5.177h-6.794
	c-0.539,0-0.971,0.434-0.971,0.971c0,0.538,0.432,0.971,0.971,0.971h6.794v4.53c0,1.428-1.16,2.588-2.588,2.588h-10.354
	c-1.428,0-2.588-1.16-2.588-2.588V66.354z M518.857,77.354v-1.941h4.453l-1.577-1.577c-0.381-0.381-0.381-0.995,0-1.371
	c0.38-0.376,0.995-0.38,1.37,0l3.236,3.235c0.38,0.38,0.38,0.995,0,1.371l-3.236,3.235c-0.38,0.381-0.994,0.381-1.37,0
	c-0.376-0.38-0.381-0.994,0-1.37l1.577-1.578h-4.453V77.354z M518.857,68.942h-5.177v-5.177L518.857,68.942z"/>
<text transform="matrix(1 0 0 1 479.9326 110.3601)"><tspan x="0" y="0" font-family="'Calibri'" font-size="15">Download Veg-X </tspan><tspan x="0" y="18" font-family="'Calibri'" font-size="15">or tables</tspan></text>
<path d="M250.812,71.118l3.455,3l-3.455,3V71.118z M233.392,73.219h17.996v1.8h-17.996V73.219z"/>
<path d="M357.383,71.118l3.455,3l-3.455,3V71.118z M339.963,73.219h17.996v1.8h-17.996V73.219z"/>
<path d="M466.05,71.118l3.455,3l-3.455,3V71.118z M448.63,73.219h17.996v1.8H448.63V73.219z"/>
</svg>
