<?xml version="1.0" encoding="utf-8"?>
<!-- Generator: Adobe Illustrator 16.0.3, SVG Export Plug-In . SVG Version: 6.00 Build 0)  -->
<!DOCTYPE svg PUBLIC "-//W3C//DTD SVG 1.1//EN" "http://www.w3.org/Graphics/SVG/1.1/DTD/svg11.dtd">
<svg version="1.1" id="Layer_1" xmlns="http://www.w3.org/2000/svg" xmlns:xlink="http://www.w3.org/1999/xlink" x="0px" y="0px"
	 width="204px" height="290.333px" viewBox="163.2 21.166 204 290.333" enable-background="new 163.2 21.166 204 290.333"
	 xml:space="preserve">
<rect x="286.8" y="175.8" fill="none" width="63.601" height="63"/>
<text transform="matrix(1 0 0 1 230.2666 135.6248)"><tspan x="0" y="0" font-family="'Calibri'" font-size="15">Map data to  </tspan><tspan x="0" y="18" font-family="'Calibri'" font-size="15">Veg-X elements</tspan></text>
<path d="M188.667,66.244c0-1.448,1.176-2.624,2.625-2.624h6.562v5.25c0,0.726,0.586,1.313,1.314,1.313h5.248v11.811
	c0,1.448-1.177,2.624-2.624,2.624h-10.5c-1.448,0-2.625-1.176-2.625-2.624v-4.594h7.14l-1.6,1.601c-0.384,0.386-0.384,1.009,0,1.39
	c0.386,0.383,1.01,0.386,1.391,0l3.281-3.281c0.384-0.385,0.384-1.009,0-1.392l-3.281-3.279c-0.386-0.387-1.009-0.387-1.391,0
	c-0.381,0.386-0.384,1.01,0,1.39l1.6,1.601h-7.14V66.244z M188.667,75.43v1.969h-4.266c-0.546,0-0.985-0.438-0.985-0.983
	s0.439-0.985,0.985-0.985H188.667z M204.415,68.869h-5.248v-5.25L204.415,68.869z"/>
<text transform="matrix(1 0 0 1 230.2666 71.3601)"><tspan x="0" y="0" font-family="'Calibri'" font-size="15">Upload data, </tspan><tspan x="0" y="18" font-family="'Calibri'" font-size="15">reorganize </tspan></text>
<path d="M203.753,131.197c0.373-0.333,0.941-0.317,1.295,0.035l0.313,0.314c0.352,0.353,0.368,0.921,0.034,1.293l-3.363,3.759
	c-0.102,0.114-0.16,0.263-0.16,0.419v0.839c0,0.345-0.282,0.627-0.627,0.627h-0.619c-0.181,0-0.35,0.075-0.467,0.208l-10.646,11.901
	c-0.251,0.278-0.604,0.435-0.976,0.435c-0.345,0-0.678-0.137-0.921-0.384l-1.67-1.666c-0.243-0.247-0.38-0.577-0.38-0.922
	c0-0.372,0.156-0.725,0.435-0.972l4.375-3.912c0.133-0.118,0.208-0.29,0.208-0.466v-1.086c0-0.345,0.282-0.627,0.626-0.627h1.357
	c0.153,0,0.302-0.059,0.419-0.161L203.753,131.197z M202.499,142.247c0.142,0,0.263,0.094,0.303,0.228l0.579,2.026l2.027,0.581
	c0.133,0.039,0.227,0.161,0.227,0.302c0,0.141-0.094,0.263-0.227,0.302l-2.027,0.58l-0.579,2.027
	c-0.04,0.133-0.161,0.227-0.303,0.227c-0.141,0-0.263-0.094-0.302-0.227l-0.58-2.027l-2.026-0.58
	c-0.133-0.039-0.228-0.161-0.228-0.302c0-0.141,0.095-0.263,0.228-0.302l2.026-0.581l0.58-2.026
	C202.236,142.342,202.358,142.247,202.499,142.247z M189.003,133.694l0.58,2.027l2.027,0.58c0.133,0.04,0.227,0.161,0.227,0.302
	s-0.094,0.263-0.227,0.302l-2.027,0.581l-0.58,2.026c-0.039,0.133-0.161,0.228-0.301,0.228c-0.142,0-0.263-0.094-0.302-0.228
	l-0.581-2.026l-2.027-0.581c-0.133-0.039-0.227-0.161-0.227-0.302s0.094-0.263,0.227-0.302l2.027-0.58l0.581-2.027
	c0.039-0.133,0.16-0.228,0.302-0.228C188.842,133.467,188.964,133.561,189.003,133.694z M193.718,130.958
	c0.146,0,0.271,0.098,0.306,0.239l0.267,1.07l1.07,0.267c0.141,0.035,0.239,0.161,0.239,0.306s-0.098,0.271-0.239,0.306l-1.07,0.267
	l-0.267,1.07c-0.036,0.142-0.161,0.24-0.306,0.24c-0.145,0-0.271-0.098-0.305-0.24l-0.267-1.07l-1.07-0.267
	c-0.141-0.035-0.239-0.161-0.239-0.306s0.099-0.271,0.239-0.306l1.07-0.267l0.267-1.07
	C193.448,131.056,193.574,130.958,193.718,130.958L193.718,130.958z"/>
<path d="M197.641,194.781c-3.042,0-5.479,1.386-7.252,3.035c-1.762,1.634-2.941,3.592-3.499,4.937c-0.124,0.297-0.124,0.628,0,0.926
	c0.558,1.345,1.736,3.302,3.499,4.937c1.773,1.649,4.209,3.035,7.252,3.035s5.479-1.386,7.252-3.035
	c1.763-1.638,2.94-3.592,3.502-4.937c0.124-0.297,0.124-0.628,0-0.926c-0.562-1.345-1.739-3.302-3.502-4.937
	C203.12,196.167,200.684,194.781,197.641,194.781z M192.219,203.216c0-2.995,2.428-5.422,5.422-5.422
	c2.995,0,5.422,2.428,5.422,5.422s-2.428,5.422-5.422,5.422C194.647,208.638,192.219,206.211,192.219,203.216z M197.641,200.806
	c0,1.329-1.081,2.41-2.41,2.41c-0.268,0-0.523-0.045-0.764-0.125c-0.208-0.067-0.449,0.061-0.441,0.279
	c0.011,0.26,0.049,0.52,0.12,0.779c0.517,1.928,2.501,3.073,4.429,2.557c1.928-0.516,3.072-2.5,2.557-4.428
	c-0.418-1.563-1.8-2.613-3.336-2.677c-0.218-0.007-0.346,0.229-0.278,0.44C197.596,200.283,197.641,200.539,197.641,200.806
	L197.641,200.806z"/>
<text transform="matrix(1 0 0 1 230.2666 200.2161)"><tspan x="0" y="0" font-family="'Calibri'" font-size="15">Review Veg-X </tspan><tspan x="0" y="18" font-family="'Calibri'" font-size="15">(edit as needed)</tspan></text>
<path d="M188.994,265.207c0-1.429,1.16-2.589,2.588-2.589h6.471v5.177c0,0.716,0.578,1.294,1.294,1.294h5.177v5.177h-6.794
	c-0.538,0-0.971,0.434-0.971,0.971c0,0.538,0.433,0.971,0.971,0.971h6.794v4.53c0,1.428-1.16,2.588-2.588,2.588h-10.354
	c-1.428,0-2.588-1.16-2.588-2.588V265.207z M204.524,276.207v-1.941h4.453l-1.577-1.577c-0.381-0.381-0.381-0.995,0-1.371
	c0.38-0.376,0.995-0.38,1.37,0l3.236,3.235c0.38,0.38,0.38,0.995,0,1.371l-3.236,3.235c-0.38,0.381-0.994,0.381-1.37,0
	c-0.376-0.38-0.381-0.994,0-1.37l1.577-1.578h-4.453V276.207z M204.524,267.795h-5.177v-5.177L204.524,267.795z"/>
<path d="M200.644,242.781l-3,3.456l-3-3.456H200.644z M198.543,225.362v17.996h-1.8v-17.996H198.543z"/>
<text transform="matrix(1 0 0 1 230.2666 268.9685)"><tspan x="0" y="0" font-family="'Calibri'" font-size="15">Download Veg-X </tspan><tspan x="0" y="18" font-family="'Calibri'" font-size="15">or tables</tspan></text>
<path d="M200.644,179.07l-3,3.456l-3-3.456H200.644z M198.543,161.651v17.996h-1.8v-17.996H198.543z"/>
<path d="M200.644,112.07l-3,3.456l-3-3.456H200.644z M198.543,94.651v17.996h-1.8V94.651H198.543z"/>
</svg>
