<?xml version="1.0" encoding="utf-8"?>
<!-- Generator: Adobe Illustrator 16.0.3, SVG Export Plug-In . SVG Version: 6.00 Build 0)  -->
<!DOCTYPE svg PUBLIC "-//W3C//DTD SVG 1.1//EN" "http://www.w3.org/Graphics/SVG/1.1/DTD/svg11.dtd">
<svg version="1.1" id="Layer_1" xmlns="http://www.w3.org/2000/svg" xmlns:xlink="http://www.w3.org/1999/xlink" x="0px" y="0px"
	 width="107.5px" height="174px" viewBox="123.247 -19.054 107.5 174" enable-background="new 123.247 -19.054 107.5 174"
	 xml:space="preserve">
<g enable-background="new    ">
	<path d="M141.667,69.643c0,0.039-0.012,0.074-0.029,0.104c-0.02,0.029-0.057,0.055-0.105,0.068
		c-0.051,0.018-0.115,0.033-0.191,0.045c-0.077,0.012-0.18,0.018-0.307,0.018c-0.115,0-0.215-0.006-0.299-0.018
		c-0.082-0.012-0.146-0.027-0.195-0.045c-0.047-0.016-0.082-0.039-0.102-0.068c-0.021-0.027-0.029-0.063-0.029-0.104v-8.254h-0.016
		l-3.342,8.292c-0.014,0.035-0.033,0.063-0.063,0.088c-0.027,0.023-0.066,0.045-0.117,0.063c-0.052,0.018-0.111,0.027-0.185,0.037
		c-0.069,0.006-0.153,0.01-0.252,0.01c-0.103,0-0.188-0.004-0.265-0.014c-0.073-0.012-0.135-0.023-0.184-0.041
		s-0.086-0.037-0.113-0.063c-0.026-0.027-0.045-0.055-0.055-0.082l-3.193-8.291h-0.008v8.255c0,0.039-0.01,0.072-0.029,0.104
		c-0.021,0.027-0.055,0.053-0.104,0.068c-0.051,0.018-0.114,0.031-0.196,0.043c-0.08,0.014-0.185,0.02-0.31,0.02
		c-0.121,0-0.222-0.006-0.302-0.02c-0.081-0.012-0.145-0.025-0.192-0.043c-0.047-0.018-0.079-0.041-0.098-0.068
		c-0.019-0.029-0.027-0.063-0.027-0.104v-8.715c0-0.205,0.056-0.354,0.164-0.438c0.108-0.088,0.229-0.133,0.365-0.133h0.772
		c0.158,0,0.297,0.016,0.416,0.044c0.119,0.029,0.223,0.076,0.313,0.14c0.09,0.064,0.164,0.146,0.224,0.242
		c0.061,0.096,0.11,0.213,0.155,0.344l2.711,6.863h0.035l2.819-6.841c0.056-0.146,0.113-0.271,0.181-0.374
		c0.063-0.104,0.135-0.184,0.211-0.245c0.078-0.061,0.162-0.104,0.258-0.132c0.095-0.026,0.203-0.04,0.326-0.04h0.812
		c0.075,0,0.146,0.012,0.213,0.033c0.065,0.021,0.125,0.057,0.172,0.104c0.049,0.045,0.086,0.104,0.115,0.176
		c0.028,0.07,0.045,0.156,0.045,0.261V69.643L141.667,69.643z"/>
	<path d="M149.012,69.658c0,0.061-0.02,0.104-0.059,0.131c-0.039,0.029-0.095,0.055-0.162,0.066
		c-0.068,0.016-0.168,0.021-0.301,0.021c-0.127,0-0.229-0.008-0.304-0.021s-0.131-0.037-0.166-0.066
		c-0.032-0.027-0.051-0.07-0.051-0.131v-0.66c-0.287,0.311-0.608,0.549-0.964,0.721c-0.355,0.17-0.729,0.256-1.124,0.256
		c-0.347,0-0.66-0.045-0.941-0.135c-0.278-0.094-0.521-0.223-0.717-0.395c-0.196-0.17-0.353-0.381-0.461-0.629
		c-0.11-0.25-0.166-0.533-0.166-0.85c0-0.371,0.075-0.693,0.229-0.969c0.149-0.271,0.367-0.5,0.649-0.682
		c0.283-0.182,0.631-0.316,1.041-0.406s0.871-0.137,1.386-0.137h0.907v-0.512c0-0.254-0.026-0.48-0.082-0.676
		c-0.053-0.193-0.142-0.355-0.26-0.486c-0.119-0.129-0.272-0.229-0.466-0.293c-0.188-0.064-0.424-0.1-0.703-0.1
		c-0.297,0-0.563,0.035-0.803,0.105c-0.235,0.07-0.442,0.148-0.621,0.234c-0.18,0.086-0.328,0.162-0.446,0.234
		c-0.119,0.068-0.209,0.105-0.269,0.105c-0.039,0-0.072-0.012-0.104-0.029c-0.029-0.02-0.057-0.049-0.076-0.088
		c-0.021-0.039-0.039-0.09-0.049-0.15c-0.01-0.063-0.016-0.129-0.016-0.201c0-0.121,0.01-0.219,0.024-0.289
		c0.019-0.07,0.06-0.139,0.125-0.201s0.181-0.139,0.343-0.225c0.159-0.084,0.346-0.162,0.557-0.232
		c0.209-0.07,0.438-0.129,0.688-0.178c0.25-0.045,0.501-0.068,0.756-0.068c0.473,0,0.875,0.055,1.207,0.162
		c0.332,0.105,0.604,0.264,0.807,0.473c0.205,0.207,0.354,0.465,0.447,0.771c0.092,0.307,0.141,0.668,0.141,1.076v4.451H149.012z
		 M147.811,66.649h-1.033c-0.332,0-0.619,0.027-0.863,0.084c-0.244,0.055-0.445,0.139-0.606,0.248
		c-0.16,0.109-0.279,0.242-0.354,0.396c-0.076,0.152-0.113,0.33-0.113,0.531c0,0.342,0.109,0.611,0.326,0.814
		s0.521,0.305,0.912,0.305c0.315,0,0.61-0.08,0.883-0.24c0.271-0.162,0.555-0.408,0.854-0.74v-1.398H147.811z"/>
	<path d="M157.295,66.252c0,0.576-0.063,1.096-0.188,1.553c-0.123,0.461-0.308,0.85-0.549,1.17
		c-0.242,0.318-0.541,0.564-0.896,0.738c-0.357,0.174-0.767,0.26-1.226,0.26c-0.194,0-0.375-0.02-0.541-0.059
		s-0.328-0.102-0.485-0.184c-0.16-0.084-0.316-0.189-0.474-0.314c-0.157-0.127-0.321-0.275-0.498-0.445v3.295
		c0,0.039-0.01,0.074-0.028,0.104c-0.021,0.029-0.054,0.055-0.097,0.072c-0.045,0.02-0.104,0.035-0.185,0.045
		s-0.178,0.014-0.301,0.014c-0.117,0-0.215-0.004-0.293-0.014s-0.141-0.025-0.188-0.045s-0.078-0.043-0.096-0.072
		c-0.019-0.027-0.025-0.063-0.025-0.104v-9.207c0-0.043,0.01-0.078,0.021-0.105c0.016-0.025,0.045-0.049,0.088-0.068
		c0.045-0.02,0.102-0.031,0.168-0.039c0.068-0.01,0.152-0.014,0.25-0.014c0.104,0,0.188,0.004,0.252,0.014
		c0.066,0.008,0.121,0.02,0.166,0.039c0.043,0.021,0.074,0.043,0.092,0.068c0.018,0.027,0.025,0.064,0.025,0.105v0.887
		c0.199-0.205,0.393-0.383,0.578-0.535c0.186-0.148,0.371-0.273,0.561-0.377c0.188-0.1,0.381-0.176,0.578-0.227
		s0.406-0.076,0.627-0.076c0.479,0,0.887,0.092,1.223,0.277c0.338,0.186,0.611,0.439,0.824,0.762
		c0.213,0.324,0.367,0.697,0.465,1.125C157.247,65.321,157.295,65.774,157.295,66.252z M156.043,66.391
		c0-0.336-0.025-0.662-0.078-0.979c-0.051-0.314-0.141-0.596-0.266-0.838c-0.125-0.244-0.293-0.439-0.505-0.586
		c-0.211-0.146-0.475-0.221-0.788-0.221c-0.156,0-0.313,0.021-0.466,0.066c-0.151,0.049-0.308,0.121-0.463,0.223
		c-0.158,0.102-0.321,0.23-0.494,0.395c-0.172,0.164-0.354,0.365-0.545,0.605v2.621c0.334,0.404,0.649,0.717,0.949,0.932
		c0.301,0.215,0.614,0.322,0.942,0.322c0.306,0,0.564-0.074,0.785-0.223c0.219-0.146,0.396-0.342,0.529-0.586
		c0.137-0.242,0.234-0.518,0.3-0.818C156.012,67.006,156.043,66.699,156.043,66.391z"/>
	<path d="M168.15,69.651c0,0.039-0.01,0.074-0.024,0.104c-0.019,0.029-0.047,0.053-0.088,0.068
		c-0.043,0.018-0.099,0.029-0.166,0.041c-0.066,0.01-0.15,0.014-0.248,0.014c-0.104,0-0.188-0.004-0.258-0.014
		c-0.068-0.012-0.123-0.023-0.168-0.041c-0.044-0.018-0.076-0.039-0.097-0.068s-0.028-0.063-0.028-0.104V68.78
		c-0.347,0.375-0.705,0.668-1.08,0.879c-0.373,0.209-0.781,0.314-1.228,0.314c-0.481,0-0.896-0.096-1.238-0.281
		c-0.342-0.189-0.616-0.443-0.829-0.762c-0.214-0.32-0.367-0.697-0.466-1.129c-0.098-0.434-0.146-0.889-0.146-1.365
		c0-0.566,0.063-1.078,0.184-1.535c0.123-0.457,0.303-0.846,0.543-1.168c0.238-0.322,0.535-0.57,0.891-0.744
		c0.354-0.172,0.762-0.26,1.228-0.26c0.385,0,0.737,0.084,1.06,0.254c0.317,0.168,0.635,0.416,0.946,0.742v-3.831
		c0-0.032,0.008-0.065,0.024-0.1c0.019-0.03,0.052-0.057,0.101-0.072c0.049-0.017,0.11-0.031,0.188-0.044
		c0.074-0.013,0.172-0.021,0.289-0.021c0.121,0,0.223,0.008,0.299,0.021c0.078,0.013,0.141,0.026,0.186,0.044
		c0.043,0.019,0.076,0.042,0.1,0.072c0.022,0.031,0.031,0.064,0.031,0.1v9.756H168.15z M166.934,65.016
		c-0.326-0.406-0.645-0.715-0.947-0.928c-0.307-0.213-0.625-0.318-0.955-0.318c-0.309,0-0.568,0.074-0.783,0.221
		s-0.393,0.34-0.524,0.578c-0.134,0.24-0.229,0.51-0.293,0.814c-0.062,0.303-0.091,0.609-0.091,0.922
		c0,0.332,0.025,0.656,0.076,0.975c0.052,0.318,0.142,0.602,0.269,0.846c0.127,0.246,0.295,0.445,0.506,0.596
		c0.209,0.146,0.474,0.223,0.791,0.223c0.16,0,0.313-0.02,0.466-0.064c0.147-0.045,0.301-0.115,0.457-0.221
		c0.155-0.102,0.319-0.234,0.489-0.396c0.172-0.164,0.353-0.365,0.543-0.605v-2.639h-0.003V65.016z"/>
	<path d="M175.35,69.658c0,0.061-0.02,0.104-0.059,0.131c-0.039,0.029-0.094,0.055-0.162,0.066
		c-0.068,0.016-0.168,0.021-0.301,0.021c-0.127,0-0.229-0.008-0.304-0.021s-0.131-0.037-0.166-0.066
		c-0.032-0.027-0.051-0.07-0.051-0.131v-0.66c-0.287,0.311-0.608,0.549-0.963,0.721c-0.354,0.17-0.729,0.256-1.125,0.256
		c-0.347,0-0.66-0.045-0.94-0.135c-0.279-0.094-0.521-0.223-0.718-0.395c-0.196-0.17-0.353-0.381-0.461-0.629
		c-0.11-0.25-0.166-0.533-0.166-0.85c0-0.371,0.076-0.693,0.229-0.969c0.149-0.271,0.367-0.5,0.649-0.682
		c0.283-0.182,0.632-0.316,1.041-0.406c0.41-0.09,0.871-0.137,1.386-0.137h0.907v-0.512c0-0.254-0.026-0.48-0.082-0.676
		c-0.053-0.193-0.141-0.355-0.26-0.486c-0.119-0.129-0.272-0.229-0.466-0.293c-0.188-0.064-0.424-0.1-0.702-0.1
		c-0.298,0-0.563,0.035-0.804,0.105c-0.235,0.07-0.442,0.148-0.621,0.234c-0.18,0.086-0.327,0.162-0.446,0.234
		c-0.119,0.068-0.209,0.105-0.269,0.105c-0.039,0-0.072-0.012-0.104-0.029c-0.029-0.02-0.057-0.049-0.076-0.088
		c-0.021-0.039-0.037-0.09-0.049-0.15c-0.01-0.063-0.016-0.129-0.016-0.201c0-0.121,0.01-0.219,0.025-0.289s0.059-0.139,0.125-0.201
		c0.065-0.063,0.18-0.139,0.342-0.225c0.16-0.084,0.346-0.162,0.557-0.232c0.209-0.07,0.439-0.129,0.688-0.178
		c0.25-0.045,0.502-0.068,0.756-0.068c0.475,0,0.875,0.055,1.207,0.162c0.332,0.105,0.604,0.264,0.809,0.473
		c0.203,0.207,0.354,0.465,0.445,0.771c0.09,0.307,0.141,0.668,0.141,1.076v4.451H175.35z M174.148,66.649h-1.032
		c-0.332,0-0.619,0.027-0.863,0.084c-0.244,0.055-0.445,0.139-0.607,0.248c-0.16,0.109-0.279,0.242-0.354,0.396
		c-0.076,0.152-0.115,0.33-0.115,0.531c0,0.342,0.109,0.611,0.326,0.814s0.521,0.305,0.912,0.305c0.316,0,0.611-0.08,0.883-0.24
		c0.271-0.162,0.556-0.408,0.854-0.74v-1.398H174.148z"/>
	<path d="M180.857,69.168c0,0.143-0.01,0.254-0.028,0.336c-0.021,0.084-0.05,0.145-0.088,0.184
		c-0.039,0.039-0.099,0.076-0.177,0.109c-0.078,0.035-0.168,0.063-0.269,0.086c-0.102,0.02-0.207,0.039-0.317,0.055
		c-0.112,0.014-0.226,0.021-0.338,0.021c-0.343,0-0.636-0.047-0.88-0.137c-0.243-0.092-0.442-0.229-0.6-0.41
		c-0.156-0.184-0.271-0.414-0.342-0.695c-0.07-0.279-0.105-0.611-0.105-0.992v-3.854h-0.922c-0.074,0-0.133-0.039-0.177-0.115
		c-0.044-0.078-0.065-0.205-0.065-0.383c0-0.092,0.007-0.17,0.019-0.232c0.013-0.064,0.029-0.117,0.05-0.158
		c0.02-0.041,0.045-0.07,0.075-0.088c0.031-0.018,0.065-0.025,0.104-0.025h0.916v-1.566c0-0.033,0.009-0.065,0.025-0.096
		c0.018-0.029,0.049-0.055,0.096-0.076s0.107-0.037,0.188-0.049c0.078-0.01,0.176-0.016,0.293-0.016c0.121,0,0.222,0.006,0.3,0.016
		c0.077,0.012,0.141,0.025,0.184,0.049c0.045,0.022,0.076,0.048,0.098,0.076c0.02,0.029,0.027,0.063,0.027,0.096v1.566h1.691
		c0.038,0,0.073,0.008,0.104,0.025c0.029,0.018,0.055,0.047,0.076,0.088s0.037,0.094,0.047,0.158
		c0.012,0.063,0.018,0.141,0.018,0.232c0,0.178-0.021,0.305-0.066,0.383c-0.043,0.076-0.104,0.115-0.176,0.115h-1.691v3.678
		c0,0.453,0.066,0.797,0.201,1.029c0.135,0.23,0.375,0.348,0.722,0.348c0.112,0,0.213-0.012,0.301-0.033s0.166-0.045,0.233-0.068
		c0.068-0.023,0.127-0.049,0.177-0.068c0.049-0.021,0.094-0.033,0.133-0.033c0.022,0,0.047,0.006,0.067,0.02
		c0.021,0.012,0.039,0.035,0.054,0.068c0.012,0.035,0.021,0.08,0.03,0.141C180.854,69.008,180.857,69.08,180.857,69.168z"/>
	<path d="M187.236,69.658c0,0.061-0.021,0.104-0.059,0.131c-0.039,0.029-0.093,0.055-0.16,0.066
		c-0.067,0.016-0.17,0.021-0.302,0.021c-0.127,0-0.229-0.008-0.305-0.021s-0.131-0.037-0.164-0.066
		c-0.035-0.027-0.052-0.07-0.052-0.131v-0.66c-0.288,0.311-0.608,0.549-0.964,0.721c-0.355,0.17-0.729,0.256-1.123,0.256
		c-0.348,0-0.66-0.045-0.941-0.135c-0.28-0.094-0.52-0.223-0.719-0.395c-0.197-0.17-0.352-0.381-0.461-0.629
		c-0.109-0.25-0.164-0.533-0.164-0.85c0-0.371,0.074-0.693,0.227-0.969c0.152-0.273,0.369-0.5,0.652-0.682s0.629-0.316,1.039-0.406
		s0.873-0.137,1.385-0.137h0.908v-0.512c0-0.254-0.027-0.48-0.08-0.676c-0.055-0.193-0.141-0.355-0.26-0.486
		c-0.121-0.129-0.275-0.229-0.467-0.293c-0.189-0.064-0.424-0.1-0.703-0.1c-0.297,0-0.564,0.035-0.801,0.105
		c-0.237,0.07-0.445,0.148-0.623,0.234c-0.18,0.086-0.328,0.162-0.447,0.234c-0.119,0.068-0.207,0.105-0.268,0.105
		c-0.039,0-0.072-0.012-0.104-0.029c-0.029-0.02-0.056-0.049-0.076-0.088c-0.021-0.039-0.039-0.09-0.049-0.15
		c-0.011-0.063-0.015-0.129-0.015-0.201c0-0.121,0.009-0.219,0.024-0.289c0.019-0.07,0.06-0.139,0.125-0.201
		c0.064-0.063,0.181-0.139,0.34-0.225c0.162-0.084,0.349-0.162,0.558-0.232c0.211-0.07,0.438-0.129,0.688-0.178
		c0.248-0.045,0.5-0.068,0.754-0.068c0.474,0,0.878,0.055,1.209,0.162c0.332,0.105,0.602,0.264,0.806,0.473
		c0.205,0.207,0.354,0.465,0.447,0.771c0.092,0.309,0.139,0.668,0.139,1.076v4.449h0.004V69.658z M186.036,66.649h-1.033
		c-0.332,0-0.619,0.027-0.861,0.084c-0.244,0.055-0.447,0.139-0.607,0.248c-0.162,0.109-0.281,0.242-0.354,0.396
		c-0.076,0.152-0.113,0.33-0.113,0.531c0,0.342,0.106,0.611,0.324,0.814c0.219,0.203,0.521,0.305,0.911,0.305
		c0.318,0,0.611-0.08,0.884-0.24c0.271-0.162,0.558-0.408,0.854-0.74v-1.398H186.036z"/>
	<path d="M196.275,69.168c0,0.143-0.01,0.254-0.028,0.336c-0.021,0.084-0.049,0.145-0.088,0.184s-0.099,0.076-0.177,0.109
		c-0.078,0.035-0.168,0.063-0.269,0.086c-0.102,0.02-0.207,0.039-0.317,0.055c-0.112,0.014-0.226,0.021-0.338,0.021
		c-0.343,0-0.636-0.047-0.879-0.137c-0.244-0.092-0.443-0.229-0.601-0.41c-0.156-0.184-0.271-0.414-0.342-0.695
		c-0.07-0.279-0.105-0.611-0.105-0.992v-3.854h-0.924c-0.072,0-0.131-0.039-0.176-0.115c-0.043-0.078-0.064-0.205-0.064-0.383
		c0-0.092,0.007-0.17,0.019-0.232c0.013-0.064,0.027-0.117,0.048-0.158c0.021-0.041,0.045-0.07,0.077-0.088
		c0.031-0.018,0.065-0.025,0.104-0.025h0.916v-1.566c0-0.033,0.009-0.065,0.025-0.096c0.018-0.028,0.049-0.055,0.096-0.076
		c0.045-0.021,0.107-0.037,0.187-0.049c0.08-0.01,0.177-0.016,0.293-0.016c0.123,0,0.224,0.006,0.302,0.016
		c0.077,0.012,0.139,0.025,0.184,0.049c0.043,0.021,0.076,0.048,0.096,0.076c0.021,0.029,0.029,0.063,0.029,0.096v1.566h1.691
		c0.038,0,0.071,0.008,0.102,0.025c0.029,0.018,0.057,0.047,0.078,0.088s0.037,0.094,0.047,0.158
		c0.012,0.063,0.016,0.141,0.016,0.232c0,0.178-0.021,0.305-0.064,0.383c-0.045,0.076-0.104,0.115-0.176,0.115h-1.691v3.678
		c0,0.453,0.066,0.797,0.201,1.029c0.134,0.23,0.375,0.348,0.722,0.348c0.112,0,0.213-0.012,0.301-0.033s0.166-0.045,0.233-0.068
		c0.068-0.023,0.128-0.049,0.177-0.068c0.049-0.021,0.092-0.033,0.131-0.033c0.024,0,0.05,0.006,0.07,0.02
		c0.021,0.012,0.038,0.035,0.051,0.068c0.013,0.035,0.022,0.08,0.033,0.141C196.271,69.008,196.275,69.08,196.275,69.168z"/>
	<path d="M203.855,66.281c0,0.537-0.069,1.031-0.213,1.482c-0.142,0.453-0.354,0.842-0.634,1.17
		c-0.28,0.326-0.633,0.582-1.055,0.764c-0.424,0.186-0.912,0.275-1.469,0.275c-0.543,0-1.016-0.08-1.418-0.242
		c-0.402-0.16-0.738-0.396-1.008-0.703s-0.469-0.68-0.602-1.119c-0.131-0.438-0.195-0.938-0.195-1.494
		c0-0.537,0.066-1.031,0.209-1.482c0.139-0.451,0.348-0.84,0.629-1.168c0.279-0.326,0.631-0.58,1.051-0.764
		c0.42-0.18,0.91-0.27,1.473-0.27c0.543,0,1.015,0.08,1.418,0.24c0.402,0.162,0.738,0.396,1.006,0.703
		c0.271,0.309,0.472,0.682,0.605,1.119C203.788,65.235,203.855,65.731,203.855,66.281z M202.604,66.362
		c0-0.354-0.033-0.693-0.102-1.01c-0.067-0.318-0.176-0.596-0.328-0.836c-0.152-0.238-0.359-0.43-0.621-0.566
		c-0.262-0.141-0.586-0.209-0.975-0.209c-0.361,0-0.67,0.064-0.929,0.189c-0.26,0.127-0.474,0.307-0.642,0.539
		c-0.166,0.23-0.291,0.506-0.373,0.822c-0.079,0.316-0.12,0.664-0.12,1.041c0,0.359,0.032,0.701,0.101,1.02
		c0.065,0.316,0.178,0.594,0.331,0.83c0.156,0.236,0.363,0.426,0.625,0.563c0.263,0.143,0.587,0.209,0.976,0.209
		c0.354,0,0.664-0.063,0.926-0.188c0.26-0.127,0.477-0.307,0.645-0.535c0.166-0.229,0.289-0.502,0.367-0.818
		C202.562,67.094,202.604,66.742,202.604,66.362z"/>
</g>
<g enable-background="new    ">
	<path d="M135.191,87.614c-0.021,0.055-0.047,0.098-0.082,0.133c-0.032,0.033-0.082,0.063-0.144,0.08
		c-0.061,0.021-0.139,0.033-0.233,0.041c-0.097,0.006-0.213,0.01-0.354,0.01c-0.105,0-0.201,0-0.279-0.004
		c-0.08-0.002-0.15-0.008-0.209-0.018c-0.061-0.01-0.109-0.021-0.15-0.033s-0.076-0.025-0.105-0.047
		c-0.028-0.02-0.053-0.043-0.069-0.07c-0.017-0.025-0.033-0.059-0.047-0.098l-3.099-8.805c-0.039-0.107-0.061-0.193-0.063-0.262
		c-0.004-0.064,0.018-0.113,0.063-0.148c0.043-0.033,0.113-0.057,0.211-0.066c0.099-0.008,0.23-0.014,0.396-0.014
		c0.137,0,0.244,0.004,0.326,0.01c0.08,0.008,0.143,0.021,0.186,0.041c0.045,0.021,0.078,0.045,0.101,0.076
		c0.021,0.033,0.043,0.072,0.063,0.121l2.717,7.977h0.008l2.644-7.961c0.017-0.055,0.033-0.098,0.054-0.133
		c0.02-0.033,0.053-0.061,0.102-0.08c0.049-0.018,0.117-0.033,0.205-0.041c0.088-0.006,0.205-0.01,0.352-0.01
		c0.152,0,0.271,0.006,0.359,0.018c0.088,0.014,0.146,0.035,0.18,0.07c0.031,0.033,0.043,0.084,0.037,0.15
		c-0.008,0.064-0.031,0.15-0.068,0.26L135.191,87.614z"/>
	<path d="M144.609,84.069c0,0.191-0.047,0.326-0.144,0.406c-0.096,0.082-0.205,0.121-0.327,0.121h-4.343
		c0,0.365,0.037,0.695,0.111,0.988c0.072,0.293,0.195,0.545,0.367,0.756c0.172,0.209,0.396,0.369,0.67,0.482
		c0.275,0.111,0.611,0.168,1.008,0.168c0.314,0,0.594-0.025,0.84-0.076c0.246-0.053,0.457-0.107,0.638-0.174
		c0.18-0.063,0.325-0.119,0.44-0.172c0.115-0.051,0.202-0.076,0.262-0.076c0.033,0,0.064,0.008,0.093,0.025
		c0.028,0.016,0.047,0.043,0.063,0.076c0.014,0.033,0.023,0.082,0.031,0.145c0.008,0.061,0.012,0.135,0.012,0.223
		c0,0.063-0.002,0.119-0.006,0.164c-0.008,0.049-0.014,0.09-0.021,0.125c-0.006,0.037-0.02,0.07-0.035,0.1
		c-0.018,0.029-0.039,0.059-0.064,0.084c-0.027,0.027-0.106,0.072-0.238,0.133c-0.133,0.061-0.303,0.121-0.514,0.18
		c-0.209,0.061-0.453,0.111-0.729,0.156c-0.275,0.047-0.57,0.07-0.883,0.07c-0.543,0-1.018-0.076-1.426-0.229
		c-0.408-0.15-0.75-0.375-1.027-0.674s-0.488-0.672-0.631-1.121c-0.143-0.447-0.213-0.971-0.213-1.564
		c0-0.566,0.074-1.076,0.221-1.527c0.146-0.453,0.357-0.836,0.635-1.15c0.273-0.313,0.607-0.557,1-0.725
		c0.391-0.17,0.826-0.254,1.311-0.254c0.519,0,0.959,0.084,1.322,0.25s0.662,0.389,0.896,0.67c0.232,0.281,0.404,0.609,0.518,0.988
		c0.109,0.379,0.164,0.781,0.164,1.213L144.609,84.069L144.609,84.069z M143.395,83.711c0.016-0.635-0.127-1.133-0.424-1.494
		c-0.299-0.361-0.738-0.543-1.324-0.543c-0.299,0-0.563,0.057-0.787,0.17c-0.227,0.111-0.416,0.262-0.566,0.445
		c-0.151,0.188-0.271,0.4-0.354,0.646c-0.084,0.248-0.131,0.506-0.142,0.771h3.599L143.395,83.711L143.395,83.711z"/>
	<path d="M151.956,81.36c0,0.17-0.021,0.293-0.068,0.369s-0.105,0.113-0.18,0.113h-0.943c0.17,0.176,0.291,0.369,0.357,0.582
		c0.067,0.213,0.104,0.434,0.104,0.662c0,0.383-0.063,0.719-0.184,1.012c-0.123,0.293-0.297,0.541-0.523,0.744
		c-0.229,0.201-0.496,0.357-0.811,0.465c-0.313,0.107-0.658,0.162-1.039,0.162c-0.271,0-0.523-0.037-0.767-0.107
		c-0.241-0.07-0.43-0.16-0.562-0.268c-0.088,0.088-0.159,0.188-0.217,0.301c-0.057,0.113-0.084,0.242-0.084,0.389
		c0,0.17,0.08,0.314,0.238,0.424c0.158,0.113,0.369,0.176,0.633,0.186l1.723,0.074c0.326,0.01,0.627,0.055,0.9,0.135
		s0.51,0.195,0.711,0.346c0.199,0.146,0.355,0.332,0.469,0.549c0.111,0.219,0.168,0.471,0.168,0.758c0,0.303-0.063,0.592-0.19,0.863
		c-0.127,0.273-0.319,0.516-0.582,0.723c-0.262,0.209-0.594,0.371-1,0.49c-0.403,0.119-0.883,0.182-1.437,0.182
		c-0.53,0-0.983-0.047-1.356-0.137c-0.373-0.092-0.681-0.215-0.92-0.371c-0.237-0.154-0.412-0.342-0.521-0.561
		c-0.106-0.217-0.162-0.453-0.162-0.707c0-0.16,0.021-0.316,0.06-0.469c0.039-0.154,0.101-0.295,0.181-0.434
		c0.082-0.137,0.182-0.268,0.301-0.393s0.259-0.248,0.414-0.369c-0.239-0.123-0.416-0.273-0.53-0.461
		c-0.114-0.186-0.173-0.387-0.173-0.602c0-0.299,0.063-0.564,0.184-0.799c0.123-0.234,0.273-0.443,0.455-0.631
		c-0.15-0.182-0.271-0.385-0.359-0.609c-0.088-0.229-0.131-0.502-0.131-0.824c0-0.377,0.063-0.713,0.188-1.012
		c0.127-0.299,0.305-0.551,0.527-0.754c0.225-0.205,0.495-0.363,0.811-0.473c0.314-0.109,0.658-0.166,1.029-0.166
		c0.199,0,0.387,0.012,0.561,0.033s0.336,0.053,0.486,0.092h1.992c0.082,0,0.146,0.041,0.188,0.121
		C151.936,81.071,151.956,81.194,151.956,81.36z M150.674,88.317c0-0.283-0.115-0.502-0.348-0.654s-0.547-0.234-0.941-0.246
		l-1.707-0.059c-0.156,0.123-0.283,0.238-0.385,0.348c-0.101,0.109-0.18,0.217-0.236,0.314c-0.061,0.102-0.1,0.199-0.121,0.297
		s-0.033,0.199-0.033,0.301c0,0.316,0.16,0.561,0.482,0.723s0.771,0.244,1.348,0.244c0.367,0,0.674-0.033,0.92-0.104
		s0.445-0.166,0.598-0.281c0.152-0.117,0.261-0.252,0.326-0.404C150.641,88.641,150.674,88.483,150.674,88.317z M150.066,83.096
		c0-0.449-0.123-0.799-0.368-1.053c-0.248-0.25-0.599-0.377-1.054-0.377c-0.233,0-0.438,0.039-0.61,0.117s-0.316,0.188-0.433,0.322
		c-0.115,0.137-0.201,0.293-0.256,0.473c-0.058,0.18-0.085,0.365-0.085,0.561c0,0.436,0.123,0.777,0.369,1.025
		c0.246,0.25,0.593,0.373,1.037,0.373c0.238,0,0.445-0.037,0.621-0.111c0.176-0.076,0.32-0.182,0.438-0.316
		c0.112-0.133,0.198-0.289,0.256-0.465C150.038,83.469,150.066,83.285,150.066,83.096z"/>
	<path d="M156.475,84.135c0,0.191-0.021,0.322-0.064,0.396c-0.043,0.07-0.107,0.107-0.188,0.107h-3.063
		c-0.089,0-0.152-0.037-0.197-0.111c-0.043-0.076-0.064-0.207-0.064-0.395c0-0.186,0.021-0.313,0.064-0.389
		c0.045-0.074,0.108-0.109,0.197-0.109h3.063c0.038,0,0.073,0.008,0.104,0.021c0.029,0.016,0.059,0.043,0.08,0.084
		s0.037,0.096,0.051,0.156C156.469,83.965,156.475,84.043,156.475,84.135z"/>
	<path d="M164.275,87.381c0.063,0.105,0.103,0.191,0.113,0.256c0.012,0.063-0.005,0.113-0.048,0.148
		c-0.045,0.037-0.116,0.063-0.217,0.072c-0.102,0.014-0.231,0.02-0.397,0.02c-0.156,0-0.278-0.004-0.367-0.01
		c-0.088-0.01-0.157-0.021-0.209-0.041c-0.051-0.02-0.09-0.043-0.116-0.068c-0.027-0.027-0.05-0.063-0.068-0.107l-2.109-3.77
		l-2.131,3.77c-0.023,0.045-0.053,0.082-0.08,0.111c-0.029,0.027-0.07,0.053-0.121,0.068c-0.051,0.018-0.121,0.027-0.209,0.037
		c-0.088,0.006-0.205,0.01-0.354,0.01c-0.16,0-0.287-0.006-0.381-0.02c-0.093-0.012-0.156-0.035-0.191-0.072
		c-0.037-0.035-0.051-0.086-0.037-0.148c0.012-0.063,0.051-0.148,0.111-0.256l2.586-4.359l-2.469-4.211
		c-0.06-0.107-0.097-0.193-0.113-0.26c-0.018-0.066-0.006-0.117,0.033-0.154c0.039-0.035,0.106-0.061,0.205-0.068
		c0.1-0.01,0.231-0.016,0.401-0.016c0.146,0,0.269,0.004,0.358,0.012c0.095,0.008,0.166,0.021,0.222,0.037
		c0.054,0.016,0.092,0.041,0.117,0.072c0.022,0.031,0.051,0.066,0.079,0.105l2.035,3.545l2.021-3.545
		c0.023-0.039,0.049-0.074,0.074-0.105c0.021-0.031,0.059-0.057,0.104-0.072c0.047-0.018,0.11-0.029,0.194-0.037
		c0.082-0.008,0.194-0.012,0.336-0.012c0.151,0,0.274,0.006,0.369,0.02c0.097,0.014,0.164,0.035,0.205,0.068
		c0.043,0.035,0.06,0.084,0.049,0.15c-0.011,0.064-0.045,0.152-0.104,0.26l-2.461,4.182L164.275,87.381z"/>
	<path d="M174.902,84.069c0,0.191-0.047,0.326-0.144,0.406c-0.096,0.082-0.204,0.121-0.327,0.121h-4.343
		c0,0.365,0.037,0.695,0.111,0.988c0.072,0.293,0.195,0.545,0.367,0.756c0.172,0.209,0.396,0.369,0.67,0.482
		c0.275,0.111,0.611,0.168,1.008,0.168c0.314,0,0.594-0.025,0.84-0.076c0.246-0.053,0.457-0.107,0.638-0.174
		c0.18-0.063,0.325-0.119,0.44-0.172c0.115-0.051,0.203-0.076,0.262-0.076c0.033,0,0.064,0.008,0.093,0.025
		c0.028,0.016,0.047,0.043,0.063,0.076c0.015,0.033,0.023,0.082,0.031,0.145c0.008,0.061,0.012,0.135,0.012,0.223
		c0,0.063-0.002,0.119-0.006,0.164c-0.008,0.049-0.014,0.09-0.021,0.125c-0.006,0.037-0.02,0.07-0.035,0.1
		c-0.018,0.029-0.039,0.059-0.064,0.084c-0.027,0.027-0.106,0.072-0.238,0.133c-0.133,0.061-0.303,0.121-0.514,0.18
		c-0.209,0.061-0.453,0.111-0.729,0.156c-0.275,0.047-0.57,0.07-0.883,0.07c-0.543,0-1.018-0.076-1.426-0.229
		c-0.408-0.15-0.75-0.375-1.027-0.674s-0.488-0.672-0.631-1.121c-0.143-0.447-0.213-0.971-0.213-1.564
		c0-0.566,0.074-1.076,0.221-1.527c0.146-0.453,0.357-0.836,0.635-1.15c0.273-0.313,0.607-0.557,1-0.725
		c0.391-0.17,0.826-0.254,1.311-0.254c0.519,0,0.959,0.084,1.322,0.25s0.662,0.389,0.896,0.67c0.232,0.281,0.404,0.609,0.518,0.988
		c0.109,0.379,0.164,0.781,0.164,1.213L174.902,84.069L174.902,84.069z M173.687,83.711c0.015-0.635-0.127-1.133-0.424-1.494
		c-0.3-0.361-0.738-0.543-1.324-0.543c-0.299,0-0.563,0.057-0.787,0.17c-0.226,0.111-0.416,0.262-0.567,0.445
		c-0.15,0.188-0.271,0.4-0.354,0.646c-0.084,0.248-0.131,0.506-0.141,0.771h3.598L173.687,83.711L173.687,83.711z"/>
	<path d="M177.95,87.651c0,0.039-0.011,0.072-0.029,0.1c-0.021,0.025-0.051,0.051-0.096,0.068c-0.043,0.021-0.104,0.035-0.183,0.045
		c-0.08,0.01-0.181,0.014-0.302,0.014c-0.116,0-0.215-0.004-0.293-0.014c-0.077-0.01-0.141-0.023-0.188-0.045
		c-0.047-0.02-0.078-0.043-0.096-0.068s-0.025-0.061-0.025-0.1v-9.785c0-0.039,0.01-0.072,0.025-0.102
		c0.018-0.029,0.049-0.055,0.096-0.074s0.109-0.033,0.188-0.043c0.08-0.01,0.177-0.016,0.293-0.016c0.121,0,0.224,0.006,0.302,0.016
		s0.14,0.023,0.183,0.043c0.045,0.02,0.075,0.045,0.096,0.074c0.021,0.027,0.029,0.063,0.029,0.102V87.651z"/>
	<path d="M185.809,84.069c0,0.191-0.049,0.326-0.145,0.406c-0.097,0.082-0.205,0.121-0.326,0.121h-4.342
		c0,0.365,0.037,0.695,0.108,0.988c0.074,0.293,0.197,0.545,0.369,0.756c0.172,0.209,0.396,0.369,0.67,0.482
		c0.272,0.111,0.608,0.168,1.008,0.168c0.313,0,0.595-0.025,0.841-0.076c0.243-0.053,0.457-0.107,0.635-0.174
		c0.18-0.063,0.328-0.119,0.442-0.172c0.115-0.051,0.201-0.076,0.261-0.076c0.035,0,0.065,0.008,0.092,0.025
		c0.027,0.018,0.049,0.043,0.063,0.076s0.024,0.082,0.031,0.145c0.008,0.061,0.012,0.135,0.012,0.223
		c0,0.063-0.002,0.119-0.008,0.164c-0.004,0.049-0.011,0.09-0.019,0.125c-0.008,0.037-0.021,0.07-0.037,0.1
		c-0.018,0.029-0.039,0.059-0.065,0.084c-0.024,0.027-0.104,0.072-0.235,0.133c-0.134,0.061-0.304,0.121-0.515,0.18
		c-0.209,0.061-0.453,0.111-0.729,0.156c-0.273,0.047-0.568,0.07-0.883,0.07c-0.541,0-1.017-0.076-1.425-0.229
		c-0.407-0.15-0.75-0.375-1.028-0.674c-0.277-0.299-0.486-0.672-0.629-1.121c-0.144-0.447-0.213-0.971-0.213-1.564
		c0-0.566,0.071-1.076,0.219-1.527c0.146-0.453,0.356-0.836,0.635-1.15c0.275-0.313,0.609-0.557,1-0.725
		c0.391-0.17,0.826-0.254,1.313-0.254c0.518,0,0.957,0.084,1.32,0.25s0.664,0.389,0.896,0.67c0.233,0.281,0.406,0.609,0.518,0.988
		c0.109,0.379,0.166,0.781,0.166,1.213V84.069L185.809,84.069z M184.592,83.711c0.016-0.635-0.127-1.133-0.424-1.494
		s-0.738-0.543-1.322-0.543c-0.301,0-0.563,0.057-0.789,0.17c-0.227,0.111-0.414,0.262-0.564,0.445
		c-0.152,0.188-0.271,0.4-0.354,0.646c-0.084,0.248-0.132,0.506-0.142,0.771h3.596V83.711L184.592,83.711z"/>
	<path d="M197.424,87.651c0,0.039-0.01,0.072-0.029,0.1c-0.02,0.025-0.051,0.051-0.096,0.068c-0.043,0.021-0.104,0.035-0.182,0.045
		c-0.08,0.01-0.177,0.014-0.293,0.014c-0.123,0-0.224-0.004-0.302-0.014s-0.142-0.023-0.188-0.045
		c-0.045-0.02-0.078-0.043-0.099-0.068s-0.028-0.061-0.028-0.1v-4.006c0-0.279-0.023-0.533-0.074-0.762
		c-0.049-0.23-0.127-0.428-0.232-0.596c-0.107-0.164-0.244-0.293-0.41-0.381s-0.361-0.131-0.586-0.131
		c-0.277,0-0.559,0.107-0.838,0.322c-0.281,0.215-0.59,0.527-0.928,0.941v4.607c0,0.039-0.01,0.072-0.029,0.1
		c-0.02,0.025-0.053,0.051-0.098,0.068c-0.049,0.02-0.109,0.035-0.188,0.045c-0.08,0.01-0.178,0.014-0.293,0.014
		c-0.111,0-0.211-0.004-0.289-0.014c-0.08-0.01-0.146-0.025-0.188-0.045c-0.048-0.02-0.08-0.043-0.097-0.068
		c-0.02-0.025-0.024-0.061-0.024-0.1v-4.006c0-0.279-0.026-0.533-0.082-0.764c-0.054-0.229-0.134-0.426-0.24-0.594
		c-0.106-0.164-0.243-0.293-0.405-0.381c-0.164-0.088-0.357-0.131-0.584-0.131c-0.277,0-0.56,0.105-0.842,0.322
		c-0.283,0.215-0.591,0.527-0.923,0.941v4.607c0,0.039-0.01,0.072-0.028,0.1c-0.021,0.025-0.054,0.051-0.097,0.068
		c-0.045,0.02-0.104,0.035-0.185,0.045c-0.079,0.01-0.178,0.014-0.301,0.014c-0.117,0-0.215-0.004-0.293-0.014
		s-0.141-0.025-0.188-0.045s-0.078-0.043-0.096-0.068c-0.019-0.025-0.025-0.061-0.025-0.1v-6.592c0-0.039,0.008-0.072,0.021-0.1
		c0.016-0.025,0.045-0.051,0.088-0.074c0.045-0.02,0.102-0.035,0.168-0.043c0.068-0.008,0.16-0.012,0.271-0.012
		c0.107,0,0.197,0.004,0.27,0.012c0.07,0.008,0.125,0.021,0.164,0.043c0.039,0.023,0.066,0.049,0.086,0.074
		c0.017,0.025,0.025,0.061,0.025,0.1v0.871c0.369-0.414,0.729-0.719,1.078-0.912c0.35-0.191,0.701-0.289,1.061-0.289
		c0.271,0,0.519,0.031,0.734,0.096c0.219,0.064,0.408,0.152,0.574,0.268c0.166,0.117,0.309,0.254,0.426,0.41
		c0.117,0.158,0.215,0.336,0.293,0.531c0.221-0.24,0.43-0.441,0.627-0.607c0.195-0.166,0.389-0.301,0.57-0.402
		s0.359-0.176,0.533-0.225c0.174-0.047,0.35-0.068,0.523-0.068c0.426,0,0.78,0.074,1.069,0.225c0.287,0.148,0.521,0.35,0.698,0.598
		c0.179,0.248,0.306,0.541,0.382,0.875c0.075,0.336,0.112,0.688,0.112,1.059v4.17h0.004V87.651z"/>
	<path d="M205.254,84.069c0,0.191-0.049,0.326-0.146,0.406c-0.096,0.082-0.202,0.121-0.325,0.121h-4.343
		c0,0.365,0.037,0.695,0.11,0.988c0.072,0.293,0.195,0.545,0.367,0.756c0.172,0.209,0.396,0.369,0.67,0.482
		c0.275,0.111,0.611,0.168,1.009,0.168c0.313,0,0.594-0.025,0.84-0.076c0.244-0.053,0.457-0.107,0.638-0.174
		c0.178-0.063,0.325-0.119,0.44-0.172c0.114-0.051,0.2-0.076,0.262-0.076c0.033,0,0.063,0.008,0.093,0.025
		c0.026,0.018,0.047,0.043,0.063,0.076s0.025,0.082,0.033,0.145c0.008,0.061,0.012,0.135,0.012,0.223
		c0,0.063-0.004,0.119-0.008,0.164c-0.006,0.049-0.012,0.09-0.02,0.125c-0.007,0.037-0.021,0.07-0.035,0.1
		c-0.019,0.029-0.041,0.059-0.066,0.084c-0.027,0.027-0.105,0.072-0.238,0.133c-0.131,0.061-0.303,0.121-0.512,0.18
		c-0.211,0.061-0.453,0.111-0.729,0.156c-0.275,0.047-0.57,0.07-0.883,0.07c-0.543,0-1.018-0.076-1.426-0.229
		c-0.408-0.15-0.75-0.375-1.027-0.674s-0.488-0.672-0.631-1.121c-0.143-0.447-0.213-0.971-0.213-1.564
		c0-0.566,0.074-1.076,0.221-1.527c0.146-0.453,0.357-0.836,0.635-1.15c0.273-0.313,0.607-0.557,1-0.725
		c0.392-0.17,0.826-0.254,1.312-0.254c0.519,0,0.957,0.084,1.321,0.25c0.363,0.166,0.662,0.389,0.896,0.67
		c0.232,0.281,0.404,0.609,0.518,0.988c0.109,0.379,0.164,0.781,0.164,1.213L205.254,84.069L205.254,84.069z M204.04,83.711
		c0.016-0.635-0.127-1.133-0.424-1.494c-0.3-0.361-0.738-0.543-1.324-0.543c-0.299,0-0.563,0.057-0.787,0.17
		c-0.226,0.111-0.416,0.262-0.566,0.445c-0.152,0.188-0.271,0.4-0.354,0.646c-0.084,0.248-0.131,0.506-0.143,0.771h3.598V83.711
		L204.04,83.711z"/>
	<path d="M212.77,87.651c0,0.039-0.012,0.072-0.029,0.1c-0.02,0.025-0.053,0.051-0.096,0.068c-0.045,0.021-0.104,0.035-0.184,0.045
		s-0.176,0.014-0.293,0.014c-0.123,0-0.224-0.004-0.301-0.014c-0.078-0.01-0.14-0.023-0.185-0.045
		c-0.043-0.02-0.074-0.043-0.095-0.068c-0.021-0.025-0.028-0.061-0.028-0.1v-3.859c0-0.377-0.028-0.68-0.088-0.906
		c-0.06-0.23-0.146-0.43-0.259-0.596c-0.11-0.166-0.258-0.293-0.436-0.381c-0.18-0.088-0.385-0.131-0.619-0.131
		c-0.303,0-0.604,0.107-0.908,0.322c-0.303,0.215-0.619,0.527-0.951,0.943v4.605c0,0.039-0.01,0.072-0.028,0.1
		c-0.021,0.025-0.051,0.051-0.097,0.07c-0.043,0.02-0.104,0.033-0.184,0.043c-0.078,0.01-0.18,0.016-0.301,0.016
		c-0.115,0-0.215-0.006-0.293-0.016c-0.077-0.01-0.141-0.023-0.188-0.043c-0.047-0.021-0.078-0.045-0.096-0.07
		c-0.019-0.025-0.025-0.061-0.025-0.1v-6.592c0-0.039,0.008-0.07,0.021-0.102c0.016-0.023,0.045-0.051,0.088-0.07
		c0.045-0.021,0.102-0.037,0.17-0.045c0.067-0.008,0.157-0.012,0.271-0.012c0.106,0,0.194,0.004,0.269,0.012
		c0.069,0.008,0.125,0.021,0.164,0.045c0.039,0.021,0.065,0.047,0.084,0.07c0.018,0.027,0.024,0.063,0.024,0.102v0.871
		c0.371-0.414,0.739-0.721,1.108-0.912s0.742-0.289,1.117-0.289c0.439,0,0.812,0.074,1.109,0.225
		c0.301,0.148,0.543,0.35,0.729,0.598c0.187,0.25,0.318,0.541,0.398,0.875c0.082,0.336,0.121,0.736,0.121,1.205v4.021H212.77z"/>
	<path d="M218.262,87.168c0,0.143-0.01,0.254-0.029,0.336c-0.02,0.084-0.049,0.145-0.088,0.184s-0.098,0.076-0.176,0.109
		c-0.078,0.035-0.168,0.063-0.268,0.086c-0.101,0.02-0.207,0.039-0.318,0.055c-0.111,0.014-0.225,0.021-0.338,0.021
		c-0.342,0-0.635-0.047-0.879-0.137c-0.244-0.092-0.443-0.229-0.601-0.41c-0.155-0.184-0.271-0.414-0.34-0.695
		c-0.072-0.279-0.106-0.611-0.106-0.992v-3.854h-0.922c-0.074,0-0.134-0.039-0.177-0.115c-0.045-0.078-0.065-0.205-0.065-0.383
		c0-0.092,0.006-0.17,0.018-0.232c0.014-0.064,0.029-0.117,0.049-0.158c0.021-0.041,0.045-0.07,0.076-0.088s0.066-0.025,0.105-0.025
		h0.916v-1.566c0-0.033,0.008-0.064,0.024-0.096c0.019-0.027,0.049-0.055,0.097-0.076c0.047-0.021,0.108-0.037,0.188-0.049
		c0.078-0.01,0.176-0.016,0.293-0.016c0.121,0,0.223,0.006,0.301,0.016c0.078,0.012,0.141,0.025,0.184,0.049
		c0.045,0.021,0.074,0.049,0.096,0.076c0.021,0.029,0.029,0.063,0.029,0.096v1.566h1.689c0.039,0,0.074,0.008,0.104,0.025
		c0.028,0.018,0.057,0.047,0.076,0.088c0.021,0.041,0.038,0.094,0.049,0.158c0.01,0.063,0.016,0.141,0.016,0.232
		c0,0.178-0.021,0.305-0.066,0.383c-0.043,0.076-0.102,0.115-0.176,0.115h-1.691v3.678c0,0.453,0.066,0.797,0.201,1.029
		c0.135,0.23,0.375,0.348,0.723,0.348c0.111,0,0.211-0.012,0.299-0.033c0.089-0.021,0.166-0.045,0.234-0.068
		s0.127-0.049,0.176-0.068c0.05-0.021,0.095-0.033,0.134-0.033c0.022,0,0.047,0.006,0.067,0.02c0.023,0.012,0.039,0.035,0.053,0.068
		c0.013,0.035,0.021,0.08,0.033,0.141C218.258,87.008,218.262,87.08,218.262,87.168z"/>
	<path d="M223.997,85.856c0,0.338-0.063,0.639-0.187,0.902c-0.125,0.264-0.304,0.484-0.531,0.666
		c-0.229,0.18-0.504,0.316-0.819,0.408c-0.316,0.094-0.666,0.141-1.047,0.141c-0.234,0-0.459-0.02-0.672-0.057
		c-0.212-0.035-0.402-0.082-0.57-0.139s-0.312-0.115-0.428-0.176c-0.117-0.064-0.203-0.115-0.259-0.166
		c-0.053-0.049-0.092-0.115-0.116-0.205c-0.021-0.088-0.035-0.207-0.035-0.357c0-0.092,0.004-0.17,0.016-0.232
		c0.01-0.064,0.021-0.115,0.035-0.154c0.016-0.039,0.035-0.068,0.063-0.084c0.025-0.018,0.058-0.025,0.091-0.025
		c0.055,0,0.133,0.031,0.237,0.1c0.104,0.064,0.233,0.139,0.39,0.217c0.153,0.078,0.336,0.15,0.545,0.217
		c0.211,0.064,0.453,0.1,0.727,0.1c0.205,0,0.393-0.021,0.559-0.066c0.166-0.043,0.31-0.107,0.432-0.193
		c0.121-0.086,0.218-0.191,0.281-0.324c0.064-0.133,0.101-0.287,0.101-0.471c0-0.186-0.048-0.342-0.144-0.469
		c-0.098-0.127-0.223-0.238-0.377-0.336c-0.156-0.098-0.332-0.186-0.527-0.262c-0.194-0.074-0.397-0.154-0.604-0.236
		c-0.207-0.084-0.41-0.178-0.607-0.283c-0.197-0.104-0.375-0.23-0.531-0.385c-0.156-0.152-0.281-0.332-0.377-0.541
		c-0.096-0.211-0.143-0.461-0.143-0.754c0-0.26,0.049-0.508,0.149-0.744s0.25-0.445,0.449-0.623c0.2-0.178,0.45-0.32,0.752-0.428
		c0.301-0.109,0.649-0.162,1.051-0.162c0.177,0,0.353,0.016,0.526,0.045c0.175,0.029,0.334,0.066,0.478,0.109
		c0.142,0.045,0.263,0.092,0.361,0.143c0.101,0.051,0.176,0.098,0.229,0.137c0.051,0.039,0.084,0.072,0.102,0.104
		c0.018,0.029,0.029,0.063,0.037,0.1s0.014,0.082,0.021,0.135c0.009,0.057,0.013,0.121,0.013,0.199c0,0.082-0.004,0.154-0.013,0.215
		c-0.008,0.063-0.021,0.111-0.036,0.15c-0.019,0.039-0.037,0.066-0.063,0.084c-0.023,0.018-0.052,0.025-0.08,0.025
		c-0.044,0-0.106-0.027-0.188-0.08c-0.084-0.057-0.191-0.111-0.322-0.172c-0.133-0.064-0.287-0.119-0.465-0.174
		c-0.181-0.055-0.383-0.082-0.612-0.082c-0.204,0-0.386,0.023-0.542,0.07s-0.285,0.111-0.385,0.197
		c-0.101,0.086-0.176,0.188-0.228,0.305c-0.051,0.117-0.078,0.244-0.078,0.381c0,0.189,0.05,0.352,0.146,0.48
		c0.099,0.129,0.226,0.242,0.382,0.34c0.155,0.1,0.336,0.188,0.534,0.266c0.201,0.078,0.404,0.158,0.611,0.242
		c0.207,0.082,0.412,0.176,0.613,0.275c0.203,0.104,0.383,0.229,0.539,0.375c0.156,0.145,0.281,0.322,0.377,0.525
		S223.997,85.573,223.997,85.856z"/>
</g>
<path d="M153.723,26.131c0.373-0.333,0.939-0.317,1.295,0.034l0.313,0.314c0.353,0.353,0.367,0.921,0.033,1.293L152,31.531
	c-0.102,0.114-0.16,0.263-0.16,0.419v0.839c0,0.346-0.28,0.627-0.627,0.627h-0.617c-0.182,0-0.352,0.075-0.469,0.208l-10.646,11.901
	c-0.25,0.278-0.604,0.435-0.978,0.435c-0.344,0-0.678-0.137-0.92-0.384l-1.67-1.666c-0.244-0.247-0.383-0.577-0.383-0.922
	c0-0.372,0.156-0.725,0.438-0.972l4.375-3.912c0.134-0.118,0.207-0.29,0.207-0.466v-1.086c0-0.346,0.283-0.627,0.627-0.627h1.357
	c0.15,0,0.301-0.06,0.418-0.161L153.723,26.131z M152.467,37.18c0.143,0,0.264,0.094,0.305,0.228l0.578,2.026l2.027,0.581
	c0.133,0.039,0.227,0.161,0.227,0.302s-0.094,0.263-0.227,0.302l-2.027,0.58l-0.578,2.027c-0.041,0.133-0.162,0.227-0.305,0.227
	c-0.141,0-0.262-0.094-0.301-0.227l-0.58-2.027l-2.025-0.58c-0.133-0.039-0.229-0.161-0.229-0.302s0.096-0.263,0.229-0.302
	l2.025-0.581l0.58-2.026C152.206,37.275,152.327,37.18,152.467,37.18z M138.973,28.627l0.578,2.027l2.027,0.58
	c0.133,0.04,0.229,0.161,0.229,0.302c0,0.142-0.096,0.264-0.229,0.303l-2.027,0.58l-0.578,2.026
	c-0.039,0.133-0.16,0.229-0.303,0.229c-0.144,0-0.264-0.095-0.303-0.229l-0.58-2.026l-2.025-0.58
	c-0.135-0.039-0.229-0.161-0.229-0.303c0-0.141,0.094-0.263,0.229-0.302l2.025-0.58l0.58-2.027c0.039-0.133,0.159-0.228,0.303-0.228
	C138.812,28.4,138.934,28.494,138.973,28.627z M143.687,25.891c0.146,0,0.271,0.098,0.308,0.239l0.27,1.069l1.066,0.268
	c0.145,0.034,0.239,0.16,0.239,0.306c0,0.145-0.098,0.271-0.239,0.306l-1.066,0.268l-0.27,1.069c-0.035,0.143-0.16,0.24-0.308,0.24
	c-0.146,0-0.271-0.098-0.308-0.24l-0.268-1.069l-1.068-0.268c-0.143-0.035-0.237-0.161-0.237-0.306c0-0.146,0.098-0.271,0.237-0.306
	l1.068-0.268l0.268-1.069C143.417,25.989,143.542,25.891,143.687,25.891L143.687,25.891z"/>
<path d="M209.777,32.926l3.455,3l-3.455,3V32.926z M192.357,35.026h17.996v1.8h-17.996V35.026z"/>
<g enable-background="new    ">
	<path d="M132.788,13.299c0,0.042-0.011,0.077-0.031,0.108s-0.057,0.057-0.107,0.074c-0.053,0.019-0.121,0.034-0.207,0.047
		s-0.193,0.021-0.324,0.021c-0.125,0-0.229-0.008-0.32-0.021c-0.088-0.013-0.157-0.028-0.211-0.047
		c-0.051-0.019-0.088-0.043-0.108-0.074s-0.031-0.066-0.031-0.108V3.595c0-0.042,0.013-0.078,0.035-0.109s0.063-0.056,0.117-0.074
		c0.055-0.018,0.125-0.034,0.211-0.047s0.188-0.02,0.31-0.02c0.131,0,0.237,0.007,0.323,0.02s0.156,0.028,0.207,0.047
		c0.054,0.02,0.091,0.043,0.108,0.074c0.021,0.031,0.031,0.067,0.031,0.109L132.788,13.299L132.788,13.299z"/>
	<path d="M145.756,13.306c0,0.042-0.01,0.077-0.031,0.104c-0.021,0.028-0.055,0.055-0.102,0.074
		c-0.047,0.021-0.111,0.036-0.195,0.047c-0.082,0.011-0.188,0.017-0.313,0.017c-0.132,0-0.236-0.006-0.32-0.017
		s-0.148-0.025-0.199-0.047c-0.049-0.021-0.084-0.046-0.104-0.074c-0.021-0.027-0.031-0.063-0.031-0.104V9.033
		c0-0.297-0.024-0.566-0.078-0.813c-0.053-0.245-0.135-0.456-0.25-0.633c-0.114-0.178-0.26-0.313-0.438-0.406
		c-0.176-0.094-0.385-0.142-0.625-0.142c-0.297,0-0.594,0.114-0.896,0.345c-0.299,0.229-0.629,0.564-0.987,1.008v4.914
		c0,0.042-0.011,0.077-0.03,0.104c-0.021,0.028-0.056,0.055-0.105,0.074c-0.049,0.021-0.113,0.036-0.197,0.047
		s-0.188,0.017-0.313,0.017c-0.119,0-0.225-0.006-0.311-0.017s-0.152-0.025-0.203-0.047c-0.049-0.021-0.082-0.046-0.102-0.074
		c-0.018-0.027-0.027-0.063-0.027-0.104V9.033c0-0.297-0.027-0.566-0.086-0.813c-0.057-0.245-0.143-0.456-0.258-0.633
		c-0.113-0.178-0.26-0.313-0.434-0.406c-0.174-0.094-0.381-0.142-0.621-0.142c-0.297,0-0.597,0.114-0.898,0.345
		c-0.303,0.229-0.629,0.564-0.982,1.008v4.914c0,0.042-0.012,0.077-0.031,0.104c-0.021,0.028-0.057,0.055-0.104,0.074
		c-0.047,0.021-0.109,0.036-0.193,0.047s-0.188,0.017-0.32,0.017c-0.125,0-0.229-0.006-0.313-0.017
		c-0.082-0.011-0.148-0.025-0.199-0.047c-0.049-0.021-0.082-0.046-0.103-0.074c-0.019-0.027-0.026-0.063-0.026-0.104V6.275
		c0-0.042,0.008-0.077,0.022-0.104c0.017-0.028,0.047-0.056,0.095-0.078c0.047-0.023,0.106-0.039,0.18-0.047
		c0.074-0.009,0.17-0.013,0.289-0.013c0.115,0,0.211,0.004,0.285,0.013c0.075,0.008,0.135,0.021,0.176,0.047
		c0.043,0.022,0.072,0.05,0.09,0.078c0.02,0.027,0.027,0.063,0.027,0.104v0.93c0.396-0.441,0.78-0.767,1.151-0.973
		c0.373-0.206,0.75-0.309,1.129-0.309c0.293,0,0.556,0.033,0.785,0.102c0.231,0.067,0.438,0.163,0.612,0.285
		c0.179,0.122,0.328,0.269,0.453,0.438s0.229,0.358,0.313,0.566c0.233-0.255,0.457-0.472,0.668-0.648
		c0.211-0.176,0.414-0.319,0.608-0.43c0.195-0.11,0.388-0.188,0.57-0.238c0.187-0.05,0.371-0.073,0.56-0.073
		c0.452,0,0.834,0.079,1.141,0.237c0.31,0.159,0.558,0.371,0.746,0.638c0.19,0.266,0.326,0.576,0.406,0.934
		c0.081,0.356,0.12,0.733,0.12,1.129v4.444H145.756z"/>
	<path d="M154.577,9.681c0,0.613-0.064,1.167-0.199,1.656c-0.133,0.488-0.328,0.904-0.586,1.245
		c-0.258,0.342-0.576,0.604-0.957,0.789c-0.379,0.186-0.813,0.277-1.305,0.277c-0.207,0-0.4-0.021-0.578-0.063
		c-0.177-0.042-0.351-0.105-0.521-0.194c-0.168-0.089-0.336-0.2-0.504-0.336c-0.166-0.137-0.345-0.294-0.531-0.478v3.517
		c0,0.042-0.01,0.078-0.03,0.108c-0.02,0.031-0.056,0.059-0.103,0.078c-0.048,0.021-0.111,0.036-0.195,0.047
		c-0.082,0.012-0.188,0.017-0.319,0.017c-0.125,0-0.229-0.005-0.313-0.017c-0.082-0.011-0.148-0.025-0.199-0.047
		c-0.049-0.021-0.082-0.047-0.102-0.078c-0.018-0.03-0.027-0.066-0.027-0.108v-9.82c0-0.047,0.01-0.085,0.023-0.113
		c0.016-0.027,0.047-0.054,0.094-0.073c0.047-0.021,0.107-0.035,0.182-0.044c0.072-0.008,0.16-0.012,0.266-0.012
		c0.109,0,0.199,0.004,0.271,0.012c0.07,0.009,0.13,0.022,0.177,0.044c0.047,0.021,0.08,0.046,0.098,0.073
		c0.02,0.028,0.027,0.066,0.027,0.113v0.945c0.213-0.22,0.42-0.409,0.616-0.57c0.197-0.161,0.396-0.296,0.599-0.402
		c0.201-0.105,0.406-0.188,0.617-0.241c0.211-0.055,0.434-0.082,0.668-0.082c0.51,0,0.944,0.099,1.305,0.297
		c0.359,0.197,0.652,0.469,0.879,0.813s0.393,0.743,0.496,1.199C154.525,8.687,154.577,9.17,154.577,9.681z M153.241,9.829
		c0-0.358-0.027-0.707-0.082-1.043c-0.056-0.336-0.148-0.634-0.283-0.895c-0.133-0.261-0.313-0.469-0.537-0.625
		s-0.506-0.234-0.842-0.234c-0.168,0-0.334,0.024-0.496,0.074s-0.326,0.128-0.494,0.234c-0.168,0.105-0.344,0.247-0.525,0.422
		c-0.184,0.175-0.377,0.39-0.582,0.645v2.797c0.355,0.434,0.695,0.764,1.016,0.992c0.319,0.229,0.654,0.344,1.006,0.344
		c0.324,0,0.604-0.077,0.836-0.233c0.234-0.156,0.423-0.364,0.566-0.625c0.146-0.262,0.25-0.552,0.318-0.875
		C153.208,10.483,153.241,10.157,153.241,9.829z"/>
	<path d="M163.053,9.713c0,0.572-0.074,1.101-0.227,1.581c-0.15,0.481-0.377,0.897-0.677,1.246c-0.299,0.35-0.674,0.621-1.125,0.816
		c-0.45,0.195-0.973,0.293-1.565,0.293c-0.578,0-1.082-0.086-1.512-0.258c-0.431-0.172-0.787-0.422-1.074-0.75
		s-0.5-0.728-0.642-1.195s-0.211-1-0.211-1.594c0-0.573,0.074-1.102,0.224-1.582c0.148-0.481,0.373-0.897,0.672-1.246
		s0.674-0.62,1.121-0.813c0.446-0.191,0.971-0.288,1.569-0.288c0.578,0,1.082,0.086,1.513,0.258c0.43,0.172,0.787,0.422,1.073,0.75
		c0.287,0.328,0.502,0.727,0.646,1.194C162.982,8.595,163.053,9.123,163.053,9.713z M161.717,9.799c0-0.381-0.035-0.739-0.105-1.078
		s-0.188-0.637-0.352-0.892c-0.162-0.255-0.383-0.457-0.662-0.604c-0.277-0.148-0.625-0.224-1.041-0.224
		c-0.383,0-0.713,0.067-0.988,0.203c-0.275,0.137-0.504,0.327-0.682,0.574c-0.18,0.247-0.313,0.54-0.396,0.879
		c-0.088,0.339-0.133,0.708-0.133,1.109c0,0.386,0.035,0.747,0.107,1.086c0.07,0.339,0.188,0.634,0.354,0.887
		c0.166,0.253,0.391,0.453,0.666,0.603c0.279,0.147,0.627,0.223,1.041,0.223c0.379,0,0.707-0.067,0.986-0.203
		c0.277-0.136,0.506-0.325,0.686-0.57c0.18-0.244,0.311-0.535,0.396-0.875C161.676,10.576,161.717,10.204,161.717,9.799z"/>
	<path d="M169.061,6.735c0,0.114-0.002,0.211-0.008,0.289s-0.016,0.14-0.031,0.184s-0.035,0.078-0.059,0.103
		c-0.024,0.023-0.057,0.035-0.098,0.035s-0.093-0.013-0.152-0.035c-0.061-0.023-0.127-0.047-0.203-0.07
		c-0.074-0.022-0.16-0.046-0.254-0.065c-0.094-0.021-0.195-0.031-0.305-0.031c-0.132,0-0.259,0.025-0.384,0.078
		c-0.125,0.052-0.256,0.138-0.396,0.258c-0.139,0.12-0.282,0.278-0.434,0.477c-0.15,0.198-0.318,0.44-0.5,0.728v4.625
		c0,0.042-0.012,0.077-0.031,0.104c-0.021,0.028-0.057,0.055-0.104,0.074c-0.047,0.021-0.109,0.036-0.193,0.047
		c-0.084,0.012-0.188,0.017-0.32,0.017c-0.125,0-0.229-0.006-0.313-0.017c-0.082-0.011-0.147-0.025-0.198-0.047
		c-0.049-0.021-0.082-0.046-0.103-0.074c-0.019-0.027-0.026-0.063-0.026-0.104V6.277c0-0.042,0.008-0.077,0.022-0.104
		c0.017-0.028,0.047-0.056,0.094-0.078c0.048-0.023,0.106-0.039,0.181-0.047c0.073-0.009,0.17-0.013,0.289-0.013
		c0.114,0,0.211,0.004,0.285,0.013c0.075,0.008,0.135,0.022,0.176,0.047c0.043,0.022,0.071,0.05,0.09,0.078
		c0.02,0.027,0.027,0.063,0.027,0.104v1.023c0.192-0.281,0.375-0.512,0.543-0.688c0.17-0.177,0.329-0.315,0.479-0.418
		c0.151-0.102,0.301-0.172,0.448-0.211c0.148-0.039,0.3-0.059,0.449-0.059c0.068,0,0.146,0.004,0.23,0.012
		c0.084,0.008,0.176,0.021,0.27,0.043c0.094,0.021,0.18,0.044,0.254,0.07c0.076,0.025,0.129,0.052,0.16,0.077
		c0.031,0.026,0.053,0.052,0.063,0.074c0.012,0.023,0.021,0.055,0.026,0.09c0.008,0.036,0.015,0.091,0.017,0.16
		C169.061,6.52,169.061,6.615,169.061,6.735z"/>
	<path d="M174.186,12.79c0,0.151-0.01,0.271-0.031,0.359c-0.021,0.089-0.051,0.153-0.094,0.195
		c-0.041,0.042-0.104,0.081-0.188,0.116c-0.084,0.036-0.179,0.066-0.285,0.091c-0.105,0.022-0.221,0.043-0.34,0.059
		s-0.24,0.023-0.359,0.023c-0.363,0-0.678-0.049-0.938-0.146c-0.261-0.097-0.476-0.242-0.642-0.438s-0.287-0.442-0.362-0.742
		c-0.076-0.3-0.113-0.652-0.113-1.06V7.14h-0.984c-0.078,0-0.141-0.042-0.188-0.125s-0.07-0.219-0.07-0.406
		c0-0.099,0.008-0.183,0.02-0.25c0.016-0.067,0.031-0.124,0.053-0.168c0.021-0.044,0.049-0.075,0.082-0.094
		c0.033-0.02,0.07-0.027,0.111-0.027h0.979V4.398c0-0.036,0.011-0.07,0.025-0.102c0.02-0.031,0.055-0.06,0.104-0.082
		c0.05-0.023,0.115-0.04,0.199-0.052c0.084-0.011,0.188-0.016,0.313-0.016c0.131,0,0.236,0.005,0.318,0.016
		c0.084,0.012,0.147,0.027,0.195,0.052c0.047,0.023,0.081,0.051,0.102,0.082c0.021,0.03,0.031,0.064,0.031,0.102V6.07h1.807
		c0.041,0,0.076,0.009,0.107,0.027c0.03,0.018,0.061,0.05,0.082,0.094c0.022,0.044,0.041,0.101,0.051,0.168
		c0.012,0.067,0.018,0.151,0.018,0.25c0,0.188-0.023,0.323-0.07,0.406s-0.109,0.125-0.188,0.125h-1.807v3.922
		c0,0.484,0.071,0.851,0.215,1.098c0.145,0.247,0.399,0.371,0.771,0.371c0.119,0,0.227-0.012,0.32-0.035
		c0.092-0.022,0.178-0.048,0.25-0.073c0.072-0.026,0.135-0.052,0.188-0.074c0.053-0.023,0.1-0.035,0.141-0.035
		c0.027,0,0.052,0.007,0.074,0.02c0.023,0.014,0.043,0.038,0.056,0.074c0.014,0.036,0.024,0.086,0.034,0.148
		S174.186,12.696,174.186,12.79z"/>
</g>
</svg>
