<?xml version="1.0" encoding="utf-8"?>
<!-- Generator: Adobe Illustrator 16.0.3, SVG Export Plug-In . SVG Version: 6.00 Build 0)  -->
<!DOCTYPE svg PUBLIC "-//W3C//DTD SVG 1.1//EN" "http://www.w3.org/Graphics/SVG/1.1/DTD/svg11.dtd">
<svg version="1.1" id="Layer_1" xmlns="http://www.w3.org/2000/svg" xmlns:xlink="http://www.w3.org/1999/xlink" x="0px" y="0px"
	 width="310px" height="85.167px" viewBox="0 0 310 85.167" enable-background="new 0 0 310 85.167" xml:space="preserve">
<g enable-background="new    ">
	<path d="M12.903,29.782v13.314h3.437c0.819,0,1.403,0.157,1.751,0.474c0.349,0.314,0.523,0.728,0.523,1.236
		c0,0.498-0.174,0.904-0.523,1.221c-0.349,0.314-0.933,0.473-1.751,0.473H6.063c-0.819,0-1.403-0.158-1.751-0.473
		c-0.349-0.316-0.523-0.729-0.523-1.237c0-0.498,0.174-0.905,0.523-1.22c0.349-0.316,0.932-0.474,1.751-0.474H9.5V29.782H6.063
		c-0.819,0-1.403-0.157-1.751-0.474c-0.349-0.314-0.523-0.728-0.523-1.236s0.174-0.922,0.523-1.236
		c0.349-0.316,0.932-0.474,1.751-0.474l10.276,0.017c0.819,0,1.403,0.155,1.751,0.465s0.523,0.72,0.523,1.229
		s-0.174,0.922-0.523,1.236c-0.349,0.316-0.933,0.474-1.751,0.474H12.903z"/>
	<path d="M26.351,31.425v0.963c0.553-0.542,1.054-0.916,1.502-1.121c0.448-0.204,0.965-0.307,1.552-0.307
		c0.498,0,0.99,0.122,1.478,0.365c0.487,0.243,0.963,0.608,1.428,1.096c0.586-0.487,1.181-0.85,1.785-1.088
		c0.603-0.237,1.22-0.356,1.851-0.356c1.262,0,2.285,0.338,3.071,1.013c1.04,0.886,1.561,2.048,1.561,3.486v7.62
		c0.708,0,1.234,0.16,1.577,0.481c0.343,0.321,0.515,0.73,0.515,1.229s-0.172,0.904-0.515,1.221
		c-0.343,0.314-0.924,0.473-1.743,0.473h-3.237V35.758c0-0.521-0.094-0.88-0.282-1.079c-0.188-0.199-0.476-0.299-0.863-0.299
		c-0.376,0-0.725,0.1-1.046,0.299c-0.41,0.276-0.908,0.797-1.494,1.561v6.856c0.708,0,1.234,0.16,1.577,0.481
		c0.343,0.321,0.515,0.73,0.515,1.229s-0.172,0.904-0.515,1.221c-0.343,0.314-0.924,0.473-1.743,0.473h-3.237V35.758
		c0-0.509-0.097-0.866-0.291-1.071c-0.194-0.204-0.484-0.307-0.872-0.307c-0.398,0-0.792,0.125-1.179,0.373
		c-0.388,0.25-0.853,0.745-1.395,1.486v6.856c0.708,0,1.237,0.16,1.585,0.481s0.523,0.73,0.523,1.229s-0.174,0.904-0.523,1.221
		c-0.349,0.314-0.933,0.473-1.751,0.473h-3.071c-0.819,0-1.403-0.158-1.751-0.473c-0.349-0.316-0.523-0.729-0.523-1.237
		c0-0.498,0.172-0.905,0.515-1.22c0.343-0.316,0.874-0.474,1.594-0.474v-8.268c-0.72,0-1.251-0.16-1.594-0.481
		s-0.515-0.73-0.515-1.229s0.174-0.904,0.523-1.221c0.349-0.314,0.932-0.473,1.751-0.473H26.351z"/>
	<path d="M47.783,44.624v5.578h2.042c0.819,0,1.403,0.157,1.751,0.474c0.349,0.314,0.523,0.728,0.523,1.236
		c0,0.498-0.174,0.904-0.523,1.221c-0.349,0.314-0.933,0.473-1.751,0.473h-6.026c-0.819,0-1.403-0.158-1.751-0.473
		c-0.349-0.316-0.523-0.723-0.523-1.221c0-0.509,0.177-0.922,0.531-1.236c0.354-0.316,0.935-0.474,1.743-0.474h0.581V34.829h-0.581
		c-0.819,0-1.403-0.157-1.751-0.474c-0.349-0.314-0.523-0.728-0.523-1.236c0-0.498,0.174-0.904,0.523-1.221
		c0.349-0.314,0.932-0.473,1.751-0.473h3.984v1.162c0.797-0.542,1.621-0.946,2.474-1.212c0.852-0.266,1.727-0.398,2.623-0.398
		c2.324,0,4.305,0.788,5.943,2.366c1.638,1.576,2.457,3.384,2.457,5.42c0,2.247-0.969,4.101-2.905,5.562
		c-1.616,1.218-3.437,1.826-5.462,1.826c-0.875,0-1.738-0.127-2.59-0.382C49.471,45.514,48.624,45.132,47.783,44.624z M57.877,38.78
		c0-0.476-0.188-1.082-0.564-1.817c-0.376-0.736-0.955-1.351-1.735-1.844c-0.78-0.492-1.696-0.738-2.748-0.738
		c-1.693,0-3.038,0.637-4.034,1.909c-0.675,0.874-1.013,1.716-1.013,2.523c0,0.907,0.484,1.79,1.453,2.647
		c0.968,0.858,2.167,1.287,3.594,1.287c1.438,0,2.64-0.426,3.603-1.278S57.877,39.72,57.877,38.78z"/>
	<path d="M71.706,31.425v2.125c1.428-1.029,2.554-1.716,3.378-2.059c0.824-0.343,1.596-0.515,2.316-0.515
		c1.106,0,2.18,0.409,3.221,1.229c0.708,0.554,1.063,1.118,1.063,1.693c0,0.487-0.169,0.899-0.506,1.237
		c-0.338,0.337-0.745,0.506-1.22,0.506c-0.421,0-0.863-0.21-1.328-0.631s-0.88-0.631-1.245-0.631c-0.476,0-1.187,0.299-2.133,0.896
		s-2.128,1.494-3.544,2.689v5.13h4.848c0.819,0,1.403,0.157,1.751,0.474c0.349,0.314,0.523,0.728,0.523,1.236
		c0,0.498-0.174,0.904-0.523,1.221c-0.349,0.314-0.933,0.473-1.751,0.473H66.277c-0.819,0-1.403-0.158-1.751-0.473
		c-0.349-0.316-0.523-0.729-0.523-1.237c0-0.498,0.174-0.905,0.523-1.22c0.349-0.316,0.932-0.474,1.751-0.474h2.025v-8.268h-1.229
		c-0.819,0-1.403-0.157-1.751-0.474c-0.349-0.314-0.523-0.728-0.523-1.236c0-0.498,0.174-0.904,0.523-1.221
		c0.349-0.314,0.932-0.473,1.751-0.473H71.706z"/>
	<path d="M101.356,40.689H87.395c0.354,0.886,0.982,1.6,1.884,2.142c0.902,0.542,2.122,0.813,3.661,0.813
		c1.262,0,2.938-0.271,5.03-0.813c0.863-0.222,1.461-0.332,1.793-0.332c0.454,0,0.835,0.16,1.146,0.481
		c0.31,0.321,0.465,0.725,0.465,1.212c0,0.442-0.166,0.819-0.498,1.129c-0.443,0.409-1.522,0.8-3.237,1.171
		c-1.716,0.37-3.365,0.556-4.947,0.556c-2.723,0-4.9-0.77-6.533-2.308c-1.633-1.538-2.449-3.431-2.449-5.678
		c0-2.391,0.882-4.336,2.648-5.836c1.765-1.499,3.799-2.249,6.101-2.249c1.383,0,2.653,0.243,3.81,0.73
		c1.156,0.487,2.017,1.013,2.582,1.577c0.797,0.819,1.455,1.832,1.976,3.038c0.354,0.841,0.531,1.815,0.531,2.922V40.689z
		 M97.588,37.286c-0.521-0.974-1.201-1.702-2.042-2.183c-0.841-0.482-1.843-0.723-3.005-0.723c-1.151,0-2.147,0.24-2.988,0.723
		c-0.841,0.48-1.527,1.209-2.059,2.183H97.588z"/>
	<path d="M116.896,35.41c-0.554-0.343-1.135-0.601-1.743-0.771c-0.609-0.172-1.245-0.258-1.909-0.258
		c-1.317,0-2.363,0.216-3.138,0.647c-0.343,0.188-0.515,0.393-0.515,0.614c0,0.255,0.232,0.504,0.697,0.747
		c0.354,0.177,1.146,0.349,2.374,0.515c2.258,0.31,3.829,0.62,4.715,0.93c1.162,0.409,2.059,1.019,2.689,1.826
		s0.946,1.66,0.946,2.557c0,1.218-0.537,2.235-1.61,3.055c-1.539,1.185-3.536,1.776-5.993,1.776c-0.985,0-1.896-0.086-2.731-0.257
		c-0.836-0.172-1.602-0.424-2.299-0.756c-0.166,0.144-0.343,0.255-0.531,0.332c-0.188,0.077-0.382,0.116-0.581,0.116
		c-0.531,0-0.955-0.175-1.27-0.522c-0.315-0.35-0.473-0.933-0.473-1.752v-1.146c0-0.819,0.158-1.403,0.473-1.751
		c0.315-0.35,0.728-0.523,1.237-0.523c0.409,0,0.752,0.113,1.029,0.34c0.276,0.228,0.492,0.617,0.647,1.171
		c0.52,0.442,1.146,0.777,1.876,1.005c0.73,0.227,1.571,0.34,2.523,0.34c1.561,0,2.772-0.243,3.636-0.73
		c0.409-0.243,0.614-0.498,0.614-0.764c0-0.442-0.293-0.808-0.88-1.096c-0.587-0.288-1.799-0.531-3.636-0.73
		c-2.734-0.288-4.56-0.841-5.479-1.66c-0.919-0.808-1.378-1.804-1.378-2.988c0-1.218,0.515-2.23,1.544-3.038
		c1.395-1.106,3.221-1.66,5.479-1.66c0.786,0,1.541,0.075,2.266,0.224c0.725,0.15,1.419,0.38,2.083,0.689
		c0.21-0.155,0.407-0.271,0.589-0.349s0.351-0.116,0.506-0.116c0.465,0,0.852,0.174,1.162,0.523c0.31,0.348,0.465,0.932,0.465,1.751
		v0.83c0,0.741-0.089,1.245-0.266,1.511c-0.354,0.509-0.836,0.764-1.444,0.764c-0.41,0-0.77-0.127-1.079-0.382
		C117.183,36.167,116.984,35.831,116.896,35.41z"/>
	<path d="M137.299,35.41c-0.554-0.343-1.135-0.601-1.743-0.771c-0.609-0.172-1.245-0.258-1.909-0.258
		c-1.317,0-2.363,0.216-3.138,0.647c-0.343,0.188-0.515,0.393-0.515,0.614c0,0.255,0.232,0.504,0.697,0.747
		c0.354,0.177,1.146,0.349,2.374,0.515c2.258,0.31,3.829,0.62,4.715,0.93c1.162,0.409,2.059,1.019,2.689,1.826
		s0.946,1.66,0.946,2.557c0,1.218-0.537,2.235-1.61,3.055c-1.539,1.185-3.536,1.776-5.993,1.776c-0.985,0-1.896-0.086-2.731-0.257
		c-0.836-0.172-1.602-0.424-2.299-0.756c-0.166,0.144-0.343,0.255-0.531,0.332c-0.188,0.077-0.382,0.116-0.581,0.116
		c-0.531,0-0.955-0.175-1.27-0.522c-0.315-0.35-0.473-0.933-0.473-1.752v-1.146c0-0.819,0.158-1.403,0.473-1.751
		c0.315-0.35,0.728-0.523,1.237-0.523c0.409,0,0.752,0.113,1.029,0.34c0.276,0.228,0.492,0.617,0.647,1.171
		c0.52,0.442,1.146,0.777,1.876,1.005c0.73,0.227,1.571,0.34,2.523,0.34c1.561,0,2.772-0.243,3.636-0.73
		c0.409-0.243,0.614-0.498,0.614-0.764c0-0.442-0.293-0.808-0.88-1.096c-0.587-0.288-1.799-0.531-3.636-0.73
		c-2.734-0.288-4.56-0.841-5.479-1.66c-0.919-0.808-1.378-1.804-1.378-2.988c0-1.218,0.515-2.23,1.544-3.038
		c1.395-1.106,3.221-1.66,5.479-1.66c0.786,0,1.541,0.075,2.266,0.224c0.725,0.15,1.419,0.38,2.083,0.689
		c0.21-0.155,0.407-0.271,0.589-0.349s0.351-0.116,0.506-0.116c0.465,0,0.852,0.174,1.162,0.523c0.31,0.348,0.465,0.932,0.465,1.751
		v0.83c0,0.741-0.089,1.245-0.266,1.511c-0.354,0.509-0.836,0.764-1.444,0.764c-0.41,0-0.77-0.127-1.079-0.382
		C137.586,36.167,137.387,35.831,137.299,35.41z"/>
	<path d="M161.255,31.425v11.671c0.72,0,1.251,0.16,1.594,0.481s0.515,0.73,0.515,1.229s-0.174,0.904-0.523,1.221
		c-0.348,0.314-0.932,0.473-1.751,0.473h-3.237v-0.78c-0.975,0.442-1.904,0.774-2.789,0.996c-0.886,0.222-1.727,0.332-2.523,0.332
		c-1.118,0-2.086-0.235-2.905-0.706c-0.819-0.47-1.467-1.12-1.942-1.95c-0.343-0.598-0.515-1.345-0.515-2.241v-7.321h-0.581
		c-0.819,0-1.403-0.157-1.751-0.474c-0.349-0.314-0.523-0.728-0.523-1.236c0-0.498,0.174-0.904,0.523-1.221
		c0.349-0.314,0.932-0.473,1.751-0.473h3.984v10.127c0,0.72,0.174,1.248,0.523,1.586c0.349,0.337,0.882,0.506,1.602,0.506
		c0.686,0,1.425-0.136,2.216-0.406c0.792-0.271,1.768-0.762,2.93-1.47v-6.939h-1.229c-0.819,0-1.403-0.157-1.751-0.474
		c-0.349-0.314-0.523-0.728-0.523-1.236c0-0.498,0.174-0.904,0.523-1.221c0.349-0.314,0.932-0.473,1.751-0.473H161.255z"/>
	<path d="M169.174,31.425v0.963c0.553-0.542,1.055-0.916,1.502-1.121c0.449-0.204,0.966-0.307,1.553-0.307
		c0.498,0,0.99,0.122,1.478,0.365s0.963,0.608,1.428,1.096c0.587-0.487,1.181-0.85,1.784-1.088c0.604-0.237,1.221-0.356,1.852-0.356
		c1.262,0,2.285,0.338,3.071,1.013c1.04,0.886,1.561,2.048,1.561,3.486v7.62c0.708,0,1.233,0.16,1.577,0.481
		c0.343,0.321,0.515,0.73,0.515,1.229s-0.172,0.904-0.515,1.221c-0.344,0.314-0.924,0.473-1.743,0.473h-3.237V35.758
		c0-0.521-0.094-0.88-0.282-1.079s-0.476-0.299-0.863-0.299c-0.376,0-0.726,0.1-1.046,0.299c-0.41,0.276-0.908,0.797-1.494,1.561
		v6.856c0.708,0,1.234,0.16,1.577,0.481s0.515,0.73,0.515,1.229s-0.172,0.904-0.515,1.221c-0.343,0.314-0.925,0.473-1.743,0.473
		h-3.237V35.758c0-0.509-0.097-0.866-0.29-1.071c-0.194-0.204-0.484-0.307-0.872-0.307c-0.398,0-0.792,0.125-1.179,0.373
		c-0.388,0.25-0.853,0.745-1.395,1.486v6.856c0.708,0,1.236,0.16,1.586,0.481c0.348,0.321,0.522,0.73,0.522,1.229
		s-0.175,0.904-0.522,1.221c-0.35,0.314-0.934,0.473-1.752,0.473h-3.071c-0.819,0-1.403-0.158-1.751-0.473
		c-0.35-0.316-0.523-0.729-0.523-1.237c0-0.498,0.172-0.905,0.515-1.22c0.343-0.316,0.874-0.474,1.594-0.474v-8.268
		c-0.72,0-1.251-0.16-1.594-0.481s-0.515-0.73-0.515-1.229s0.174-0.904,0.523-1.221c0.348-0.314,0.932-0.473,1.751-0.473H169.174z"
		/>
</g>
</svg>
