<?xml version="1.0" encoding="utf-8"?>
<!-- Generator: Adobe Illustrator 16.0.3, SVG Export Plug-In . SVG Version: 6.00 Build 0)  -->
<!DOCTYPE svg PUBLIC "-//W3C//DTD SVG 1.1//EN" "http://www.w3.org/Graphics/SVG/1.1/DTD/svg11.dtd">
<svg version="1.1" id="Layer_1" xmlns="http://www.w3.org/2000/svg" xmlns:xlink="http://www.w3.org/1999/xlink" x="0px" y="0px"
	 width="310px" height="85.167px" viewBox="0 0 310 85.167" enable-background="new 0 0 310 85.167" xml:space="preserve">
<g enable-background="new    ">
	<path d="M9.234,39.593v3.503h3.437c0.819,0,1.403,0.157,1.751,0.474c0.349,0.314,0.523,0.728,0.523,1.236
		c0,0.498-0.174,0.904-0.523,1.221c-0.349,0.314-0.933,0.473-1.751,0.473H5.3c-0.819,0-1.403-0.158-1.751-0.473
		C3.2,45.71,3.025,45.298,3.025,44.79c0-0.498,0.177-0.905,0.531-1.22c0.354-0.316,0.935-0.474,1.743-0.474h0.531V29.782H5.3
		c-0.819,0-1.403-0.157-1.751-0.474c-0.349-0.314-0.523-0.728-0.523-1.236S3.2,27.15,3.548,26.835
		c0.349-0.316,0.932-0.474,1.751-0.474l7.836,0.017c2.302,0,4.125,0.628,5.47,1.885c1.345,1.256,2.017,2.786,2.017,4.59
		c0,0.996-0.227,1.937-0.681,2.822c-0.343,0.664-0.916,1.32-1.718,1.967c-0.803,0.648-1.622,1.135-2.457,1.461
		c-0.836,0.327-1.94,0.49-3.312,0.49H9.234z M9.234,36.19h3.154c1.483,0,2.659-0.335,3.528-1.005
		c0.869-0.669,1.303-1.475,1.303-2.415c0-0.797-0.352-1.494-1.054-2.092c-0.703-0.598-1.708-0.896-3.013-0.896H9.234V36.19z"/>
	<path d="M30.899,31.425v2.125c1.428-1.029,2.554-1.716,3.378-2.059c0.824-0.343,1.596-0.515,2.316-0.515
		c1.106,0,2.18,0.409,3.221,1.229c0.708,0.554,1.063,1.118,1.063,1.693c0,0.487-0.169,0.899-0.506,1.237
		c-0.338,0.337-0.745,0.506-1.22,0.506c-0.421,0-0.863-0.21-1.328-0.631s-0.88-0.631-1.245-0.631c-0.476,0-1.187,0.299-2.133,0.896
		s-2.128,1.494-3.544,2.689v5.13h4.848c0.819,0,1.403,0.157,1.751,0.474c0.349,0.314,0.523,0.728,0.523,1.236
		c0,0.498-0.174,0.904-0.523,1.221c-0.349,0.314-0.933,0.473-1.751,0.473H25.471c-0.819,0-1.403-0.158-1.751-0.473
		c-0.349-0.316-0.523-0.729-0.523-1.237c0-0.498,0.174-0.905,0.523-1.22c0.349-0.316,0.932-0.474,1.751-0.474h2.025v-8.268h-1.229
		c-0.819,0-1.403-0.157-1.751-0.474c-0.349-0.314-0.523-0.728-0.523-1.236c0-0.498,0.174-0.904,0.523-1.221
		c0.349-0.314,0.932-0.473,1.751-0.473H30.899z"/>
	<path d="M53.693,31.425v11.671h4.084c0.819,0,1.403,0.157,1.751,0.474c0.349,0.314,0.523,0.728,0.523,1.236
		c0,0.498-0.174,0.904-0.523,1.221c-0.349,0.314-0.933,0.473-1.751,0.473H46.206c-0.819,0-1.403-0.158-1.751-0.473
		c-0.349-0.316-0.523-0.729-0.523-1.237c0-0.498,0.174-0.905,0.523-1.22c0.349-0.316,0.932-0.474,1.751-0.474h4.084v-8.268h-2.739
		c-0.808,0-1.389-0.157-1.743-0.474c-0.354-0.314-0.531-0.728-0.531-1.236c0-0.498,0.174-0.904,0.523-1.221
		c0.349-0.314,0.932-0.473,1.751-0.473H53.693z M53.229,24.967v3.603h-4.051v-3.603H53.229z"/>
	<path d="M72.437,42.366l3.669-7.537c-0.908,0-1.489-0.077-1.743-0.232c-0.554-0.343-0.83-0.836-0.83-1.478
		c0-0.498,0.174-0.904,0.523-1.221c0.349-0.314,0.932-0.473,1.751-0.473h4.665c0.819,0,1.403,0.158,1.751,0.473
		c0.349,0.316,0.523,0.729,0.523,1.237c0,0.498-0.174,0.905-0.523,1.22c-0.349,0.316-0.933,0.474-1.751,0.474h-0.564L74.213,46.5
		H70.66l-5.694-11.671h-0.481c-0.819,0-1.403-0.157-1.751-0.474c-0.349-0.314-0.523-0.728-0.523-1.236
		c0-0.498,0.174-0.904,0.523-1.221c0.349-0.314,0.932-0.473,1.751-0.473h4.565c0.808,0,1.386,0.158,1.735,0.473
		c0.349,0.316,0.523,0.729,0.523,1.237c0,0.631-0.266,1.112-0.797,1.444c-0.266,0.166-0.858,0.249-1.776,0.249L72.437,42.366z"/>
	<path d="M95.878,46.5v-0.797c-0.853,0.454-1.793,0.794-2.822,1.021c-1.029,0.227-1.965,0.34-2.806,0.34
		c-1.826,0-3.31-0.484-4.449-1.453c-1.14-0.968-1.71-2.039-1.71-3.212c0-1.428,0.728-2.753,2.183-3.976
		c1.455-1.224,3.467-1.835,6.035-1.835c1.029,0,2.219,0.11,3.569,0.332v-0.813c0-0.509-0.219-0.924-0.656-1.245
		c-0.438-0.321-1.27-0.481-2.499-0.481c-1.007,0-2.313,0.199-3.918,0.598c-0.598,0.144-1.063,0.216-1.395,0.216
		c-0.454,0-0.838-0.163-1.154-0.489c-0.315-0.327-0.473-0.745-0.473-1.254c0-0.288,0.055-0.537,0.166-0.747
		c0.11-0.21,0.266-0.379,0.465-0.507c0.199-0.127,0.614-0.279,1.245-0.456c0.841-0.232,1.699-0.418,2.573-0.556
		c0.874-0.139,1.666-0.208,2.374-0.208c2.114,0,3.754,0.456,4.922,1.37c1.167,0.912,1.751,2.16,1.751,3.743v7.006h0.581
		c0.819,0,1.403,0.157,1.751,0.474c0.349,0.314,0.523,0.728,0.523,1.236c0,0.498-0.174,0.904-0.523,1.221
		c-0.349,0.314-0.933,0.473-1.751,0.473H95.878z M95.878,40.407c-1.361-0.266-2.618-0.398-3.769-0.398
		c-1.384,0-2.573,0.338-3.569,1.013c-0.62,0.432-0.93,0.869-0.93,1.312c0,0.321,0.149,0.581,0.448,0.78
		c0.553,0.365,1.312,0.548,2.274,0.548c0.819,0,1.746-0.16,2.781-0.481c1.035-0.321,1.956-0.758,2.764-1.312V40.407z"/>
	<path d="M118.522,32.04c0.409-0.388,0.83-0.581,1.262-0.581c0.487,0,0.888,0.174,1.204,0.523c0.315,0.348,0.473,0.927,0.473,1.734
		v2.191c0,0.819-0.158,1.4-0.473,1.743s-0.728,0.515-1.237,0.515c-0.465,0-0.858-0.133-1.179-0.398
		c-0.232-0.199-0.415-0.605-0.548-1.221c-0.133-0.613-0.454-1.07-0.963-1.369c-0.896-0.531-2.042-0.797-3.437-0.797
		c-1.605,0-2.892,0.471-3.86,1.411c-0.969,0.94-1.453,2.131-1.453,3.569c0,1.328,0.465,2.377,1.395,3.146
		c0.93,0.769,2.474,1.153,4.632,1.153c1.417,0,2.573-0.144,3.47-0.432c0.531-0.177,1.035-0.479,1.511-0.905
		c0.476-0.426,0.907-0.639,1.295-0.639c0.465,0,0.866,0.172,1.204,0.515c0.337,0.343,0.506,0.747,0.506,1.212
		c0,0.753-0.515,1.467-1.544,2.142c-1.527,1.007-3.763,1.511-6.707,1.511c-2.646,0-4.704-0.548-6.176-1.644
		c-1.992-1.472-2.988-3.486-2.988-6.043c0-2.424,0.808-4.43,2.424-6.019c1.616-1.588,3.724-2.382,6.325-2.382
		c0.94,0,1.815,0.089,2.623,0.266C117.089,31.419,117.836,31.685,118.522,32.04z"/>
	<path d="M131.721,46.383l-5.894-11.555c-0.554-0.066-0.974-0.255-1.262-0.564c-0.288-0.31-0.432-0.687-0.432-1.129
		c0-0.509,0.174-0.921,0.523-1.237c0.349-0.314,0.932-0.473,1.751-0.473h3.104c0.819,0,1.403,0.158,1.751,0.473
		c0.349,0.316,0.523,0.729,0.523,1.237c0,0.498-0.174,0.905-0.523,1.22c-0.349,0.316-0.899,0.474-1.652,0.474l4.018,7.819
		l3.984-7.819c-0.73,0-1.27-0.157-1.619-0.474c-0.349-0.314-0.523-0.728-0.523-1.236c0-0.498,0.174-0.904,0.523-1.221
		c0.349-0.314,0.932-0.473,1.751-0.473h3.204c0.808,0,1.386,0.158,1.735,0.473c0.349,0.316,0.523,0.729,0.523,1.237
		c0,0.454-0.149,0.839-0.448,1.153c-0.299,0.316-0.742,0.496-1.328,0.54l-7.803,15.373c0.852,0,1.411,0.083,1.677,0.249
		c0.531,0.343,0.797,0.83,0.797,1.461c0,0.498-0.174,0.904-0.523,1.221c-0.349,0.314-0.933,0.473-1.751,0.473h-7.421
		c-0.819,0-1.403-0.158-1.751-0.473c-0.349-0.316-0.523-0.723-0.523-1.221c0-0.509,0.174-0.922,0.523-1.236
		c0.349-0.316,0.932-0.474,1.751-0.474h3.387L131.721,46.383z"/>
</g>
</svg>
