<?xml version="1.0" encoding="utf-8"?>
<!-- Generator: Adobe Illustrator 16.0.3, SVG Export Plug-In . SVG Version: 6.00 Build 0)  -->
<!DOCTYPE svg PUBLIC "-//W3C//DTD SVG 1.1//EN" "http://www.w3.org/Graphics/SVG/1.1/DTD/svg11.dtd">
<svg version="1.1" id="Layer_1" xmlns="http://www.w3.org/2000/svg" xmlns:xlink="http://www.w3.org/1999/xlink" x="0px" y="0px"
	 width="310px" height="85.167px" viewBox="0 0 310 85.167" enable-background="new 0 0 310 85.167" xml:space="preserve">
<g enable-background="new    ">
	<path d="M12.854,29.782v13.314h2.291c0.819,0,1.403,0.157,1.751,0.474c0.349,0.314,0.523,0.728,0.523,1.236
		c0,0.498-0.174,0.904-0.523,1.221c-0.349,0.314-0.933,0.473-1.751,0.473H7.176c-0.819,0-1.403-0.158-1.751-0.473
		c-0.349-0.316-0.523-0.729-0.523-1.237c0-0.498,0.174-0.905,0.523-1.22c0.349-0.316,0.932-0.474,1.751-0.474H9.45V29.782H5.765
		v3.221c0,0.819-0.158,1.403-0.473,1.751c-0.315,0.35-0.728,0.523-1.237,0.523c-0.498,0-0.905-0.174-1.22-0.523
		c-0.315-0.348-0.473-0.932-0.473-1.751v-6.641l17.631,0.017v6.624c0,0.819-0.158,1.403-0.473,1.751
		c-0.315,0.35-0.728,0.523-1.237,0.523c-0.498,0-0.905-0.174-1.22-0.523c-0.315-0.348-0.473-0.932-0.473-1.751v-3.221H12.854z"/>
	<path d="M38.835,31.425v11.671c0.719,0,1.25,0.16,1.594,0.481c0.343,0.321,0.515,0.73,0.515,1.229s-0.174,0.904-0.523,1.221
		c-0.349,0.314-0.933,0.473-1.751,0.473h-3.237v-0.78c-0.974,0.442-1.904,0.774-2.789,0.996c-0.886,0.222-1.727,0.332-2.523,0.332
		c-1.118,0-2.086-0.235-2.905-0.706c-0.819-0.47-1.467-1.12-1.942-1.95c-0.343-0.598-0.515-1.345-0.515-2.241v-7.321h-0.581
		c-0.819,0-1.403-0.157-1.751-0.474c-0.349-0.314-0.523-0.728-0.523-1.236c0-0.498,0.174-0.904,0.523-1.221
		c0.349-0.314,0.932-0.473,1.751-0.473h3.984v10.127c0,0.72,0.174,1.248,0.523,1.586c0.349,0.337,0.882,0.506,1.602,0.506
		c0.686,0,1.425-0.136,2.216-0.406c0.791-0.271,1.768-0.762,2.93-1.47v-6.939h-1.229c-0.819,0-1.403-0.157-1.751-0.474
		c-0.349-0.314-0.523-0.728-0.523-1.236c0-0.498,0.174-0.904,0.523-1.221c0.349-0.314,0.932-0.473,1.751-0.473H38.835z"/>
	<path d="M51.17,34.829v6.823c0,0.73,0.149,1.212,0.448,1.444c0.465,0.365,1.295,0.548,2.49,0.548c1.737,0,3.342-0.371,4.814-1.112
		c0.564-0.288,1.007-0.432,1.328-0.432c0.442,0,0.827,0.166,1.154,0.498c0.326,0.332,0.49,0.736,0.49,1.212
		c0,0.442-0.177,0.824-0.531,1.146c-0.542,0.521-1.613,0.999-3.212,1.437c-1.6,0.437-2.947,0.655-4.042,0.655
		c-2.114,0-3.7-0.456-4.756-1.37c-1.057-0.912-1.585-2.033-1.585-3.361v-7.487h-1.229c-0.819,0-1.403-0.157-1.751-0.474
		c-0.349-0.314-0.523-0.728-0.523-1.236c0-0.498,0.174-0.904,0.523-1.221c0.349-0.314,0.932-0.473,1.751-0.473h1.229v-3.071
		c0-0.819,0.158-1.403,0.473-1.751c0.315-0.35,0.728-0.523,1.237-0.523c0.498,0,0.905,0.174,1.22,0.523
		c0.315,0.348,0.473,0.932,0.473,1.751v3.071h6.292c0.819,0,1.403,0.158,1.751,0.473c0.349,0.316,0.523,0.729,0.523,1.237
		c0,0.498-0.174,0.905-0.523,1.22c-0.349,0.316-0.933,0.474-1.751,0.474H51.17z"/>
	<path d="M81.252,39.245c0,1.306-0.363,2.57-1.087,3.794c-0.725,1.223-1.804,2.196-3.237,2.922c-1.434,0.725-2.93,1.087-4.491,1.087
		c-1.55,0-3.033-0.356-4.449-1.071c-1.417-0.713-2.496-1.685-3.237-2.913c-0.742-1.229-1.112-2.513-1.112-3.852
		c0-1.361,0.376-2.698,1.129-4.009c0.752-1.313,1.834-2.344,3.246-3.097s2.886-1.129,4.424-1.129c1.549,0,3.041,0.385,4.474,1.153
		c1.433,0.77,2.515,1.805,3.246,3.105C80.887,36.536,81.252,37.873,81.252,39.245z M77.849,39.261c0-1.096-0.393-2.103-1.179-3.021
		C75.596,35,74.185,34.38,72.437,34.38c-1.539,0-2.822,0.492-3.852,1.478s-1.544,2.125-1.544,3.42c0,1.063,0.52,2.056,1.561,2.979
		c1.04,0.925,2.318,1.387,3.835,1.387c1.527,0,2.811-0.462,3.852-1.387C77.328,41.333,77.849,40.334,77.849,39.261z"/>
	<path d="M92.109,31.425v2.125c1.428-1.029,2.554-1.716,3.378-2.059c0.824-0.343,1.596-0.515,2.316-0.515
		c1.106,0,2.18,0.409,3.221,1.229c0.708,0.554,1.063,1.118,1.063,1.693c0,0.487-0.169,0.899-0.506,1.237
		c-0.338,0.337-0.745,0.506-1.22,0.506c-0.421,0-0.863-0.21-1.328-0.631s-0.88-0.631-1.245-0.631c-0.476,0-1.187,0.299-2.133,0.896
		s-2.128,1.494-3.544,2.689v5.13h4.848c0.819,0,1.403,0.157,1.751,0.474c0.349,0.314,0.523,0.728,0.523,1.236
		c0,0.498-0.174,0.904-0.523,1.221c-0.349,0.314-0.933,0.473-1.751,0.473H86.681c-0.819,0-1.403-0.158-1.751-0.473
		c-0.349-0.316-0.523-0.729-0.523-1.237c0-0.498,0.174-0.905,0.523-1.22c0.349-0.316,0.932-0.474,1.751-0.474h2.025v-8.268h-1.229
		c-0.819,0-1.403-0.157-1.751-0.474c-0.349-0.314-0.523-0.728-0.523-1.236c0-0.498,0.174-0.904,0.523-1.221
		c0.349-0.314,0.932-0.473,1.751-0.473H92.109z"/>
	<path d="M114.903,31.425v11.671h4.084c0.819,0,1.403,0.157,1.751,0.474c0.349,0.314,0.523,0.728,0.523,1.236
		c0,0.498-0.174,0.904-0.523,1.221c-0.349,0.314-0.933,0.473-1.751,0.473h-11.571c-0.819,0-1.403-0.158-1.751-0.473
		c-0.349-0.316-0.523-0.729-0.523-1.237c0-0.498,0.174-0.905,0.523-1.22c0.349-0.316,0.932-0.474,1.751-0.474h4.084v-8.268h-2.739
		c-0.808,0-1.389-0.157-1.743-0.474c-0.354-0.314-0.531-0.728-0.531-1.236c0-0.498,0.174-0.904,0.523-1.221
		c0.349-0.314,0.932-0.473,1.751-0.473H114.903z M114.438,24.967v3.603h-4.051v-3.603H114.438z"/>
	<path d="M136.685,46.5v-0.797c-0.853,0.454-1.793,0.794-2.822,1.021c-1.029,0.227-1.965,0.34-2.806,0.34
		c-1.826,0-3.31-0.484-4.449-1.453c-1.14-0.968-1.71-2.039-1.71-3.212c0-1.428,0.728-2.753,2.183-3.976
		c1.455-1.224,3.467-1.835,6.035-1.835c1.029,0,2.219,0.11,3.569,0.332v-0.813c0-0.509-0.219-0.924-0.656-1.245
		c-0.438-0.321-1.27-0.481-2.499-0.481c-1.007,0-2.313,0.199-3.918,0.598c-0.598,0.144-1.063,0.216-1.395,0.216
		c-0.454,0-0.838-0.163-1.154-0.489c-0.315-0.327-0.473-0.745-0.473-1.254c0-0.288,0.055-0.537,0.166-0.747
		c0.11-0.21,0.266-0.379,0.465-0.507c0.199-0.127,0.614-0.279,1.245-0.456c0.841-0.232,1.699-0.418,2.573-0.556
		c0.874-0.139,1.666-0.208,2.374-0.208c2.114,0,3.754,0.456,4.922,1.37c1.167,0.912,1.751,2.16,1.751,3.743v7.006h0.581
		c0.819,0,1.403,0.157,1.751,0.474c0.349,0.314,0.523,0.728,0.523,1.236c0,0.498-0.174,0.904-0.523,1.221
		c-0.349,0.314-0.933,0.473-1.751,0.473H136.685z M136.685,40.407c-1.361-0.266-2.618-0.398-3.769-0.398
		c-1.384,0-2.573,0.338-3.569,1.013c-0.62,0.432-0.93,0.869-0.93,1.312c0,0.321,0.149,0.581,0.448,0.78
		c0.553,0.365,1.312,0.548,2.274,0.548c0.819,0,1.746-0.16,2.781-0.481c1.035-0.321,1.956-0.758,2.764-1.312V40.407z"/>
	<path d="M155.727,24.967v18.129h4.084c0.818,0,1.402,0.157,1.752,0.474c0.348,0.314,0.522,0.728,0.522,1.236
		c0,0.498-0.175,0.904-0.522,1.221c-0.35,0.314-0.934,0.473-1.752,0.473h-11.571c-0.819,0-1.403-0.158-1.751-0.473
		c-0.349-0.316-0.523-0.729-0.523-1.237c0-0.498,0.174-0.905,0.523-1.22c0.349-0.316,0.932-0.474,1.751-0.474h4.084V28.371h-2.739
		c-0.808,0-1.389-0.158-1.743-0.473c-0.354-0.316-0.531-0.729-0.531-1.237c0-0.498,0.174-0.905,0.523-1.22
		c0.349-0.316,0.932-0.474,1.751-0.474H155.727z"/>
</g>
</svg>
