<?xml version="1.0" encoding="utf-8"?>
<!-- Generator: Adobe Illustrator 16.0.3, SVG Export Plug-In . SVG Version: 6.00 Build 0)  -->
<!DOCTYPE svg PUBLIC "-//W3C//DTD SVG 1.1//EN" "http://www.w3.org/Graphics/SVG/1.1/DTD/svg11.dtd">
<svg version="1.1" id="Layer_1" xmlns="http://www.w3.org/2000/svg" xmlns:xlink="http://www.w3.org/1999/xlink" x="0px" y="0px"
	 width="310px" height="85.167px" viewBox="0 0 310 85.167" enable-background="new 0 0 310 85.167" xml:space="preserve">
<g enable-background="new    ">
	<path d="M11.193,41.536l4.931-11.754h-0.78c-0.819,0-1.403-0.157-1.751-0.474c-0.349-0.314-0.523-0.728-0.523-1.236
		s0.174-0.922,0.523-1.236c0.349-0.316,0.932-0.474,1.751-0.474l4.565,0.017c0.819,0,1.403,0.155,1.751,0.465
		s0.523,0.72,0.523,1.229c0,0.608-0.266,1.09-0.797,1.444c-0.255,0.177-0.775,0.266-1.561,0.266L12.837,46.5H9.566L2.594,29.782
		c-0.797,0-1.323-0.089-1.577-0.266c-0.531-0.343-0.797-0.824-0.797-1.444c0-0.509,0.174-0.922,0.523-1.236
		c0.349-0.316,0.932-0.474,1.751-0.474l4.599,0.017c0.808,0,1.386,0.155,1.735,0.465s0.523,0.72,0.523,1.229
		s-0.172,0.922-0.515,1.236c-0.343,0.316-0.924,0.474-1.743,0.474H6.296L11.193,41.536z"/>
	<path d="M40.146,40.689H26.185c0.354,0.886,0.982,1.6,1.884,2.142c0.902,0.542,2.122,0.813,3.661,0.813
		c1.262,0,2.938-0.271,5.03-0.813c0.863-0.222,1.461-0.332,1.793-0.332c0.454,0,0.835,0.16,1.146,0.481
		c0.31,0.321,0.465,0.725,0.465,1.212c0,0.442-0.166,0.819-0.498,1.129c-0.443,0.409-1.522,0.8-3.237,1.171
		c-1.716,0.37-3.365,0.556-4.947,0.556c-2.723,0-4.9-0.77-6.533-2.308c-1.633-1.538-2.449-3.431-2.449-5.678
		c0-2.391,0.882-4.336,2.648-5.836c1.765-1.499,3.799-2.249,6.101-2.249c1.383,0,2.653,0.243,3.81,0.73
		c1.156,0.487,2.017,1.013,2.582,1.577c0.797,0.819,1.455,1.832,1.976,3.038c0.354,0.841,0.531,1.815,0.531,2.922V40.689z
		 M36.378,37.286c-0.521-0.974-1.201-1.702-2.042-2.183c-0.841-0.482-1.843-0.723-3.005-0.723c-1.151,0-2.147,0.24-2.988,0.723
		c-0.841,0.48-1.527,1.209-2.059,2.183H36.378z"/>
	<path d="M55.752,32.438v-1.013h3.984c0.819,0,1.403,0.158,1.751,0.473c0.349,0.316,0.523,0.729,0.523,1.237
		c0,0.498-0.174,0.905-0.523,1.22c-0.349,0.316-0.933,0.474-1.751,0.474h-0.581v12.385c0,1.195-0.252,2.238-0.755,3.13
		c-0.504,0.891-1.276,1.657-2.316,2.299c-1.041,0.642-2.214,0.963-3.52,0.963h-3.852c-0.819,0-1.403-0.158-1.751-0.473
		c-0.349-0.316-0.523-0.723-0.523-1.221c0-0.509,0.174-0.922,0.523-1.236c0.349-0.316,0.932-0.474,1.751-0.474h3.752
		c1.04,0,1.848-0.282,2.424-0.847c0.575-0.564,0.863-1.278,0.863-2.142v-1.66c-0.753,0.487-1.519,0.853-2.299,1.096
		s-1.58,0.365-2.399,0.365c-2.313,0-4.25-0.772-5.811-2.315c-1.561-1.545-2.341-3.451-2.341-5.72c0-2.28,0.78-4.192,2.341-5.735
		c1.561-1.545,3.497-2.316,5.811-2.316c0.863,0,1.685,0.125,2.465,0.373C54.299,31.55,55.043,31.929,55.752,32.438z M55.735,38.962
		c0-1.251-0.462-2.335-1.386-3.254c-0.924-0.919-2.034-1.378-3.329-1.378s-2.405,0.459-3.329,1.378
		c-0.924,0.919-1.386,2.003-1.386,3.254c0,1.262,0.462,2.35,1.386,3.262c0.924,0.914,2.034,1.37,3.329,1.37s2.404-0.456,3.329-1.37
		C55.273,41.312,55.735,40.224,55.735,38.962z"/>
	<path d="M79.542,38.398H65.331v-3.104h14.211V38.398z"/>
	<path d="M95.048,36.24l5.678,6.856c0.675,0.011,1.181,0.175,1.519,0.489c0.337,0.316,0.506,0.723,0.506,1.221
		s-0.174,0.904-0.523,1.221c-0.349,0.314-0.933,0.473-1.751,0.473h-3.835c-0.808,0-1.386-0.158-1.735-0.473
		c-0.349-0.316-0.523-0.729-0.523-1.237c0-0.476,0.16-0.872,0.481-1.187c0.321-0.316,0.802-0.484,1.444-0.507l-3.42-4.217
		l-3.453,4.217c0.631,0.022,1.106,0.193,1.428,0.515c0.321,0.321,0.481,0.72,0.481,1.195c0,0.498-0.174,0.904-0.523,1.221
		c-0.349,0.314-0.933,0.473-1.751,0.473h-3.818c-0.819,0-1.403-0.158-1.751-0.473c-0.349-0.316-0.523-0.729-0.523-1.237
		c0-0.487,0.171-0.891,0.515-1.212c0.343-0.321,0.847-0.481,1.511-0.481l5.645-6.89l-5.379-6.425
		c-0.664-0.022-1.16-0.19-1.486-0.507c-0.327-0.314-0.49-0.716-0.49-1.203c0-0.509,0.174-0.922,0.523-1.236
		c0.349-0.316,0.932-0.474,1.751-0.474l3.138,0.017c0.819,0,1.403,0.155,1.751,0.465s0.523,0.72,0.523,1.229
		c0,0.376-0.111,0.72-0.332,1.029c-0.144,0.188-0.465,0.415-0.963,0.681l3.171,3.802l3.104-3.802
		c-0.498-0.266-0.819-0.492-0.963-0.681c-0.222-0.31-0.332-0.653-0.332-1.029c0-0.498,0.174-0.907,0.523-1.229
		s0.932-0.481,1.751-0.481l3.121,0.017c0.819,0,1.403,0.155,1.751,0.465s0.523,0.72,0.523,1.229c0,0.487-0.169,0.891-0.506,1.212
		c-0.338,0.321-0.828,0.487-1.469,0.498L95.048,36.24z"/>
	<path d="M128.649,45.636c-0.299,0.354-0.54,0.581-0.722,0.681s-0.407,0.149-0.672,0.149c-0.521,0-0.938-0.174-1.253-0.523
		c-0.315-0.348-0.473-0.927-0.473-1.734v-2.291c0-0.819,0.158-1.402,0.473-1.752c0.315-0.348,0.733-0.522,1.253-0.522
		c0.398,0,0.733,0.105,1.004,0.315c0.271,0.21,0.479,0.562,0.623,1.055c0.144,0.492,0.293,0.827,0.448,1.004
		c0.321,0.343,0.891,0.691,1.71,1.046c0.819,0.354,1.715,0.531,2.689,0.531c1.516,0,2.761-0.354,3.735-1.063
		c0.62-0.432,0.93-0.963,0.93-1.594c0-0.421-0.149-0.816-0.448-1.187c-0.299-0.371-0.786-0.679-1.461-0.922
		c-0.443-0.166-1.434-0.393-2.972-0.681c-1.859-0.343-3.265-0.758-4.217-1.245c-0.952-0.487-1.705-1.173-2.258-2.059
		c-0.554-0.886-0.83-1.843-0.83-2.872c0-1.627,0.681-3.052,2.042-4.274c1.361-1.224,3.132-1.835,5.313-1.835
		c0.874,0,1.685,0.097,2.432,0.29c0.747,0.194,1.425,0.49,2.034,0.889c0.442-0.432,0.885-0.647,1.328-0.647
		c0.498,0,0.905,0.175,1.22,0.522c0.315,0.35,0.473,0.928,0.473,1.735v2.557c0,0.819-0.158,1.403-0.473,1.751
		c-0.315,0.35-0.722,0.523-1.22,0.523c-0.421,0-0.786-0.127-1.096-0.382c-0.244-0.188-0.426-0.564-0.548-1.129
		c-0.122-0.564-0.277-0.969-0.465-1.212c-0.321-0.421-0.803-0.774-1.444-1.063c-0.642-0.288-1.384-0.432-2.225-0.432
		c-1.229,0-2.2,0.285-2.914,0.855c-0.714,0.569-1.071,1.164-1.071,1.784c0,0.421,0.146,0.827,0.44,1.22
		c0.293,0.394,0.722,0.7,1.287,0.922c0.376,0.155,1.436,0.404,3.179,0.747s3.082,0.72,4.018,1.129
		c0.935,0.409,1.712,1.052,2.333,1.926c0.62,0.874,0.93,1.915,0.93,3.121c0,1.683-0.592,3.027-1.776,4.034
		c-1.572,1.328-3.575,1.992-6.01,1.992c-0.941,0-1.857-0.113-2.748-0.34C130.356,46.43,129.49,46.09,128.649,45.636z"/>
	<path d="M159.329,32.04c0.409-0.388,0.83-0.581,1.262-0.581c0.487,0,0.888,0.174,1.204,0.523c0.314,0.348,0.473,0.927,0.473,1.734
		v2.191c0,0.819-0.158,1.4-0.473,1.743c-0.316,0.343-0.729,0.515-1.237,0.515c-0.465,0-0.858-0.133-1.179-0.398
		c-0.232-0.199-0.415-0.605-0.548-1.221c-0.133-0.613-0.454-1.07-0.963-1.369c-0.896-0.531-2.042-0.797-3.437-0.797
		c-1.605,0-2.892,0.471-3.86,1.411c-0.969,0.94-1.453,2.131-1.453,3.569c0,1.328,0.465,2.377,1.395,3.146
		c0.93,0.769,2.474,1.153,4.632,1.153c1.417,0,2.573-0.144,3.47-0.432c0.531-0.177,1.035-0.479,1.511-0.905
		c0.476-0.426,0.907-0.639,1.295-0.639c0.465,0,0.866,0.172,1.204,0.515c0.337,0.343,0.506,0.747,0.506,1.212
		c0,0.753-0.515,1.467-1.544,2.142c-1.527,1.007-3.763,1.511-6.707,1.511c-2.646,0-4.704-0.548-6.176-1.644
		c-1.992-1.472-2.988-3.486-2.988-6.043c0-2.424,0.808-4.43,2.424-6.019c1.616-1.588,3.724-2.382,6.325-2.382
		c0.94,0,1.814,0.089,2.623,0.266C157.896,31.419,158.643,31.685,159.329,32.04z"/>
	<path d="M170.917,24.967v7.255c0.708-0.421,1.425-0.733,2.149-0.938c0.725-0.205,1.459-0.308,2.2-0.308
		c1.173,0,2.219,0.199,3.138,0.598c0.918,0.398,1.68,1.026,2.283,1.884c0.603,0.858,0.904,1.94,0.904,3.246v6.392
		c0.863,0,1.428,0.083,1.693,0.249c0.531,0.343,0.797,0.83,0.797,1.461c0,0.498-0.172,0.904-0.515,1.221
		c-0.343,0.314-0.925,0.473-1.743,0.473h-3.885c-0.809,0-1.387-0.158-1.734-0.473c-0.35-0.316-0.523-0.729-0.523-1.237
		c0-0.62,0.266-1.102,0.797-1.444c0.276-0.177,0.841-0.26,1.693-0.249v-6.159c0-0.874-0.199-1.488-0.598-1.843
		c-0.521-0.476-1.289-0.714-2.308-0.714c-0.753,0-1.419,0.146-2.001,0.439c-0.58,0.294-1.363,0.928-2.349,1.901v6.375
		c0.874,0,1.438,0.083,1.693,0.249c0.542,0.343,0.813,0.83,0.813,1.461c0,0.498-0.174,0.904-0.523,1.221
		c-0.348,0.314-0.932,0.473-1.751,0.473h-3.868c-0.819,0-1.402-0.158-1.752-0.473c-0.348-0.316-0.522-0.729-0.522-1.237
		c0-0.62,0.271-1.102,0.813-1.444c0.266-0.177,0.83-0.26,1.693-0.249V28.371h-0.581c-0.819,0-1.403-0.158-1.751-0.473
		c-0.35-0.316-0.523-0.729-0.523-1.237c0-0.498,0.174-0.905,0.523-1.22c0.348-0.316,0.932-0.474,1.751-0.474H170.917z"/>
	<path d="M203.373,40.689h-13.962c0.354,0.886,0.981,1.6,1.884,2.142s2.123,0.813,3.661,0.813c1.262,0,2.938-0.271,5.03-0.813
		c0.863-0.222,1.461-0.332,1.793-0.332c0.453,0,0.836,0.16,1.146,0.481s0.465,0.725,0.465,1.212c0,0.442-0.166,0.819-0.498,1.129
		c-0.442,0.409-1.522,0.8-3.237,1.171c-1.716,0.37-3.365,0.556-4.947,0.556c-2.723,0-4.9-0.77-6.533-2.308s-2.448-3.431-2.448-5.678
		c0-2.391,0.882-4.336,2.647-5.836c1.766-1.499,3.799-2.249,6.102-2.249c1.383,0,2.653,0.243,3.811,0.73
		c1.156,0.487,2.017,1.013,2.581,1.577c0.797,0.819,1.455,1.832,1.976,3.038c0.354,0.841,0.531,1.815,0.531,2.922V40.689z
		 M199.604,37.286c-0.521-0.974-1.201-1.702-2.042-2.183c-0.842-0.482-1.843-0.723-3.005-0.723c-1.151,0-2.147,0.24-2.988,0.723
		c-0.841,0.48-1.527,1.209-2.059,2.183H199.604z"/>
	<path d="M209.98,31.425v0.963c0.553-0.542,1.055-0.916,1.502-1.121c0.449-0.204,0.966-0.307,1.553-0.307
		c0.498,0,0.99,0.122,1.478,0.365s0.963,0.608,1.428,1.096c0.587-0.487,1.181-0.85,1.784-1.088c0.604-0.237,1.221-0.356,1.852-0.356
		c1.262,0,2.285,0.338,3.071,1.013c1.04,0.886,1.561,2.048,1.561,3.486v7.62c0.708,0,1.233,0.16,1.577,0.481
		c0.343,0.321,0.515,0.73,0.515,1.229s-0.172,0.904-0.515,1.221c-0.344,0.314-0.924,0.473-1.743,0.473h-3.237V35.758
		c0-0.521-0.094-0.88-0.282-1.079s-0.476-0.299-0.863-0.299c-0.376,0-0.726,0.1-1.046,0.299c-0.41,0.276-0.908,0.797-1.494,1.561
		v6.856c0.708,0,1.234,0.16,1.577,0.481s0.515,0.73,0.515,1.229s-0.172,0.904-0.515,1.221c-0.343,0.314-0.925,0.473-1.743,0.473
		h-3.237V35.758c0-0.509-0.097-0.866-0.29-1.071c-0.194-0.204-0.484-0.307-0.872-0.307c-0.398,0-0.792,0.125-1.179,0.373
		c-0.388,0.25-0.853,0.745-1.395,1.486v6.856c0.708,0,1.236,0.16,1.586,0.481c0.348,0.321,0.522,0.73,0.522,1.229
		s-0.175,0.904-0.522,1.221c-0.35,0.314-0.934,0.473-1.752,0.473h-3.071c-0.819,0-1.403-0.158-1.751-0.473
		c-0.35-0.316-0.523-0.729-0.523-1.237c0-0.498,0.172-0.905,0.515-1.22c0.343-0.316,0.874-0.474,1.594-0.474v-8.268
		c-0.72,0-1.251-0.16-1.594-0.481s-0.515-0.73-0.515-1.229s0.174-0.904,0.523-1.221c0.348-0.314,0.932-0.473,1.751-0.473H209.98z"/>
	<path d="M238.701,46.5v-0.797c-0.853,0.454-1.793,0.794-2.822,1.021c-1.029,0.227-1.965,0.34-2.806,0.34
		c-1.826,0-3.31-0.484-4.449-1.453c-1.14-0.968-1.71-2.039-1.71-3.212c0-1.428,0.728-2.753,2.184-3.976
		c1.455-1.224,3.467-1.835,6.034-1.835c1.029,0,2.219,0.11,3.569,0.332v-0.813c0-0.509-0.219-0.924-0.656-1.245
		s-1.27-0.481-2.498-0.481c-1.008,0-2.313,0.199-3.918,0.598c-0.598,0.144-1.063,0.216-1.395,0.216
		c-0.454,0-0.838-0.163-1.154-0.489c-0.314-0.327-0.473-0.745-0.473-1.254c0-0.288,0.055-0.537,0.166-0.747
		c0.11-0.21,0.266-0.379,0.465-0.507c0.199-0.127,0.614-0.279,1.245-0.456c0.841-0.232,1.698-0.418,2.573-0.556
		c0.874-0.139,1.666-0.208,2.374-0.208c2.114,0,3.755,0.456,4.923,1.37c1.167,0.912,1.751,2.16,1.751,3.743v7.006h0.581
		c0.818,0,1.402,0.157,1.752,0.474c0.348,0.314,0.522,0.728,0.522,1.236c0,0.498-0.175,0.904-0.522,1.221
		c-0.35,0.314-0.934,0.473-1.752,0.473H238.701z M238.701,40.407c-1.361-0.266-2.617-0.398-3.769-0.398
		c-1.384,0-2.573,0.338-3.569,1.013c-0.62,0.432-0.93,0.869-0.93,1.312c0,0.321,0.149,0.581,0.448,0.78
		c0.554,0.365,1.312,0.548,2.274,0.548c0.818,0,1.746-0.16,2.781-0.481c1.034-0.321,1.955-0.758,2.764-1.312V40.407z"/>
</g>
</svg>
