<?xml version="1.0" encoding="utf-8"?>
<!-- Generator: Adobe Illustrator 16.0.3, SVG Export Plug-In . SVG Version: 6.00 Build 0)  -->
<!DOCTYPE svg PUBLIC "-//W3C//DTD SVG 1.1//EN" "http://www.w3.org/Graphics/SVG/1.1/DTD/svg11.dtd">
<svg version="1.1" id="Layer_1" xmlns="http://www.w3.org/2000/svg" xmlns:xlink="http://www.w3.org/1999/xlink" x="0px" y="0px"
	 width="310px" height="85.167px" viewBox="0 0 310 85.167" enable-background="new 0 0 310 85.167" xml:space="preserve">
<g enable-background="new    ">
	<path d="M11.193,41.534l4.931-11.754h-0.78c-0.819,0-1.403-0.157-1.751-0.474c-0.349-0.314-0.523-0.728-0.523-1.236
		s0.174-0.922,0.523-1.236c0.349-0.316,0.932-0.474,1.751-0.474l4.565,0.017c0.819,0,1.403,0.155,1.751,0.465
		s0.523,0.72,0.523,1.229c0,0.608-0.266,1.09-0.797,1.444c-0.255,0.177-0.775,0.266-1.561,0.266l-6.989,16.718H9.566L2.594,29.78
		c-0.797,0-1.323-0.089-1.577-0.266C0.485,29.171,0.22,28.69,0.22,28.07c0-0.509,0.174-0.922,0.523-1.236
		c0.349-0.316,0.932-0.474,1.751-0.474l4.599,0.017c0.808,0,1.386,0.155,1.735,0.465s0.523,0.72,0.523,1.229
		s-0.172,0.922-0.515,1.236c-0.343,0.316-0.924,0.474-1.743,0.474H6.296L11.193,41.534z"/>
	<path d="M40.146,40.687H26.185c0.354,0.886,0.982,1.6,1.884,2.142c0.902,0.542,2.122,0.813,3.661,0.813
		c1.262,0,2.938-0.271,5.03-0.813c0.863-0.222,1.461-0.332,1.793-0.332c0.454,0,0.835,0.16,1.146,0.481
		c0.31,0.321,0.465,0.725,0.465,1.212c0,0.442-0.166,0.819-0.498,1.129c-0.443,0.409-1.522,0.8-3.237,1.171
		c-1.716,0.37-3.365,0.556-4.947,0.556c-2.723,0-4.9-0.77-6.533-2.308c-1.633-1.538-2.449-3.431-2.449-5.678
		c0-2.391,0.882-4.336,2.648-5.836c1.765-1.499,3.799-2.249,6.101-2.249c1.383,0,2.653,0.243,3.81,0.73
		c1.156,0.487,2.017,1.013,2.582,1.577c0.797,0.819,1.455,1.832,1.976,3.038c0.354,0.841,0.531,1.815,0.531,2.922V40.687z
		 M36.378,37.284c-0.521-0.974-1.201-1.702-2.042-2.183c-0.841-0.482-1.843-0.723-3.005-0.723c-1.151,0-2.147,0.24-2.988,0.723
		c-0.841,0.48-1.527,1.209-2.059,2.183H36.378z"/>
	<path d="M55.752,32.436v-1.013h3.984c0.819,0,1.403,0.158,1.751,0.473c0.349,0.316,0.523,0.729,0.523,1.237
		c0,0.498-0.174,0.905-0.523,1.22c-0.349,0.316-0.933,0.474-1.751,0.474h-0.581v12.385c0,1.195-0.252,2.238-0.755,3.13
		c-0.504,0.891-1.276,1.657-2.316,2.299c-1.041,0.642-2.214,0.963-3.52,0.963h-3.852c-0.819,0-1.403-0.158-1.751-0.473
		c-0.349-0.316-0.523-0.723-0.523-1.221c0-0.509,0.174-0.922,0.523-1.236c0.349-0.316,0.932-0.474,1.751-0.474h3.752
		c1.04,0,1.848-0.282,2.424-0.847c0.575-0.564,0.863-1.278,0.863-2.142v-1.66c-0.753,0.487-1.519,0.853-2.299,1.096
		s-1.58,0.365-2.399,0.365c-2.313,0-4.25-0.772-5.811-2.315c-1.561-1.545-2.341-3.451-2.341-5.72c0-2.28,0.78-4.192,2.341-5.735
		c1.561-1.545,3.497-2.316,5.811-2.316c0.863,0,1.685,0.125,2.465,0.373C54.299,31.548,55.043,31.927,55.752,32.436z M55.735,38.96
		c0-1.251-0.462-2.335-1.386-3.254c-0.924-0.919-2.034-1.378-3.329-1.378s-2.405,0.459-3.329,1.378
		c-0.924,0.919-1.386,2.003-1.386,3.254c0,1.262,0.462,2.35,1.386,3.262c0.924,0.914,2.034,1.37,3.329,1.37s2.404-0.456,3.329-1.37
		C55.273,41.31,55.735,40.222,55.735,38.96z"/>
	<path d="M79.542,38.396H65.331v-3.104h14.211V38.396z"/>
	<path d="M95.048,36.238l5.678,6.856c0.675,0.011,1.181,0.175,1.519,0.489c0.337,0.316,0.506,0.723,0.506,1.221
		s-0.174,0.904-0.523,1.221c-0.349,0.314-0.933,0.473-1.751,0.473h-3.835c-0.808,0-1.386-0.158-1.735-0.473
		c-0.349-0.316-0.523-0.729-0.523-1.237c0-0.476,0.16-0.872,0.481-1.187c0.321-0.316,0.802-0.484,1.444-0.507l-3.42-4.217
		l-3.453,4.217c0.631,0.022,1.106,0.193,1.428,0.515c0.321,0.321,0.481,0.72,0.481,1.195c0,0.498-0.174,0.904-0.523,1.221
		c-0.349,0.314-0.933,0.473-1.751,0.473h-3.818c-0.819,0-1.403-0.158-1.751-0.473c-0.349-0.316-0.523-0.729-0.523-1.237
		c0-0.487,0.171-0.891,0.515-1.212c0.343-0.321,0.847-0.481,1.511-0.481l5.645-6.89L85.27,29.78c-0.664-0.022-1.16-0.19-1.486-0.507
		c-0.327-0.314-0.49-0.716-0.49-1.203c0-0.509,0.174-0.922,0.523-1.236c0.349-0.316,0.932-0.474,1.751-0.474l3.138,0.017
		c0.819,0,1.403,0.155,1.751,0.465s0.523,0.72,0.523,1.229c0,0.376-0.111,0.72-0.332,1.029c-0.144,0.188-0.465,0.415-0.963,0.681
		l3.171,3.802l3.104-3.802c-0.498-0.266-0.819-0.492-0.963-0.681c-0.222-0.31-0.332-0.653-0.332-1.029
		c0-0.498,0.174-0.907,0.523-1.229s0.932-0.481,1.751-0.481l3.121,0.017c0.819,0,1.403,0.155,1.751,0.465s0.523,0.72,0.523,1.229
		c0,0.487-0.169,0.891-0.506,1.212c-0.338,0.321-0.828,0.487-1.469,0.498L95.048,36.238z"/>
	<path d="M126.01,43.094V29.78c-0.72-0.011-1.251-0.175-1.594-0.489c-0.343-0.316-0.515-0.723-0.515-1.221
		c0-0.509,0.174-0.922,0.523-1.236c0.349-0.316,0.932-0.474,1.751-0.474l7.122,0.017c1.106,0,2.188,0.205,3.246,0.614
		c1.057,0.409,1.906,0.93,2.548,1.561c0.487,0.476,0.993,1.129,1.519,1.959c0.525,0.83,0.921,1.654,1.187,2.474
		s0.398,1.82,0.398,3.005v1.627c0,1.438-0.244,2.714-0.73,3.827c-0.487,1.111-1.126,2.02-1.917,2.723
		c-0.792,0.702-1.536,1.22-2.233,1.552c-1.107,0.521-2.54,0.78-4.3,0.78h-6.84c-0.819,0-1.403-0.158-1.751-0.473
		c-0.349-0.316-0.523-0.729-0.523-1.237c0-0.498,0.174-0.907,0.523-1.229S125.301,43.083,126.01,43.094z M129.413,43.094h3.619
		c1.35,0,2.368-0.193,3.055-0.581c0.896-0.509,1.571-1.156,2.025-1.942c0.454-0.786,0.681-1.804,0.681-3.055v-1.61
		c0-1.073-0.205-2.015-0.614-2.822c-0.642-1.262-1.364-2.128-2.167-2.598c-0.803-0.471-1.807-0.706-3.013-0.706h-3.586V43.094z"/>
	<path d="M162.865,39.243c0,1.306-0.363,2.57-1.088,3.794c-0.725,1.223-1.804,2.196-3.236,2.922
		c-1.434,0.725-2.931,1.087-4.491,1.087c-1.55,0-3.033-0.356-4.449-1.071c-1.417-0.713-2.496-1.685-3.237-2.913
		c-0.742-1.229-1.112-2.513-1.112-3.852c0-1.361,0.376-2.698,1.129-4.009c0.752-1.313,1.834-2.344,3.246-3.097
		s2.886-1.129,4.424-1.129c1.55,0,3.04,0.385,4.474,1.153c1.434,0.77,2.516,1.805,3.246,3.105
		C162.5,36.534,162.865,37.871,162.865,39.243z M159.462,39.259c0-1.096-0.394-2.103-1.179-3.021
		c-1.074-1.239-2.484-1.859-4.233-1.859c-1.539,0-2.822,0.492-3.852,1.478s-1.544,2.125-1.544,3.42c0,1.063,0.52,2.056,1.561,2.979
		c1.04,0.925,2.318,1.387,3.835,1.387c1.527,0,2.812-0.462,3.852-1.387C158.941,41.332,159.462,40.333,159.462,39.259z"/>
	<path d="M179.732,32.038c0.409-0.388,0.83-0.581,1.262-0.581c0.486,0,0.889,0.174,1.203,0.523c0.316,0.348,0.474,0.927,0.474,1.734
		v2.191c0,0.819-0.157,1.4-0.474,1.743c-0.314,0.343-0.728,0.515-1.236,0.515c-0.465,0-0.857-0.133-1.179-0.398
		c-0.232-0.199-0.415-0.605-0.548-1.221c-0.133-0.613-0.454-1.07-0.963-1.369c-0.896-0.531-2.042-0.797-3.437-0.797
		c-1.604,0-2.892,0.471-3.86,1.411s-1.452,2.131-1.452,3.569c0,1.328,0.465,2.377,1.395,3.146c0.93,0.769,2.474,1.153,4.632,1.153
		c1.416,0,2.573-0.144,3.47-0.432c0.531-0.177,1.034-0.479,1.511-0.905c0.476-0.426,0.907-0.639,1.295-0.639
		c0.465,0,0.865,0.172,1.203,0.515s0.507,0.747,0.507,1.212c0,0.753-0.515,1.467-1.544,2.142c-1.527,1.007-3.764,1.511-6.707,1.511
		c-2.646,0-4.704-0.548-6.176-1.644c-1.992-1.472-2.988-3.486-2.988-6.043c0-2.424,0.808-4.43,2.424-6.019
		c1.615-1.588,3.725-2.382,6.325-2.382c0.94,0,1.815,0.089,2.623,0.266S179.046,31.683,179.732,32.038z"/>
	<path d="M202.062,31.423v11.671c0.72,0,1.251,0.16,1.594,0.481s0.515,0.73,0.515,1.229s-0.174,0.904-0.523,1.221
		c-0.348,0.314-0.932,0.473-1.751,0.473h-3.237v-0.78c-0.975,0.442-1.904,0.774-2.789,0.996c-0.886,0.222-1.727,0.332-2.523,0.332
		c-1.118,0-2.086-0.235-2.905-0.706c-0.819-0.47-1.467-1.12-1.942-1.95c-0.344-0.598-0.515-1.345-0.515-2.241v-7.321h-0.581
		c-0.819,0-1.402-0.157-1.752-0.474c-0.348-0.314-0.522-0.728-0.522-1.236c0-0.498,0.175-0.904,0.522-1.221
		c0.35-0.314,0.933-0.473,1.752-0.473h3.984V41.55c0,0.72,0.174,1.248,0.523,1.586c0.348,0.337,0.882,0.506,1.602,0.506
		c0.686,0,1.425-0.136,2.217-0.406c0.791-0.271,1.768-0.762,2.93-1.47v-6.939h-1.229c-0.819,0-1.402-0.157-1.752-0.474
		c-0.348-0.314-0.522-0.728-0.522-1.236c0-0.498,0.175-0.904,0.522-1.221c0.35-0.314,0.933-0.473,1.752-0.473H202.062z"/>
	<path d="M209.98,31.423v0.963c0.553-0.542,1.055-0.916,1.502-1.121c0.449-0.204,0.966-0.307,1.553-0.307
		c0.498,0,0.99,0.122,1.478,0.365s0.963,0.608,1.428,1.096c0.587-0.487,1.181-0.85,1.784-1.088c0.604-0.237,1.221-0.356,1.852-0.356
		c1.262,0,2.285,0.338,3.071,1.013c1.04,0.886,1.561,2.048,1.561,3.486v7.62c0.708,0,1.233,0.16,1.577,0.481
		c0.343,0.321,0.515,0.73,0.515,1.229s-0.172,0.904-0.515,1.221c-0.344,0.314-0.924,0.473-1.743,0.473h-3.237V35.756
		c0-0.521-0.094-0.88-0.282-1.079s-0.476-0.299-0.863-0.299c-0.376,0-0.726,0.1-1.046,0.299c-0.41,0.276-0.908,0.797-1.494,1.561
		v6.856c0.708,0,1.234,0.16,1.577,0.481s0.515,0.73,0.515,1.229s-0.172,0.904-0.515,1.221c-0.343,0.314-0.925,0.473-1.743,0.473
		h-3.237V35.756c0-0.509-0.097-0.866-0.29-1.071c-0.194-0.204-0.484-0.307-0.872-0.307c-0.398,0-0.792,0.125-1.179,0.373
		c-0.388,0.25-0.853,0.745-1.395,1.486v6.856c0.708,0,1.236,0.16,1.586,0.481c0.348,0.321,0.522,0.73,0.522,1.229
		s-0.175,0.904-0.522,1.221c-0.35,0.314-0.934,0.473-1.752,0.473h-3.071c-0.819,0-1.403-0.158-1.751-0.473
		c-0.35-0.316-0.523-0.729-0.523-1.237c0-0.498,0.172-0.905,0.515-1.22c0.343-0.316,0.874-0.474,1.594-0.474v-8.268
		c-0.72,0-1.251-0.16-1.594-0.481s-0.515-0.73-0.515-1.229s0.174-0.904,0.523-1.221c0.348-0.314,0.932-0.473,1.751-0.473H209.98z"/>
	<path d="M244.18,40.687h-13.962c0.354,0.886,0.981,1.6,1.884,2.142s2.123,0.813,3.661,0.813c1.262,0,2.938-0.271,5.03-0.813
		c0.863-0.222,1.461-0.332,1.793-0.332c0.453,0,0.836,0.16,1.146,0.481s0.465,0.725,0.465,1.212c0,0.442-0.166,0.819-0.498,1.129
		c-0.442,0.409-1.522,0.8-3.237,1.171c-1.716,0.37-3.365,0.556-4.947,0.556c-2.723,0-4.9-0.77-6.533-2.308s-2.448-3.431-2.448-5.678
		c0-2.391,0.882-4.336,2.647-5.836c1.766-1.499,3.799-2.249,6.102-2.249c1.383,0,2.653,0.243,3.811,0.73
		c1.156,0.487,2.017,1.013,2.581,1.577c0.797,0.819,1.455,1.832,1.976,3.038c0.354,0.841,0.531,1.815,0.531,2.922V40.687z
		 M240.411,37.284c-0.521-0.974-1.201-1.702-2.042-2.183c-0.842-0.482-1.843-0.723-3.005-0.723c-1.151,0-2.147,0.24-2.988,0.723
		c-0.841,0.48-1.527,1.209-2.059,2.183H240.411z"/>
	<path d="M252.597,31.423v1.146c0.62-0.531,1.304-0.93,2.05-1.195c0.748-0.266,1.559-0.398,2.433-0.398
		c2.015,0,3.608,0.625,4.781,1.876c0.93,0.996,1.395,2.302,1.395,3.918v6.325c0.72,0,1.251,0.157,1.594,0.474
		c0.343,0.314,0.515,0.728,0.515,1.236c0,0.498-0.174,0.904-0.523,1.221c-0.348,0.314-0.932,0.473-1.751,0.473h-3.071
		c-0.819,0-1.402-0.158-1.752-0.473c-0.348-0.316-0.522-0.729-0.522-1.237c0-0.498,0.171-0.905,0.515-1.22
		c0.343-0.316,0.874-0.474,1.594-0.474v-6.425c0-0.741-0.199-1.284-0.598-1.627c-0.521-0.442-1.301-0.664-2.341-0.664
		c-0.786,0-1.476,0.152-2.067,0.457c-0.592,0.304-1.342,0.948-2.249,1.934v6.325c0.874,0,1.438,0.083,1.693,0.249
		c0.542,0.332,0.813,0.819,0.813,1.461c0,0.498-0.174,0.904-0.523,1.221c-0.348,0.314-0.932,0.473-1.751,0.473h-3.868
		c-0.819,0-1.402-0.158-1.752-0.473c-0.348-0.316-0.522-0.729-0.522-1.237c0-0.62,0.266-1.102,0.797-1.444
		c0.266-0.166,0.835-0.249,1.71-0.249v-8.268c-0.72,0-1.251-0.16-1.594-0.481c-0.344-0.321-0.515-0.73-0.515-1.229
		s0.175-0.904,0.522-1.221c0.35-0.314,0.933-0.473,1.752-0.473H252.597z"/>
	<path d="M275.606,34.827v6.823c0,0.73,0.149,1.212,0.448,1.444c0.465,0.365,1.295,0.548,2.49,0.548
		c1.737,0,3.342-0.371,4.814-1.112c0.564-0.288,1.007-0.432,1.328-0.432c0.442,0,0.827,0.166,1.154,0.498
		c0.326,0.332,0.489,0.736,0.489,1.212c0,0.442-0.177,0.824-0.531,1.146c-0.542,0.521-1.613,0.999-3.212,1.437
		c-1.6,0.437-2.947,0.655-4.043,0.655c-2.114,0-3.699-0.456-4.756-1.37c-1.058-0.912-1.586-2.033-1.586-3.361v-7.487h-1.229
		c-0.819,0-1.402-0.157-1.752-0.474c-0.348-0.314-0.522-0.728-0.522-1.236c0-0.498,0.175-0.904,0.522-1.221
		c0.35-0.314,0.933-0.473,1.752-0.473h1.229v-3.071c0-0.819,0.158-1.403,0.473-1.751c0.316-0.35,0.729-0.523,1.237-0.523
		c0.498,0,0.905,0.174,1.22,0.523c0.316,0.348,0.474,0.932,0.474,1.751v3.071h6.292c0.818,0,1.402,0.158,1.752,0.473
		c0.348,0.316,0.522,0.729,0.522,1.237c0,0.498-0.175,0.905-0.522,1.22c-0.35,0.316-0.934,0.474-1.752,0.474H275.606z"/>
</g>
</svg>
