<?xml version="1.0" encoding="utf-8"?>
<!-- Generator: Adobe Illustrator 16.0.3, SVG Export Plug-In . SVG Version: 6.00 Build 0)  -->
<!DOCTYPE svg PUBLIC "-//W3C//DTD SVG 1.1//EN" "http://www.w3.org/Graphics/SVG/1.1/DTD/svg11.dtd">
<svg version="1.1" id="Layer_1" xmlns="http://www.w3.org/2000/svg" xmlns:xlink="http://www.w3.org/1999/xlink" x="0px" y="0px"
	 width="310px" height="85.167px" viewBox="0 0 310 85.167" enable-background="new 0 0 310 85.167" xml:space="preserve">
<g enable-background="new    ">
	<path d="M8.778,41.534l4.931-11.754h-0.78c-0.819,0-1.403-0.157-1.751-0.474c-0.349-0.314-0.523-0.728-0.523-1.236
		s0.174-0.922,0.523-1.236c0.349-0.316,0.932-0.474,1.751-0.474l4.565,0.017c0.819,0,1.403,0.155,1.751,0.465
		s0.523,0.72,0.523,1.229c0,0.608-0.266,1.09-0.797,1.444c-0.255,0.177-0.775,0.266-1.561,0.266l-6.989,16.718H7.151L0.178,29.78
		c-0.797,0-1.323-0.089-1.577-0.266c-0.531-0.343-0.797-0.824-0.797-1.444c0-0.509,0.174-0.922,0.523-1.236
		c0.349-0.316,0.932-0.474,1.751-0.474l4.599,0.017c0.808,0,1.386,0.155,1.735,0.465s0.523,0.72,0.523,1.229
		s-0.172,0.922-0.515,1.236c-0.343,0.316-0.924,0.474-1.743,0.474H3.88L8.778,41.534z"/>
	<path d="M37.731,40.687H23.769c0.354,0.886,0.982,1.6,1.884,2.142c0.902,0.542,2.122,0.813,3.661,0.813
		c1.262,0,2.938-0.271,5.03-0.813c0.863-0.222,1.461-0.332,1.793-0.332c0.454,0,0.835,0.16,1.146,0.481
		c0.31,0.321,0.465,0.725,0.465,1.212c0,0.442-0.166,0.819-0.498,1.129c-0.443,0.409-1.522,0.8-3.237,1.171
		c-1.716,0.37-3.365,0.556-4.947,0.556c-2.723,0-4.9-0.77-6.533-2.308c-1.633-1.538-2.449-3.431-2.449-5.678
		c0-2.391,0.882-4.336,2.648-5.836c1.765-1.499,3.799-2.249,6.101-2.249c1.383,0,2.653,0.243,3.81,0.73
		c1.156,0.487,2.017,1.013,2.582,1.577c0.797,0.819,1.455,1.832,1.976,3.038c0.354,0.841,0.531,1.815,0.531,2.922V40.687z
		 M33.962,37.284c-0.521-0.974-1.201-1.702-2.042-2.183c-0.841-0.482-1.843-0.723-3.005-0.723c-1.151,0-2.147,0.24-2.988,0.723
		c-0.841,0.48-1.527,1.209-2.059,2.183H33.962z"/>
	<path d="M53.336,32.436v-1.013h3.984c0.819,0,1.403,0.158,1.751,0.473c0.349,0.316,0.523,0.729,0.523,1.237
		c0,0.498-0.174,0.905-0.523,1.22c-0.349,0.316-0.933,0.474-1.751,0.474H56.74v12.385c0,1.195-0.252,2.238-0.755,3.13
		c-0.504,0.891-1.276,1.657-2.316,2.299c-1.041,0.642-2.214,0.963-3.52,0.963h-3.852c-0.819,0-1.403-0.158-1.751-0.473
		c-0.349-0.316-0.523-0.723-0.523-1.221c0-0.509,0.174-0.922,0.523-1.236c0.349-0.316,0.932-0.474,1.751-0.474h3.752
		c1.04,0,1.848-0.282,2.424-0.847c0.575-0.564,0.863-1.278,0.863-2.142v-1.66c-0.753,0.487-1.519,0.853-2.299,1.096
		s-1.58,0.365-2.399,0.365c-2.313,0-4.25-0.772-5.811-2.315c-1.561-1.545-2.341-3.451-2.341-5.72c0-2.28,0.78-4.192,2.341-5.735
		c1.561-1.545,3.497-2.316,5.811-2.316c0.863,0,1.685,0.125,2.465,0.373C51.884,31.548,52.628,31.927,53.336,32.436z M53.32,38.96
		c0-1.251-0.462-2.335-1.386-3.254c-0.924-0.919-2.034-1.378-3.329-1.378s-2.405,0.459-3.329,1.378
		c-0.924,0.919-1.386,2.003-1.386,3.254c0,1.262,0.462,2.35,1.386,3.262c0.924,0.914,2.034,1.37,3.329,1.37s2.404-0.456,3.329-1.37
		C52.857,41.31,53.32,40.222,53.32,38.96z"/>
	<path d="M77.126,38.396H62.916v-3.104h14.211V38.396z"/>
	<path d="M92.632,36.238l5.678,6.856c0.675,0.011,1.181,0.175,1.519,0.489c0.337,0.316,0.506,0.723,0.506,1.221
		s-0.174,0.904-0.523,1.221c-0.349,0.314-0.933,0.473-1.751,0.473h-3.835c-0.808,0-1.386-0.158-1.735-0.473
		c-0.349-0.316-0.523-0.729-0.523-1.237c0-0.476,0.16-0.872,0.481-1.187c0.321-0.316,0.802-0.484,1.444-0.507l-3.42-4.217
		l-3.453,4.217c0.631,0.022,1.106,0.193,1.428,0.515c0.321,0.321,0.481,0.72,0.481,1.195c0,0.498-0.174,0.904-0.523,1.221
		c-0.349,0.314-0.933,0.473-1.751,0.473h-3.818c-0.819,0-1.403-0.158-1.751-0.473c-0.349-0.316-0.523-0.729-0.523-1.237
		c0-0.487,0.171-0.891,0.515-1.212c0.343-0.321,0.847-0.481,1.511-0.481l5.645-6.89l-5.379-6.425
		c-0.664-0.022-1.16-0.19-1.486-0.507c-0.327-0.314-0.49-0.716-0.49-1.203c0-0.509,0.174-0.922,0.523-1.236
		c0.349-0.316,0.932-0.474,1.751-0.474l3.138,0.017c0.819,0,1.403,0.155,1.751,0.465s0.523,0.72,0.523,1.229
		c0,0.376-0.111,0.72-0.332,1.029c-0.144,0.188-0.465,0.415-0.963,0.681l3.171,3.802l3.104-3.802
		c-0.498-0.266-0.819-0.492-0.963-0.681c-0.222-0.31-0.332-0.653-0.332-1.029c0-0.498,0.174-0.907,0.523-1.229
		s0.932-0.481,1.751-0.481l3.121,0.017c0.819,0,1.403,0.155,1.751,0.465s0.523,0.72,0.523,1.229c0,0.487-0.169,0.891-0.506,1.212
		c-0.338,0.321-0.828,0.487-1.469,0.498L92.632,36.238z"/>
	<path d="M127.711,38.097v4.997h8.683v-1.843c0-0.819,0.158-1.402,0.473-1.752c0.315-0.348,0.728-0.522,1.237-0.522
		c0.498,0,0.905,0.175,1.22,0.522c0.315,0.35,0.473,0.933,0.473,1.752v5.246h-16.021c-0.819,0-1.403-0.158-1.751-0.473
		c-0.349-0.316-0.523-0.729-0.523-1.237c0-0.498,0.177-0.905,0.531-1.22c0.354-0.316,0.935-0.474,1.743-0.474h0.531V29.78h-0.531
		c-0.819,0-1.403-0.157-1.751-0.474c-0.349-0.314-0.523-0.728-0.523-1.236s0.174-0.922,0.523-1.236
		c0.349-0.316,0.932-0.474,1.751-0.474l15.273,0.017v5.18c0,0.808-0.155,1.387-0.465,1.734c-0.31,0.35-0.72,0.523-1.229,0.523
		c-0.509,0-0.921-0.172-1.237-0.515s-0.473-0.924-0.473-1.743V29.78h-7.936v4.914h2.988c0-0.886,0.083-1.455,0.249-1.71
		c0.343-0.542,0.83-0.813,1.461-0.813c0.498,0,0.905,0.175,1.22,0.522c0.315,0.35,0.473,0.933,0.473,1.752v3.918
		c0,0.741-0.089,1.239-0.266,1.494c-0.354,0.521-0.83,0.78-1.428,0.78c-0.631,0-1.118-0.271-1.461-0.813
		c-0.166-0.255-0.249-0.83-0.249-1.727H127.711z"/>
	<path d="M154.158,38.662l5.163,4.433c0.62,0.033,1.085,0.208,1.395,0.522c0.311,0.316,0.465,0.712,0.465,1.188
		c0,0.498-0.174,0.904-0.522,1.221c-0.349,0.314-0.933,0.473-1.751,0.473h-3.869c-0.819,0-1.403-0.158-1.751-0.473
		c-0.349-0.316-0.523-0.733-0.523-1.254c0-0.398,0.125-0.75,0.374-1.055c0.249-0.304,0.589-0.512,1.021-0.622l-2.54-2.191
		l-2.59,2.191c0.52,0.133,0.894,0.338,1.121,0.614c0.227,0.276,0.34,0.631,0.34,1.063c0,0.521-0.172,0.938-0.515,1.254
		c-0.343,0.314-0.924,0.473-1.743,0.473h-3.835c-0.819,0-1.403-0.158-1.751-0.473c-0.349-0.316-0.523-0.729-0.523-1.237
		c0-0.465,0.155-0.854,0.465-1.171c0.31-0.314,0.774-0.489,1.395-0.522l5.047-4.449l-4.466-3.818
		c-0.587-0.044-1.032-0.224-1.336-0.54c-0.305-0.314-0.457-0.705-0.457-1.17c0-0.498,0.174-0.904,0.523-1.221
		c0.349-0.314,0.932-0.473,1.751-0.473h3.188c0.819,0,1.403,0.158,1.751,0.473c0.349,0.316,0.523,0.717,0.523,1.204
		c0,0.653-0.31,1.185-0.93,1.594l2.059,1.71l2.025-1.743c-0.609-0.432-0.913-0.93-0.913-1.494c0-0.531,0.174-0.954,0.523-1.271
		c0.349-0.314,0.932-0.473,1.751-0.473h3.155c0.818,0,1.402,0.158,1.751,0.473c0.349,0.316,0.522,0.729,0.522,1.237
		c0,0.454-0.152,0.839-0.456,1.153c-0.305,0.316-0.755,0.496-1.353,0.54L154.158,38.662z"/>
	<path d="M167.787,44.622V50.2h2.043c0.818,0,1.402,0.157,1.751,0.474c0.349,0.314,0.522,0.728,0.522,1.236
		c0,0.498-0.174,0.904-0.522,1.221c-0.349,0.314-0.933,0.473-1.751,0.473h-6.027c-0.818,0-1.402-0.158-1.751-0.473
		c-0.349-0.316-0.522-0.723-0.522-1.221c0-0.509,0.177-0.922,0.531-1.236c0.354-0.316,0.935-0.474,1.742-0.474h0.582V34.827h-0.582
		c-0.818,0-1.402-0.157-1.751-0.474c-0.349-0.314-0.522-0.728-0.522-1.236c0-0.498,0.174-0.904,0.522-1.221
		c0.349-0.314,0.933-0.473,1.751-0.473h3.984v1.162c0.797-0.542,1.621-0.946,2.475-1.212c0.852-0.266,1.727-0.398,2.623-0.398
		c2.324,0,4.305,0.788,5.943,2.366c1.637,1.576,2.457,3.384,2.457,5.42c0,2.247-0.969,4.101-2.906,5.562
		c-1.615,1.218-3.436,1.826-5.461,1.826c-0.875,0-1.738-0.127-2.59-0.382C169.475,45.512,168.629,45.13,167.787,44.622z
		 M177.881,38.778c0-0.476-0.188-1.082-0.564-1.817c-0.376-0.736-0.954-1.351-1.734-1.844c-0.78-0.492-1.696-0.738-2.748-0.738
		c-1.693,0-3.037,0.637-4.033,1.909c-0.676,0.874-1.014,1.716-1.014,2.523c0,0.907,0.484,1.79,1.453,2.647
		c0.969,0.858,2.166,1.287,3.594,1.287c1.439,0,2.641-0.426,3.604-1.278S177.881,39.718,177.881,38.778z"/>
	<path d="M201.256,39.243c0,1.306-0.362,2.57-1.087,3.794c-0.726,1.223-1.804,2.196-3.237,2.922c-1.434,0.725-2.93,1.087-4.49,1.087
		c-1.551,0-3.033-0.356-4.449-1.071c-1.418-0.713-2.496-1.685-3.238-2.913c-0.741-1.229-1.111-2.513-1.111-3.852
		c0-1.361,0.375-2.698,1.129-4.009c0.752-1.313,1.834-2.344,3.245-3.097s2.886-1.129,4.425-1.129c1.549,0,3.04,0.385,4.474,1.153
		c1.433,0.77,2.515,1.805,3.245,3.105C200.891,36.534,201.256,37.871,201.256,39.243z M197.854,39.259
		c0-1.096-0.394-2.103-1.18-3.021c-1.073-1.239-2.484-1.859-4.232-1.859c-1.539,0-2.822,0.492-3.852,1.478s-1.545,2.125-1.545,3.42
		c0,1.063,0.521,2.056,1.561,2.979c1.041,0.925,2.318,1.387,3.836,1.387c1.527,0,2.811-0.462,3.852-1.387
		C197.332,41.332,197.854,40.333,197.854,39.259z"/>
	<path d="M212.113,31.423v2.125c1.428-1.029,2.555-1.716,3.379-2.059s1.596-0.515,2.316-0.515c1.105,0,2.18,0.409,3.221,1.229
		c0.707,0.554,1.063,1.118,1.063,1.693c0,0.487-0.17,0.899-0.507,1.237c-0.338,0.337-0.745,0.506-1.22,0.506
		c-0.422,0-0.863-0.21-1.328-0.631s-0.881-0.631-1.246-0.631c-0.476,0-1.187,0.299-2.133,0.896s-2.128,1.494-3.545,2.689v5.13h4.848
		c0.819,0,1.403,0.157,1.752,0.474c0.349,0.314,0.523,0.728,0.523,1.236c0,0.498-0.175,0.904-0.523,1.221
		c-0.349,0.314-0.933,0.473-1.752,0.473h-10.275c-0.82,0-1.403-0.158-1.752-0.473c-0.349-0.316-0.523-0.729-0.523-1.237
		c0-0.498,0.175-0.905,0.523-1.22c0.349-0.316,0.932-0.474,1.752-0.474h2.025v-8.268h-1.229c-0.82,0-1.403-0.157-1.752-0.474
		c-0.349-0.314-0.523-0.728-0.523-1.236c0-0.498,0.175-0.904,0.523-1.221c0.349-0.314,0.932-0.473,1.752-0.473H212.113z"/>
	<path d="M232.385,34.827v6.823c0,0.73,0.148,1.212,0.447,1.444c0.465,0.365,1.295,0.548,2.49,0.548
		c1.738,0,3.343-0.371,4.814-1.112c0.564-0.288,1.008-0.432,1.328-0.432c0.443,0,0.828,0.166,1.154,0.498s0.49,0.736,0.49,1.212
		c0,0.442-0.178,0.824-0.531,1.146c-0.543,0.521-1.613,0.999-3.213,1.437c-1.6,0.437-2.947,0.655-4.043,0.655
		c-2.113,0-3.699-0.456-4.756-1.37c-1.057-0.912-1.586-2.033-1.586-3.361v-7.487h-1.229c-0.818,0-1.402-0.157-1.751-0.474
		c-0.349-0.314-0.522-0.728-0.522-1.236c0-0.498,0.174-0.904,0.522-1.221c0.349-0.314,0.933-0.473,1.751-0.473h1.229v-3.071
		c0-0.819,0.158-1.403,0.474-1.751c0.315-0.35,0.728-0.523,1.237-0.523c0.498,0,0.904,0.174,1.22,0.523
		c0.315,0.348,0.474,0.932,0.474,1.751v3.071h6.291c0.819,0,1.403,0.158,1.752,0.473c0.349,0.316,0.523,0.729,0.523,1.237
		c0,0.498-0.175,0.905-0.523,1.22c-0.349,0.316-0.933,0.474-1.752,0.474H232.385z"/>
</g>
</svg>
