<?xml version="1.0" encoding="utf-8"?>
<!-- Generator: Adobe Illustrator 16.0.3, SVG Export Plug-In . SVG Version: 6.00 Build 0)  -->
<!DOCTYPE svg PUBLIC "-//W3C//DTD SVG 1.1//EN" "http://www.w3.org/Graphics/SVG/1.1/DTD/svg11.dtd">
<svg version="1.1" id="Layer_1" xmlns="http://www.w3.org/2000/svg" xmlns:xlink="http://www.w3.org/1999/xlink" x="0px" y="0px"
	 width="310px" height="85.167px" viewBox="0 0 310 85.167" enable-background="new 0 0 310 85.167" xml:space="preserve">
<g>
	<path d="M11.193,41.536l4.931-11.754h-0.78c-0.819,0-1.403-0.158-1.751-0.473s-0.523-0.728-0.523-1.237
		c0-0.509,0.174-0.921,0.523-1.237s0.932-0.473,1.751-0.473l4.565,0.017c0.819,0,1.403,0.155,1.751,0.465
		c0.349,0.31,0.523,0.72,0.523,1.229c0,0.609-0.266,1.09-0.797,1.444c-0.255,0.177-0.775,0.266-1.561,0.266L12.837,46.5H9.566
		L2.594,29.782c-0.797,0-1.323-0.088-1.577-0.266c-0.531-0.343-0.797-0.824-0.797-1.444c0-0.509,0.174-0.921,0.523-1.237
		s0.932-0.473,1.751-0.473l4.599,0.017c0.808,0,1.386,0.155,1.735,0.465c0.349,0.31,0.523,0.72,0.523,1.229
		c0,0.509-0.172,0.921-0.515,1.237c-0.343,0.315-0.924,0.473-1.743,0.473H6.296L11.193,41.536z"/>
	<path d="M40.146,40.689H26.185c0.354,0.886,0.982,1.6,1.884,2.142c0.902,0.542,2.122,0.813,3.661,0.813
		c1.262,0,2.938-0.271,5.03-0.813c0.863-0.221,1.461-0.332,1.793-0.332c0.454,0,0.835,0.161,1.146,0.481
		c0.31,0.321,0.465,0.725,0.465,1.212c0,0.443-0.166,0.819-0.498,1.129c-0.443,0.41-1.522,0.8-3.237,1.17
		c-1.716,0.371-3.365,0.556-4.947,0.556c-2.723,0-4.9-0.769-6.533-2.308c-1.633-1.538-2.449-3.431-2.449-5.678
		c0-2.391,0.882-4.335,2.648-5.835c1.765-1.5,3.799-2.25,6.101-2.25c1.383,0,2.653,0.244,3.81,0.73
		c1.156,0.487,2.017,1.013,2.582,1.577c0.797,0.819,1.455,1.832,1.976,3.038c0.354,0.841,0.531,1.815,0.531,2.922V40.689z
		 M36.378,37.286c-0.521-0.974-1.201-1.702-2.042-2.183c-0.841-0.481-1.843-0.722-3.005-0.722c-1.151,0-2.147,0.241-2.988,0.722
		c-0.841,0.481-1.527,1.209-2.059,2.183H36.378z"/>
	<path d="M55.752,32.438v-1.013h3.984c0.819,0,1.403,0.158,1.751,0.473s0.523,0.728,0.523,1.237c0,0.498-0.174,0.905-0.523,1.22
		s-0.933,0.473-1.751,0.473h-0.581v12.385c0,1.195-0.252,2.238-0.755,3.129c-0.504,0.891-1.276,1.657-2.316,2.299
		c-1.041,0.642-2.214,0.963-3.52,0.963h-3.852c-0.819,0-1.403-0.158-1.751-0.473s-0.523-0.722-0.523-1.22
		c0-0.509,0.174-0.921,0.523-1.237s0.932-0.473,1.751-0.473h3.752c1.04,0,1.848-0.282,2.424-0.847
		c0.575-0.564,0.863-1.278,0.863-2.142v-1.66c-0.753,0.487-1.519,0.853-2.299,1.096s-1.58,0.365-2.399,0.365
		c-2.313,0-4.25-0.772-5.811-2.316s-2.341-3.45-2.341-5.719c0-2.28,0.78-4.192,2.341-5.736s3.497-2.316,5.811-2.316
		c0.863,0,1.685,0.125,2.465,0.374S55.043,31.93,55.752,32.438z M55.735,38.963c0-1.25-0.462-2.335-1.386-3.254
		c-0.924-0.918-2.034-1.378-3.329-1.378s-2.405,0.459-3.329,1.378c-0.924,0.919-1.386,2.003-1.386,3.254
		c0,1.262,0.462,2.349,1.386,3.262c0.924,0.913,2.034,1.37,3.329,1.37s2.404-0.457,3.329-1.37
		C55.273,41.312,55.735,40.225,55.735,38.963z"/>
	<path d="M74.645,36.24l5.678,6.856c0.675,0.011,1.181,0.174,1.519,0.49c0.337,0.315,0.506,0.722,0.506,1.22
		s-0.174,0.905-0.523,1.22S80.892,46.5,80.073,46.5h-3.835c-0.808,0-1.386-0.158-1.735-0.473s-0.523-0.728-0.523-1.237
		c0-0.476,0.16-0.872,0.481-1.187c0.321-0.315,0.802-0.484,1.444-0.506l-3.42-4.217l-3.453,4.217
		c0.631,0.022,1.106,0.194,1.428,0.515c0.321,0.321,0.481,0.72,0.481,1.195c0,0.498-0.174,0.905-0.523,1.22S69.487,46.5,68.668,46.5
		H64.85c-0.819,0-1.403-0.158-1.751-0.473s-0.523-0.728-0.523-1.237c0-0.487,0.171-0.891,0.515-1.212
		c0.343-0.321,0.847-0.481,1.511-0.481l5.645-6.89l-5.379-6.425c-0.664-0.022-1.16-0.191-1.486-0.506
		c-0.327-0.315-0.49-0.716-0.49-1.204c0-0.509,0.174-0.921,0.523-1.237s0.932-0.473,1.751-0.473l3.138,0.017
		c0.819,0,1.403,0.155,1.751,0.465c0.349,0.31,0.523,0.72,0.523,1.229c0,0.376-0.111,0.72-0.332,1.029
		c-0.144,0.188-0.465,0.415-0.963,0.681l3.171,3.802l3.104-3.802c-0.498-0.266-0.819-0.492-0.963-0.681
		c-0.222-0.31-0.332-0.653-0.332-1.029c0-0.498,0.174-0.907,0.523-1.229c0.349-0.321,0.932-0.481,1.751-0.481l3.121,0.017
		c0.819,0,1.403,0.155,1.751,0.465c0.349,0.31,0.523,0.72,0.523,1.229c0,0.487-0.169,0.891-0.506,1.212
		c-0.338,0.321-0.828,0.487-1.469,0.498L74.645,36.24z"/>
	<path d="M96.492,35.41c-0.554-0.343-1.135-0.6-1.743-0.772c-0.609-0.171-1.245-0.257-1.909-0.257c-1.317,0-2.363,0.216-3.138,0.647
		c-0.343,0.188-0.515,0.393-0.515,0.614c0,0.255,0.232,0.504,0.697,0.747c0.354,0.177,1.146,0.349,2.374,0.515
		c2.258,0.31,3.829,0.62,4.715,0.93c1.162,0.41,2.059,1.019,2.689,1.826c0.631,0.808,0.946,1.66,0.946,2.557
		c0,1.218-0.537,2.236-1.61,3.055c-1.539,1.185-3.536,1.776-5.993,1.776c-0.985,0-1.896-0.086-2.731-0.257
		c-0.836-0.172-1.602-0.423-2.299-0.755c-0.166,0.144-0.343,0.255-0.531,0.332c-0.188,0.078-0.382,0.116-0.581,0.116
		c-0.531,0-0.955-0.174-1.27-0.523s-0.473-0.932-0.473-1.751v-1.146c0-0.819,0.158-1.403,0.473-1.751s0.728-0.523,1.237-0.523
		c0.409,0,0.752,0.114,1.029,0.34c0.276,0.227,0.492,0.617,0.647,1.17c0.52,0.443,1.146,0.778,1.876,1.004
		c0.73,0.227,1.571,0.34,2.523,0.34c1.561,0,2.772-0.243,3.636-0.73c0.409-0.243,0.614-0.498,0.614-0.764
		c0-0.442-0.293-0.808-0.88-1.096c-0.587-0.288-1.799-0.531-3.636-0.73c-2.734-0.288-4.56-0.841-5.479-1.66
		c-0.919-0.808-1.378-1.804-1.378-2.988c0-1.217,0.515-2.23,1.544-3.038c1.395-1.106,3.221-1.66,5.479-1.66
		c0.786,0,1.541,0.075,2.266,0.224c0.725,0.149,1.419,0.379,2.083,0.689c0.21-0.155,0.407-0.271,0.589-0.349
		c0.183-0.077,0.351-0.116,0.506-0.116c0.465,0,0.852,0.174,1.162,0.523c0.31,0.349,0.465,0.933,0.465,1.751v0.83
		c0,0.742-0.089,1.245-0.266,1.511c-0.354,0.509-0.836,0.764-1.444,0.764c-0.41,0-0.77-0.127-1.079-0.382
		C96.78,36.168,96.581,35.831,96.492,35.41z"/>
	<path d="M109.707,24.968v7.255c0.708-0.42,1.425-0.733,2.15-0.938c0.725-0.205,1.458-0.307,2.2-0.307
		c1.173,0,2.219,0.199,3.138,0.598c0.918,0.398,1.679,1.027,2.283,1.884c0.603,0.858,0.905,1.94,0.905,3.246v6.392
		c0.863,0,1.428,0.083,1.693,0.249c0.531,0.343,0.797,0.83,0.797,1.461c0,0.498-0.172,0.905-0.515,1.22
		c-0.343,0.315-0.924,0.473-1.743,0.473h-3.885c-0.808,0-1.386-0.158-1.735-0.473s-0.523-0.728-0.523-1.237
		c0-0.62,0.266-1.101,0.797-1.444c0.276-0.177,0.841-0.26,1.693-0.249v-6.159c0-0.874-0.199-1.488-0.598-1.843
		c-0.521-0.476-1.29-0.714-2.308-0.714c-0.753,0-1.419,0.147-2,0.44c-0.581,0.293-1.364,0.927-2.349,1.901v6.375
		c0.874,0,1.438,0.083,1.693,0.249c0.542,0.343,0.813,0.83,0.813,1.461c0,0.498-0.174,0.905-0.523,1.22s-0.933,0.473-1.751,0.473
		h-3.868c-0.819,0-1.403-0.158-1.751-0.473s-0.523-0.728-0.523-1.237c0-0.62,0.271-1.101,0.813-1.444
		c0.266-0.177,0.83-0.26,1.693-0.249V28.371h-0.581c-0.819,0-1.403-0.158-1.751-0.473s-0.523-0.728-0.523-1.237
		c0-0.498,0.174-0.905,0.523-1.22s0.932-0.473,1.751-0.473H109.707z"/>
	<path d="M135.307,31.426v11.671h4.084c0.819,0,1.403,0.158,1.751,0.473s0.523,0.728,0.523,1.237c0,0.498-0.174,0.905-0.523,1.22
		s-0.933,0.473-1.751,0.473h-11.571c-0.819,0-1.403-0.158-1.751-0.473s-0.523-0.728-0.523-1.237c0-0.498,0.174-0.905,0.523-1.22
		s0.932-0.473,1.751-0.473h4.084v-8.268h-2.739c-0.808,0-1.389-0.158-1.743-0.473c-0.354-0.315-0.531-0.728-0.531-1.237
		c0-0.498,0.174-0.905,0.523-1.22s0.932-0.473,1.751-0.473H135.307z M134.842,24.968v3.603h-4.051v-3.603H134.842z"/>
	<path d="M150.58,31.426v1.146c0.62-0.531,1.303-0.93,2.05-1.195s1.558-0.398,2.432-0.398c2.014,0,3.608,0.625,4.781,1.876
		c0.93,0.996,1.395,2.302,1.395,3.918v6.325c0.72,0,1.251,0.158,1.594,0.473s0.515,0.728,0.515,1.237
		c0,0.498-0.174,0.905-0.523,1.22c-0.348,0.315-0.932,0.473-1.751,0.473h-3.071c-0.819,0-1.403-0.158-1.751-0.473
		s-0.523-0.728-0.523-1.237c0-0.498,0.171-0.905,0.515-1.22c0.343-0.315,0.874-0.473,1.594-0.473v-6.425
		c0-0.741-0.199-1.284-0.598-1.627c-0.521-0.442-1.301-0.664-2.341-0.664c-0.786,0-1.475,0.152-2.067,0.457
		c-0.592,0.305-1.342,0.949-2.25,1.934v6.325c0.874,0,1.438,0.083,1.693,0.249c0.542,0.332,0.813,0.819,0.813,1.461
		c0,0.498-0.174,0.905-0.523,1.22s-0.933,0.473-1.751,0.473h-3.868c-0.819,0-1.403-0.158-1.751-0.473s-0.523-0.728-0.523-1.237
		c0-0.62,0.266-1.101,0.797-1.444c0.266-0.166,0.835-0.249,1.71-0.249v-8.268c-0.72,0-1.251-0.16-1.594-0.481
		c-0.343-0.321-0.515-0.73-0.515-1.229s0.174-0.905,0.523-1.22s0.932-0.473,1.751-0.473H150.58z"/>
	<path d="M172.527,46.384l-5.894-11.555c-0.554-0.066-0.974-0.254-1.262-0.564c-0.288-0.31-0.432-0.686-0.432-1.129
		c0-0.509,0.175-0.921,0.522-1.237c0.35-0.315,0.933-0.473,1.752-0.473h3.104c0.819,0,1.403,0.158,1.751,0.473
		c0.35,0.315,0.523,0.728,0.523,1.237c0,0.498-0.174,0.905-0.523,1.22c-0.348,0.315-0.898,0.473-1.651,0.473l4.018,7.819
		l3.984-7.819c-0.73,0-1.271-0.158-1.618-0.473c-0.35-0.315-0.523-0.728-0.523-1.237c0-0.498,0.174-0.905,0.523-1.22
		c0.348-0.315,0.932-0.473,1.751-0.473h3.204c0.808,0,1.387,0.158,1.734,0.473c0.35,0.315,0.523,0.728,0.523,1.237
		c0,0.454-0.149,0.838-0.448,1.154s-0.741,0.496-1.328,0.54l-7.803,15.373c0.853,0,1.411,0.083,1.677,0.249
		c0.531,0.343,0.797,0.83,0.797,1.461c0,0.498-0.174,0.905-0.523,1.22c-0.348,0.315-0.932,0.473-1.751,0.473h-7.421
		c-0.819,0-1.402-0.158-1.752-0.473c-0.348-0.315-0.522-0.722-0.522-1.22c0-0.509,0.175-0.921,0.522-1.237
		c0.35-0.315,0.933-0.473,1.752-0.473h3.387L172.527,46.384z"/>
</g>
</svg>
